<svg xmlns="http://www.w3.org/2000/svg" width="177.839" height="179.294" viewBox="0 0 177.839 179.294">
  <defs>
    <style>
      .a {
        fill: #fff;
      }
    </style>
  </defs>
  <path d="M59.725,155.8c-.214-.031-.36-.139-.34-.371a.254.254,0,0,1,.3-.258.4.4,0,0,1,.358.385C60.052,155.74,59.891,155.791,59.725,155.8Z" transform="translate(-37.302 -155.166)"/>
  <path d="M37.644,194.049c-.214-.031-.36-.139-.34-.371a.255.255,0,0,1,.246-.262.327.327,0,0,1,.054,0,.4.4,0,0,1,.358.385C37.971,193.99,37.81,194.041,37.644,194.049Z" transform="translate(-37.302 -155.166)"/>
  <g>
    <path d="M209,279.314c-.01,0-.01.01-.02.01v-.02A.035.035,0,0,0,209,279.314Z" transform="translate(-37.302 -155.166)"/>
    <path d="M196,286.274c0,.01.01.02.01.03a.169.169,0,0,0-.09.05c.02-.02.05-.04.07-.06C195.993,286.284,196,286.284,196,286.274Z" transform="translate(-37.302 -155.166)"/>
    <path d="M195.823,286.424a.368.368,0,0,0-.07.1c0-.01-.01-.02-.01-.03A.535.535,0,0,1,195.823,286.424Z" transform="translate(-37.302 -155.166)"/>
    <path d="M186.563,298.314v.03c-.01-.01-.01-.02-.02-.03Z" transform="translate(-37.302 -155.166)"/>
    <path d="M129.134,330.7v.04l-.02-.02Z" transform="translate(-37.302 -155.166)"/>
    <path class="a" d="M161.793,315.024a5.546,5.546,0,0,0-1.68.67c-.2.1-.41.11-.38-.23.01-.09-.03-.14-.11-.11a.388.388,0,0,0-.16.12,2.844,2.844,0,0,1-1.68,1.02c-.87.25-1.71.59-2.61.77a3.925,3.925,0,0,0-1.49.59,6.884,6.884,0,0,1-.72.37,1.221,1.221,0,0,1-1.16.03.977.977,0,0,0-1.13-.02.339.339,0,0,1-.38-.05.17.17,0,0,0-.24-.028l-.02.018c-.42.45-1.01.29-1.51.35-.77.09-1.55.04-2.32.07a1.759,1.759,0,0,0-1.9,1.31,1.2,1.2,0,0,1-1.16.82c-.6.07-1.2.12-1.81.14a1.517,1.517,0,0,0-1.03.3,1.442,1.442,0,0,1-.85.26c-1.21.13-2.4.3-3.6.44a7.694,7.694,0,0,1-2.2.11.751.751,0,0,0-.29.03c-.44.08-.44.08-.62-.42-.03,0-.08,0-.09.02-.15.18-.25.42-.43.54-.26.17-.59.06-.89.05a8.3,8.3,0,0,0-1.31-.02.709.709,0,0,1-.39-.02c-.35-.24-.67-.48-.95.09-.04.1-.18.04-.28.04-.43.01-.87.01-1.3.06a1.961,1.961,0,0,1-.8-.03,1.241,1.241,0,0,0-1.31.05,8.057,8.057,0,0,1-2.4-.13,2.024,2.024,0,0,0-.98-.08c-.23.04-.41.01-.42-.28-.01-.15-.09-.28-.24-.15a.924.924,0,0,1-.74.22,14.933,14.933,0,0,1-1.51-.07,12.361,12.361,0,0,0-1.91-.2,1.024,1.024,0,0,1-.39-.07,9.573,9.573,0,0,0-2.18-.35,8.309,8.309,0,0,1-2.57-.41.752.752,0,0,0-.29-.08c-1.81-.17-3.6-.42-5.39-.72-.17-.03-.38.01-.5-.08a3.633,3.633,0,0,0-2.11-.49.524.524,0,0,1-.36-.14.8.8,0,0,0-.64-.24c-.1,0-.23-.05-.22-.16.08-.79-.27-.3-.51-.18a.429.429,0,0,1-.29.04,5.964,5.964,0,0,1-2.18-.68,1.468,1.468,0,0,0-.47-.15.348.348,0,0,1-.25-.26,4.658,4.658,0,0,1-1.49.06.53.53,0,0,1-.46-.19,1.437,1.437,0,0,0-1.17-.46c-.25-.02-.5-.03-.64-.23a.726.726,0,0,0-.75-.38.585.585,0,0,1-.45-.18,8.089,8.089,0,0,1-1.45-1.53,4.947,4.947,0,0,0-.81-1.03,8.923,8.923,0,0,1-.9-1.2c-.37-.56-.71-1.14-1.05-1.71-.4-.66-.79-1.33-1.19-1.99a1.583,1.583,0,0,0-.74-.66c-.15-.07-.31-.13-.46-.19a2.06,2.06,0,0,1-1.43-1.52,7.357,7.357,0,0,0-.67-1.46l.02.01a9.223,9.223,0,0,1-.65-4.53c.06-.42.11-.8.57-.97a.5.5,0,0,0,.25-.39H85l-.02-.02c0,.01,0,.01-.01.02-.09.01-.18.03-.27.04-.14.02-.31.02-.32-.15a7.153,7.153,0,0,1,.02-2.21,6.687,6.687,0,0,0,.17-1.08,18.351,18.351,0,0,1,.58-2.86,7.118,7.118,0,0,1,.5-1.74c.1-.21.2-.42.32-.62a3.222,3.222,0,0,0,.7-1.74c-.01-.34.26-.61.41-.9a24.237,24.237,0,0,1,1.9-3.32c.12-.16.22-.38.39-.45.41-.19.42-.48.32-.83a2.723,2.723,0,0,0-.21-.46.29.29,0,0,1,.08-.36,2.21,2.21,0,0,1,.23-.19c.22-.17.49-.33.41-.64-.11-.37-.21-.74-.68-.91a3.811,3.811,0,0,0-2.07-.3,3.663,3.663,0,0,1-2.59-.57,18.383,18.383,0,0,1-2.24-1.36,3.41,3.41,0,0,0-.8-.43c-.47-.18-.91-.44-1.37-.63a8.347,8.347,0,0,1-2.65-1.82c-.17-.16-.35-.3-.54-.45a7.369,7.369,0,0,1-1.93-2.04,4.4,4.4,0,0,0-1.05-1.06,2.728,2.728,0,0,1-.56-.7,9.821,9.821,0,0,1-1.4-3.53,4.539,4.539,0,0,1-.03-3.34c.08-.36.16-.72.26-1.08a5.479,5.479,0,0,1,1.11-2.33,1.466,1.466,0,0,0,.25-.44,12.051,12.051,0,0,1,2.53-3.35c.63-.61,1.28-1.2,1.86-1.84a2.965,2.965,0,0,1,.77-.65,11.23,11.23,0,0,1,2.9-1.38,4.205,4.205,0,0,0,1.05-.37,4.96,4.96,0,0,1,3.9.16c.94.45,1.88.9,2.8,1.39a2.549,2.549,0,0,0,.93.35,1.145,1.145,0,0,1,.46.19c.65.41,1.37.7,1.99,1.17a7.665,7.665,0,0,0,1.39.81c.91.44,1.82.87,2.76,1.24a3.093,3.093,0,0,1,1.49,1.43,2.882,2.882,0,0,0,1.3,1.19,6.858,6.858,0,0,0,2.28.74c.2.03.4-.03.58.12a.313.313,0,0,0,.28.03c.53-.34,1.15-.59,1.35-1.28.1-.32.24-.63.35-.94-.26-.33-.1-.78-.35-1.12a.73.73,0,0,1-.11-.77c.29-.62.25-1.31.48-1.95a13.2,13.2,0,0,1,.74-1.88,4.934,4.934,0,0,0,.33-.84,10.522,10.522,0,0,1,.85-1.83,4.661,4.661,0,0,0,.48-.88,19.652,19.652,0,0,1,1.28-2.39c.6-.49.97-1.18,1.57-1.69a19.732,19.732,0,0,0,2.32-2.08,7.344,7.344,0,0,1,1.33-1.08c1.2-.87,2.31-1.86,3.42-2.83a1.571,1.571,0,0,1,.3-.27,6.42,6.42,0,0,0,1.65-1.6,3.487,3.487,0,0,1,1.33-1.16c.2-.07.34-.31.51-.48s.33-.46.5-.47c.66-.03.89-.63,1.36-.9.23-.13.41-.35.7-.38a.42.42,0,0,0,.27-.12c.35-.48.94-.65,1.36-1.01a12.228,12.228,0,0,1,4.4-2.37,1.772,1.772,0,0,0,.84-.52c.47-.54,1.18-.69,1.75-1.08a4.621,4.621,0,0,1,1.95-.81,6.667,6.667,0,0,0,1.61-.57c2.17-.92,4.34-1.81,6.52-2.71a15.974,15.974,0,0,1,2.27-.84c1.05-.25,1.99-.79,3.06-.98a12.348,12.348,0,0,0,1.62-.57,20.491,20.491,0,0,1,3.95-.75c.66-.09,1.32-.24,1.98-.39a.681.681,0,0,0,.56-.52c.08-.38.36-.42.66-.51a11.505,11.505,0,0,1,3.19-.43,3.7,3.7,0,0,0,1.09-.17,9.386,9.386,0,0,1,2.47-.43c1.35-.08,2.69-.24,4.03-.39a3.671,3.671,0,0,0,.78-.19,12.966,12.966,0,0,1,3.27-.62c.5-.03,1-.12,1.5-.17a15.992,15.992,0,0,1,4.42.29c1.1.18,2.2.31,3.29.5a1.489,1.489,0,0,0,.2.02,10.712,10.712,0,0,1,3.77.58c1.08.3,2.15.59,3.22.88,1.43.38,2.79.97,4.19,1.47.69.26,1.37.55,2.08.78a4.02,4.02,0,0,1,1.32.71,5.135,5.135,0,0,0,1.53.94,2.392,2.392,0,0,1,.75.51,15.756,15.756,0,0,1,1.9,1.94,2.029,2.029,0,0,0,.33.38,3.139,3.139,0,0,1,1.13,1.51,2.413,2.413,0,0,0,.59.8,26.688,26.688,0,0,1,1.95,2.03,3.874,3.874,0,0,1,.77,1.61,4.482,4.482,0,0,0,1.02,1.94,5.429,5.429,0,0,1,1.23,2.7,1.121,1.121,0,0,0,.14.48c.4.58.48,1.32.95,1.87a.39.39,0,0,1,.1.28c-.14.47.14.85.29,1.25a13.074,13.074,0,0,1,.62,4.16,9.8,9.8,0,0,0,.2,1.69,23.323,23.323,0,0,1,.3,2.79.61.61,0,0,1-.11.37,1.427,1.427,0,0,0-.19,1.26,4.418,4.418,0,0,1,.02,1.41c-.01.6-.17,1.19-.17,1.79a6.317,6.317,0,0,1-.21,1.79,9.311,9.311,0,0,0-.2,1.4c-.1.8-.18,1.6-.28,2.4a1.155,1.155,0,0,1-.08.39,5.554,5.554,0,0,0-.59,1.6,1.02,1.02,0,0,1-.58.67c-.19.08-.36.19-.37.43.13-.05.24-.12.37-.16.25-.07.41.05.37.28a2.56,2.56,0,0,1-.13.48,25.9,25.9,0,0,0-.83,2.71c-.26,1.04-.83,1.98-1.04,3.05-.53.67-.61,1.62-1.37,2.15a.485.485,0,0,0-.18.35c-.03.49-.51.69-.66,1.1-.15.39-.07.82-.28,1.17-.5.83-1.01,1.66-1.54,2.48a9.154,9.154,0,0,0-1.15,2.07,12.763,12.763,0,0,1-.75,1.65,1.93,1.93,0,0,1-.33.38,2.276,2.276,0,0,0-.42.56c-.26.7-.89,1.19-1.08,1.93-.01.04-.13.1-.15.08-.26-.17-.36-.04-.4.21-.02.1-.03.19-.06.29a.427.427,0,0,1-.4.39.678.678,0,0,0-.2.03.49.49,0,0,0-.37.31c-.05.17.05.3.11.45h-.01a1.094,1.094,0,0,1-.18.66,28.757,28.757,0,0,1-1.81,2.83,1.872,1.872,0,0,1-.5.48,6.336,6.336,0,0,1-1.11,1.53,3.591,3.591,0,0,0-.33.49,3.028,3.028,0,0,1-.87.95,1.555,1.555,0,0,0-.41.43,1.754,1.754,0,0,1-.59.53,1.685,1.685,0,0,0-.85,1.18,2.329,2.329,0,0,1-.58,1.03,8.141,8.141,0,0,0-1.26,1.42.648.648,0,0,1-.68.29c-.02-.12-.08-.16-.19-.1-.18.12-.18.35-.28.52a3.334,3.334,0,0,1-1.18,1.48,2.246,2.246,0,0,1-1.71.43c-.12-.04-.19.06-.23.15a4.65,4.65,0,0,1-1.55,1.8c-.42.81-1.38,1.02-1.92,1.73a2.264,2.264,0,0,1-1.12.66,14.591,14.591,0,0,0-2.35,1.3,2.085,2.085,0,0,0-.96.83,2.241,2.241,0,0,1-1.14.81,10.42,10.42,0,0,0-1.2.71,6.287,6.287,0,0,0-1.65,1.42,1.468,1.468,0,0,1-.87.49c-.96.21-1.78.79-2.71,1.07a1.884,1.884,0,0,0-.88.64,3.449,3.449,0,0,1-1.33,1.06c-.45.21-.84.55-1.28.78A6.479,6.479,0,0,1,161.793,315.024Z" transform="translate(-37.302 -155.166)"/>
    <path d="M109.223,238.334a.035.035,0,0,1,.01.02l-.02-.01A.009.009,0,0,0,109.223,238.334Z" transform="translate(-37.302 -155.166)"/>
    <polygon points="69.111 85.529 69.111 85.538 69.101 85.538 69.111 85.529"/>
    <path d="M103.923,243.234l.01.03c-.09.04-.19.08-.28.12,0,0-.02-.01-.02-.02C103.734,243.324,103.823,243.284,103.923,243.234Z" transform="translate(-37.302 -155.166)"/>
    <path d="M98.353,326.449c.01,0,.01.01.01.02l-.02-.02Z" transform="translate(-37.302 -155.166)"/>
    <path d="M103.9,243.194l.02.04c-.1.05-.19.09-.29.13,0,.01.02.02.02.02.09-.04.19-.08.28-.12l-.01-.03h.01Zm55.83,72.27c-.03.34.18.33.38.23a5.546,5.546,0,0,1,1.68-.67,6.479,6.479,0,0,0,2.22-.93c.44-.23.83-.57,1.28-.78a3.449,3.449,0,0,0,1.33-1.06,1.884,1.884,0,0,1,.88-.64c.93-.28,1.75-.86,2.71-1.07a1.463,1.463,0,0,0,.87-.49,6.287,6.287,0,0,1,1.65-1.42,10.42,10.42,0,0,1,1.2-.71,2.236,2.236,0,0,0,1.14-.81,2.085,2.085,0,0,1,.96-.83,14.549,14.549,0,0,1,2.35-1.3,2.264,2.264,0,0,0,1.12-.66c.54-.71,1.5-.92,1.92-1.73a4.643,4.643,0,0,0,1.55-1.8c.04-.09.11-.19.23-.15a2.242,2.242,0,0,0,1.71-.43,3.334,3.334,0,0,0,1.18-1.48c.1-.17.1-.4.28-.52.11-.06.17-.02.19.1h-.02c.01.01.01.02.02.03a.887.887,0,0,0-.02.17c0,.01.03.02.05.03a.18.18,0,0,0-.03-.2v-.03a.648.648,0,0,0,.68-.29,8.141,8.141,0,0,1,1.26-1.42,2.329,2.329,0,0,0,.58-1.03,1.687,1.687,0,0,1,.85-1.18,1.744,1.744,0,0,0,.59-.53,1.569,1.569,0,0,1,.41-.43,3.007,3.007,0,0,0,.87-.95,3.591,3.591,0,0,1,.33-.49,6.336,6.336,0,0,0,1.11-1.53,1.887,1.887,0,0,0,.5-.48,28.757,28.757,0,0,0,1.81-2.83,1.094,1.094,0,0,0,.18-.66h.01c0,.01.01.02.01.03a.368.368,0,0,1,.07-.1.69.69,0,0,1,.1-.07.169.169,0,0,1,.09-.05c0-.01-.01-.02-.01-.03a.746.746,0,0,0,.11-.14c.01-.01-.02-.05-.03-.07-.11.05-.09.13-.08.21,0,.01-.01.01-.01.02-.02.02-.05.04-.07.06a.148.148,0,0,0-.1.07.535.535,0,0,0-.08.07c-.06-.15-.16-.28-.11-.45a.49.49,0,0,1,.37-.31.678.678,0,0,1,.2-.03.428.428,0,0,0,.4-.39c.03-.1.04-.19.06-.29.04-.25.14-.38.4-.21.02.02.14-.04.15-.08.19-.74.82-1.23,1.08-1.93a2.276,2.276,0,0,1,.42-.56,1.93,1.93,0,0,0,.33-.38,12.763,12.763,0,0,0,.75-1.65,9.154,9.154,0,0,1,1.15-2.07c.53-.82,1.04-1.65,1.54-2.48.21-.35.13-.78.28-1.17.15-.41.63-.61.66-1.1a.485.485,0,0,1,.18-.35c.76-.53.84-1.48,1.37-2.15.21-1.07.78-2.01,1.04-3.05a25.9,25.9,0,0,1,.83-2.71,2.56,2.56,0,0,0,.13-.48c.04-.23-.12-.35-.37-.28-.13.04-.24.11-.37.16.01-.24.18-.35.37-.43a1.02,1.02,0,0,0,.58-.67,5.554,5.554,0,0,1,.59-1.6,1.155,1.155,0,0,0,.08-.39c.1-.8.18-1.6.28-2.4a9.311,9.311,0,0,1,.2-1.4,6.317,6.317,0,0,0,.21-1.79c0-.6.16-1.19.17-1.79a4.418,4.418,0,0,0-.02-1.41,1.424,1.424,0,0,1,.19-1.26.617.617,0,0,0,.11-.37,23.345,23.345,0,0,0-.3-2.79,9.7,9.7,0,0,1-.2-1.69,13.074,13.074,0,0,0-.62-4.16c-.15-.4-.43-.78-.29-1.25a.39.39,0,0,0-.1-.28c-.47-.55-.55-1.29-.95-1.87a1.121,1.121,0,0,1-.14-.48,5.429,5.429,0,0,0-1.23-2.7,4.482,4.482,0,0,1-1.02-1.94,3.874,3.874,0,0,0-.77-1.61,26.884,26.884,0,0,0-1.95-2.03,2.4,2.4,0,0,1-.59-.8,3.139,3.139,0,0,0-1.13-1.51,2.029,2.029,0,0,1-.33-.38,15.756,15.756,0,0,0-1.9-1.94,2.392,2.392,0,0,0-.75-.51,5.135,5.135,0,0,1-1.53-.94,4.02,4.02,0,0,0-1.32-.71c-.71-.23-1.39-.52-2.08-.78-1.4-.5-2.76-1.09-4.19-1.47-1.07-.29-2.14-.58-3.22-.88a10.715,10.715,0,0,0-3.77-.58,1.489,1.489,0,0,1-.2-.02c-1.09-.19-2.19-.32-3.29-.5a15.992,15.992,0,0,0-4.42-.29c-.5.05-1,.14-1.5.17a13.011,13.011,0,0,0-3.27.62,3.671,3.671,0,0,1-.78.19c-1.34.15-2.68.31-4.03.39a9.386,9.386,0,0,0-2.47.43,3.7,3.7,0,0,1-1.09.17,11.505,11.505,0,0,0-3.19.43c-.3.09-.58.13-.66.51a.682.682,0,0,1-.56.52c-.66.15-1.32.3-1.98.39a20.491,20.491,0,0,0-3.95.75,12.348,12.348,0,0,1-1.62.57c-1.07.19-2.01.73-3.06.98a15.929,15.929,0,0,0-2.27.84c-2.18.9-4.35,1.79-6.52,2.71a6.667,6.667,0,0,1-1.61.57,4.621,4.621,0,0,0-1.95.81c-.57.39-1.28.54-1.75,1.08a1.764,1.764,0,0,1-.84.52,12.243,12.243,0,0,0-4.4,2.37c-.42.36-1.01.53-1.36,1.01a.415.415,0,0,1-.27.12c-.29.03-.47.25-.7.38-.47.27-.7.87-1.36.9-.17.01-.33.31-.5.47s-.31.41-.51.48a3.48,3.48,0,0,0-1.33,1.16,6.42,6.42,0,0,1-1.65,1.6,1.571,1.571,0,0,0-.3.27c-1.11.97-2.22,1.96-3.42,2.83a7.344,7.344,0,0,0-1.33,1.08,19.732,19.732,0,0,1-2.32,2.08c-.6.51-.97,1.2-1.57,1.69a19.652,19.652,0,0,0-1.28,2.39,4.661,4.661,0,0,1-.48.88,10.556,10.556,0,0,0-.85,1.83,4.934,4.934,0,0,1-.33.84,13.245,13.245,0,0,0-.74,1.88c-.23.64-.19,1.33-.48,1.95a.728.728,0,0,0,.11.77c.25.34.09.79.35,1.12-.11.31-.25.62-.35.94-.2.69-.82.94-1.35,1.28a.312.312,0,0,1-.28-.03c-.18-.15-.38-.09-.58-.12a6.858,6.858,0,0,1-2.28-.74,2.877,2.877,0,0,1-1.3-1.19,3.093,3.093,0,0,0-1.49-1.43c-.94-.37-1.85-.8-2.76-1.24a7.665,7.665,0,0,1-1.39-.81c-.62-.47-1.34-.76-1.99-1.17a1.145,1.145,0,0,0-.46-.19,2.531,2.531,0,0,1-.93-.35c-.92-.49-1.86-.94-2.8-1.39a4.96,4.96,0,0,0-3.9-.16,4.205,4.205,0,0,1-1.05.37,11.23,11.23,0,0,0-2.9,1.38,2.965,2.965,0,0,0-.77.65c-.58.64-1.23,1.23-1.86,1.84a12.051,12.051,0,0,0-2.53,3.35,1.466,1.466,0,0,1-.25.44,5.479,5.479,0,0,0-1.11,2.33c-.1.36-.18.72-.26,1.08a4.539,4.539,0,0,0,.03,3.34,9.821,9.821,0,0,0,1.4,3.53,2.728,2.728,0,0,0,.56.7,4.4,4.4,0,0,1,1.05,1.06,7.369,7.369,0,0,0,1.93,2.04c.19.15.37.29.54.45a8.336,8.336,0,0,0,2.65,1.82c.46.19.9.45,1.37.63a3.447,3.447,0,0,1,.8.43,18.184,18.184,0,0,0,2.24,1.36,3.663,3.663,0,0,0,2.59.57,3.811,3.811,0,0,1,2.07.3c.47.17.57.54.68.91.08.31-.19.47-.41.64a2.21,2.21,0,0,0-.23.19.291.291,0,0,0-.08.36,2.723,2.723,0,0,1,.21.46c.1.35.09.64-.32.83-.17.07-.27.29-.39.45a24.237,24.237,0,0,0-1.9,3.32c-.15.29-.42.56-.41.9a3.222,3.222,0,0,1-.7,1.74c-.12.2-.22.41-.32.62a7.13,7.13,0,0,0-.5,1.74,18.351,18.351,0,0,0-.58,2.86,6.67,6.67,0,0,1-.17,1.08,7.153,7.153,0,0,0-.02,2.21c.01.17.18.17.32.15.09-.01.18-.03.27-.04a.5.5,0,0,1-.25.39c-.46.17-.51.55-.57.97a9.223,9.223,0,0,0,.65,4.53l-.02-.01a7.357,7.357,0,0,1,.67,1.46,2.06,2.06,0,0,0,1.43,1.52c.15.06.31.12.46.19a1.583,1.583,0,0,1,.74.66c.4.66.79,1.33,1.19,1.99.34.57.68,1.15,1.05,1.71a8.923,8.923,0,0,0,.9,1.2,4.947,4.947,0,0,1,.81,1.03,8.089,8.089,0,0,0,1.45,1.53.585.585,0,0,0,.45.18.727.727,0,0,1,.75.38c.14.2.39.21.64.23a1.437,1.437,0,0,1,1.17.46.53.53,0,0,0,.46.19,4.658,4.658,0,0,0,1.49-.06.348.348,0,0,0,.25.26,1.468,1.468,0,0,1,.47.15,5.964,5.964,0,0,0,2.18.68.429.429,0,0,0,.29-.04c.24-.12.59-.61.51.18-.01.11.12.16.22.16a.8.8,0,0,1,.64.24.524.524,0,0,0,.36.14,3.633,3.633,0,0,1,2.11.49c.12.09.33.05.5.08,1.79.3,3.58.55,5.39.72a.752.752,0,0,1,.29.08,8.309,8.309,0,0,0,2.57.41,9.573,9.573,0,0,1,2.18.35,1.024,1.024,0,0,0,.39.07,12.361,12.361,0,0,1,1.91.2,14.647,14.647,0,0,0,1.51.07.924.924,0,0,0,.74-.22c.15-.13.23,0,.24.15.01.29.19.32.42.28a2.024,2.024,0,0,1,.98.08,8.057,8.057,0,0,0,2.4.13,1.241,1.241,0,0,1,1.31-.05,1.961,1.961,0,0,0,.8.03c.43-.05.87-.05,1.3-.06.1,0,.24.06.28-.04.28-.57.6-.33.95-.09a.709.709,0,0,0,.39.02,8.3,8.3,0,0,1,1.31.02c.3.01.63.12.89-.05.18-.12.28-.36.43-.54.01-.02.06-.02.09-.02.18.5.18.5.62.42a.751.751,0,0,1,.29-.03,7.694,7.694,0,0,0,2.2-.11c1.2-.14,2.39-.31,3.6-.44a1.442,1.442,0,0,0,.85-.26,1.517,1.517,0,0,1,1.03-.3c.61-.02,1.21-.07,1.81-.14a1.2,1.2,0,0,0,1.16-.82,1.759,1.759,0,0,1,1.9-1.31c.77-.03,1.55.02,2.32-.07.5-.06,1.09.1,1.51-.35a.172.172,0,0,1,.242-.009l.018.019a.337.337,0,0,0,.38.05.977.977,0,0,1,1.13.02,1.221,1.221,0,0,0,1.16-.03,6.7,6.7,0,0,0,.72-.37,3.925,3.925,0,0,1,1.49-.59c.9-.18,1.74-.52,2.61-.77a2.839,2.839,0,0,0,1.68-1.02.388.388,0,0,1,.16-.12c.08-.03.12.02.111.11Zm5.6-100.49c.13.11.4.05.6.04.94-.04,1.88-.08,2.82-.15a23.225,23.225,0,0,1,3.22-.02c.87.05,1.75.05,2.62.12,1.28.09,2.53.36,3.8.52,1,.13,2,.24,3,.38a42.076,42.076,0,0,1,6.99,1.55c1.92.61,3.88,1.1,5.81,1.68a17.719,17.719,0,0,1,4.85,2.21,18.545,18.545,0,0,1,3.84,3.56c.81.99,1.64,1.97,2.43,2.97.36.45.63.96.99,1.41a10.606,10.606,0,0,1,1.58,2.44.841.841,0,0,0,.22.33c.91.65,1.2,1.77,1.94,2.55.17.17.13.41.07.66-.09.4-.01.55.38.68a1.519,1.519,0,0,1,1.07,1.33,12.57,12.57,0,0,0,.66,2.54.749.749,0,0,1,.09.29,4.009,4.009,0,0,0,.86,2.32c.08.14.2.27.28.42a.426.426,0,0,1-.07.6l-.03.021a.7.7,0,0,0-.26.89,9.164,9.164,0,0,0,.46,1.43c.21.45.25.97.42,1.45.29.82.6,1.64.92,2.45a1.934,1.934,0,0,1,.03,1.84.321.321,0,0,0-.07.19,16.725,16.725,0,0,0-.2,2.99,1.053,1.053,0,0,1,.05.39c-.32,1.21-.2,2.48-.51,3.69a1.676,1.676,0,0,0,0,.5,3.765,3.765,0,0,1-.14,1.5c-.14.4.11.82-.07,1.17a3.494,3.494,0,0,0-.35,1.15,12.149,12.149,0,0,0-.4,2.07,6.556,6.556,0,0,0-.38,1.13c-.28.6-.18,1.34-.66,1.88-.11.12-.05.39-.08.59a2.1,2.1,0,0,1-.17.68,4.631,4.631,0,0,0-.46,1.43.8.8,0,0,1-.06.29,7.574,7.574,0,0,0-.96,2.5,3.393,3.393,0,0,1-.4.92,1.018,1.018,0,0,0-.24.66,4.3,4.3,0,0,1-.81,2.42,1.166,1.166,0,0,0-.23.76.642.642,0,0,1-.15.56c-.1.1-.2.22-.08.34a.3.3,0,0,0,.423.037l.007-.007a.592.592,0,0,1-.25.4,2.945,2.945,0,0,0-1.15,1.69,11.174,11.174,0,0,1-1.38,3.01,16.977,16.977,0,0,0-1.32,2.48,22.29,22.29,0,0,1-1.55,2.7,13.59,13.59,0,0,0-1.11,2.13,1.933,1.933,0,0,1-.33.73,7.789,7.789,0,0,0-.91,1.44,11.852,11.852,0,0,1-1.66,2.27,4.168,4.168,0,0,0-.86,1.09,1.5,1.5,0,0,1-.28.42c-.75.62-1.22,1.52-2.08,2.04a5.736,5.736,0,0,0-.8.75q-.885.825-1.77,1.62a4.283,4.283,0,0,1-.47.39c-1,.68-2.04,1.3-2.99,2.05-1.02.82-2.11,1.55-3.18,2.3-.8.56-1.59,1.12-2.44,1.6-.62.35-1.18.78-1.78,1.15-1.14.7-2.31,1.37-3.45,2.07-.91.56-1.89,1.03-2.75,1.68-.48.36-1.05.58-1.56.91a3.414,3.414,0,0,0-1.11.84c-.16.25-.48.22-.71.36-.76.49-1.53.98-2.29,1.47-.6.38-1.23.71-1.79,1.14a12.95,12.95,0,0,1-1.87,1.16,20.961,20.961,0,0,0-2.05,1.28c-.65.45-1.43.58-2.11.97a.473.473,0,0,1-.29.03A2.029,2.029,0,0,0,161,322a18.836,18.836,0,0,1-2.4,1.27,24.477,24.477,0,0,1-2.64,1.25,1.9,1.9,0,0,0-.4.29l-.01-.01a3.745,3.745,0,0,0-1.35.38c-1.13.54-2.37.7-3.53,1.15-.87.35-1.8.41-2.69.68-.41.12-.88.15-1.12.59-.05.09-.16.15-.23.02-.16-.34-.45-.26-.7-.21-.69.13-1.38.27-2.05.46a3.753,3.753,0,0,0-1.77.66c-.49.08-.99.17-1.49.23-1.09.13-2.18.24-3.28.35a2.05,2.05,0,0,0-.91.38v.03c-.06-.07-.11-.19-.18-.21a.856.856,0,0,0-.39,0c-1.29.22-2.6.28-3.87.58a12.137,12.137,0,0,1-1.98.29,1.161,1.161,0,0,0-.88.52c-.03-.23-.08-.48-.37-.46a8.058,8.058,0,0,0-2.66.39,1,1,0,0,0-.67.67,9.681,9.681,0,0,0-.27,1.06,6.681,6.681,0,0,1-.84,1.94.36.36,0,0,1-.15.12.211.211,0,0,1-.27-.03.2.2,0,0,1-.05-.18,5.388,5.388,0,0,1,.27-.53c.1-.18.29-.33.31-.51a4.546,4.546,0,0,1,.59-1.6c.16-.29-.03-.51-.39-.47a17.6,17.6,0,0,1-4.11.02,1.612,1.612,0,0,0-.31-.03c-2.28-.04-4.54-.38-6.81-.64-.82-.1-1.64-.25-2.47-.35a5.178,5.178,0,0,1-2.18-.59.862.862,0,0,0-.39-.09,2.044,2.044,0,0,1-1.1-.42,3.163,3.163,0,0,0-1.48-.6,10.825,10.825,0,0,0-2.26-.47c-.31-.36-.79-.33-1.19-.48-.89-.31-1.8-.57-2.7-.85a4.609,4.609,0,0,0-1.28-.16c-.06-.25-.26-.35-.48-.43-.64-.22-1.27-.45-1.91-.66a8.782,8.782,0,0,1-1-.45c-.91-.45-1.82-.87-2.74-1.29-.94-.43-1.9-.84-2.84-1.3-.42-.2-.8-.49-1.2-.73-.49-.3-.97-.6-1.47-.87a2.836,2.836,0,0,1-.47-.37,6.617,6.617,0,0,0-1.05-.78,3.85,3.85,0,0,1-1.28-.95,1.073,1.073,0,0,0-.41-.28,1.491,1.491,0,0,1-.73-.65,7.39,7.39,0,0,0-1.03-1.07c-.44-.47-.85-.96-1.24-1.46a1.9,1.9,0,0,0-.93-.73c-.56-.17-.97-.61-1.5-.82-.16-.06-.15-.19-.17-.32a1.852,1.852,0,0,1-.01-.7,4.507,4.507,0,0,0-.39-2.75c-.19-.39-.35-.8-.51-1.2a.71.71,0,0,0-.44-.36.548.548,0,0,0,.03-.08c.13-.29-.31-.23-.27-.42.02-.14.25-.23.23-.41a2.921,2.921,0,0,0-.13-.59,31.959,31.959,0,0,1-1.43-5.76,17.32,17.32,0,0,1-.32-3.3c.05-.93-.01-1.86-.05-2.79a2.216,2.216,0,0,1,.09-1,8.774,8.774,0,0,0,.5-2.12,16.214,16.214,0,0,1,.76-2.29,4.159,4.159,0,0,1,.73-1.31,6,6,0,0,0,.69-1.11,14.846,14.846,0,0,1,1.22-1.97,2.232,2.232,0,0,0,.32-.51.485.485,0,0,0-.148-.671.476.476,0,0,0-.132-.059,6.637,6.637,0,0,0-2.16-.81.7.7,0,0,1-.19-.06,28.511,28.511,0,0,1-4.99-2.61c-.8-.57-1.53-1.2-2.27-1.83-.2-.16-.39-.26-.63-.11a4.038,4.038,0,0,0-.6-1.68,21.383,21.383,0,0,1-1.16-2.34c-.18-.44-.22-.91-.4-1.34a15.749,15.749,0,0,1-.91-3.15c-.16-.86-.31-1.72-.43-2.58a2.469,2.469,0,0,1,.36-1.92l-.02.01v-.25h.02a1.953,1.953,0,0,0,.33-.93,1.647,1.647,0,0,1,.2-.77,12.339,12.339,0,0,0,.88-3.2,17.518,17.518,0,0,1,.68-2.11,2.87,2.87,0,0,1,.83-1.13,9.855,9.855,0,0,1,.79-.78c1.26-1.01,2.11-2.41,3.26-3.53.26-.26.51-.54.79-.77a2.667,2.667,0,0,0,.86-.97,1.323,1.323,0,0,1,.59-.53c1.25-.79,2.4-1.73,3.71-2.43.06-.03.16-.06.17-.1.22-.66.79-.61,1.31-.68a5.228,5.228,0,0,0,.98-.23,9.945,9.945,0,0,1,4.3-.32,20.048,20.048,0,0,1,4.68,1.2q3.5,1.29,6.99,2.6a1.443,1.443,0,0,0,.19.07c.39.11.43.1.68-.22.12-.16.24-.32.37-.47.02-.03.06-.03.09-.05.07.01.09.06.09.15,0,.24-.37.52-.09.69.18.1.31-.28.47-.45a12.384,12.384,0,0,0,1.74-2.46c.14-.25.39-.37.55-.59.12-.17.09-.31-.15-.52a1.873,1.873,0,0,1,.91-1.38c.23-.11.28,0,.31.2.02.12.13.2.22.11a1.405,1.405,0,0,0,.54-1.04,1.058,1.058,0,0,1,.35-.79c.53-.56,1-1.17,1.51-1.75a2.937,2.937,0,0,1,.52-.47,5.188,5.188,0,0,0,.94-.75.478.478,0,0,1,.55-.11,1.331,1.331,0,0,0-.73.61.319.319,0,0,0,0,.27.165.165,0,0,0,.227.057.14.14,0,0,0,.033-.027c.28-.22.56-.45.82-.7a7.6,7.6,0,0,0,.66-.74c.09-.11.06-.23-.05-.35-.25-.3-.24-.31.24-.39a3.852,3.852,0,0,1,1.15-1.22c.16-.15.36-.09.47.12a.009.009,0,0,1-.01.01h0l-.05-.01.04.02.01-.01.02.01a.035.035,0,0,0-.01-.02c.25-.2.51-.42.76-.62a.993.993,0,0,0,.43-.54.429.429,0,0,1,.41-.37.839.839,0,0,0,.78-.54.871.871,0,0,1,.23-.32,33.979,33.979,0,0,1,3.58-2.58,5.621,5.621,0,0,0,2.23-1.85.467.467,0,0,1,.42-.2.617.617,0,0,0,.66-.5.451.451,0,0,1,.26-.28,3.166,3.166,0,0,1,1.14-.36,2.53,2.53,0,0,0,1.46-.57c.69-.42,1.37-.86,2.06-1.27,1.06-.65,2.18-1.2,3.28-1.76,1.68-.85,3.37-1.68,5.06-2.51a1.118,1.118,0,0,1,.37-.16,1.642,1.642,0,0,0,1.41-.62.235.235,0,0,1,.18-.08,5.477,5.477,0,0,0,2.03-.84,4.609,4.609,0,0,1,1.04-.36,2.411,2.411,0,0,0,.93-.37,2.308,2.308,0,0,1,.84-.34,1.82,1.82,0,0,0,.65-.26,1.64,1.64,0,0,1,.84-.31,6.242,6.242,0,0,0,1.54-.43c.86-.27,1.72-.56,2.57-.86a1.763,1.763,0,0,0,.96-.51c.06-.09.18-.16.27-.09.44.33.84.04,1.24-.08a5.363,5.363,0,0,1,1.37-.3,1.389,1.389,0,0,0,.68-.17,2.7,2.7,0,0,1,.94-.25c2.29-.49,4.57-1.02,6.86-1.43a8.761,8.761,0,0,1,2.46-.48,5.088,5.088,0,0,1,1.42-.47c.89-.15,1.77-.35,2.65-.53a3.063,3.063,0,0,0,.69-.14,1.219,1.219,0,0,1,1.411-.01Z" transform="translate(-37.302 -155.166)"/>
    <path d="M85,299.154h-.03c.01-.01.01-.01.01-.02Z" transform="translate(-37.302 -155.166)"/>
    <path d="M76.553,308.274c-.01.01-.01.01-.01.02l-.01-.03C76.543,308.264,76.543,308.274,76.553,308.274Z" transform="translate(-37.302 -155.166)"/>
  </g>
</svg>
