<svg xmlns="http://www.w3.org/2000/svg" width="260.847" height="186.724" viewBox="0 0 260.847 186.724">
  <g>
    <path d="M57.13,186.028c.076.112.184.2.312.108.064-.044.132-.2.1-.236-.264-.336.192-1.1-.652-1.092-.06,0-.116-.14-.176-.216-.528-.656-.652-.66-1.444.108a1.82,1.82,0,0,1,1.764,1.16A1.37,1.37,0,0,0,57.13,186.028Zm72.939-168.2a5.782,5.782,0,0,1-.612,2.964,4.636,4.636,0,0,0-.384,1.272c-.248,1.5-.572,3-.844,4.5-.232,1.3-.716,2.548-.9,3.868-.224,1.575-.456,3.143-.82,4.7-.328,1.388-.416,2.836-.712,4.236-.48,2.244-.892,4.508-1.236,6.772-.3,1.972-.392,3.976-.556,5.968-.1,1.236-.128,2.484-.264,3.716q-.39,3.606-.616,7.224c-.036.572,0,1.164-.072,1.712-.252,1.932-.272,3.876-.4,5.816-.112,1.588-.124,3.192-.352,4.764-.256,1.764-.352,3.54-.556,5.308-.232,2.028-.4,4.068-.6,6.1-.2,1.9-.452,3.784-.532,5.7-.052,1.212-.02,2.432-.184,3.631-.268,1.96-.656,3.9-.784,5.876-.08,1.264-.284,2.528-.416,3.792-.068.636-.032,1.268-.12,1.9-.236,1.7-.54,3.384-.652,5.1-.064.948-.1,1.9-.172,2.848-.132,1.652-.328,3.3-.5,4.948a15.8,15.8,0,0,0-.332,3.88.537.537,0,0,1-.02.288,9.276,9.276,0,0,0-.308,3.108c-.192,2.28-.344,4.568-.368,6.864-.008,1.116-.208,2.228-.212,3.344-.008,2.332-.436,4.624-.624,6.936-.172,2.124-.364,4.26-.68,6.372-.172,1.172-.064,2.376-.3,3.528a51.175,51.175,0,0,0-.639,6.475c-.12,1.56.032,3.132-.2,4.688q-.2,1.326-.356,2.656c-.332,2.82-.544,5.656-1,8.468a11.784,11.784,0,0,0,.016,4.476c.288,1.284.22,1.3-.6,2.544a13.023,13.023,0,0,0,2.476.164c3.931.044,7.867.06,11.8.08,2.912.016,5.82.036,8.732.044.928,0,1-.072.932-.992-.076-.988-.152-1.972-.136-2.964.036-2.172,0-4.348.056-6.52a55.431,55.431,0,0,0,.184-5.648,7.8,7.8,0,0,1,.112-1.9c.38-2.208.512-4.44.736-6.664.212-2.095.532-4.179.744-6.279.308-3.076.7-6.148.872-9.24.188-3.48.392-6.956.588-10.432.072-1.212.152-2.424.216-3.636.076-1.436.148-2.868.2-4.3.164-4.088.876-8.14.712-12.244a2.583,2.583,0,0,1,.376-1.748,1.528,1.528,0,0,0,.152-.74c.344-2.572.184-5.164.424-7.74.156-1.684.16-3.38.224-5.072.112-3,.284-6,.544-8.991.124-1.368.2-2.744.412-4.1.248-1.544.456-3.1.568-4.652.2-2.836.564-5.648.972-8.452.424-2.936.92-5.864,1.412-8.788.46-2.708.76-5.436,1.012-8.16.176-1.928.432-3.848.624-5.776.256-2.536.7-5.052.776-7.608a2.732,2.732,0,0,1,.076-.568,26.574,26.574,0,0,0,.42-5.032,71.921,71.921,0,0,1,.928-7.875c.344-2.156.872-4.284,1.308-6.428.472-2.312,1.1-4.588,1.668-6.88.184-.744.388-1.484.548-2.232.052-.252.188-.656-.232-.708a14.077,14.077,0,0,0-2.512-.52,32.08,32.08,0,0,1-3.332.232,8.952,8.952,0,0,0-2.648.28,8.343,8.343,0,0,1-2.28.164,29.341,29.341,0,0,0-4.78.1,15.937,15.937,0,0,1-5.136-.352c-.6-.116-.732-.08-.892.5a8.566,8.566,0,0,0-.16.848,17.7,17.7,0,0,1-.408,2.06A6.7,6.7,0,0,0,130.069,17.823ZM61.71,186.724H6.363v-1.008l.868-.824h0a3.527,3.527,0,0,0,1.608.124,2.125,2.125,0,0,0,1.212-.724.725.725,0,0,0,.14-.888c-.2-.324-.564-.228-.876-.192-.252.024-.344.268-.512.408a.869.869,0,0,1-.988.116c-.02-.012-.04-.02-.06-.032l-.28-.3a.881.881,0,0,1-.056-.564c.048-.248.1-.5.16-.812-.836-.136-1.128-.136-1.316.1l-.54-.572q6.942.306,13.884.62,2.4.108,4.792.208c.244.008.6.1.644-.224.048-.368-.228-.52-.612-.572-.808-.108-1.048-.412-.948-1.216a12.6,12.6,0,0,0,.084-1.82,9.132,9.132,0,0,1,.648-2.88,13.626,13.626,0,0,0,.54-4.732,26.891,26.891,0,0,1,.252-5.352c.524-3.608,1-7.215,1.18-10.859.1-2.04.248-4.072.452-6.1.2-1.972.34-3.948.52-5.92.2-2.164.432-4.32.656-6.48.224-2.128.48-4.252.688-6.38.232-2.352.476-4.7.752-7.048.216-1.808.4-3.624.484-5.44.124-2.552.352-5.1.56-7.644a6,6,0,0,0-.012-1.34,2.5,2.5,0,0,1,.12-1.316,1.312,1.312,0,0,0,.112-.656,12.991,12.991,0,0,1,.328-4.18,48.886,48.886,0,0,0,.368-6.02,4.038,4.038,0,0,1,.068-.76c.3-1.431.628-2.855.908-4.291a25.893,25.893,0,0,0,.452-3.024,23.476,23.476,0,0,1,.5-3c.22-1.056.42-2.112.632-3.172.244-1.216.508-2.436.848-3.628a18.171,18.171,0,0,0,.436-2.336c.216-1.428.776-2.76,1.108-4.152.472-1.98,1.012-3.944,1.412-5.944.2-.988.5-1.976.76-2.956.556-2.064,1.092-4.124,1.452-6.236a20.319,20.319,0,0,1,.8-3.152c.664-1.908.964-3.9,1.448-5.848a24.6,24.6,0,0,0,.624-5.216,28.435,28.435,0,0,1,.5-3.9c.372-2.268.74-4.536,1.192-6.788a27.024,27.024,0,0,1,1.292-5,12.173,12.173,0,0,0,.748-3.064,66.848,66.848,0,0,1,1.264-7.268c.172-.708.448-1.392.672-2.092q1.434-4.524,2.875-9.044a7.9,7.9,0,0,0,.216-1.32c.144-1.028.048-1.188-.9-1.624a2.613,2.613,0,0,0-2.04-.16c-1.112.38-2.252.7-3.4.98s-2.26.672-3.392,1a12.417,12.417,0,0,1-4.94.28c-1.46-.16-2.916-.384-4.38-.544-1.22-.132-1.444.1-1.756,1.328a14.147,14.147,0,0,0-.268,2.084c-.332,3.332-.948,6.624-1.54,9.92A32.619,32.619,0,0,0,28.1,22.4a10.2,10.2,0,0,1-.384,2.26c-.556,2.164-.824,4.388-1.312,6.563-.32,1.436-.792,2.824-1.236,4.22-.856,2.716-2.112,5.276-3.016,7.968-.64,1.9-1.34,3.792-1.808,5.756a50.7,50.7,0,0,0-1.12,5.332c-.276,2.216-.64,4.42-.88,6.64-.164,1.488-.356,2.976-.564,4.456-.364,2.592-.9,5.156-1.216,7.756-.2,1.708-.6,3.392-.776,5.112-.128,1.232-.356,2.464-.416,3.7-.1,2.012-.42,4-.608,6a21.4,21.4,0,0,1-.632,3.188c-.632,2.54-1.028,5.131-1.6,7.683-.892,3.984-1.62,8-2.524,11.98-.572,2.516-.928,5.08-1.64,7.568a33.625,33.625,0,0,0-.532,3.5c-.472,2.7-1.016,5.4-1.284,8.132-.26,2.68-.744,5.308-1.22,7.948-.256,1.408-.324,2.848-.516,4.272-.172,1.292-.324,2.592-.5,3.884-.32,2.42-.3,4.848-.376,7.272-.1,2.94-.276,5.871-.5,8.8-.18,2.36-.432,4.708-.736,7.052-.072.568-.212,1.128-.324,1.692a13.289,13.289,0,0,0-.092,2.184,21.423,21.423,0,0,1-.352,4.26l-.068-.072L1,178.324l-.324.308A60.369,60.369,0,0,1,.5,169.476c.192-3.18.42-2.952.756-7.34.276-3.607.328-7.215.388-10.827a61.1,61.1,0,0,1,.708-7.628c.364-2.528.672-5.064.948-7.6.068-.608.3-1.168.36-1.776.352-3.3.692-6.6,1.28-9.868.324-1.816.476-3.664.768-5.488.252-1.572.524-3.152.916-4.692.48-1.892.664-3.836,1.124-5.728.488-2.012.724-4.08,1.336-6.068a7.669,7.669,0,0,0,.288-1.3c.084-.632.232-1.244.372-1.868.656-2.92,1.312-5.847,1.824-8.8.572-3.3.844-6.648,1.192-9.988.224-2.188.572-4.368.956-6.536s.692-4.352,1.04-6.524c.492-3.1.76-6.216,1.16-9.324A58.486,58.486,0,0,1,17.991,47.8c.908-2.864,1.98-5.668,3.064-8.468a47.161,47.161,0,0,0,3.12-10.843c.264-1.988.836-3.936,1.068-5.94.352-3.048.972-6.056,1.46-9.084.456-2.836.884-5.684,1.1-8.552a3.035,3.035,0,0,1,2.36-2.676,8.7,8.7,0,0,1,3.608-.1c1.252.236,2.532.32,3.8.484A8.008,8.008,0,0,0,40.5,2.327a27.087,27.087,0,0,1,4.252-1.1c1.148-.1,2.132-.812,3.26-1.068A4.364,4.364,0,0,1,50.1.1a8.2,8.2,0,0,1,3.8,1.712,1.8,1.8,0,0,1,.568,1.9c-.12.5-.276.984-.424,1.472a.834.834,0,0,0,.06.88c1.552-.692,3.02-.176,4.508.4a9.012,9.012,0,0,0,4.18.692,8.985,8.985,0,0,1,4.516.376,4.979,4.979,0,0,1,1.836,1.336,4.591,4.591,0,0,0,4.484,1.38q3.552-.552,7.1-1.1c.628-.1,1.256-.22,1.888-.328.356-.064.5-.248.6-.624a13.88,13.88,0,0,0,.54-4.156c-.06-.988.26-1.3,1.188-1.568s1.9-.22,2.844-.4a31.715,31.715,0,0,1,8.4-.112,72.94,72.94,0,0,0,8.624.216,21.928,21.928,0,0,1,6.2.472c2.04.5,2.152.832,1.732,2.812a11.528,11.528,0,0,1-1.5,3.2c-.316.556-.664,1.092-.948,1.664-.244.488-.18.6.368.716a13.5,13.5,0,0,0,4,.376,47.528,47.528,0,0,1,6.035-.124,9.921,9.921,0,0,0,4.456-.94,6.551,6.551,0,0,1,3.98-.744c.88.16,1.78.216,2.652.4a13.667,13.667,0,0,0,5.116.2,17.848,17.848,0,0,1,3.728-.056,9.651,9.651,0,0,0,2.94-.264,4.892,4.892,0,0,1,1.6-.2c1.828.156,3.636-.16,5.456-.16a2.94,2.94,0,0,1,1.212.184,4.471,4.471,0,0,0,2.136.36,4.343,4.343,0,0,1,2.132.448c.28.144.5.3.38.664-.172.536.2.508.528.488,1.5-.084,3-.172,4.5-.276a11.049,11.049,0,0,1,2.384.016,22.568,22.568,0,0,0,4.872.252,7.207,7.207,0,0,0,1.32-.208c.776-.2,1.58-.064,2.36-.24.632-.14,1.012-.4,1.052-1.124a5.376,5.376,0,0,0,.012-1.52,2.7,2.7,0,0,1,.052-1.236c.184-.744.56-1.3,1.388-1.356a9.751,9.751,0,0,0,2.836-.768A8.218,8.218,0,0,1,181.82,5a25.371,25.371,0,0,1,4.412.752,7.246,7.246,0,0,1,.7.244c1.5.62,2.992,1.236,4.5,1.832a2.883,2.883,0,0,0,1.32.164,8.292,8.292,0,0,1,2.94.3,3.444,3.444,0,0,0,1.6.14,14.5,14.5,0,0,1,4.568.272c.628.084.908.548.884,1.28-.012.412-.04.828-.068,1.24-.024.32.124.468.44.488.188.008.392.112.564.072a16.592,16.592,0,0,0,3.8-.9A18.392,18.392,0,0,1,212.9,9.411a6.131,6.131,0,0,1,4.212.944,3.342,3.342,0,0,0,2.108.448,10.241,10.241,0,0,1,4.16.468,9.932,9.932,0,0,0,3.5.184c.336-.016.48-.22.552-.548a4.773,4.773,0,0,0-.136-1.992.735.735,0,0,1,.192-.78,10.574,10.574,0,0,1,3.952-2.272,5.149,5.149,0,0,1,3.756.8,12.654,12.654,0,0,0,3.668,1.328,32.371,32.371,0,0,0,3.292.568,12.448,12.448,0,0,0,3.227,0,15.185,15.185,0,0,1,4.36-.424c.644.08,1.284.56,1.2,1.188-.168,1.368-.032,2.76-.264,4.1a7.965,7.965,0,0,0-.032,2.752c.188,1.032.18,2.08.424,3.1a8.9,8.9,0,0,1,.152,2.376,29.087,29.087,0,0,0,.444,4.668,13.192,13.192,0,0,1,.2,1.42c.032,1.98.348,3.931.552,5.9a12.952,12.952,0,0,1,.012,2.008c-.064,1.44.12,2.864.1,4.3q-.042,2.814.028,5.632c.04,1.788.06,3.576.252,5.36a13.84,13.84,0,0,1,0,1.524c-.012,1.764.38,3.492.468,5.248.132,2.776.532,5.524.74,8.292.136,1.784.192,3.568.284,5.352.116,2.232.216,4.464.352,6.7.16,2.612.372,5.22.512,7.832a19.386,19.386,0,0,0,.428,2.156c.184,1.136.344,2.272.488,3.416.348,2.752.676,5.507.864,8.279.092,1.368.1,2.744.176,4.116.132,2.228.044,4.46.064,6.692.008,1.468.264,2.936.24,4.4-.048,3.028.364,6.036.24,9.068-.1,2.42-.176,4.848-.1,7.264.076,2.452.188,4.908.268,7.36.068,2.008.092,4.024.108,6.036.016,1.564.088,3.144-.008,4.688-.128,2.136.092,4.276-.184,6.412a21.1,21.1,0,0,0,0,3.447,54.421,54.421,0,0,0,.076,5.54c.336,2.344.148,4.712.392,7.06.056.536.136,1.076.2,1.612.26,2.028.192,4.084.536,6.1a25.577,25.577,0,0,0,.588,3.2,3.853,3.853,0,0,1,.088.852,1.517,1.517,0,0,0,.88,1.472,6.369,6.369,0,0,0,.312,1.672H62.286c-.084-.648-.084-.648.788-.772a.486.486,0,0,0-.544-.516,3.329,3.329,0,0,1-1.036-.172c-.18-.052-.356-.108-.54-.148-.4-.088-.816-.112-1.224-.168-.244-.036-.452,0-.488.3-.028.272.176.292.368.336a4.337,4.337,0,0,0,1.5.14.8.8,0,0,1,.24,0c.24.036.356.216.348.532C61.7,186.408,61.706,186.568,61.71,186.724ZM197.9,77.754a15.112,15.112,0,0,1-.344,3.708,22.046,22.046,0,0,0-.38,4.76c.02,2.228.128,4.46.088,6.692-.044,2.2.416,4.383.252,6.587a1.131,1.131,0,0,0,.04.188,19.826,19.826,0,0,1,.2,3.044c0,1.628.036,3.26.152,4.884a11.662,11.662,0,0,0,.34,2.364,12.736,12.736,0,0,1,.352,3.416,25.126,25.126,0,0,0,.512,6.452.657.657,0,0,1,.036.376,6.361,6.361,0,0,0-.164,2.44,42.813,42.813,0,0,0,.312,6.2A13.178,13.178,0,0,0,199.72,132a2.228,2.228,0,0,1,0,1.04,13.147,13.147,0,0,0-.016,3.34,10.213,10.213,0,0,1,.088,3.236,9.609,9.609,0,0,0-.288,3.424,5.266,5.266,0,0,1-.336,2.54,3.749,3.749,0,0,0-.228,1.4,20.32,20.32,0,0,1-.084,3.352c-.344,2.028-.048,4.064-.3,6.092a53.033,53.033,0,0,0-.236,5.355,20.3,20.3,0,0,0,.344,4.168,5.948,5.948,0,0,1,.2,2.268,30.136,30.136,0,0,0-.448,5.812,22.762,22.762,0,0,1-.344,4.572,6.428,6.428,0,0,0-.284,1.792,30.315,30.315,0,0,1,.052,3.248,1.376,1.376,0,0,0,1.244,1.324,6.071,6.071,0,0,0,.764.036q5.856.006,11.708,0c1.852-.068,3.7.116,5.56.052,1.02-.032,2.044.044,3.068.044,1.248,0,2.5-.028,3.74-.024.424,0,.7-.124.7-.58a41.606,41.606,0,0,0,.22-4.3c-.06-.512-.276-.976-.3-1.5-.064-1.752-.084-3.516-.284-5.256-.24-2.128-.156-4.268-.332-6.4-.232-2.86-.232-5.74-.244-8.615-.008-2.492-.352-4.972-.208-7.468.036-.572.036-1.144.016-1.72-.076-1.952-.1-3.9-.116-5.852-.028-2.748.02-5.5-.072-8.248-.092-2.648-.192-5.3-.276-7.944-.112-3.544-.064-7.092-.224-10.636-.188-4.088-.056-8.172.1-12.252.1-2.644.292-5.284.2-7.932-.016-.352.088-.7.068-1.052-.1-1.971.116-3.939.092-5.915-.016-1.684.14-3.376.112-5.064a18.811,18.811,0,0,1,.02-2.016c.272-2.672.136-5.356.26-8.032.068-1.52,0-3.056.076-4.58.164-3.216.192-6.436.244-9.652.04-2.684.228-5.36.432-8.036.124-1.62.216-3.248.216-4.872,0-1.308-.092-2.612,0-3.916a26.164,26.164,0,0,0,.092-2.684,32.411,32.411,0,0,1,.276-6.1,69.056,69.056,0,0,0,.768-7.6c.14-2.964.2-5.936.556-8.888a30.646,30.646,0,0,0,.148-3.736c0-.256.02-.56-.384-.492a5.607,5.607,0,0,1-2.8-.46,7.139,7.139,0,0,0-2.828-.436,9.962,9.962,0,0,1-5.6-1.288,1.056,1.056,0,0,0-.628-.172,13,13,0,0,0-4.672,1.244,4.862,4.862,0,0,1-1.54.472c-1.328.16-2.62.532-3.964.588a.563.563,0,0,0-.464.94,1.311,1.311,0,0,0,.272.264,1.522,1.522,0,0,1,.524,1.456,16.122,16.122,0,0,0-.032,1.916c.048,2.232.1,4.46-.016,6.692-.16,3-.484,5.98-.84,8.963-.2,1.74-.384,3.484-.616,5.22-.08.576-.3,1.128.424,1.468.168.08.184.328.156.524a.663.663,0,0,0,.116.544.967.967,0,0,1,.024,1.164,4.746,4.746,0,0,0-.54,2.024c-.052,1.032-.492,1.976-.592,2.98a15.9,15.9,0,0,0-.188,5.008,7,7,0,0,1,.04,3.32c-.124.456-.284.908-.412,1.364-.436,1.564-.588,3.176-.944,4.752-.132.572-.488,1.052-.612,1.6-.264,1.188-.648,2.336-.988,3.5a5.779,5.779,0,0,0-.288,1.972,6.88,6.88,0,0,1-.24,2.176A21.911,21.911,0,0,0,197.9,77.754Zm31.4-27.616A30.117,30.117,0,0,0,229,54.21c-.128,1.92.168,3.816.156,5.728a34.762,34.762,0,0,0,.32,3.8,5.791,5.791,0,0,1-.008,1.148,23.51,23.51,0,0,0-.092,3.52c.052.98.092,1.964.092,2.944,0,.608-.136,1.212-.12,1.816.044,1.52.268,3.028.26,4.556,0,.952.016,1.916-.012,2.86-.068,2.352-.316,4.7-.476,7.048-.14,2.064-.3,4.132-.368,6.2a21.245,21.245,0,0,1-.164,2.575,9.363,9.363,0,0,0-.228,1.116c-.028,1.748.176,3.5.06,5.252a8.423,8.423,0,0,0-.108,1.508c.18,1.532-.068,3.06.032,4.592.1,1.64-.1,3.292.108,4.944.164,1.3.108,2.616.22,3.92a22.278,22.278,0,0,1,.34,4.74c-.168,1.38.048,2.8-.016,4.2a41.863,41.863,0,0,0,.088,6.94c.148,1.208.072,2.4.1,3.6.036,1.4.056,2.8.068,4.2.024,2.644.388,5.28.5,7.928a25.492,25.492,0,0,0,.332,3.52c.4,2.192,1.168,4.3,1.44,6.519a6.451,6.451,0,0,1,.256,2.348,5.841,5.841,0,0,0-.06,2.732,8.631,8.631,0,0,1,.176,2.376c-.108,1.624-.2,3.236-.2,4.868a43.59,43.59,0,0,1-.528,5.228,4.886,4.886,0,0,0,.008,1.232,15.411,15.411,0,0,1,.32,5.112c-.3,1.568.072,1.876,1.66,1.876q5.376.012,10.747,0v.076c3.456,0,6.912.032,10.364-.012,1.868-.028,1.852.376,1.588-1.848-.18-1.488-.408-2.98-.536-4.468-.216-2.444-.236-4.908-.52-7.352-.38-3.28-.212-6.576-.364-9.864-.164-3.475.2-6.959.184-10.447,0-2.136.128-4.276.092-6.416-.04-2.684-.108-5.368-.124-8.052-.008-1.056-.088-2.108-.1-3.16-.032-4.664-.008-9.328-.036-14-.016-2.008-.136-4.016-.172-6.028-.032-2.04-.344-4.072-.192-6.124a15.447,15.447,0,0,0,0-2.108c-.16-2.452-.224-4.908-.4-7.36-.124-1.756-.416-3.487-.524-5.239-.084-1.372-.512-2.692-.652-4.056-.056-.54-.04-1.076-.132-1.616-.208-1.256-.308-2.532-.44-3.8-.224-2.16-.212-4.34-.392-6.508-.16-1.908-.132-3.832-.272-5.744-.284-3.972-.4-7.96-.912-11.92-.148-1.14-.1-2.3-.232-3.436-.168-1.4-.1-2.8-.34-4.192a22.45,22.45,0,0,1-.068-3.156c-.056-1.464-.208-2.928-.24-4.392-.04-2.008.028-4.02-.008-6.028-.032-2.04-.084-4.088-.232-6.124-.12-1.679-.38-3.351-.556-5.031-.244-2.312-.528-4.616-.688-6.936-.084-1.28-.48-2.512-.5-3.8-.032-1.66-.084-3.32-.112-4.98,0-.348-.06-.54-.484-.48-.852.12-1.716.184-2.568.292a4.5,4.5,0,0,1-1.983-.188,17.26,17.26,0,0,0-2.2-.632,22.008,22.008,0,0,1-6.988-2.18.786.786,0,0,0-.364-.108c-.236,0-.46.08-.424.388a22.686,22.686,0,0,1-.336,3.592c-.076,1.8-.272,3.608-.228,5.42.016.676.208,1.316.212,2,.008,1.184-.236,2.336-.26,3.512a12.124,12.124,0,0,1-.2,2.372,32.77,32.77,0,0,0-.676,5.68,36.979,36.979,0,0,1-.576,6.079,9.737,9.737,0,0,0-.2,2.36,19.089,19.089,0,0,1-.04,3.48,7.081,7.081,0,0,0-.316,1.86,3.544,3.544,0,0,1-.108,1.216,9.431,9.431,0,0,0-.356,3.952A1.127,1.127,0,0,1,229.292,50.138ZM97.858,52.1c.216,1.1-.34,2.124-.632,3.152a8,8,0,0,0-.372,3.4,9.34,9.34,0,0,1-.608,4.292,27.9,27.9,0,0,0-.76,4.584,4.885,4.885,0,0,0,.084.66,8.154,8.154,0,0,1-.392,3.2,7.93,7.93,0,0,0-.432,1.66c-.152.976-.224,1.964-.4,2.936-.648,3.488-1.1,7-1.552,10.512-.248,1.932-.416,3.876-.812,5.784-.412,1.972-.724,3.955-.968,5.955-.26,2.116-.6,4.22-.948,6.32a18.494,18.494,0,0,0-.42,2.824,26.581,26.581,0,0,1-.292,3.824c-.364,2.3-.84,4.572-1.14,6.88-.068.5-.184,1-.248,1.508-.188,1.488-.284,2.988-.436,4.476-.156,1.516-.3,3.036-.456,4.552-.108,1.048-.16,2.116-.368,3.136a12.976,12.976,0,0,0-.18,4.932,19.807,19.807,0,0,1,.14,4.3c-.064,1.716-.132,3.436-.124,5.152a5.052,5.052,0,0,1-.2,2.06.72.72,0,0,0-.036.28c-.012,1.272-.008,2.54-.14,3.808a14.971,14.971,0,0,0-.236,1.9,20.184,20.184,0,0,1-.4,3.8,27.847,27.847,0,0,1-.636,3.971,1.474,1.474,0,0,0,.012.476,37.587,37.587,0,0,1-.244,5.448,18.51,18.51,0,0,0-.308,2.552,28.247,28.247,0,0,1-.288,4.864,28.676,28.676,0,0,0-.316,5.332,3.613,3.613,0,0,1-.108.948,2.11,2.11,0,0,1-1.9,1.488c-.072,0-.14.008-.2.008-.772,0-1.164-.32-1.5-1.2-.14-.372-.292-.732-.708-.84-.54-.144-.568-.536-.52-.976.152-1.46.22-2.932.48-4.376a61.345,61.345,0,0,0,1.136-7.188c.06-1.028-.064-2.044-.072-3.064-.02-1.628.136-3.248.012-4.884a14.611,14.611,0,0,1,.376-5.9,7.048,7.048,0,0,0,.232-3.316,10.1,10.1,0,0,1-.088-1.048,34.294,34.294,0,0,1,.388-6.4,16.549,16.549,0,0,0,.164-3.824,26.137,26.137,0,0,1,.216-6.3c.528-3.244,1.112-6.476,1.724-9.7a25.1,25.1,0,0,0,.484-3.98c.028-.832-.052-1.664-.024-2.484a49.409,49.409,0,0,1,.78-7.712c.484-2.508,1-5.012,1.408-7.532.32-1.988.6-3.98.808-5.984.208-2.031.576-4.047.772-6.083.328-3.364.8-6.7,1.452-10.016.372-1.876.772-3.748,1.112-5.632a51.75,51.75,0,0,0,.924-5.176c.156-2.072.352-4.136.336-6.216a17.274,17.274,0,0,1,.28-2.86c.236-1.416.56-2.816.668-4.256.088-1.144.224-2.288.34-3.428s.18-2.3.352-3.448a11.587,11.587,0,0,0-.944,2.492,17.422,17.422,0,0,1-1.068,3.164c-.628,1.532-1,3.144-1.708,4.66a10.631,10.631,0,0,0-.672,2.052l-1.028-.248c.036-.164.076-.324.116-.488.82-3.284,1.88-6.5,2.92-9.72a71.32,71.32,0,0,0,2.136-7.248c.4-1.872.764-3.76,1.2-5.616.492-2.076.9-4.172,1.412-6.244a42.892,42.892,0,0,1,1.2-4.127c.608-1.708,1.3-3.384,1.78-5.136a13.33,13.33,0,0,0,.524-4.068,18.206,18.206,0,0,1,2.84-10.472,8.644,8.644,0,0,1,.716-1.02c.332-.384.544-.36.844.024a1.458,1.458,0,0,1-.1,1.916c-.484.62-.66,1.38-1.076,2.02a5.909,5.909,0,0,0-.676,2.084c-.248,1.152-.436,2.324-.772,3.456a5.838,5.838,0,0,0-.2,1.98A15.4,15.4,0,0,1,99.17,25.6a30.685,30.685,0,0,0-2.1,5.9c-.224,1.06-.3,2.144-.5,3.212a1.871,1.871,0,0,0,0,1.3,12.34,12.34,0,0,0,1.132-2.668c.688-1.6,1.18-3.291,1.876-4.891.876-2.02,1.656-4.08,2.5-6.112.42-1,.78-2.028,1.272-3,.672-1.336,1.348-2.668,1.948-4.04.468-1.06.668-2.2,1.088-3.268.7-1.764,1.672-3.38,2.524-5.06a9.141,9.141,0,0,0,.84-2.036c.1-.4-.016-.62-.444-.644-.444-.032-.892-.08-1.336-.092-3-.076-6,.056-9-.156-2.32-.16-4.636-.468-6.972-.46-1.352.008-2.624.352-4.156.508.912.816.54,1.628.348,2.424-.208.872-.456,1.732-.652,2.6-.252,1.1-.244,1.14-1.348,1.2a.712.712,0,0,0-.728.488c-.064.18-.12.364-.184.544-.276.824-.28,1.788-1.22,2.272-.136.068-.184.324-.248.5a6.331,6.331,0,0,0-.332,1.5,9.288,9.288,0,0,1-.248,1.984c-.34,1.06-.588,2.152-1.036,3.184a6.5,6.5,0,0,0-.684,2.656,16.214,16.214,0,0,1-.072,1.968c-.06.532-.576.632-.592,1.092,0,.136-.152.38,0,.4.656.064.124.32.124.508,0,.552-.36,1.116.06,1.656a.313.313,0,0,1-.068.432,2.262,2.262,0,0,0-.52,1.232c-.088.375-.4.547-.6.827-.26.38.244.644.052,1.064-.652,1.424-1.224,2.884-1.808,4.336a58.737,58.737,0,0,0-2.56,6.6c-.928,3.512-1.876,7.024-2.8,10.54-.26.984-.544,1.964-.776,2.956-.412,1.768-.736,3.56-1.232,5.3-.776,2.728-1.388,5.5-2.048,8.256-.688,2.884-1.392,5.768-1.988,8.676-.412,2.028-.88,4.048-1.348,6.064-.344,1.5-.688,2.988-1.044,4.48-.66,2.756-1.084,5.567-1.824,8.307-.136.492-.288.98-.4,1.476-.288,1.244-.544,2.492-.84,3.728-.336,1.4-.788,2.772-1.032,4.18-.5,2.864-1.368,5.648-1.752,8.532-.14,1.04-.452,2.056-.58,3.1-.356,2.916-.964,5.792-1.48,8.68-.472,2.64-.888,5.28-1.228,7.936-.3,2.344-.552,4.7-.808,7.044-.28,2.568-.552,5.14-.936,7.7-.428,2.84-.772,5.688-1.132,8.535a28.6,28.6,0,0,0-.268,2.856q-.072,2.73-.024,5.456a33.591,33.591,0,0,1-.388,6.216c-.352,2.072.04,4.2-.62,6.244a2.887,2.887,0,0,1-.635,1.24,3.258,3.258,0,0,0-.54.536,2.1,2.1,0,0,1-2.012.872c-.848-.016-1.248-.468-1.264-1.336-.032-2.108.068-4.216.16-6.324a29.672,29.672,0,0,0,.14-4.216,44.492,44.492,0,0,1-.028-6.324,43.131,43.131,0,0,0,.068-6.227,17.834,17.834,0,0,1-.052-4.208c.3-2.28.52-4.568.884-6.836.576-3.6.932-7.224,1.384-10.84a44.714,44.714,0,0,1,1.36-6.756,44.611,44.611,0,0,0,1.187-5.032c.544-3.272,1.032-6.552,1.88-9.764.24-.916.712-1.876.2-2.876a.742.742,0,0,1,.02-.472c.484-1.656.632-3.384,1.028-5.064.7-2.98,1.26-6,1.844-9,.5-2.535,1.04-5.063,1.728-7.551.92-3.324,1.568-6.712,2.4-10.06.52-2.1.888-4.252,1.364-6.368.32-1.432.732-2.848,1.068-4.276.288-1.208.464-2.452.808-3.644a65.508,65.508,0,0,0,1.8-6.344A19,19,0,0,1,66.9,55.8c.752-2.068,1.484-4.14,2.228-6.212.42-1.168.86-2.332,1.26-3.5a60.067,60.067,0,0,0,1.424-6.048c.5-2.176.86-4.384,1.468-6.528q.648-2.3,1.18-4.631c.572-2.524,1.2-5.032,1.924-7.512.64-2.208,1.556-4.328,1.976-6.6a1.374,1.374,0,0,1,.368-.652,8.239,8.239,0,0,0,1.244-2.84,27.057,27.057,0,0,0-3.248.42c-2.02.22-4,.672-6.08.256a5.906,5.906,0,0,1-3.732-2.1A2.044,2.044,0,0,0,65.3,8.935c-.8.008-1.6-.028-2.4.04a11.292,11.292,0,0,1-5.344-.812c-.672-.272-.676-.272-.9.472a3.19,3.19,0,0,1-.36.672,12.743,12.743,0,0,0-1.62,3.344,11.261,11.261,0,0,1-1.308,3.172,12,12,0,0,0-1.52,4.012,5.738,5.738,0,0,1-.416,1.276,9.881,9.881,0,0,0-.779,2.448,25.566,25.566,0,0,1-.744,3.544,18.24,18.24,0,0,0-.444,3.616,24.087,24.087,0,0,1-.64,3.475,12.528,12.528,0,0,0-.432,3.588,9.9,9.9,0,0,1-.6,3.56,18.1,18.1,0,0,0-1.016,3.684,11.731,11.731,0,0,1-.876,3.708.553.553,0,0,0-.092.272,13.244,13.244,0,0,1-.54,3.648c-.172.936-.648,1.8-.876,2.708-.556,2.188-.952,4.416-1.716,6.552-.528,1.472-.832,3.012-1.4,4.472a17.2,17.2,0,0,0-.972,2.9,17.144,17.144,0,0,1-1.236,4,1.686,1.686,0,0,0-.18.54,27.711,27.711,0,0,1-1.036,4.66c-.208.728-.4,1.46-.572,2.2-.3,1.276-.236,2.6-.536,3.876a20.064,20.064,0,0,0-.5,3.192c-.056.832-.516,1.592-.38,2.436a3.911,3.911,0,0,1-.024.944c-.1,1.328-.4,2.628-.436,3.967a8.335,8.335,0,0,1-.3,2.364,32.966,32.966,0,0,0-.76,4.524c-.212,1.192-.188,2.408-.28,3.608-.108,1.432-.384,2.848-.4,4.292-.012,1.564-.056,3.132-.1,4.7a22.635,22.635,0,0,1-.3,3.24,26.971,26.971,0,0,0-.264,4.548,9.881,9.881,0,0,1-.184,3.14,1.887,1.887,0,0,0-.14.936,12.305,12.305,0,0,1-.244,3.712,22.579,22.579,0,0,0-.492,4.428c.088,1.064-.284,2.088-.3,3.132a29.965,29.965,0,0,1-.42,3.88,1.861,1.861,0,0,0-.04.66,4.759,4.759,0,0,1-.132,2.084,4.8,4.8,0,0,0-.084.76c-.056,1.272-.1,2.548-.156,3.82-.068,1.5-.2,3-.2,4.5,0,1.7-.192,3.372-.344,5.052a13.345,13.345,0,0,0-.032,3.243,16.224,16.224,0,0,1-.216,5.408c-.32,1.768-.272,3.556-.532,5.324a40.147,40.147,0,0,1-.8,4.02,11.834,11.834,0,0,0-.256,5.648c.068.3.188.452.48.48s.572.044.86.052q4.122.138,8.248.264l9.736.3c4.3.128,8.6.256,12.9.36q10.41.252,20.82.38h.036c7.856.108,15.712.168,23.568.244.86.008,1.72,0,2.72,0-.252-.456-.692-.508-.688-.956,0-.924-.148-1.864-.056-2.776a28.429,28.429,0,0,0,.064-4.4,16.024,16.024,0,0,1,.392-4.356,5.763,5.763,0,0,0,.116-2.092,6.881,6.881,0,0,1,.12-2.572,9.8,9.8,0,0,0,.168-1.328c.244-2.28.508-4.56.82-6.831a14.743,14.743,0,0,0,.024-4.2c-.192-1.288-.18-2.6-.248-3.912A23.562,23.562,0,0,1,109,146.6a32.585,32.585,0,0,0,.408-5.224,7.134,7.134,0,0,1-.072-2c.216-.876.236-1.768.4-2.648.4-2.132.916-4.244,1.128-6.408a23.249,23.249,0,0,1,1.02-4.572,41.131,41.131,0,0,0,1.132-4.944c.324-1.816.48-3.668.9-5.46a42.292,42.292,0,0,0,1.063-7,11.694,11.694,0,0,1,.236-2.568,21.063,21.063,0,0,0,.432-5.412c.04-1.728.116-3.444.3-5.16a24.267,24.267,0,0,0,.336-3.707,17.561,17.561,0,0,1,.352-3.592,16.905,16.905,0,0,0,.268-2.092c.04-1.984.288-3.952.52-5.912a11.322,11.322,0,0,0,.12-2.988,37.335,37.335,0,0,1-.256-3.9,22.367,22.367,0,0,1,.048-2.484c.112-1.52.236-3.044.436-4.56.128-.984.116-1.972.212-2.956a54.2,54.2,0,0,0,.708-5.88,25.291,25.291,0,0,1,.256-4.2,27.516,27.516,0,0,0,.224-3.432,4.941,4.941,0,0,1,.156-1.52,22.051,22.051,0,0,0,.7-4.816,26.039,26.039,0,0,1,.6-3.376,13.666,13.666,0,0,0,.7-2.568,5.466,5.466,0,0,1,.628-2.532,5.072,5.072,0,0,0,.54-2.092q.426-3.31.892-6.619c.2-1.392.484-2.768.648-4.16.224-1.932.376-3.872.556-5.812.024-.252-.024-.572.208-.708.74-.432.688-1.18.768-1.856.084-.7-.044-.792-.736-.632a14.135,14.135,0,0,1-3.028.4c-1.976.016-3.956,0-5.932.008a29.445,29.445,0,0,1-2.971-.028c-.748-.068-.78-.052-.888.736a9.687,9.687,0,0,1-1.532,3.988,23.183,23.183,0,0,0-1.416,2.612c-.584,1.232-.912,2.552-1.624,3.752-1.036,1.756-1.988,3.56-3.068,5.3a28.11,28.11,0,0,0-2.512,5.363,33.881,33.881,0,0,1-1.452,4.248A13.268,13.268,0,0,0,98.73,45.43a6.359,6.359,0,0,1-.268,1.5C98.046,48.63,97.5,50.294,97.858,52.1Zm100.43-41.491a3.175,3.175,0,0,1-2.044-.132,6.258,6.258,0,0,0-3.072-.524,6.4,6.4,0,0,1-3.536-.7c-1.1-.54-2.284-.82-3.388-1.316a9.664,9.664,0,0,0-3.772-.956c-1.032-.02-2.084-.424-3.1.084a9.446,9.446,0,0,1-2.415.84c-.36.072-.532.32-.388.624a2.539,2.539,0,0,1,.044,1.6c-.06.388-.072.692.28.912s.252.548.188.844c-.064.276-.208.536-.272.812-.528,2.264-1.12,4.508-1.812,6.732a18.006,18.006,0,0,0-1.084,4.344c-.032.608-.1,1.212-.1,1.816a37.793,37.793,0,0,1-.5,7.327c-.272,1.328-.5,2.664-.72,4-.136.848-.168,1.712-.308,2.56-.492,2.964-.632,5.964-.868,8.952-.232,2.956-.416,5.916-.632,8.876q-.366,4.962-.692,9.928c-.244,3.756-.544,7.512-1.008,11.252-.288,2.34-.532,4.684-.832,7.02-.264,2.028-.46,4.06-.62,6.1-.156,2.008-.368,4.011-.584,6.007-.168,1.548-.316,3.1-.468,4.656-.2,1.956-.356,3.92-.56,5.876-.42,4.032-.812,8.068-1.232,12.1-.324,3.084-.54,6.172-.724,9.264-.12,2.068-.124,4.148-.276,6.212-.228,3.092-.252,6.188-.28,9.28-.04,4,.236,7.988.38,11.98.1,2.935.148,5.871.156,8.807q.012,4.65.12,9.292c.056,2.4.18,4.792.292,7.188a1.438,1.438,0,0,1-.3.976,1.663,1.663,0,0,1-1.408.788,3.056,3.056,0,0,1-1.056-.224.971.971,0,0,1-.752-1.052c.028-1.76-.108-3.516-.208-5.272a23.126,23.126,0,0,1-.1-2.68c.144-2.3,0-4.6.024-6.9.02-1.852-.132-3.7.024-5.56a8.563,8.563,0,0,0-.012-1.724,44.224,44.224,0,0,1-.236-4.879c-.044-3.868-.3-7.728-.2-11.6.06-2.136.028-4.28.144-6.42.164-3.032.312-6.064.516-9.1.22-3.22.436-6.44.764-9.648.42-4.132,1.04-8.244,1.408-12.38.276-3.056.648-6.1.9-9.156.252-3.119.624-6.231.964-9.343.3-2.7.636-5.388.94-8.084.268-2.408.568-4.82.768-7.24.26-3.152.464-6.308.736-9.456.2-2.32.3-4.652.528-6.968.192-1.972.26-3.948.476-5.916.264-2.408.444-4.824.576-7.244.1-1.88.4-3.736.636-5.6a19.623,19.623,0,0,1,.392-2.744,35.686,35.686,0,0,0,.788-8.447,16.641,16.641,0,0,1,.172-3.628c.428-1.7.984-3.356,1.456-5.04a28.283,28.283,0,0,1,.936-3.6c.212-.5-.092-.8-.636-.676a27.978,27.978,0,0,1-4.584.344,8.641,8.641,0,0,1-2-.112,16.654,16.654,0,0,0-3.228-.356,49.98,49.98,0,0,1-5.252.176.422.422,0,0,0-.52.416c-.076.624-.312,1.22-.344,1.86-.068,1.276-.408,2.512-.6,3.768-.188,1.228-.532,2.4-.836,3.6a15.778,15.778,0,0,0-.736,3.144c-.08,1.84-.636,3.6-.724,5.435-.06,1.184-.436,2.348-.588,3.528-.2,1.568-.448,3.124-.564,4.7a12.06,12.06,0,0,1-.544,2.9,6.609,6.609,0,0,0-.36,2.144c0,.728,0,1.46.008,2.184.008,2.356-.288,4.692-.312,7.04a8.943,8.943,0,0,1-.664,3.728,21.857,21.857,0,0,0-1.188,5.576,37.439,37.439,0,0,0-.632,4.636c-.064,1.46-.248,2.912-.208,4.388.032,1.14.252,2.372-.744,3.328-.216.212-.244.48.108.792.5.44,1.06.948.892,1.764a20.915,20.915,0,0,0-.144,2.172c-.236,2.38-.56,4.748-.852,7.12-.156,1.232-.348,2.46-.464,3.692-.308,3.172-.58,6.343-.876,9.515a7.354,7.354,0,0,1-.248,1.412,29.172,29.172,0,0,0-1.044,7.26,40.731,40.731,0,0,1-.284,5.924,24.945,24.945,0,0,0-.484,5.228,2.986,2.986,0,0,1-.044.38c-.148,1.268-.316,2.532-.428,3.8a24.165,24.165,0,0,1-.312,2.56c-.168.872-.316,1.752-.4,2.644-.156,1.552.12,3.128-.3,4.664-.12.428-.136.888-.224,1.316-.292,1.388-.128,2.8-.352,4.2a7.038,7.038,0,0,0-.188,1.984,32.384,32.384,0,0,1-.148,7.52,53.609,53.609,0,0,0-.456,5.712,8.154,8.154,0,0,1,.108,1.668c-.244,1.012-.048,2.019-.216,3.023-.184,1.076.22,2.176.056,3.236-.26,1.68-.052,3.388-.424,5.052a2.4,2.4,0,0,0,0,.38c-.064,1.3-.036,2.616-.208,3.9-.3,2.176-.448,4.36-.572,6.544a18.647,18.647,0,0,0,.26,3.624c.044.284.08.668.32.776a5.119,5.119,0,0,0,2.192.868c6.472,0,12.94.06,19.408.112l4.48.036v.06c2.432,0,4.86-.016,7.292,0,3.008.024,6.011.08,9.019.112q4.08.036,8.156.04c.836,0,.876-.056.864-.88-.028-2.012-.036-4.012-.216-6.028a50.557,50.557,0,0,1-.016-7.092c.236-4.632.708-9.248.86-13.879l.18-5.556c.06-1.916-.08-3.832-.068-5.748.012-1.408.112-2.812.068-4.22-.06-1.92.1-3.832.2-5.74.12-2.136.5-4.264.54-6.4.072-4.088.168-8.192-.812-12.212a4.836,4.836,0,0,1-.112-.76q-.408-5.01-.8-10.028c-.172-2.26-.336-4.524-.344-6.792,0-1.024.052-2.048-.024-3.064-.2-2.707-.42-5.411-.356-8.131.04-1.724-.064-3.452.124-5.168.5-4.636.984-9.276,1.608-13.9.44-3.288.728-6.588,1.092-9.884.3-2.656.64-5.3.912-7.96.132-1.276.588-2.492.648-3.772.06-1.312.372-2.588.532-3.888.18-1.456.552-2.88.712-4.344.292-2.628.68-5.248,1.036-7.872.2-1.423.528-2.823.784-4.231a36.239,36.239,0,0,0,.632-5.5c.016-.608.048-1.208.024-1.816a51.984,51.984,0,0,1-.3-6.412c.06-.7.056-1.4.048-2.1C199.488,10.351,199.468,10.315,198.288,10.611Z"/>
    <path d="M131.021,12.479c.16-.584.292-.62.892-.5a15.937,15.937,0,0,0,5.136.352,29.341,29.341,0,0,1,4.78-.1,8.343,8.343,0,0,0,2.28-.164,8.952,8.952,0,0,1,2.648-.28,32.08,32.08,0,0,0,3.332-.232,14.077,14.077,0,0,1,2.512.52c.42.052.284.456.232.708-.16.748-.364,1.488-.548,2.232-.564,2.292-1.2,4.568-1.668,6.88-.436,2.144-.964,4.272-1.308,6.428a71.921,71.921,0,0,0-.928,7.875,26.574,26.574,0,0,1-.42,5.032,2.732,2.732,0,0,0-.076.568c-.076,2.556-.52,5.072-.776,7.608-.192,1.928-.448,3.848-.624,5.776-.252,2.724-.552,5.452-1.012,8.16-.492,2.924-.988,5.852-1.412,8.788-.408,2.8-.776,5.616-.972,8.452-.112,1.552-.32,3.108-.568,4.652-.216,1.352-.288,2.728-.412,4.1-.26,2.992-.432,5.991-.544,8.991-.064,1.692-.068,3.388-.224,5.072-.24,2.576-.08,5.168-.424,7.74a1.528,1.528,0,0,1-.152.74,2.583,2.583,0,0,0-.376,1.748c.164,4.1-.548,8.156-.712,12.244-.056,1.436-.128,2.868-.2,4.3-.064,1.212-.144,2.424-.216,3.636-.2,3.476-.4,6.952-.588,10.432-.168,3.092-.564,6.164-.872,9.24-.212,2.1-.532,4.184-.744,6.279-.224,2.224-.356,4.456-.736,6.664a7.8,7.8,0,0,0-.112,1.9,55.431,55.431,0,0,1-.184,5.648c-.06,2.172-.02,4.348-.056,6.52-.016.992.06,1.976.136,2.964.072.92,0,.992-.932.992-2.912-.008-5.82-.028-8.732-.044-3.932-.02-7.868-.036-11.8-.08a13.023,13.023,0,0,1-2.476-.164c.82-1.244.888-1.26.6-2.544a11.784,11.784,0,0,1-.016-4.476c.452-2.812.664-5.648,1-8.468q.156-1.332.356-2.656c.232-1.556.08-3.128.2-4.688a51.175,51.175,0,0,1,.639-6.475c.236-1.152.128-2.356.3-3.528.316-2.112.508-4.248.68-6.372.188-2.312.616-4.6.624-6.936,0-1.116.2-2.228.212-3.344.024-2.3.176-4.584.368-6.864a9.276,9.276,0,0,1,.308-3.108.537.537,0,0,0,.02-.288,15.8,15.8,0,0,1,.332-3.88c.168-1.648.364-3.3.5-4.948.072-.948.108-1.9.172-2.848.112-1.716.416-3.4.652-5.1.088-.636.052-1.268.12-1.9.132-1.264.336-2.528.416-3.792.128-1.98.516-3.916.784-5.876.164-1.2.132-2.419.184-3.631.08-1.912.336-3.8.532-5.7.208-2.032.372-4.072.6-6.1.2-1.768.3-3.544.556-5.308.228-1.572.24-3.176.352-4.764.132-1.94.152-3.884.4-5.816.076-.548.036-1.14.072-1.712q.222-3.618.616-7.224c.136-1.232.16-2.48.264-3.716.164-1.992.256-4,.556-5.968.344-2.264.756-4.528,1.236-6.772.3-1.4.384-2.848.712-4.236.364-1.552.6-3.12.82-4.695.184-1.32.668-2.572.9-3.868.272-1.5.6-3,.844-4.5a4.636,4.636,0,0,1,.384-1.272,5.782,5.782,0,0,0,.612-2.964,6.7,6.7,0,0,1,.384-2.436,17.7,17.7,0,0,0,.408-2.06A8.566,8.566,0,0,1,131.021,12.479Zm3.036,7.652a1.74,1.74,0,0,0,.02-.76c-.172-.868-.856-1.084-1.512-.508a.874.874,0,0,0-.264.684,23.886,23.886,0,0,0-.052,2.78A11.989,11.989,0,0,1,132,25.651c-.508,2.192-.784,4.432-1.42,6.6-.3,1.032-.38,2.128-.672,3.168a26.928,26.928,0,0,0-.772,4.84,54.278,54.278,0,0,0,.212,8.3,66.022,66.022,0,0,1,.048,8.94c-.216,2.98-.548,5.948-.9,8.916a53.6,53.6,0,0,0-.352,6.984c.04,3.7,0,7.388-.288,11.072-.124,1.612-.256,3.228-.46,4.832-.108.832-.232,1.66-.364,2.488-.152.956-.312,1.912-.468,2.872q-.726,4.433-1.468,8.863a72.38,72.38,0,0,1-1.716,7.356c-.776,2.768-1.584,5.52-2.264,8.312-.52,2.14-.936,4.3-1.348,6.464a19.794,19.794,0,0,0-.356,2.22c0,.048,0,.144,0,.24,0,.128,0,.26.144.32a.251.251,0,0,0,.328-.116,5.079,5.079,0,0,0,.984-2.028,19.556,19.556,0,0,1,.952-4.176c.44-1.432.784-2.892,1.144-4.34.4-1.6.856-3.2,1.288-4.788s.912-3.184,1.252-4.784a56.2,56.2,0,0,0,1.052-5.64c.228-2.124.66-4.216.96-6.328a10.612,10.612,0,0,0,.256-3.591,2.212,2.212,0,0,1,0-.744,1.318,1.318,0,0,1,.188-.524,5.085,5.085,0,0,0,.556-2.388c.4-2.572.576-5.176.932-7.76a85.2,85.2,0,0,0,.42-9.2c.068-2.252.048-4.5.076-6.756a.931.931,0,0,1,.1-.368,4.2,4.2,0,0,0,.236-1.96,1.209,1.209,0,0,1,.068-.564,4.97,4.97,0,0,0,.284-1.788,14.207,14.207,0,0,1,.076-1.9,17.347,17.347,0,0,0,.268-3.04c.012-1.968.272-3.928.1-5.9-.072-.8.036-1.608-.1-2.428a21.4,21.4,0,0,1-.228-2.144c-.068-1.056-.036-2.116-.132-3.176a9.377,9.377,0,0,1,.16-2.952c.216-.944.312-1.908.5-2.856.292-1.42.7-2.812.932-4.244a13.692,13.692,0,0,0,.608-2.639,3.548,3.548,0,0,1,.344-1.48,5.2,5.2,0,0,0,.664-2.068,16.958,16.958,0,0,1,.048-2.212A21.244,21.244,0,0,1,134.057,20.131Z" fill="#fcfcfc"/>
    <path d="M212.228,56.962a2.938,2.938,0,0,1-.2,2.684,1.906,1.906,0,0,1-.588-.932,74.671,74.671,0,0,1-2.812-9.828,20.849,20.849,0,0,1-.608-6.068,23.164,23.164,0,0,1,.652-4.344c.372-1.452.692-2.912,1.04-4.368a4.741,4.741,0,0,1,.232-.824.4.4,0,0,1,.7-.108,1.514,1.514,0,0,1,.472,1.536c-.34,1.32-.628,2.652-.936,3.976a3.669,3.669,0,0,0-.2,2.056,1.35,1.35,0,0,1-.152.824,1.433,1.433,0,0,0-.144.74,12.215,12.215,0,0,1-.168,2.912,16.13,16.13,0,0,0,1.216,6.164c.152.46.144.94.308,1.4C211.524,54.146,211.828,55.566,212.228,56.962Z"/>
    <path d="M86.722,38.742c-.176.136-.352.26-.536.38a4.062,4.062,0,0,0,.264-.416.074.074,0,0,0,.028-.008A1.045,1.045,0,0,0,86.722,38.742Z" fill="#fcfcfc"/>
    <path d="M4.751,183.188c.3.084.636.192.588.624a.58.58,0,0,1-.312.5l-1.248-1.316A8.709,8.709,0,0,1,4.751,183.188Z"/>
    <path d="M17.655,80.378c.54-1.88.944-3.788,1.392-5.688l.72.168a5.645,5.645,0,0,0-.1,1.68,9,9,0,0,1-.464,2.236c-.2,1.284-.46,2.568-.772,3.832-.472,1.92-1.044,3.812-1.508,5.732-.892,3.72-1.908,7.411-2.6,11.171-.564,3.072-1.228,6.136-1.528,9.248-.228,2.348-.588,4.68-.888,7.016-.26,2.016-.6,4.032-.964,6.04-.264,1.448-.74,2.824-1.056,4.248a2.564,2.564,0,0,1-.576,1.184,12.655,12.655,0,0,1,.032-2.14c.516-4.376,1.012-8.756,1.556-13.128.5-4.024,1.1-8.028,1.944-12,.7-3.28,1.468-6.539,2.264-9.8.3-1.208.668-2.4.976-3.6C16.611,84.514,17.067,82.426,17.655,80.378Z"/>
    <path d="M214.156,79.134a1.6,1.6,0,0,0,.916.248,1.854,1.854,0,0,0,1.348-.656c.1-.148.2-.3.3-.444a2.355,2.355,0,0,0,.24-1.016v0a4.184,4.184,0,0,0,.132-.66,8.578,8.578,0,0,0,.028-1.568c0-.02,0-.036,0-.056.028-.24.056-.484.1-.724a2.51,2.51,0,0,0-.224-1.66,2.345,2.345,0,0,0-.428-.548c-.052-.14-.112-.272-.168-.408-.108-.256-.3-.3-.548-.188-.092.04-.18.08-.264.124a1.708,1.708,0,0,0-1.24.288,2.182,2.182,0,0,0-.86,1.308c-.24,1.352-.256,2.724-.376,4.084a1.745,1.745,0,0,0,.18.832,1.66,1.66,0,0,0,.408.688,1.762,1.762,0,0,0,.3.26.106.106,0,0,0,.024.02.454.454,0,0,0,.092.06A.162.162,0,0,0,214.156,79.134Zm1.864,1.1a3.121,3.121,0,0,1-4.164-1.168,4.454,4.454,0,0,1-.572-2.392c.056-.956.168-1.908.276-2.864a4.066,4.066,0,0,1,.38-1.28,6.916,6.916,0,0,0,.64-2.288,2.453,2.453,0,0,1,2.872-2.108,3.428,3.428,0,0,1,2.516,1.872,15.317,15.317,0,0,1,1.368,5.468c-.024,2.236-.82,3.6-2.544,4.376C216.532,79.966,216.272,80.1,216.02,80.234Z"/>
    <path d="M84.562,34.026l-.66.1A1.183,1.183,0,0,1,84.562,34.026Z" fill="#fcfcfc"/>
    <path d="M10.9,111.977c-.544,4.372-1.04,8.752-1.556,13.128a12.655,12.655,0,0,0-.032,2.14,2.564,2.564,0,0,0,.576-1.184c.316-1.424.792-2.8,1.056-4.248.368-2.008.7-4.024.964-6.04.3-2.336.66-4.668.888-7.016.3-3.112.964-6.176,1.528-9.248.7-3.76,1.712-7.451,2.6-11.171.464-1.92,1.036-3.812,1.508-5.732.312-1.264.572-2.548.772-3.832a9,9,0,0,0,.464-2.236,5.645,5.645,0,0,1,.1-1.68,5.8,5.8,0,0,1,.2-.684,21.952,21.952,0,0,0,.96-4.372,9.139,9.139,0,0,1,.672-1.764,21,21,0,0,0,.8-4.108,49.893,49.893,0,0,1,1.428-6.436,54.461,54.461,0,0,1,2.092-6.16,42.943,42.943,0,0,0,2.224-8.008A41.791,41.791,0,0,0,29.227,34.9c0-.448.292-.86.2-1.316-.28-1.484.2-2.911.328-4.363.088-1.008.388-2.008.428-3.016A14.772,14.772,0,0,1,31.239,21.3a8.163,8.163,0,0,0,.552-3.568,11.973,11.973,0,0,1,.8-5.64,1.029,1.029,0,0,0,.084-.956,4.671,4.671,0,0,0-.976,2.152,35.3,35.3,0,0,0-.808,4.332c-.332,2.344-1.04,4.608-1.46,6.936-.276,1.54-.6,3.068-.764,4.632-.18,1.716-.22,3.439-.36,5.155a63.94,63.94,0,0,1-1.444,8.676,45.355,45.355,0,0,1-1.676,6.18c-.64,1.7-1.128,3.456-1.78,5.152a37.2,37.2,0,0,0-2.332,9.36c-.156,1.456-.484,2.9-.664,4.352a46.766,46.766,0,0,1-1.116,5.624c-.084.336-.164.668-.244,1-.448,1.9-.852,3.808-1.392,5.688-.588,2.048-1.044,4.136-1.576,6.2-.308,1.208-.68,2.4-.976,3.6-.8,3.256-1.568,6.515-2.264,9.8C12,103.949,11.391,107.953,10.9,111.977Zm3.236-20.631a21.4,21.4,0,0,0,.632-3.188c.188-2,.508-3.988.608-6,.06-1.236.288-2.468.416-3.7.18-1.72.572-3.4.776-5.112.316-2.6.852-5.164,1.216-7.756.208-1.48.4-2.968.564-4.456.24-2.22.6-4.424.88-6.64a50.7,50.7,0,0,1,1.12-5.332c.468-1.964,1.168-3.856,1.808-5.756.9-2.692,2.16-5.252,3.016-7.968.444-1.4.916-2.784,1.236-4.22.488-2.175.756-4.4,1.312-6.563A10.2,10.2,0,0,0,28.1,22.4a32.619,32.619,0,0,1,.708-5.112c.592-3.3,1.208-6.588,1.54-9.92a14.147,14.147,0,0,1,.268-2.084c.312-1.224.536-1.46,1.756-1.328,1.464.16,2.92.384,4.38.544a12.417,12.417,0,0,0,4.94-.28c1.132-.328,2.244-.72,3.392-1s2.288-.6,3.4-.98a2.613,2.613,0,0,1,2.04.16c.951.436,1.047.6.9,1.624a7.9,7.9,0,0,1-.216,1.32q-1.45,4.518-2.875,9.044c-.224.7-.5,1.384-.672,2.092A66.848,66.848,0,0,0,46.4,23.743a12.173,12.173,0,0,1-.748,3.064,27.024,27.024,0,0,0-1.292,5c-.452,2.252-.82,4.52-1.192,6.788a28.435,28.435,0,0,0-.5,3.9,24.6,24.6,0,0,1-.624,5.216c-.484,1.948-.784,3.94-1.448,5.848a20.319,20.319,0,0,0-.8,3.152c-.36,2.112-.9,4.172-1.452,6.236-.264.98-.56,1.968-.76,2.956-.4,2-.94,3.964-1.412,5.944-.332,1.392-.892,2.724-1.108,4.152a18.171,18.171,0,0,1-.436,2.336c-.34,1.192-.6,2.412-.848,3.628-.212,1.06-.412,2.116-.632,3.172a23.476,23.476,0,0,0-.5,3,25.893,25.893,0,0,1-.452,3.024c-.28,1.436-.612,2.86-.908,4.291a4.038,4.038,0,0,0-.068.76,48.886,48.886,0,0,1-.368,6.02,12.991,12.991,0,0,0-.328,4.18,1.312,1.312,0,0,1-.112.656,2.5,2.5,0,0,0-.12,1.316,6,6,0,0,1,.012,1.34c-.208,2.544-.436,5.092-.56,7.644-.088,1.816-.268,3.632-.484,5.44-.276,2.344-.52,4.7-.752,7.048-.208,2.128-.464,4.252-.688,6.38-.224,2.16-.46,4.316-.656,6.48-.18,1.972-.32,3.948-.52,5.92-.2,2.032-.348,4.064-.452,6.1-.184,3.644-.656,7.251-1.18,10.859a26.891,26.891,0,0,0-.252,5.352,13.626,13.626,0,0,1-.54,4.732,9.132,9.132,0,0,0-.648,2.88,12.6,12.6,0,0,1-.084,1.82c-.1.8.14,1.108.948,1.216.384.052.66.2.612.572-.04.328-.4.232-.644.224q-2.394-.1-4.792-.208-6.942-.306-13.884-.62l-3.788-3.988a21.423,21.423,0,0,0,.352-4.26,13.289,13.289,0,0,1,.092-2.184c.112-.564.252-1.124.324-1.692.3-2.344.556-4.692.736-7.052.224-2.932.4-5.863.5-8.8.08-2.424.056-4.852.376-7.272.172-1.292.324-2.592.5-3.884.192-1.424.26-2.864.516-4.272.476-2.64.96-5.268,1.22-7.948.268-2.728.812-5.428,1.284-8.132a33.625,33.625,0,0,1,.532-3.5c.712-2.488,1.068-5.052,1.64-7.568.9-3.976,1.632-8,2.524-11.98C13.1,96.477,13.5,93.886,14.131,91.346Zm8.6,42.331a7.711,7.711,0,0,0,.756-4.624A1.183,1.183,0,0,0,22.635,128a4.109,4.109,0,0,0-2.144-.344,8.887,8.887,0,0,1-2.46-.068,1.625,1.625,0,0,0-1.7.816,5.557,5.557,0,0,0-.784,3.14,4.443,4.443,0,0,0,1.144,3.12C18.759,136.717,21.575,135.577,22.727,133.677Z" fill="#fff"/>
    <path d="M242.723,81.722a6.018,6.018,0,0,1-.351-2.7c-.068-1.432.044-2.868.056-4.3.012-1.208.04-2.416,0-3.624-.052-1.784-.144-3.568-.24-5.352-.212-3.856-.484-7.708-1.02-11.536a33.278,33.278,0,0,0-2.032-7.54A41.242,41.242,0,0,1,236.6,39.67a27.583,27.583,0,0,1-.456-7.908c.164-1.715.292-3.435.468-5.147a10.236,10.236,0,0,1,.776-3.048c.14-.32.3-.7.72-.672a1.075,1.075,0,0,1,.92.736,1.8,1.8,0,0,1,.048,1.212c-.408,1.3-.776,2.612-1.148,3.924a2.83,2.83,0,0,0-.18,1.028,9.543,9.543,0,0,1-.32,2.819,7.189,7.189,0,0,0-.012,1.876c.284,2.588.472,5.2,1.592,7.632a7.782,7.782,0,0,1,.728,2.36c.032.272.232.452.316.692.536,1.532,1.148,3.04,1.584,4.6.356,1.268.5,2.6.772,3.892.415,1.944.5,3.924.819,5.872a31.954,31.954,0,0,1,.264,3.336c.116,2.04.284,4.08.3,6.116a67.65,67.65,0,0,1-.176,6.972C243.427,77.9,243.011,79.782,242.723,81.722Z"/>
    <path d="M1.007,179.22a1.867,1.867,0,0,0,.44-.428Q2.725,180.136,4,181.484c-.576-.028-1.152-.052-1.728-.076L.807,179.864c-.016-.156-.036-.312-.052-.476A2.758,2.758,0,0,0,1.007,179.22Z"/>
    <path d="M250.139,55.686c.136,1.132.084,2.3.232,3.436.512,3.96.628,7.948.912,11.92.14,1.912.112,3.836.272,5.744.18,2.168.168,4.348.392,6.508.132,1.268.232,2.544.44,3.8.092.54.076,1.076.132,1.616.14,1.364.568,2.684.652,4.056.108,1.752.4,3.483.524,5.239.172,2.452.236,4.908.4,7.36a15.447,15.447,0,0,1,0,2.108c-.152,2.052.16,4.084.192,6.124.036,2.012.156,4.02.172,6.028.028,4.668,0,9.332.036,14,.008,1.052.088,2.1.1,3.16.016,2.684.084,5.368.124,8.052.036,2.14-.1,4.28-.092,6.416.012,3.488-.348,6.972-.184,10.447.152,3.288-.016,6.584.364,9.864.284,2.444.3,4.908.52,7.352.128,1.488.356,2.98.536,4.468.264,2.224.28,1.82-1.588,1.848-3.452.044-6.908.012-10.364.012v-.076q-5.374,0-10.747,0c-1.588,0-1.964-.308-1.66-1.876a15.411,15.411,0,0,0-.32-5.112,4.886,4.886,0,0,1-.008-1.232,43.59,43.59,0,0,0,.528-5.228c0-1.632.092-3.244.2-4.868a8.631,8.631,0,0,0-.176-2.376,5.841,5.841,0,0,1,.06-2.732,6.451,6.451,0,0,0-.256-2.348c-.272-2.219-1.044-4.327-1.44-6.519a25.492,25.492,0,0,1-.332-3.52c-.112-2.648-.476-5.284-.5-7.928-.012-1.4-.032-2.8-.068-4.2-.028-1.2.048-2.392-.1-3.6a41.863,41.863,0,0,1-.088-6.94c.064-1.4-.152-2.82.016-4.2a22.278,22.278,0,0,0-.34-4.74c-.112-1.3-.056-2.624-.22-3.92-.212-1.652,0-3.3-.108-4.944-.1-1.532.148-3.06-.032-4.592a8.423,8.423,0,0,1,.108-1.508c.116-1.756-.088-3.5-.06-5.252a9.363,9.363,0,0,1,.228-1.116,21.245,21.245,0,0,0,.164-2.575c.068-2.068.228-4.136.368-6.2.16-2.352.408-4.7.476-7.048.028-.944.008-1.908.012-2.86.008-1.528-.216-3.036-.26-4.556-.016-.6.12-1.208.12-1.816,0-.98-.04-1.964-.092-2.944a23.51,23.51,0,0,1,.092-3.52,5.791,5.791,0,0,0,.008-1.148,34.762,34.762,0,0,1-.32-3.8c.012-1.912-.284-3.808-.156-5.728a30.117,30.117,0,0,1,.292-4.072,1.127,1.127,0,0,0,.012-.476,9.431,9.431,0,0,1,.356-3.952,3.544,3.544,0,0,0,.108-1.216,7.081,7.081,0,0,1,.316-1.86,19.089,19.089,0,0,0,.04-3.48,9.737,9.737,0,0,1,.2-2.36,36.979,36.979,0,0,0,.576-6.079,32.77,32.77,0,0,1,.676-5.68,12.124,12.124,0,0,0,.2-2.372c.024-1.176.268-2.328.26-3.512,0-.68-.2-1.32-.212-2-.044-1.812.152-3.616.228-5.42a22.686,22.686,0,0,0,.336-3.592c-.036-.308.188-.384.424-.388a.786.786,0,0,1,.364.108,22.008,22.008,0,0,0,6.988,2.18,17.26,17.26,0,0,1,2.2.632,4.5,4.5,0,0,0,1.983.188c.852-.108,1.716-.172,2.568-.292.424-.06.48.132.484.48.028,1.66.08,3.32.112,4.98.02,1.284.416,2.516.5,3.8.16,2.32.444,4.624.688,6.936.176,1.68.436,3.352.556,5.031.148,2.036.2,4.084.232,6.124.036,2.008-.032,4.02.008,6.028.032,1.464.184,2.928.24,4.392a22.45,22.45,0,0,0,.068,3.156C250.043,52.882,249.971,54.29,250.139,55.686Zm-5.284,86.443c-.108-1.332.08-2.668.028-4.008a23.58,23.58,0,0,0-.144-3.6,4.446,4.446,0,0,1-.076-1.236,21.12,21.12,0,0,0-.088-3.336c-.124-1.776-.328-3.548-.344-5.332-.012-1.212-.052-2.432-.18-3.636-.212-2.032-.248-4.076-.372-6.112-.136-2.272-.128-4.556-.272-6.836-.084-1.384.028-2.78.012-4.176-.02-1.844.116-3.688.016-5.54a25.461,25.461,0,0,0-.076-2.832c-.244-1.451.008-2.951-.5-4.359a.867.867,0,0,1-.012-.38,12.878,12.878,0,0,0-.1-2.388c-.012-.212-.012-.456-.291-.528-.252.1-.168.316-.188.492-.264,2.8-.1,5.62-.136,8.427-.044,3.828,0,7.656.052,11.488.036,2.9.092,5.812.224,8.716.172,3.828.407,7.652.655,11.48q.354,5.448.8,10.892c.124,1.528.112,3.06.18,4.588a43.578,43.578,0,0,1,.1,5.916,4.022,4.022,0,0,0,.024,1.052,7.049,7.049,0,0,0,.384,2.112.913.913,0,0,0,.268-.824c.016-1.184.02-2.364.024-3.548,0-1.336-.036-2.672.012-4A20.587,20.587,0,0,0,244.855,142.129Zm-1.24-66.167a67.65,67.65,0,0,0,.176-6.972c-.012-2.036-.18-4.076-.3-6.116a31.954,31.954,0,0,0-.264-3.336c-.324-1.948-.4-3.928-.819-5.872-.276-1.288-.416-2.624-.772-3.892-.436-1.56-1.048-3.068-1.584-4.6-.084-.24-.284-.42-.316-.692a7.782,7.782,0,0,0-.728-2.36c-1.12-2.428-1.308-5.044-1.592-7.632a7.189,7.189,0,0,1,.012-1.876,9.543,9.543,0,0,0,.32-2.819,2.83,2.83,0,0,1,.18-1.028c.372-1.312.74-2.624,1.148-3.924a1.8,1.8,0,0,0-.048-1.212,1.075,1.075,0,0,0-.92-.736c-.424-.032-.58.352-.72.672a10.236,10.236,0,0,0-.776,3.048c-.176,1.712-.3,3.432-.468,5.147a27.583,27.583,0,0,0,.456,7.908,41.242,41.242,0,0,0,2.536,6.992,33.278,33.278,0,0,1,2.032,7.54c.536,3.828.808,7.68,1.02,11.536.1,1.784.188,3.568.24,5.352.036,1.208.008,2.416,0,3.624-.012,1.436-.124,2.872-.056,4.3a6.018,6.018,0,0,0,.351,2.7C243.011,79.782,243.427,77.9,243.615,75.962Z" fill="#fcfcfc"/>
    <path d="M127.769,91.9a2.212,2.212,0,0,0,0,.744,10.612,10.612,0,0,1-.256,3.591c-.3,2.112-.732,4.2-.96,6.328a56.2,56.2,0,0,1-1.052,5.64c-.34,1.6-.82,3.192-1.252,4.784s-.892,3.184-1.288,4.788c-.36,1.448-.7,2.908-1.144,4.34a19.556,19.556,0,0,0-.952,4.176,5.079,5.079,0,0,1-.984,2.028.251.251,0,0,1-.328.116c-.14-.06-.144-.192-.144-.32,0-.1,0-.192,0-.24a19.794,19.794,0,0,1,.356-2.22c.412-2.164.828-4.324,1.348-6.464.68-2.792,1.488-5.544,2.264-8.312a72.38,72.38,0,0,0,1.716-7.356q.744-4.428,1.468-8.863c.156-.96.316-1.916.468-2.872Z"/>
    <path d="M.607,181.336c.1.508.212,1.016.312,1.452-.036.06-.068.12-.1.184A.276.276,0,0,1,.807,183a8.09,8.09,0,0,0-.676-1.688c.04,0,.08,0,.12,0C.371,181.324.487,181.332.607,181.336Z"/>
    <path d="M86.994,33.678c-.812.112-1.624.232-2.432.348a1.183,1.183,0,0,0-.66.1h0a.35.35,0,0,0-.064.008,1.729,1.729,0,0,0-.964.312,1.53,1.53,0,0,0-.532.564,1.721,1.721,0,0,0-.332.744,2.363,2.363,0,0,0-.048.648,2.26,2.26,0,0,1,.008.328c-.012.028-.024.052-.036.08-.068.076-.124.16-.2.236-.1.148-.2.3-.3.444l-.184.52a2.373,2.373,0,0,0,.12,1.4,2.2,2.2,0,0,0,.516.772l.012.012a.758.758,0,0,0,.34.264l.008,0a1.685,1.685,0,0,0,.588.22l-.168,1.1a5.353,5.353,0,0,1-2.324-.956,2.568,2.568,0,0,1-.652-3.428c.8-1.3,1.664-2.564,2.528-3.824a1.675,1.675,0,0,1,1.22-.844c.46-.04.916-.184,1.356.18a1.473,1.473,0,0,0,.824.212,7.713,7.713,0,0,1,1.972.336l-.084.284A1.693,1.693,0,0,0,86.994,33.678Z"/>
    <path d="M54.466,169.816c.12-1.144.244-2.288.428-3.42.4-2.452.8-4.9,1.252-7.348.356-1.943.792-3.875,1.156-5.819.26-1.38.46-2.768.692-4.152.616-3.68,1.316-7.34,2.14-10.984A106.265,106.265,0,0,0,62.1,126.8c.316-2.736.268-5.484.672-8.172-.128-.828.088-1.62-.1-2.416a6.608,6.608,0,0,1,.092-1.424c-.024-2.168-.208-4.332-.144-6.5a29.936,29.936,0,0,1,.436-3.7,44.192,44.192,0,0,1,1.332-6.256,5,5,0,0,1,.34-.892A.89.89,0,0,1,65.87,97a.783.783,0,0,1,.488,1.012,5.411,5.411,0,0,1-.28,1.012,23.578,23.578,0,0,0-1.148,4.892c-.264,1.408-.16,2.852-.528,4.24a5.9,5.9,0,0,0-.088,2c.216,2.764.076,5.532.12,8.3a12.964,12.964,0,0,1-.152,1.8,18.935,18.935,0,0,0-.168,2.38c.024,1.86-.52,3.66-.6,5.508-.112,2.472-.9,4.82-1.324,7.232-.356,2.008-.78,4-1.212,6-.444,2.052-.752,4.132-1.152,6.192-.428,2.216-.732,4.456-1.24,6.66-.328,1.424-.484,2.888-.748,4.328a17.794,17.794,0,0,1-.58,2.6c-.4,1.16-.432,2.376-.744,3.548-.44,1.656-.792,3.336-1.184,5.008a.689.689,0,0,1-.1.264c-.156.22-.224.62-.58.516C54.338,170.408,54.442,170.044,54.466,169.816Z"/>
    <path d="M119.977,16.451c.068-.184.116-.38.36-.392a.445.445,0,0,1,.476.38,2.315,2.315,0,0,1,.076,1.208c-.484,2.316-1.632,4.388-2.352,6.612-.316.972-.468,1.98-.808,2.948a7.948,7.948,0,0,0-.764,2.1,17.351,17.351,0,0,1-.56,2.355,6.142,6.142,0,0,1-.54,1.1c-.444,1.056-.392,2.252-.956,3.264.26,1.024-.367,1.888-.491,2.836a6.672,6.672,0,0,1-.652,2.564c.12,1.46-.712,2.844-.344,4.32-.3.636.032,1.24.088,1.856a10.492,10.492,0,0,1-.2,1.768c-.076.836.348,1.576.2,2.4a10.507,10.507,0,0,0,.048,2.48c.056.832,0,1.652.02,2.476a1.1,1.1,0,0,0,.012.38,8.076,8.076,0,0,1,0,3.568c-.048.54.076,1.076.076,1.608a25.331,25.331,0,0,1-.216,4.008,5.456,5.456,0,0,0-.048,1.324c.1,1.336-.3,2.632-.316,3.952-.012.988-.184,1.956-.228,2.932a24.179,24.179,0,0,1-.28,2.656,27.817,27.817,0,0,0-.216,3.4c-.044,1.244-.192,2.476-.2,3.724,0,.824.076,1.648.056,2.476a59.738,59.738,0,0,0,.064,6.5c.1,1.14.076,2.291.092,3.439a24.969,24.969,0,0,1,.092,3.236,8.082,8.082,0,0,0-.056,1.356l-1.112.068q-.078-1.284-.176-2.568c-.184-2.42-.216-4.843-.336-7.263a98.2,98.2,0,0,1,.088-10.352c.1-1.78.276-3.556.464-5.332.284-2.692.568-5.384.708-8.092.1-1.852.088-3.7.14-5.548a81.243,81.243,0,0,0-.388-9.616,47.239,47.239,0,0,1,.348-11.172,64.068,64.068,0,0,1,1.656-7.268c.708-2.648,1.483-5.275,2.187-7.923a15.557,15.557,0,0,1,1.78-4.208,18.455,18.455,0,0,0,1.284-3.056C119.389,18.135,119.677,17.291,119.977,16.451Z"/>
    <path d="M185.676,112.257q-.018-1.626-.04-3.252l1.016-.012a.654.654,0,0,0,.008.088,23.851,23.851,0,0,1,.212,4.716c.024,1.332-.04,2.664.028,4,.048.944-.116,1.892-.148,2.836-.024.652,0,1.324.04,1.976a45.666,45.666,0,0,1-.12,4.684c-.084,2.168-.252,4.336-.384,6.5-.024.376.068.772-.2,1.108a.53.53,0,0,0-.056.456,14.79,14.79,0,0,1-.2,4.384c-.24,2.32-.372,4.644-.524,6.968-.108,1.692-.228,3.38-.284,5.072-.076,2.164-.128,4.332-.124,6.5.008,1.883.1,3.767.172,5.651a6.892,6.892,0,0,1-.036,1.436,1.131,1.131,0,0,0-.04.38c.408,2.128.224,4.3.492,6.44a14.46,14.46,0,0,1,.276,2.936c-.016.192.052.428-.212.448-.224.02-.3-.2-.36-.384a10.015,10.015,0,0,1-.272-1.016c-.416-2.484-.836-4.976-1.068-7.484a87.61,87.61,0,0,1-.416-9.667q.15-6.468.652-12.92c.184-2.324.264-4.66.5-6.98.244-2.348.376-4.708.54-7.064.188-2.672.36-5.348.4-8.032.032-2.428.128-4.852.152-7.28C185.692,113.913,185.684,113.085,185.676,112.257Z"/>
    <path d="M1.147,182.476a5.409,5.409,0,0,1,.152,1.548H1.291a4.13,4.13,0,0,1-.372-1.236A2.23,2.23,0,0,1,1.147,182.476Z"/>
    <path d="M117.545,76.922a11.322,11.322,0,0,1-.12,2.988c-.232,1.96-.48,3.928-.52,5.912a16.905,16.905,0,0,1-.268,2.092,17.561,17.561,0,0,0-.352,3.592,24.267,24.267,0,0,1-.336,3.707c-.184,1.716-.26,3.432-.3,5.16a21.063,21.063,0,0,1-.432,5.412,11.694,11.694,0,0,0-.236,2.568,42.292,42.292,0,0,1-1.063,7c-.416,1.792-.572,3.644-.9,5.46a41.131,41.131,0,0,1-1.132,4.944,23.249,23.249,0,0,0-1.02,4.572c-.212,2.164-.728,4.276-1.128,6.408-.168.88-.188,1.772-.4,2.648a7.134,7.134,0,0,0,.072,2A32.585,32.585,0,0,1,109,146.6a23.562,23.562,0,0,0-.484,4.168c.068,1.308.056,2.624.248,3.912a14.743,14.743,0,0,1-.024,4.2c-.312,2.271-.576,4.551-.82,6.831a9.8,9.8,0,0,1-.168,1.328,6.881,6.881,0,0,0-.12,2.572,5.763,5.763,0,0,1-.116,2.092,16.024,16.024,0,0,0-.392,4.356,28.429,28.429,0,0,1-.064,4.4c-.092.912.06,1.852.056,2.776,0,.448.436.5.688.956-1,0-1.86.008-2.72,0-7.856-.076-15.712-.136-23.568-.244l.012-.876c.064,0,.132,0,.2-.008a2.11,2.11,0,0,0,1.9-1.488,3.613,3.613,0,0,0,.108-.948,28.676,28.676,0,0,1,.316-5.332,28.247,28.247,0,0,0,.288-4.864,18.51,18.51,0,0,1,.308-2.552,37.587,37.587,0,0,0,.244-5.448,1.474,1.474,0,0,1-.012-.476,27.847,27.847,0,0,0,.636-3.971,20.184,20.184,0,0,0,.4-3.8,14.971,14.971,0,0,1,.236-1.9c.132-1.268.128-2.536.14-3.808a.72.72,0,0,1,.036-.28,5.052,5.052,0,0,0,.2-2.06c-.008-1.716.06-3.436.124-5.152a19.807,19.807,0,0,0-.14-4.3,12.976,12.976,0,0,1,.18-4.932c.208-1.02.26-2.088.368-3.136.156-1.516.3-3.036.456-4.552.152-1.488.248-2.988.436-4.476.064-.5.18-1,.248-1.508.3-2.308.776-4.584,1.14-6.88a26.581,26.581,0,0,0,.292-3.824,18.494,18.494,0,0,1,.42-2.824c.352-2.1.688-4.2.948-6.32.244-2,.556-3.983.968-5.955.4-1.908.564-3.852.812-5.784.456-3.512.9-7.024,1.552-10.512.18-.972.252-1.96.4-2.936a7.93,7.93,0,0,1,.432-1.66,8.154,8.154,0,0,0,.392-3.2,4.885,4.885,0,0,1-.084-.66,27.9,27.9,0,0,1,.76-4.584,9.34,9.34,0,0,0,.608-4.292,8,8,0,0,1,.372-3.4c.292-1.028.848-2.056.632-3.152-.36-1.808.188-3.472.6-5.168a6.359,6.359,0,0,0,.268-1.5,13.268,13.268,0,0,1,1.684-6.232,33.881,33.881,0,0,0,1.452-4.248,28.11,28.11,0,0,1,2.512-5.363c1.08-1.74,2.032-3.544,3.068-5.3.712-1.2,1.04-2.52,1.624-3.752a23.183,23.183,0,0,1,1.416-2.612,9.687,9.687,0,0,0,1.532-3.988c.108-.788.14-.8.888-.736a29.445,29.445,0,0,0,2.971.028c1.976-.012,3.956.008,5.932-.008a14.135,14.135,0,0,0,3.028-.4c.692-.16.82-.072.736.632-.08.676-.028,1.424-.768,1.856-.232.136-.184.456-.208.708-.18,1.94-.332,3.88-.556,5.812-.164,1.392-.448,2.768-.648,4.16q-.468,3.306-.892,6.619a5.072,5.072,0,0,1-.54,2.092,5.466,5.466,0,0,0-.628,2.532,13.666,13.666,0,0,1-.7,2.568,26.039,26.039,0,0,0-.6,3.376,22.051,22.051,0,0,1-.7,4.816,4.941,4.941,0,0,0-.156,1.52,27.516,27.516,0,0,1-.224,3.432,25.291,25.291,0,0,0-.256,4.2,54.2,54.2,0,0,1-.708,5.88c-.1.984-.084,1.972-.212,2.956-.2,1.516-.324,3.04-.436,4.56a22.367,22.367,0,0,0-.048,2.484A37.335,37.335,0,0,0,117.545,76.922Zm3.344-59.275a2.315,2.315,0,0,0-.076-1.208.445.445,0,0,0-.476-.38c-.244.012-.292.208-.36.392-.3.84-.588,1.684-.912,2.516a18.455,18.455,0,0,1-1.284,3.056A15.557,15.557,0,0,0,116,26.231c-.7,2.648-1.479,5.275-2.187,7.923a64.068,64.068,0,0,0-1.656,7.268,47.239,47.239,0,0,0-.348,11.172,81.243,81.243,0,0,1,.388,9.616c-.052,1.848-.044,3.7-.14,5.548-.14,2.708-.424,5.4-.708,8.092-.188,1.776-.368,3.552-.464,5.332a98.2,98.2,0,0,0-.088,10.352c.12,2.42.152,4.843.336,7.263q.1,1.284.176,2.568c.18,3,.276,6,.156,9.008a56.059,56.059,0,0,1-.832,7.616c-.292,1.664-.632,3.316-.984,4.972-.292,1.368-.588,2.744-.876,4.116-.424,2.028-.944,4.036-1.408,6.06-.34,1.488-.692,2.98-1.084,4.452-.848,3.2-1.744,6.4-2.592,9.608-.2.74-.392,1.48-.584,2.22q-1.284,5-2.44,10.047c-.356,1.552-.736,3.108-.956,4.688-.228,1.612-.556,3.2-.76,4.82s-.432,3.224-.648,4.8c.116.372-.228.932.312,1,.432.056.34-.528.488-.82a.692.692,0,0,0,.048-.184c.436-1.756.6-3.576,1.18-5.3a12.306,12.306,0,0,0,.448-2.532c.032-.252.12-.5.16-.744.2-1.2.568-2.356.78-3.54.18-1,.348-2.024.588-3,.824-3.332,1.548-6.684,2.336-10.024.092-.368.072-.764.16-1.132a1.536,1.536,0,0,1,.132-.356,12.017,12.017,0,0,0,.668-2.668,7.5,7.5,0,0,0,.548-2.676.756.756,0,0,1,.128-.356,3.181,3.181,0,0,0,.416-1.348,2.728,2.728,0,0,1,.364-1.184c.112-.2.264-.384.2-.616a2.248,2.248,0,0,1,.232-1.3c.408-1.22.868-2.432,1.2-3.676.312-1.164.668-2.324.92-3.5.668-3.144,1.524-6.236,2.072-9.412.38-2.192.692-4.392,1.028-6.588a39.534,39.534,0,0,0,.24-5.632,10.483,10.483,0,0,0-.108-2.768c-.284-1.052-.052-2.124-.3-3.176a5.215,5.215,0,0,1-.128-.94,8.082,8.082,0,0,1,.056-1.356,24.969,24.969,0,0,0-.092-3.236c-.016-1.148.008-2.3-.092-3.439a59.738,59.738,0,0,1-.064-6.5c.02-.828-.06-1.652-.056-2.476,0-1.248.152-2.48.2-3.724a27.817,27.817,0,0,1,.216-3.4,24.179,24.179,0,0,0,.28-2.656c.044-.976.216-1.944.228-2.932.02-1.32.42-2.616.316-3.952a5.456,5.456,0,0,1,.048-1.324,25.331,25.331,0,0,0,.216-4.008c0-.532-.124-1.068-.076-1.608a8.076,8.076,0,0,0,0-3.568,1.1,1.1,0,0,1-.012-.38c-.02-.824.036-1.644-.02-2.476a10.507,10.507,0,0,1-.048-2.48c.144-.828-.28-1.568-.2-2.4a10.492,10.492,0,0,0,.2-1.768c-.056-.616-.384-1.22-.088-1.856-.368-1.476.464-2.86.344-4.32a6.672,6.672,0,0,0,.652-2.564c.124-.948.751-1.812.491-2.836.564-1.012.512-2.208.956-3.264a6.142,6.142,0,0,0,.54-1.1,17.351,17.351,0,0,0,.56-2.355,7.948,7.948,0,0,1,.764-2.1c.34-.968.492-1.976.808-2.948C119.257,22.035,120.405,19.963,120.889,17.647Z" fill="#fcfcfc"/>
    <path d="M186.964,66.766c.576-2.712,1.08-5.444,1.468-8.188a59.574,59.574,0,0,0,.764-7.328q.03-1.626-.04-3.252l1.084-.032c.012.368.028.74.052,1.108.076,1.168-.1,2.356-.1,3.512a38.182,38.182,0,0,0-.312,4.016,5.872,5.872,0,0,1-.6,2.964.651.651,0,0,0-.1.36,5.751,5.751,0,0,1-.292,2.86,6.122,6.122,0,0,0-.184,1.192c-.1,2.02-.664,3.952-.948,5.932A46.575,46.575,0,0,0,187,74.822c-.068,1.876-.5,3.708-.492,5.592,0,1.4-.352,2.78-.292,4.188.064,1.528-.08,3.052,0,4.588.092,1.94.22,3.88.268,5.823.056,2.444.216,4.888.244,7.336a25,25,0,0,0,.172,3.708,6.925,6.925,0,0,1-.18,2.56,2,2,0,0,0-.064.376l-1.016.012c-.028-2.2-.068-4.412-.156-6.616-.048-1.208-.18-2.42-.252-3.632-.164-2.736-.292-5.475-.448-8.211a81.865,81.865,0,0,1,.624-15.3C185.776,72.394,186.368,69.582,186.964,66.766Z"/>
    <path d="M1.147,182.476c-.044-.328-.1-.7-.152-1.124.428.02.852.036,1.28.056l1.5,1.584c-.084-.012-.164-.028-.244-.04-.432-.076-.772-.2-.864-.728a.49.49,0,0,0-.82-.352A3.18,3.18,0,0,0,1.147,182.476Z"/>
    <path d="M189.156,48a32.5,32.5,0,0,0-.964-6.7,24.981,24.981,0,0,1-1.12-5.7,14.083,14.083,0,0,1,.816-4.875,21.968,21.968,0,0,1,3.608-6.488,2.449,2.449,0,0,1,.18-.224c.236-.224.412-.72.808-.456a.948.948,0,0,1,.308,1.116,14.732,14.732,0,0,1-1.224,2.368,17.445,17.445,0,0,0-.968,1.64c-.056.112-.06.292-.144.34-.668.364-.7,1.044-.792,1.652a6.619,6.619,0,0,1-.52,1.427,9.41,9.41,0,0,0-.472,4.508,13.762,13.762,0,0,0,.376,2.908c.188.532.228,1.112.408,1.644a19.781,19.781,0,0,1,.616,3.74,29.261,29.261,0,0,1,.168,3.068Z"/>
    <path d="M80.034,181.872c.332.88.724,1.2,1.5,1.2l-.012.876h-.036q-10.41-.144-20.82-.38c-4.3-.1-8.6-.232-12.9-.36l.024-.744a2.1,2.1,0,0,0,2.012-.872,3.258,3.258,0,0,1,.54-.536,2.887,2.887,0,0,0,.635-1.24c.66-2.044.268-4.172.62-6.244a33.591,33.591,0,0,0,.388-6.216q-.048-2.724.024-5.456a28.6,28.6,0,0,1,.268-2.856c.36-2.847.7-5.7,1.132-8.535.384-2.556.656-5.128.936-7.7.256-2.348.5-4.7.808-7.044.34-2.656.756-5.3,1.228-7.936.516-2.888,1.124-5.764,1.48-8.68.128-1.044.44-2.06.58-3.1.384-2.884,1.256-5.668,1.752-8.532.244-1.408.7-2.784,1.032-4.18.3-1.236.552-2.484.84-3.728.116-.5.268-.984.4-1.476.74-2.74,1.164-5.551,1.824-8.307.356-1.492.7-2.984,1.044-4.48.468-2.016.936-4.036,1.348-6.064.6-2.908,1.3-5.792,1.988-8.676.66-2.76,1.272-5.528,2.048-8.256.5-1.744.82-3.536,1.232-5.3.232-.992.516-1.972.776-2.956.928-3.516,1.876-7.028,2.8-10.54a58.737,58.737,0,0,1,2.56-6.6c.584-1.452,1.156-2.912,1.808-4.336.192-.42-.312-.684-.052-1.064.192-.28.508-.452.6-.827a2.262,2.262,0,0,1,.52-1.232.313.313,0,0,0,.068-.432c-.42-.54-.06-1.1-.06-1.656,0-.188.532-.444-.124-.508-.148-.016,0-.26,0-.4.016-.46.532-.56.592-1.092a16.214,16.214,0,0,0,.072-1.968,6.5,6.5,0,0,1,.684-2.656c.448-1.032.7-2.124,1.036-3.184a9.288,9.288,0,0,0,.248-1.984,6.331,6.331,0,0,1,.332-1.5c.064-.176.112-.432.248-.5.94-.484.944-1.448,1.22-2.272.064-.18.12-.364.184-.544a.712.712,0,0,1,.728-.488c1.1-.064,1.1-.1,1.348-1.2.2-.872.444-1.732.652-2.6.192-.8.564-1.608-.348-2.424,1.532-.156,2.8-.5,4.156-.508,2.336-.008,4.652.3,6.972.46,3,.212,6,.08,9,.156.444.012.892.06,1.336.092.428.024.544.248.444.644a9.141,9.141,0,0,1-.84,2.036c-.852,1.68-1.828,3.3-2.524,5.06-.42,1.072-.62,2.208-1.088,3.268-.6,1.372-1.276,2.7-1.948,4.04-.492.972-.852,2-1.272,3-.848,2.032-1.628,4.092-2.5,6.112-.7,1.6-1.188,3.291-1.876,4.891a12.34,12.34,0,0,1-1.132,2.668,1.871,1.871,0,0,1,0-1.3c.192-1.068.272-2.152.5-3.212a30.685,30.685,0,0,1,2.1-5.9,15.4,15.4,0,0,0,1.348-6.884,5.838,5.838,0,0,1,.2-1.98c.336-1.132.524-2.3.772-3.456a5.909,5.909,0,0,1,.676-2.084c.416-.64.592-1.4,1.076-2.02a1.458,1.458,0,0,0,.1-1.916c-.3-.384-.512-.408-.844-.024a8.644,8.644,0,0,0-.716,1.02,18.206,18.206,0,0,0-2.84,10.472,13.33,13.33,0,0,1-.524,4.068c-.484,1.752-1.172,3.428-1.78,5.136a42.892,42.892,0,0,0-1.2,4.127c-.512,2.072-.92,4.168-1.412,6.244-.436,1.856-.8,3.744-1.2,5.616a71.32,71.32,0,0,1-2.136,7.248c-1.04,3.22-2.1,6.436-2.92,9.72-.04.164-.08.324-.116.488-.5,2.036-.944,4.088-1.4,6.136-.688,3.08-1.352,6.172-1.876,9.284-.44,2.612-.768,5.236-1.008,7.88-.44,4.808-.636,9.628-1.016,14.439q-.438,5.442-.744,10.9c-.068,1.144-.192,2.288-.184,3.44a2.04,2.04,0,0,0,.108,1.044,7.546,7.546,0,0,0,.672-3.028c.2-1.324.336-2.656.48-3.984a1.319,1.319,0,0,1,.172-.54.738.738,0,0,0,.18-.532c-.232-.932.244-1.776.3-2.672.068-1.144.2-2.284.3-3.42.132-1.46.276-2.916.364-4.38.1-1.811.212-3.631.388-5.439.236-2.412.312-4.828.624-7.24.224-1.764.52-3.524.708-5.3.18-1.7.488-3.392.756-5.084.252-1.568.692-3.1.86-4.676.2-1.8.752-3.52,1.084-5.288.08-.432.168-.868.268-1.3a10.631,10.631,0,0,1,.672-2.052c.7-1.516,1.08-3.128,1.708-4.66a17.422,17.422,0,0,0,1.068-3.164,11.587,11.587,0,0,1,.944-2.492c-.172,1.148-.236,2.3-.352,3.448s-.252,2.284-.34,3.428c-.108,1.44-.432,2.84-.668,4.256a17.274,17.274,0,0,0-.28,2.86c.016,2.08-.18,4.144-.336,6.216a51.75,51.75,0,0,1-.924,5.176c-.34,1.884-.74,3.756-1.112,5.632C88.4,83.578,87.93,86.918,87.6,90.282c-.2,2.036-.564,4.052-.772,6.083-.2,2-.488,4-.808,5.984-.412,2.52-.924,5.024-1.408,7.532a49.409,49.409,0,0,0-.78,7.712c-.028.82.052,1.652.024,2.484a25.1,25.1,0,0,1-.484,3.98c-.612,3.228-1.2,6.46-1.724,9.7a26.137,26.137,0,0,0-.216,6.3,16.549,16.549,0,0,1-.164,3.824,34.294,34.294,0,0,0-.388,6.4,10.1,10.1,0,0,0,.088,1.048,7.048,7.048,0,0,1-.232,3.316,14.611,14.611,0,0,0-.376,5.9c.124,1.636-.032,3.256-.012,4.884.008,1.02.132,2.036.072,3.064a61.345,61.345,0,0,1-1.136,7.188c-.26,1.444-.328,2.916-.48,4.376-.048.44-.02.832.52.976C79.742,181.14,79.894,181.5,80.034,181.872Zm10.6-144.738a1.274,1.274,0,0,0,.3-.976,2.742,2.742,0,0,0-1.716-2.128c-.536-.212-1.076-.412-1.624-.568a7.713,7.713,0,0,0-1.972-.336,1.473,1.473,0,0,1-.824-.212c-.44-.364-.9-.22-1.356-.18a1.675,1.675,0,0,0-1.22.844c-.864,1.26-1.732,2.52-2.528,3.824a2.568,2.568,0,0,0,.652,3.428,5.353,5.353,0,0,0,2.324.956,6.787,6.787,0,0,0,.816.1,8.3,8.3,0,0,0,4.1-1.408A10.368,10.368,0,0,0,90.638,37.134ZM66.358,98.009A.783.783,0,0,0,65.87,97a.89.89,0,0,0-1.136.44,5,5,0,0,0-.34.892,44.192,44.192,0,0,0-1.332,6.256,29.936,29.936,0,0,0-.436,3.7c-.064,2.172.12,4.336.144,6.5a6.608,6.608,0,0,0-.092,1.424c.184.8-.032,1.588.1,2.416-.4,2.688-.356,5.436-.672,8.172a106.265,106.265,0,0,1-1.968,11.292c-.824,3.644-1.524,7.3-2.14,10.984-.232,1.384-.432,2.772-.692,4.152-.364,1.944-.8,3.876-1.156,5.819-.448,2.444-.856,4.9-1.252,7.348-.184,1.132-.308,2.276-.428,3.42-.024.228-.128.592.176.676.356.1.424-.3.58-.516a.689.689,0,0,0,.1-.264c.392-1.672.744-3.352,1.184-5.008.312-1.172.348-2.388.744-3.548a17.794,17.794,0,0,0,.58-2.6c.264-1.44.42-2.9.748-4.328.508-2.2.812-4.444,1.24-6.66.4-2.06.708-4.14,1.152-6.192.432-2,.856-3.988,1.212-6,.424-2.412,1.212-4.76,1.324-7.232.084-1.848.628-3.648.6-5.508a18.935,18.935,0,0,1,.168-2.38,12.964,12.964,0,0,0,.152-1.8c-.044-2.768.1-5.536-.12-8.3a5.9,5.9,0,0,1,.088-2c.368-1.388.264-2.832.528-4.24a23.578,23.578,0,0,1,1.148-4.892A5.411,5.411,0,0,0,66.358,98.009Z" fill="#fcfcfc"/>
    <path d="M158.625,91.786c.34-5.068,1.088-10.092,1.648-15.136.172-1.556.34-3.112.52-4.668a3.38,3.38,0,0,1,.436-1.636c.236-.024.264.152.284.3a15.459,15.459,0,0,1,.084,5.2c-.172.9-.108,1.848-.28,2.752-.292,1.524-.444,3.068-.692,4.6a28.992,28.992,0,0,0-.256,3.136c-.124,2.388-.164,4.78-.288,7.168-.068,1.344.1,2.671.052,4.015-.076,2.22.208,4.448.02,6.676a2.786,2.786,0,0,0,.232,1.676c.164.288.024.564-.016.84-.06.408-.032.824-.06,1.22-.112,1.4.224,2.776.032,4.188a23.491,23.491,0,0,0-.212,4.864,32.53,32.53,0,0,1-.044,3.64c-.084,2.232-.144,4.46-.376,6.684-.2,2-.144,4.02-.348,6.016-.176,1.72.14,3.428-.072,5.14-.292,2.376-.252,4.768-.324,7.156-.04,1.324-.024,2.648,0,3.972a3.148,3.148,0,0,1-.148,1.04,6.92,6.92,0,0,0-.192,2.084,5.768,5.768,0,0,1,0,1.052c-.34,1.336-.284,2.724-.524,4.072a3.719,3.719,0,0,1-.564,1.323,2.5,2.5,0,0,1-.236-1.351c.076-3.1.04-6.2.1-9.3.08-4.12.12-8.244.2-12.364.116-5.692.456-11.368.656-17.052.172-4.884.252-9.776.1-14.668C158.229,100.217,158.341,96,158.625,91.786Z"/>
    <path d="M193.292,117.213c.98,4.02.884,8.124.812,12.212-.04,2.132-.42,4.26-.54,6.4-.108,1.908-.264,3.82-.2,5.74.044,1.408-.056,2.812-.068,4.22-.012,1.916.128,3.832.068,5.748l-.18,5.556c-.152,4.631-.624,9.247-.86,13.879a50.557,50.557,0,0,0,.016,7.092c.18,2.016.188,4.016.216,6.028.012.824-.028.88-.864.88q-4.08,0-8.156-.04c-3.008-.032-6.011-.088-9.019-.112-2.432-.02-4.86,0-7.292,0v-.06l-4.48-.036,0-.692a1.663,1.663,0,0,0,1.408-.788,1.438,1.438,0,0,0,.3-.976c-.112-2.4-.236-4.792-.292-7.188q-.108-4.644-.12-9.292c-.008-2.936-.052-5.872-.156-8.807-.144-3.992-.42-7.984-.38-11.98.028-3.092.052-6.188.28-9.28.152-2.064.156-4.144.276-6.212.184-3.092.4-6.18.724-9.264.42-4.028.812-8.064,1.232-12.1.2-1.956.364-3.92.56-5.876.152-1.552.3-3.108.468-4.656.216-2,.428-4,.584-6.007.16-2.036.356-4.068.62-6.1.3-2.336.544-4.68.832-7.02.464-3.74.764-7.5,1.008-11.252q.324-4.968.692-9.928c.216-2.96.4-5.92.632-8.876.236-2.988.376-5.988.868-8.952.14-.848.172-1.712.308-2.56.216-1.34.448-2.676.72-4a37.793,37.793,0,0,0,.5-7.327c0-.6.068-1.208.1-1.816A18.006,18.006,0,0,1,175,19.423c.692-2.224,1.284-4.468,1.812-6.732.064-.276.208-.536.272-.812.064-.3.172-.62-.188-.844s-.34-.524-.28-.912a2.539,2.539,0,0,0-.044-1.6c-.144-.3.028-.552.388-.624a9.446,9.446,0,0,0,2.415-.84c1.016-.508,2.068-.1,3.1-.084a9.664,9.664,0,0,1,3.772.956c1.1.5,2.292.776,3.388,1.316a6.4,6.4,0,0,0,3.536.7,6.258,6.258,0,0,1,3.072.524,3.175,3.175,0,0,0,2.044.132c1.18-.3,1.2-.26,1.22.976.008.7.012,1.408-.048,2.1a51.984,51.984,0,0,0,.3,6.412c.024.608-.008,1.208-.024,1.816a36.239,36.239,0,0,1-.632,5.5c-.256,1.408-.588,2.808-.784,4.231-.356,2.624-.744,5.244-1.036,7.872-.16,1.464-.532,2.888-.712,4.344-.16,1.3-.472,2.576-.532,3.888-.06,1.28-.516,2.5-.648,3.772-.272,2.656-.616,5.3-.912,7.96-.364,3.3-.652,6.6-1.092,9.884-.624,4.62-1.1,9.26-1.608,13.9-.188,1.716-.084,3.444-.124,5.168-.064,2.72.152,5.424.356,8.131.076,1.016.02,2.04.024,3.064.008,2.268.172,4.532.344,6.792q.384,5.016.8,10.028A4.836,4.836,0,0,0,193.292,117.213Zm-.5-92.542a.948.948,0,0,0-.308-1.116c-.4-.264-.572.232-.808.456a2.449,2.449,0,0,0-.18.224,21.968,21.968,0,0,0-3.608,6.488,14.083,14.083,0,0,0-.816,4.875,24.981,24.981,0,0,0,1.12,5.7,32.5,32.5,0,0,1,.964,6.7q.072,1.626.04,3.252a59.574,59.574,0,0,1-.764,7.328c-.388,2.744-.892,5.476-1.468,8.188-.6,2.816-1.188,5.628-1.56,8.48a81.865,81.865,0,0,0-.624,15.3c.156,2.736.284,5.475.448,8.211.072,1.212.2,2.424.252,3.632.088,2.2.128,4.412.156,6.616q.024,1.626.04,3.252c.008.828.016,1.656.008,2.484-.024,2.428-.12,4.852-.152,7.28-.036,2.684-.208,5.36-.4,8.032-.164,2.356-.3,4.716-.54,7.064-.24,2.32-.32,4.656-.5,6.98q-.51,6.45-.652,12.92a87.61,87.61,0,0,0,.416,9.667c.232,2.508.652,5,1.068,7.484a10.015,10.015,0,0,0,.272,1.016c.056.188.136.4.36.384.264-.02.2-.256.212-.448a14.46,14.46,0,0,0-.276-2.936c-.268-2.14-.084-4.312-.492-6.44a1.131,1.131,0,0,1,.04-.38,6.892,6.892,0,0,0,.036-1.436c-.072-1.884-.164-3.768-.172-5.651,0-2.168.048-4.336.124-6.5.056-1.692.176-3.38.284-5.072.152-2.324.284-4.648.524-6.968a14.79,14.79,0,0,0,.2-4.384.53.53,0,0,1,.056-.456c.268-.336.176-.732.2-1.108.132-2.164.3-4.332.384-6.5a45.666,45.666,0,0,0,.12-4.684c-.04-.652-.064-1.324-.04-1.976.032-.944.2-1.892.148-2.836-.068-1.332,0-2.664-.028-4a23.851,23.851,0,0,0-.212-4.716.654.654,0,0,1-.008-.088,2,2,0,0,1,.064-.376,6.925,6.925,0,0,0,.18-2.56,25,25,0,0,1-.172-3.708c-.028-2.448-.188-4.892-.244-7.336-.048-1.943-.176-3.883-.268-5.823-.076-1.536.068-3.06,0-4.588-.06-1.408.3-2.792.292-4.188-.008-1.884.424-3.716.492-5.592a46.575,46.575,0,0,1,.764-4.912c.284-1.98.852-3.912.948-5.932a6.122,6.122,0,0,1,.184-1.192,5.751,5.751,0,0,0,.292-2.86.651.651,0,0,1,.1-.36,5.872,5.872,0,0,0,.6-2.964,38.182,38.182,0,0,1,.312-4.016c0-1.156.172-2.344.1-3.512-.024-.368-.04-.74-.052-1.108a29.261,29.261,0,0,0-.168-3.068,19.781,19.781,0,0,0-.616-3.74c-.18-.532-.22-1.112-.408-1.644a13.762,13.762,0,0,1-.376-2.908,9.41,9.41,0,0,1,.472-4.508,6.619,6.619,0,0,0,.52-1.427c.088-.608.124-1.288.792-1.652.084-.048.088-.228.144-.34a17.445,17.445,0,0,1,.968-1.64A14.732,14.732,0,0,0,192.792,24.671Z" fill="#fcfcfc"/>
    <path d="M226.092,13.739c.4-.068.384.236.384.492a30.646,30.646,0,0,1-.148,3.736c-.352,2.952-.416,5.924-.556,8.888a69.056,69.056,0,0,1-.768,7.6,32.411,32.411,0,0,0-.276,6.1,26.164,26.164,0,0,1-.092,2.684c-.1,1.3,0,2.608,0,3.916,0,1.624-.092,3.252-.216,4.872-.2,2.676-.392,5.352-.432,8.036-.052,3.216-.08,6.436-.244,9.652-.08,1.524-.008,3.06-.076,4.58-.124,2.676.012,5.36-.26,8.032a18.811,18.811,0,0,0-.02,2.016c.028,1.688-.128,3.38-.112,5.064.024,1.976-.2,3.944-.092,5.915.02.348-.084.7-.068,1.052.1,2.648-.092,5.288-.2,7.932-.16,4.08-.292,8.164-.1,12.252.16,3.544.112,7.092.224,10.636.084,2.648.184,5.3.276,7.944.092,2.748.044,5.5.072,8.248.02,1.952.04,3.9.116,5.852.02.576.02,1.148-.016,1.72-.144,2.5.2,4.976.208,7.468.012,2.875.012,5.755.244,8.615.176,2.132.092,4.272.332,6.4.2,1.74.22,3.5.284,5.256.02.524.236.988.3,1.5a41.606,41.606,0,0,1-.22,4.3c0,.456-.272.584-.7.58-1.244,0-2.492.028-3.74.024-1.024,0-2.048-.076-3.068-.044-1.856.064-3.708-.12-5.56-.052q-5.856,0-11.708,0a6.071,6.071,0,0,1-.764-.036,1.376,1.376,0,0,1-1.244-1.324,30.315,30.315,0,0,0-.052-3.248,6.428,6.428,0,0,1,.284-1.792,22.762,22.762,0,0,0,.344-4.572,30.136,30.136,0,0,1,.448-5.812,5.948,5.948,0,0,0-.2-2.268,20.3,20.3,0,0,1-.344-4.168,53.033,53.033,0,0,1,.236-5.355c.248-2.028-.048-4.064.3-6.092a20.32,20.32,0,0,0,.084-3.352,3.749,3.749,0,0,1,.228-1.4,5.266,5.266,0,0,0,.336-2.54,9.609,9.609,0,0,1,.288-3.424,10.213,10.213,0,0,0-.088-3.236,13.147,13.147,0,0,1,.016-3.34,2.228,2.228,0,0,0,0-1.04,13.178,13.178,0,0,1-.424-3.128,42.813,42.813,0,0,1-.312-6.2,6.361,6.361,0,0,1,.164-2.44.657.657,0,0,0-.036-.376,25.126,25.126,0,0,1-.512-6.452,12.736,12.736,0,0,0-.352-3.416,11.662,11.662,0,0,1-.34-2.364c-.116-1.624-.148-3.256-.152-4.884a19.826,19.826,0,0,0-.2-3.044,1.131,1.131,0,0,1-.04-.188c.164-2.2-.3-4.388-.252-6.587.04-2.232-.068-4.464-.088-6.692a22.046,22.046,0,0,1,.38-4.76,15.112,15.112,0,0,0,.344-3.708,21.911,21.911,0,0,1,.952-6.22,6.88,6.88,0,0,0,.24-2.176,5.779,5.779,0,0,1,.288-1.972c.34-1.164.724-2.312.988-3.5.124-.548.48-1.028.612-1.6.356-1.576.508-3.188.944-4.752.128-.456.288-.908.412-1.364a7,7,0,0,0-.04-3.32,15.9,15.9,0,0,1,.188-5.008c.1-1,.54-1.948.592-2.98a4.746,4.746,0,0,1,.54-2.024.967.967,0,0,0-.024-1.164.663.663,0,0,1-.116-.544c.028-.2.012-.444-.156-.524-.728-.34-.5-.892-.424-1.468.232-1.736.412-3.48.616-5.22.356-2.983.68-5.963.84-8.963.12-2.232.064-4.46.016-6.692a16.122,16.122,0,0,1,.032-1.916,1.522,1.522,0,0,0-.524-1.456,1.311,1.311,0,0,1-.272-.264.563.563,0,0,1,.464-.94c1.344-.056,2.636-.428,3.964-.588a4.862,4.862,0,0,0,1.54-.472,13,13,0,0,1,4.672-1.244,1.056,1.056,0,0,1,.628.172,9.962,9.962,0,0,0,5.6,1.288,7.139,7.139,0,0,1,2.828.436A5.607,5.607,0,0,0,226.092,13.739Zm-6.756,61.735a15.317,15.317,0,0,0-1.368-5.468,3.428,3.428,0,0,0-2.516-1.872,2.453,2.453,0,0,0-2.872,2.108,6.916,6.916,0,0,1-.64,2.288,4.066,4.066,0,0,0-.38,1.28c-.108.956-.22,1.908-.276,2.864a4.454,4.454,0,0,0,.572,2.392,3.121,3.121,0,0,0,4.164,1.168c.252-.136.512-.268.772-.384C218.516,79.07,219.312,77.71,219.336,75.474Zm-7.308-15.828a2.938,2.938,0,0,0,.2-2.684c-.4-1.4-.7-2.816-1.188-4.184-.164-.456-.156-.936-.308-1.4a16.13,16.13,0,0,1-1.216-6.164,12.215,12.215,0,0,0,.168-2.912,1.433,1.433,0,0,1,.144-.74,1.35,1.35,0,0,0,.152-.824,3.669,3.669,0,0,1,.2-2.056c.308-1.324.6-2.656.936-3.976a1.514,1.514,0,0,0-.472-1.536.4.4,0,0,0-.7.108,4.741,4.741,0,0,0-.232.824c-.348,1.456-.668,2.916-1.04,4.368a23.164,23.164,0,0,0-.652,4.344,20.849,20.849,0,0,0,.608,6.068,74.671,74.671,0,0,0,2.812,9.828A1.906,1.906,0,0,0,212.028,59.646Zm-1.948,84.723a54.638,54.638,0,0,0-.188-5.836,5.768,5.768,0,0,1-.176-.932,37.093,37.093,0,0,0-.18-6c-.128-2.324-.356-4.64-.612-6.956a32.413,32.413,0,0,0-1.14-5.78c-.324-1.064-.708-2.12-1.024-3.192a22.61,22.61,0,0,1-1.092-6.3,45.731,45.731,0,0,1,.88-7.376,38.138,38.138,0,0,0,.528-4.172c.148-.5-.44-1.184-.34-1.968.016-.14-.14-.28-.316-.312a.348.348,0,0,0-.4.2,1.767,1.767,0,0,0-.2.536c-.316,2.468-.832,4.9-1.224,7.356a31.351,31.351,0,0,0,1.076,14.3,52.478,52.478,0,0,1,1.508,6.528c.28,1.672.34,3.368.564,5.04.424,3.172.524,6.364.66,9.548a54.4,54.4,0,0,1-.4,8.608c-.432,3.652-1.152,7.244-1.876,10.844-.252,1.247-.7,2.459-.832,3.735-.02.2-.08.42.112.516.232.12.34-.132.428-.276a11.861,11.861,0,0,1,1.252-1.916,1.217,1.217,0,0,0,.184-.436c.816-2.611,1.38-5.291,2.024-7.947a30.117,30.117,0,0,0,.456-4.224C209.876,146.761,210.044,145.565,210.08,144.369Z" fill="#fcfcfc"/>
    <path d="M.679,178.632c.024.26.052.512.076.756a.473.473,0,0,1-.34.06h0l-.264-.28c0-.008,0-.016-.008-.024Z"/>
    <path d="M6.363,185.716l-1.336-1.408a.58.58,0,0,0,.312-.5c.048-.432-.288-.54-.588-.624a8.709,8.709,0,0,0-.972-.2l-1.5-1.584c.576.024,1.152.048,1.728.076.668.7,1.332,1.4,2,2.1a1.788,1.788,0,0,0,1.228,1.3Z"/>
    <path d="M.607,181.336c-.16-.768-.316-1.528-.428-2.024a.468.468,0,0,0,.132.1c.036.016.068.028.1.04h0l.392.416c.064.544.124,1.04.188,1.488C.867,181.348.735,181.34.607,181.336Z"/>
    <path d="M162.317,57.534a22.5,22.5,0,0,1,.032-3.076c0-1.4.12-2.8.14-4.2.052-3.224.06-6.452.112-9.676a63.466,63.466,0,0,1,.976-9.2c.336-2.075.648-4.159.972-6.239a2.789,2.789,0,0,1,.28-1.012.378.378,0,0,1,.636-.128c.276.252.6.5.512.964a9.748,9.748,0,0,1-.236,2.176,1.35,1.35,0,0,0-.044.66,1.849,1.849,0,0,1-.024.94,7.069,7.069,0,0,0-.524,2.371c-.12.868-.164,1.764-.228,2.644-.008.128.08.316.02.372-.64.616-.172,1.48-.508,2.164a.59.59,0,0,0,0,.372c.224.868-.272,1.748-.084,2.54.228.988-.36,1.788-.272,2.72.116,1.188.016,2.388.052,3.588a21.492,21.492,0,0,1-.236,3.112c-.22,1.964-.312,3.94-.58,5.9-.124.912-.356,1.792-.536,2.688C162.741,57.386,162.637,57.5,162.317,57.534Z"/>
    <path d="M103.69,147.2c.848-3.208,1.744-6.4,2.592-9.608.392-1.472.744-2.964,1.084-4.452.464-2.024.984-4.032,1.408-6.06.288-1.372.584-2.748.876-4.116.352-1.656.692-3.308.984-4.972a56.059,56.059,0,0,0,.832-7.616c.12-3.008.024-6.008-.156-9.008l1.112-.068a5.215,5.215,0,0,0,.128.94c.248,1.052.016,2.124.3,3.176a10.483,10.483,0,0,1,.108,2.768,39.534,39.534,0,0,1-.24,5.632c-.336,2.2-.648,4.4-1.028,6.588-.548,3.176-1.4,6.268-2.072,9.412-.252,1.176-.608,2.336-.92,3.5-.336,1.244-.8,2.456-1.2,3.676a2.248,2.248,0,0,0-.232,1.3c.06.232-.092.42-.2.616a2.728,2.728,0,0,0-.364,1.184,3.181,3.181,0,0,1-.416,1.348.756.756,0,0,0-.128.356,7.5,7.5,0,0,1-.548,2.676,12.017,12.017,0,0,1-.668,2.668,1.536,1.536,0,0,0-.132.356Z"/>
    <path d="M.755,179.388c-.024-.244-.052-.5-.076-.756L1,178.324l.444.468a1.867,1.867,0,0,1-.44.428A2.758,2.758,0,0,1,.755,179.388Z"/>
    <path d="M18.031,127.589a8.887,8.887,0,0,0,2.46.068,4.109,4.109,0,0,1,2.144.344,1.183,1.183,0,0,1,.848,1.052,7.711,7.711,0,0,1-.756,4.624c-1.152,1.9-3.968,3.04-6.032.988a4.443,4.443,0,0,1-1.144-3.12,5.557,5.557,0,0,1,.784-3.14A1.625,1.625,0,0,1,18.031,127.589Zm2.188,1.34a3.327,3.327,0,0,0-1.012-.06,5.229,5.229,0,0,0-.784.156c-.048.016-.1.036-.144.056-.2.088-.392.184-.58.288a2.083,2.083,0,0,0-.68.788,2.425,2.425,0,0,0-.244,1.1.536.536,0,0,1,0,.08c.02.188.052.4.084.588,0,.016,0,.032,0,.044a.437.437,0,0,0,.02.068c.028.092.084.216.108.276s.072.192.112.28a.4.4,0,0,0,.028.06.064.064,0,0,1,.016.028c.092.136.22.312.32.444a.6.6,0,0,0,.084.092c.136.128.284.248.428.364a.585.585,0,0,1,.052.036c.036.028.076.052.112.08.084.052.172.1.252.156a1.352,1.352,0,0,0,.72.244,1.3,1.3,0,0,0,.768-.052c.024-.008.04-.02.064-.028s.04.008.064.008c.168-.028.34-.06.508-.088a1.9,1.9,0,0,0,.84-.568.936.936,0,0,0,.1-.124c.112-.16.224-.328.328-.492.012-.02.024-.044.036-.064s.016-.036.024-.052,0-.02.008-.028c.056-.144.148-.384.192-.532a2.058,2.058,0,0,0,.048-.384,1.683,1.683,0,0,0-.012-.648,3.07,3.07,0,0,0-.044-.324s0-.012-.008-.016a.024.024,0,0,0,0-.016c-.068-.172-.136-.344-.2-.512a.415.415,0,0,0-.016-.04.055.055,0,0,0-.012-.016c-.052-.092-.248-.356-.312-.44-.02-.024-.04-.044-.06-.064a3.47,3.47,0,0,0-.46-.376.352.352,0,0,0-.04-.024c-.16-.08-.336-.16-.5-.228A.875.875,0,0,0,20.219,128.929Z"/>
    <path d="M216.96,77.186c.064-.716.1-1.436.156-2.152a8.578,8.578,0,0,1-.028,1.568,4.184,4.184,0,0,1-.132.66A.484.484,0,0,0,216.96,77.186Z" fill="#fcfcfc"/>
    <path d="M82.242,40.458a.758.758,0,0,1-.34-.264A1.984,1.984,0,0,0,82.242,40.458Z" fill="#fcfcfc"/>
    <path d="M244.543,152.989a7.049,7.049,0,0,1-.384-2.112,4.022,4.022,0,0,1-.024-1.052,43.578,43.578,0,0,0-.1-5.916c-.068-1.528-.056-3.06-.18-4.588q-.444-5.442-.8-10.892c-.248-3.828-.483-7.652-.655-11.48-.132-2.9-.188-5.812-.224-8.716-.048-3.832-.1-7.66-.052-11.488.032-2.807-.128-5.623.136-8.427.02-.176-.064-.392.188-.492.279.072.279.316.291.528a12.878,12.878,0,0,1,.1,2.388.867.867,0,0,0,.012.38c.508,1.408.256,2.908.5,4.359a25.461,25.461,0,0,1,.076,2.832c.1,1.852-.036,3.7-.016,5.54.016,1.4-.1,2.792-.012,4.176.144,2.28.136,4.564.272,6.836.124,2.036.16,4.08.372,6.112.128,1.2.168,2.424.18,3.636.016,1.784.22,3.556.344,5.332a21.12,21.12,0,0,1,.088,3.336,4.446,4.446,0,0,0,.076,1.236,23.58,23.58,0,0,1,.144,3.6c.052,1.34-.136,2.676-.028,4.008a20.587,20.587,0,0,1-.008,2.484c-.048,1.332-.008,2.668-.012,4,0,1.184-.008,2.364-.024,3.548A.913.913,0,0,1,244.543,152.989Z"/>
    <path d="M6.115,182.42A1.931,1.931,0,0,0,6,183.588c-.668-.7-1.332-1.4-2-2.1.576.024,1.152.052,1.724.076l.54.572A1.2,1.2,0,0,0,6.115,182.42Z"/>
    <path d="M206.736,95.861c-.1.784.488,1.468.34,1.968a38.138,38.138,0,0,1-.528,4.172,45.731,45.731,0,0,0-.88,7.376,22.61,22.61,0,0,0,1.092,6.3c.316,1.072.7,2.128,1.024,3.192a32.413,32.413,0,0,1,1.14,5.78c.256,2.316.484,4.632.612,6.956a37.093,37.093,0,0,1,.18,6,5.768,5.768,0,0,0,.176.932,54.638,54.638,0,0,1,.188,5.836c-.036,1.2-.2,2.392-.32,3.588a30.117,30.117,0,0,1-.456,4.224c-.644,2.656-1.208,5.336-2.024,7.947a1.217,1.217,0,0,1-.184.436,11.861,11.861,0,0,0-1.252,1.916c-.088.144-.2.4-.428.276-.192-.1-.132-.32-.112-.516.136-1.276.58-2.488.832-3.735.724-3.6,1.444-7.192,1.876-10.844a54.4,54.4,0,0,0,.4-8.608c-.136-3.184-.236-6.376-.66-9.548-.224-1.672-.284-3.368-.564-5.04a52.478,52.478,0,0,0-1.508-6.528,31.351,31.351,0,0,1-1.076-14.3c.392-2.456.908-4.888,1.224-7.356a1.767,1.767,0,0,1,.2-.536.348.348,0,0,1,.4-.2C206.6,95.581,206.752,95.721,206.736,95.861Z"/>
    <path d="M172.689,13.447c.544-.124.848.172.636.676a28.283,28.283,0,0,0-.936,3.6c-.472,1.684-1.028,3.344-1.456,5.04a16.641,16.641,0,0,0-.172,3.628,35.686,35.686,0,0,1-.788,8.447,19.623,19.623,0,0,0-.392,2.744c-.236,1.864-.532,3.72-.636,5.6-.132,2.42-.312,4.836-.576,7.244-.216,1.968-.284,3.944-.476,5.916-.224,2.316-.324,4.648-.528,6.968-.272,3.148-.476,6.3-.736,9.456-.2,2.42-.5,4.832-.768,7.24-.3,2.7-.644,5.388-.94,8.084-.34,3.112-.712,6.224-.964,9.343-.248,3.056-.62,6.1-.9,9.156-.368,4.136-.988,8.248-1.408,12.38-.328,3.208-.544,6.428-.764,9.648-.2,3.032-.352,6.064-.516,9.1-.116,2.14-.084,4.284-.144,6.42-.108,3.872.152,7.732.2,11.6a44.224,44.224,0,0,0,.236,4.879,8.563,8.563,0,0,1,.012,1.724c-.156,1.856,0,3.708-.024,5.56-.02,2.3.12,4.6-.024,6.9a23.126,23.126,0,0,0,.1,2.68c.1,1.756.236,3.512.208,5.272a.971.971,0,0,0,.752,1.052,3.056,3.056,0,0,0,1.056.224l0,.692c-6.468-.052-12.936-.108-19.408-.112a5.119,5.119,0,0,1-2.192-.868c-.24-.108-.276-.492-.32-.776a18.647,18.647,0,0,1-.26-3.624c.124-2.184.272-4.368.572-6.544.172-1.284.144-2.6.208-3.9a2.4,2.4,0,0,1,0-.38c.372-1.664.164-3.372.424-5.052.164-1.06-.24-2.16-.056-3.236.168-1-.028-2.011.216-3.023a8.154,8.154,0,0,0-.108-1.668,53.609,53.609,0,0,1,.456-5.712,32.384,32.384,0,0,0,.148-7.52,7.038,7.038,0,0,1,.188-1.984c.224-1.392.06-2.808.352-4.2.088-.428.1-.888.224-1.316.416-1.536.14-3.112.3-4.664.088-.892.236-1.772.4-2.644a24.165,24.165,0,0,0,.312-2.56c.112-1.268.28-2.532.428-3.8a2.986,2.986,0,0,0,.044-.38,24.945,24.945,0,0,1,.484-5.228,40.731,40.731,0,0,0,.284-5.924,29.172,29.172,0,0,1,1.044-7.26,7.354,7.354,0,0,0,.248-1.412c.3-3.172.568-6.343.876-9.515.116-1.232.308-2.46.464-3.692.292-2.372.616-4.74.852-7.12a20.915,20.915,0,0,1,.144-2.172c.168-.816-.388-1.324-.892-1.764-.352-.312-.324-.58-.108-.792,1-.956.776-2.188.744-3.328-.04-1.476.144-2.928.208-4.388a37.439,37.439,0,0,1,.632-4.636,21.857,21.857,0,0,1,1.188-5.576,8.943,8.943,0,0,0,.664-3.728c.024-2.348.32-4.684.312-7.04,0-.724-.008-1.456-.008-2.184a6.609,6.609,0,0,1,.36-2.144,12.06,12.06,0,0,0,.544-2.9c.116-1.58.364-3.136.564-4.7.152-1.18.528-2.344.588-3.528.088-1.835.644-3.595.724-5.435a15.778,15.778,0,0,1,.736-3.144c.3-1.192.648-2.368.836-3.6.192-1.256.532-2.492.6-3.768.032-.64.268-1.236.344-1.86a.422.422,0,0,1,.52-.416,49.98,49.98,0,0,0,5.252-.176,16.654,16.654,0,0,1,3.228.356,8.641,8.641,0,0,0,2,.112A27.978,27.978,0,0,0,172.689,13.447Zm-13.4,125.018c.212-1.712-.1-3.42.072-5.14.2-2,.144-4.02.348-6.016.232-2.224.292-4.452.376-6.684a32.53,32.53,0,0,0,.044-3.64,23.491,23.491,0,0,1,.212-4.864c.192-1.412-.144-2.788-.032-4.188.028-.4,0-.812.06-1.22.04-.276.18-.552.016-.84a2.786,2.786,0,0,1-.232-1.676c.188-2.228-.1-4.456-.02-6.676.048-1.344-.12-2.671-.052-4.015.124-2.388.164-4.78.288-7.168a28.992,28.992,0,0,1,.256-3.136c.248-1.532.4-3.076.692-4.6.172-.9.108-1.852.28-2.752a15.459,15.459,0,0,0-.084-5.2c-.02-.148-.048-.324-.284-.3a3.38,3.38,0,0,0-.436,1.636c-.18,1.556-.348,3.112-.52,4.668-.56,5.044-1.308,10.068-1.648,15.136-.284,4.215-.4,8.431-.268,12.647.148,4.892.068,9.784-.1,14.668-.2,5.684-.54,11.36-.656,17.052-.084,4.12-.124,8.244-.2,12.364-.06,3.1-.024,6.2-.1,9.3a2.5,2.5,0,0,0,.236,1.351,3.719,3.719,0,0,0,.564-1.323c.24-1.348.184-2.736.524-4.072a5.768,5.768,0,0,0,0-1.052,6.92,6.92,0,0,1,.192-2.084,3.148,3.148,0,0,0,.148-1.04c-.02-1.324-.036-2.648,0-3.972C159.037,143.233,159,140.841,159.289,138.465Zm6.688-113.494c.084-.46-.236-.712-.512-.964a.378.378,0,0,0-.636.128,2.789,2.789,0,0,0-.28,1.012c-.324,2.08-.636,4.164-.972,6.239a63.466,63.466,0,0,0-.976,9.2c-.052,3.224-.06,6.452-.112,9.676-.02,1.4-.14,2.8-.14,4.2a22.5,22.5,0,0,0-.032,3.076c.32-.032.424-.148.456-.316.18-.9.412-1.776.536-2.688.268-1.96.36-3.936.58-5.9a21.492,21.492,0,0,0,.236-3.112c-.036-1.2.064-2.4-.052-3.588-.088-.932.5-1.732.272-2.72-.188-.792.308-1.672.084-2.54a.59.59,0,0,1,0-.372c.336-.684-.132-1.548.508-2.164.06-.056-.028-.244-.02-.372.064-.88.108-1.776.228-2.644a7.069,7.069,0,0,1,.524-2.371,1.849,1.849,0,0,0,.024-.94,1.35,1.35,0,0,1,.044-.66A9.748,9.748,0,0,0,165.977,24.971Z" fill="#fcfcfc"/>
    <path d="M214.028,79.054c.028.02.06.04.092.06A.454.454,0,0,1,214.028,79.054Z" fill="#fcfcfc"/>
    <path d="M98.614,174.772c-.54-.068-.2-.628-.312-1,.216-1.576.448-3.188.648-4.8s.532-3.208.76-4.82c.22-1.58.6-3.136.956-4.688q1.152-5.038,2.44-10.047c.192-.74.384-1.48.584-2.22l1.112.3c-.088.368-.068.764-.16,1.132-.788,3.34-1.512,6.692-2.336,10.024-.24.975-.408,2-.588,3-.212,1.184-.576,2.344-.78,3.54-.04.248-.128.492-.16.744a12.306,12.306,0,0,1-.448,2.532c-.584,1.728-.744,3.548-1.18,5.3a.692.692,0,0,1-.048.184C98.954,174.244,99.046,174.828,98.614,174.772Z"/>
    <path d="M.139,179.144c0,.008,0,.016.008.024l-.016-.016Z"/>
    <path d="M83.158,40.71a3.89,3.89,0,0,0,3.024-1.584l0,0c.184-.12.36-.244.536-.38a.82.82,0,0,0,.2.012,1.868,1.868,0,0,0,1.348-.656,2.508,2.508,0,0,0,.152-.228.185.185,0,0,0,.028-.028,2.194,2.194,0,0,0,.448-.8,2.924,2.924,0,0,0-.22-2.328,2.115,2.115,0,0,0-.7-.764,1.9,1.9,0,0,0-.46-.208l.084-.284c.548.156,1.088.356,1.624.568a2.742,2.742,0,0,1,1.716,2.128,1.274,1.274,0,0,1-.3.976,10.368,10.368,0,0,1-3.056,3.344,8.3,8.3,0,0,1-4.1,1.408,6.787,6.787,0,0,1-.816-.1l.168-1.1A1.7,1.7,0,0,0,83.158,40.71Z"/>
    <path d="M26.859,43.018A63.94,63.94,0,0,0,28.3,34.342c.14-1.716.18-3.439.36-5.155.164-1.564.488-3.092.764-4.632.42-2.328,1.128-4.592,1.46-6.936a35.3,35.3,0,0,1,.808-4.332,4.671,4.671,0,0,1,.976-2.152,1.029,1.029,0,0,1-.084.956,11.973,11.973,0,0,0-.8,5.64,8.163,8.163,0,0,1-.552,3.568,14.772,14.772,0,0,0-1.052,4.908c-.04,1.008-.34,2.008-.428,3.016-.124,1.452-.608,2.879-.328,4.363.088.456-.208.868-.2,1.316a41.791,41.791,0,0,1-1.092,8.424,42.943,42.943,0,0,1-2.224,8.008,54.461,54.461,0,0,0-2.092,6.16,49.893,49.893,0,0,0-1.428,6.436,21,21,0,0,1-.8,4.108,9.139,9.139,0,0,0-.672,1.764,21.952,21.952,0,0,1-.96,4.372,5.8,5.8,0,0,0-.2.684l-.72-.168c.08-.336.16-.668.244-1a46.766,46.766,0,0,0,1.116-5.624c.18-1.456.508-2.9.664-4.352A37.2,37.2,0,0,1,23.4,54.35c.652-1.7,1.14-3.452,1.78-5.152A45.355,45.355,0,0,0,26.859,43.018Z"/>
    <path d="M53.7,111.725c.516,1,.044,1.96-.2,2.876-.848,3.212-1.336,6.492-1.88,9.764a44.611,44.611,0,0,1-1.187,5.032,44.714,44.714,0,0,0-1.36,6.756c-.452,3.616-.808,7.24-1.384,10.84-.364,2.268-.584,4.556-.884,6.836a17.834,17.834,0,0,0,.052,4.208,43.131,43.131,0,0,1-.068,6.227,44.492,44.492,0,0,0,.028,6.324,29.672,29.672,0,0,1-.14,4.216c-.092,2.108-.192,4.216-.16,6.324.016.868.416,1.32,1.264,1.336l-.024.744-9.736-.3q-4.122-.12-8.248-.264c-.288-.008-.576-.028-.86-.052s-.412-.176-.48-.48a11.834,11.834,0,0,1,.256-5.648,40.147,40.147,0,0,0,.8-4.02c.26-1.768.212-3.556.532-5.324a16.224,16.224,0,0,0,.216-5.408,13.345,13.345,0,0,1,.032-3.243c.152-1.68.34-3.356.344-5.052,0-1.5.136-3,.2-4.5.056-1.272.1-2.548.156-3.82a4.8,4.8,0,0,1,.084-.76,4.759,4.759,0,0,0,.132-2.084,1.861,1.861,0,0,1,.04-.66,29.965,29.965,0,0,0,.42-3.88c.012-1.044.384-2.068.3-3.132a22.579,22.579,0,0,1,.492-4.428,12.305,12.305,0,0,0,.244-3.712,1.887,1.887,0,0,1,.14-.936,9.881,9.881,0,0,0,.184-3.14,26.971,26.971,0,0,1,.264-4.548,22.635,22.635,0,0,0,.3-3.24c.048-1.564.092-3.132.1-4.7.012-1.444.288-2.86.4-4.292.092-1.2.068-2.416.28-3.608a32.966,32.966,0,0,1,.76-4.524,8.335,8.335,0,0,0,.3-2.364c.032-1.339.332-2.639.436-3.967a3.911,3.911,0,0,0,.024-.944c-.136-.844.324-1.6.38-2.436a20.064,20.064,0,0,1,.5-3.192c.3-1.28.236-2.6.536-3.876.176-.736.364-1.468.572-2.2a27.711,27.711,0,0,0,1.036-4.66,1.686,1.686,0,0,1,.18-.54,17.144,17.144,0,0,0,1.236-4,17.2,17.2,0,0,1,.972-2.9c.564-1.46.868-3,1.4-4.472.764-2.136,1.16-4.364,1.716-6.552.228-.9.7-1.772.876-2.708a13.244,13.244,0,0,0,.54-3.648.553.553,0,0,1,.092-.272,11.731,11.731,0,0,0,.876-3.708A18.1,18.1,0,0,1,47.8,41.342a9.9,9.9,0,0,0,.6-3.56,12.528,12.528,0,0,1,.432-3.588,24.087,24.087,0,0,0,.64-3.475,18.24,18.24,0,0,1,.444-3.616,25.566,25.566,0,0,0,.744-3.544,9.881,9.881,0,0,1,.779-2.448,5.738,5.738,0,0,0,.416-1.276,12,12,0,0,1,1.52-4.012,11.261,11.261,0,0,0,1.308-3.172,12.743,12.743,0,0,1,1.62-3.344,3.19,3.19,0,0,0,.36-.672c.228-.744.232-.744.9-.472a11.292,11.292,0,0,0,5.344.812c.792-.068,1.6-.032,2.4-.04a2.044,2.044,0,0,1,1.616.912,5.906,5.906,0,0,0,3.732,2.1c2.076.416,4.06-.036,6.08-.256a27.057,27.057,0,0,1,3.248-.42,8.239,8.239,0,0,1-1.244,2.84,1.374,1.374,0,0,0-.368.652c-.42,2.272-1.336,4.392-1.976,6.6-.72,2.48-1.352,4.988-1.924,7.512q-.528,2.328-1.18,4.631c-.608,2.144-.972,4.352-1.468,6.528a60.067,60.067,0,0,1-1.424,6.048c-.4,1.172-.84,2.336-1.26,3.5-.744,2.072-1.476,4.144-2.228,6.212a19,19,0,0,0-1.144,3.148,65.508,65.508,0,0,1-1.8,6.344c-.344,1.192-.52,2.436-.808,3.644-.336,1.428-.748,2.844-1.068,4.276-.476,2.116-.844,4.264-1.364,6.368-.828,3.348-1.476,6.736-2.4,10.06-.688,2.488-1.232,5.016-1.728,7.551-.584,3-1.148,6.02-1.844,9-.4,1.68-.544,3.408-1.028,5.064A.742.742,0,0,0,53.7,111.725ZM62.09,21.8a3.667,3.667,0,0,0,.856-2.536c-.028-.156,0-.344-.2-.368a.524.524,0,0,0-.336.136,1.6,1.6,0,0,0-.244.3,50.515,50.515,0,0,0-5.408,8.228,12,12,0,0,0-1.244,3.2,44.522,44.522,0,0,0-.592,6.479c-.076,2.3.064,4.6.02,6.9-.012.888-.056,1.776-.148,2.668a41.72,41.72,0,0,1-.9,5.18c-.376,1.64-.852,3.268-1.328,4.892-.54,1.832-.884,3.72-1.356,5.576-.2.772-.3,1.568-.539,2.324a18.392,18.392,0,0,0-.712,3.84c-.148,1.612-.284,3.232-.384,4.852-.18,2.924-.4,5.852-.74,8.768-.34,2.86-1.048,5.632-1.656,8.436-.188.872-.428,1.732-.664,2.592s-.472,1.719-.652,2.595c-.456,2.216-1.12,4.388-1.588,6.6-.416,1.956-.792,3.924-1.128,5.892-.308,1.788-.668,3.568-.88,5.372-.176,1.488-.516,2.956-.732,4.436-.556,3.824-1.084,7.648-1.624,11.472-.5,3.568-.988,7.14-1.524,10.7-.544,3.628-1.132,7.252-1.712,10.872-.472,2.932-.968,5.86-1.432,8.791-.364,2.268-.7,4.54-1.036,6.812a1.479,1.479,0,0,0,.092,1.124,1.261,1.261,0,0,0,.644-.94c.144-.684.4-1.36.5-2.028.108-.744.528-1.352.608-2.088a13.679,13.679,0,0,1,.32-1.776,14.621,14.621,0,0,0,.488-2.231c.136-1.812.608-3.56.916-5.34.132-.784.336-1.556.48-2.34.5-2.748.832-5.524,1.276-8.284.268-1.652.552-3.3.708-4.964a5.807,5.807,0,0,1,.184-1.324c.648-1.928.508-3.976.952-5.932.292-1.284.3-2.6.512-3.884.144-.884.336-1.756.448-2.64.188-1.452.444-2.9.64-4.344.224-1.672.412-3.352.644-5.02.252-1.82.7-3.6.836-5.448a9.118,9.118,0,0,1,.28-2.164,26.593,26.593,0,0,0,.612-3.184c.36-1.716.728-3.428,1.088-5.144a13.914,13.914,0,0,0,.572-3.076c-.02-.871.424-1.6.388-2.427.7-.892.372-2.14,1.052-3.044.1-.14.088-.368.136-.556.16-.648.324-1.3.484-1.952A48.555,48.555,0,0,0,50.2,82.206c.156-1.256.208-2.524.34-3.78.2-1.9.279-3.812.4-5.716a21.747,21.747,0,0,1,.324-3.132c.26-1.208.4-2.436.7-3.636.532-2.1.9-4.248,1.456-6.34.876-3.332,1.6-6.692,2.256-10.068.1-.5.188-1,.24-1.512.128-1.284.164-2.568.188-3.856.02-.972.04-1.944.092-2.916.124-2.324.12-4.652.3-6.976a18.709,18.709,0,0,1,3.1-8.847C60.4,24.2,61.35,23.063,62.09,21.8Z" fill="#fcfcfc"/>
    <path d="M7.479,183.408l.28.3A.663.663,0,0,1,7.479,183.408Z"/>
    <path d="M35.451,164.98c-.1.668-.356,1.344-.5,2.028a1.261,1.261,0,0,1-.644.94,1.479,1.479,0,0,1-.092-1.124c.34-2.272.672-4.544,1.036-6.812.464-2.931.96-5.859,1.432-8.791.58-3.62,1.168-7.244,1.712-10.872.536-3.564,1.02-7.136,1.524-10.7.54-3.824,1.068-7.648,1.624-11.472.216-1.48.556-2.948.732-4.436.212-1.8.572-3.584.88-5.372.336-1.968.712-3.936,1.128-5.892.468-2.216,1.132-4.388,1.588-6.6.18-.876.416-1.735.652-2.595l.88.1c.036.828-.408,1.556-.388,2.427a13.914,13.914,0,0,1-.572,3.076c-.36,1.716-.728,3.428-1.088,5.144a26.593,26.593,0,0,1-.612,3.184,9.118,9.118,0,0,0-.28,2.164c-.14,1.844-.584,3.628-.836,5.448-.232,1.668-.42,3.348-.644,5.02-.2,1.448-.452,2.892-.64,4.344-.112.884-.3,1.756-.448,2.64-.208,1.288-.22,2.6-.512,3.884-.444,1.956-.3,4-.952,5.932a5.807,5.807,0,0,0-.184,1.324c-.156,1.668-.44,3.312-.708,4.964-.444,2.76-.772,5.536-1.276,8.284-.144.784-.348,1.556-.48,2.34-.308,1.78-.78,3.528-.916,5.34a14.621,14.621,0,0,1-.488,2.231,13.679,13.679,0,0,0-.32,1.776C35.979,163.628,35.559,164.236,35.451,164.98Z"/>
    <path d="M127.393,89.3c.2-1.6.336-3.22.46-4.832.284-3.684.328-7.376.288-11.072a53.6,53.6,0,0,1,.352-6.984c.356-2.968.688-5.936.9-8.916a66.022,66.022,0,0,0-.048-8.94,54.278,54.278,0,0,1-.212-8.3,26.928,26.928,0,0,1,.772-4.84c.292-1.04.368-2.136.672-3.168.636-2.167.912-4.407,1.42-6.6a11.989,11.989,0,0,0,.248-3.324,23.886,23.886,0,0,1,.052-2.78.874.874,0,0,1,.264-.684c.656-.576,1.34-.36,1.512.508a1.74,1.74,0,0,1-.02.76,21.244,21.244,0,0,0-.188,3.42,16.958,16.958,0,0,0-.048,2.212,5.2,5.2,0,0,1-.664,2.068,3.548,3.548,0,0,0-.344,1.48,13.692,13.692,0,0,1-.608,2.639c-.232,1.432-.64,2.824-.932,4.244-.192.948-.288,1.912-.5,2.856a9.377,9.377,0,0,0-.16,2.952c.1,1.06.064,2.12.132,3.176a21.4,21.4,0,0,0,.228,2.144c.132.82.024,1.628.1,2.428.176,1.976-.084,3.936-.1,5.9a17.347,17.347,0,0,1-.268,3.04,14.207,14.207,0,0,0-.076,1.9,4.97,4.97,0,0,1-.284,1.788,1.209,1.209,0,0,0-.068.564,4.2,4.2,0,0,1-.236,1.96.931.931,0,0,0-.1.368c-.028,2.252-.008,4.5-.076,6.756a85.2,85.2,0,0,1-.42,9.2c-.356,2.584-.528,5.188-.932,7.76a5.085,5.085,0,0,1-.556,2.388,1.318,1.318,0,0,0-.188.524l-.74-.112C127.161,90.962,127.285,90.134,127.393,89.3Z"/>
    <path d="M1.871,177.5l.068.072c-.024.1-.048.2-.076.3a2.7,2.7,0,0,1-.416.92L1,178.324Z"/>
    <path d="M.127,179.26a.6.6,0,0,1-.108-.5,1.173,1.173,0,0,1,.12.388l-.008.008.016.016c.008.044.02.092.032.144A.214.214,0,0,1,.127,179.26Z"/>
    <path d="M6,183.588c.408.432.82.868,1.232,1.3v0h0A1.788,1.788,0,0,1,6,183.588Z"/>
    <path d="M.863,186.724a6.869,6.869,0,0,0,.136-2.8,1.19,1.19,0,0,0,.292.1H1.3c.964.188,1.948.288,2.924.428a.111.111,0,0,1,0-.036c.124,0,.252.008.38,0a.971.971,0,0,0,.42-.108l1.336,1.408v1.008Z"/>
    <path d="M6,183.588a1.931,1.931,0,0,1,.112-1.168,1.2,1.2,0,0,1,.152-.288l1.212,1.276a.663.663,0,0,0,.28.3l.344.36-.868.824C6.823,184.456,6.411,184.02,6,183.588Z"/>
    <path d="M88.782,36.77c-.012.1-.02.208-.032.308-.02.052-.036.1-.052.152A4.075,4.075,0,0,0,88.782,36.77Z"/>
    <path d="M86.242,67.506c.46-2.048.9-4.1,1.4-6.136l1.028.248c-.1.428-.188.864-.268,1.3-.332,1.768-.888,3.484-1.084,5.288-.168,1.572-.608,3.108-.86,4.676-.268,1.692-.576,3.388-.756,5.084-.188,1.776-.484,3.536-.708,5.3-.312,2.412-.388,4.828-.624,7.24-.176,1.808-.284,3.628-.388,5.439-.088,1.464-.232,2.92-.364,4.38-.1,1.136-.232,2.276-.3,3.42-.052.9-.528,1.74-.3,2.672a.738.738,0,0,1-.18.532,1.319,1.319,0,0,0-.172.54c-.144,1.328-.276,2.66-.48,3.984a7.546,7.546,0,0,1-.672,3.028,2.04,2.04,0,0,1-.108-1.044c-.008-1.152.116-2.3.184-3.44q.312-5.46.744-10.9c.38-4.811.576-9.631,1.016-14.439.24-2.644.568-5.268,1.008-7.88C84.89,73.678,85.554,70.586,86.242,67.506Z"/>
    <path d="M47.187,90.682c.608-2.8,1.316-5.576,1.656-8.436.344-2.916.56-5.844.74-8.768.1-1.62.236-3.24.384-4.852a18.392,18.392,0,0,1,.712-3.84c.239-.756.343-1.552.539-2.324.472-1.856.816-3.744,1.356-5.576.476-1.624.952-3.252,1.328-4.892a41.72,41.72,0,0,0,.9-5.18c.092-.892.136-1.78.148-2.668l1.164.02c-.024,1.288-.06,2.572-.188,3.856-.052.508-.144,1.012-.24,1.512C55.03,52.91,54.3,56.27,53.426,59.6c-.552,2.092-.924,4.236-1.456,6.34-.3,1.2-.444,2.428-.7,3.636a21.747,21.747,0,0,0-.324,3.132c-.12,1.9-.2,3.812-.4,5.716-.132,1.256-.184,2.524-.34,3.78a48.555,48.555,0,0,1-1.128,5.612c-.16.652-.324,1.3-.484,1.952-.048.188-.032.416-.136.556-.68.9-.352,2.152-1.052,3.044l-.88-.1C46.759,92.414,47,91.554,47.187,90.682Z"/>
    <path d="M62.946,19.267A3.667,3.667,0,0,1,62.09,21.8c-.74,1.26-1.688,2.4-2.488,3.624a18.709,18.709,0,0,0-3.1,8.847c-.184,2.324-.18,4.652-.3,6.976-.052.972-.072,1.944-.092,2.916l-1.164-.02c.044-2.3-.1-4.6-.02-6.9a44.522,44.522,0,0,1,.592-6.479,12,12,0,0,1,1.244-3.2,50.515,50.515,0,0,1,5.408-8.228,1.6,1.6,0,0,1,.244-.3.524.524,0,0,1,.336-.136C62.95,18.923,62.918,19.111,62.946,19.267Z"/>
    <path d="M216.4,71.638c.056.136.116.268.168.408a1.721,1.721,0,0,0-.74-.428c-.08-.016-.16-.032-.24-.044.084-.044.172-.084.264-.124C216.1,71.338,216.292,71.382,216.4,71.638Z" fill="#fcfcfc"/>
    <path d="M5.727,181.56c-.572-.024-1.148-.052-1.724-.076q-1.278-1.344-2.556-2.692a2.7,2.7,0,0,0,.416-.92c.028-.1.052-.2.076-.3Z"/>
    <path d="M.807,179.864l-.392-.416a.473.473,0,0,0,.34-.06C.771,179.552.791,179.708.807,179.864Z"/>
  </g>
</svg>
