<svg xmlns="http://www.w3.org/2000/svg" width="465.955" height="187.695" viewBox="0 0 465.955 187.695">
  <g>
    <path d="M465.034,122.316a41.578,41.578,0,0,1,.762,12.218,91.19,91.19,0,0,1-1.761,12.925,48.27,48.27,0,0,1-3.365,10.4c-.383.773-.616,1.61-.95,2.4a51.791,51.791,0,0,1-5.283,9.468,20.957,20.957,0,0,0-1.653,2.933,6.76,6.76,0,0,1-1.4,1.988c-1.437,1.42-2.82,2.9-4.354,4.223a3.873,3.873,0,0,1-1.75.735,4.663,4.663,0,0,0-1.874.826,11.38,11.38,0,0,1-6.211,2.291,14.558,14.558,0,0,0-3.749.875,8.8,8.8,0,0,1-2.144.41c-2.258.313-4.521.589-6.779.9-2.214.308-4.418.67-6.638.951-2.938.372-5.909.421-8.847.831a21.391,21.391,0,0,1-3.23-.027c-1.9-.032-3.786.1-5.671.152-2.841.081-5.688.227-8.54.189-1.874-.027-3.753-.114-5.649.043-2.317.189-4.613.686-6.946.643a41.049,41.049,0,0,1-5.288-.346c-1.885-.281-3.781-.248-5.666-.437-2.052-.206-4.137-.1-6.195-.3a56.671,56.671,0,0,0-6.044.011,30.687,30.687,0,0,1-6.687-.588c-1.977-.422-3.948-.865-5.909-1.367a4.765,4.765,0,0,0-1.4-.194c-2.549.1-5.066-.335-7.6-.443-2.922-.125-5.844-.351-8.75-.719-3.565-.443-7.156-.68-10.727-1.1a84.874,84.874,0,0,0-12.385-.454c-1.928.06-3.845.335-5.768.513a58.343,58.343,0,0,1-8.8.06c-2.106-.119-4.223-.157-6.33-.281-1.923-.119-3.846-.3-5.768-.47-.859-.081-1.713-.222-2.566-.308-3.943-.389-7.87-.886-11.839-1a85.249,85.249,0,0,1-10.409-1.016,14.323,14.323,0,0,0-3.618-.129,35.3,35.3,0,0,1-7.994-.378c-1.723-.206-3.446-.087-5.164-.227-5.428-.438-10.872-.249-16.306-.157-3.489.06-6.989.3-10.478.265-3.506-.033-6.968.346-10.457.513-1.631.081-3.268.194-4.894.34-3.105.281-6.216.081-9.322.205q-5.1.2-10.2.632c-1.544.13-3.089.27-4.618.5-2.041.318-4.061.767-6.1,1.1-1.955.324-3.916.621-5.882.842-3.154.351-6.314.708-9.484.9a34.725,34.725,0,0,1-3.608.038,58.81,58.81,0,0,0-7.5.378,33.078,33.078,0,0,0-4.51.384.7.7,0,0,1-.259.005c-2.944-.551-5.931.464-8.885-.254a7.351,7.351,0,0,0-2.047.114,30.15,30.15,0,0,1-5.272-.33,70.1,70.1,0,0,0-7.2-.5c-1.167-.011-2.3-.275-3.468-.248-1.879.043-3.721-.4-5.622-.368a26.537,26.537,0,0,1-5.288-.113c-4.03-.74-8.086-.216-12.131-.389a133.818,133.818,0,0,1-14.843-1.048,66.49,66.49,0,0,0-8.993-.961c-2.177-.043-4.245-.719-6.422-.632-2.02.076-4.051-.081-6.076-.168a11.931,11.931,0,0,1-5.483-1.269,4.01,4.01,0,0,0-1.479-.459c-1.453-.167-2.852-.594-4.294-.853a13.4,13.4,0,0,1-3.479-1.356,19.8,19.8,0,0,0-4.553-1.4c-3.781-.859-7.583-1.6-11.375-2.4a9.979,9.979,0,0,1-4.537-2.4,8.907,8.907,0,0,1-2.134-3.624A59.823,59.823,0,0,1,5.175,158.8c-.459-1.982-1.01-3.927-1.593-5.866a14.6,14.6,0,0,1-.562-2.922,17.222,17.222,0,0,0-.972-4.4,43.969,43.969,0,0,1-1.659-7.032c-.081-.421-.221-.837-.275-1.258-.14-1.075-.3-2.166.529-3.063a1.467,1.467,0,0,0,.216-1.469c-.416-1.728-.421-3.5-.691-5.255a19.758,19.758,0,0,1,.07-5.553,43.825,43.825,0,0,1,1.718-8.339c.324-.983.772-1.923,1.166-2.879a7.02,7.02,0,0,0,.5-1.6c.195-1.275,1.14-2.182,1.745-3.257a30.529,30.529,0,0,1,1.955-2.722,8.892,8.892,0,0,1,5.963-3.506,5.041,5.041,0,0,0,1.016-.183,12.209,12.209,0,0,1,6.74-.6,3,3,0,0,0,.459.006,20.381,20.381,0,0,0-.275-3.322c-.038-.448-.405-.513-.778-.475a21.289,21.289,0,0,1-5.126-.486,5.921,5.921,0,0,1-2.992-1.432c-1.545-1.3-1.572-3.068-1.485-4.866a17.89,17.89,0,0,1,1.183-4.737,1.108,1.108,0,0,1,1.269-.854,10.155,10.155,0,0,1,1.383.292c.567.151.831-.054.815-.626,0-.216-.011-.433-.016-.649a7.4,7.4,0,0,1,1.334-4.634c.8-1.075,1.518-2.2,2.279-3.305.3-.432.643-.859,1.259-.73.632.13.783-.151.891-.729a38.494,38.494,0,0,1,4.683-12.26,48.85,48.85,0,0,1,3.694-5.3,28.945,28.945,0,0,1,5.958-5.7c2.123-1.555,4.413-2.846,6.66-4.2a2.932,2.932,0,0,0,.659-.41c1.453-1.6,3.462-1.966,5.395-2.582a36.655,36.655,0,0,1,6.622-1.129,17.717,17.717,0,0,1,7.124.994c.622.178,1.254.324,1.869.518s.886-.086.978-.648a11.257,11.257,0,0,1,.3-1.388,22.965,22.965,0,0,1,7.459-11.11,71.482,71.482,0,0,1,8.815-6.779,61.2,61.2,0,0,1,6.179-2.96,39.615,39.615,0,0,1,9.241-2.9c2.415-.486,4.807-1.037,7.206-1.6a2.461,2.461,0,0,0,1.371-.572c-2.138-2.652-1.766-5.72.546-8.529A15.166,15.166,0,0,1,108.4,3.446c1.226-.956,2.636-.551,3.97-.172a5.205,5.205,0,0,1,1.372.718c1.1.718,1.1.734,1.593-.54A6.668,6.668,0,0,1,116.964.994a3.471,3.471,0,0,1,2.074-.945,6.677,6.677,0,0,1,7.437,7.486,11.234,11.234,0,0,1-.75,3c-.125.308-.373.6-.243.972a.936.936,0,0,0,.734.14A42.623,42.623,0,0,1,138.5,13.2a20.294,20.294,0,0,1,7.114,3.867c.81.659,1.777,1.069,2.549,1.766a27.251,27.251,0,0,1,2.863,2.992c1.809,2.193,3.84,4.192,5.5,6.514.848,1.183,2.068,2.047,2.9,3.2.183-.043.3-.033.34-.081a34,34,0,0,1,9.171-7.092c2.733-1.572,5.412-3.23,8.151-4.78a67.462,67.462,0,0,1,11.369-4.915q3.306-1.134,6.584-2.339a156.6,156.6,0,0,1,15.853-4.694,87.765,87.765,0,0,1,17.035-2.268c2.847-.141,5.688-.313,8.534-.367,4.224-.081,8.448-.022,12.672-.108,4.493-.092,8.971.189,13.449.534a77.462,77.462,0,0,1,14.032,2.22,82.013,82.013,0,0,1,15.177,5.866,27.19,27.19,0,0,1,3.014,1.923,11.835,11.835,0,0,0,.616-2.35,14.806,14.806,0,0,1,.9-2.4,2.56,2.56,0,0,1,3-1.475c1.1.205,2.166.546,3.246.832.373.1.74.227,1.118.319a1.977,1.977,0,0,0,2.355-.762,11.041,11.041,0,0,1,2.431-2.317,4.4,4.4,0,0,1,4.607-.783.963.963,0,0,0,1.151-.238,7.755,7.755,0,0,1,2.965-1.788,4.788,4.788,0,0,1,3.522.135A1.885,1.885,0,0,1,321.9,6.287a10.181,10.181,0,0,1-1.156,5.24,11.391,11.391,0,0,1-2.2,3.251.917.917,0,0,0,.891.1c5.483-1.258,11.062-1.177,16.631-1.074a90.9,90.9,0,0,1,11.078,1.042,89.444,89.444,0,0,1,9.738,2.085c3.09.8,6.1,1.831,9.107,2.873a54.879,54.879,0,0,1,6.292,3.03c1.89.946,3.748,1.95,5.639,2.9,1.539.778,2.943,1.793,4.5,2.544a1.162,1.162,0,0,1,.508,1.458,34.92,34.92,0,0,1-1.82,6.185,12.346,12.346,0,0,0-.983,3.073,34.654,34.654,0,0,1-1.421,4.434c-.28.854-.226.945.654,1.124a14.669,14.669,0,0,0,3.214.335,66.964,66.964,0,0,1,10.948,1.026c1.663.243,3.327.47,4.985.745a37.491,37.491,0,0,1,5.423,1.718,93.524,93.524,0,0,1,14.194,5.936,130.63,130.63,0,0,1,12.288,6.929,34.7,34.7,0,0,1,6.06,4.813c2.026,2.144,3.776,4.5,4.094,7.6.125,1.237.195,1.231,1.41,1.118a3.073,3.073,0,0,1,3.122,3.77,7.29,7.29,0,0,0-.464,1.917,2.831,2.831,0,0,0,1.755.017c3.792-.6,6.595,1.944,7.61,5.017a3.624,3.624,0,0,1-2.085,4.591,30.367,30.367,0,0,1-4.958,1.869,10.933,10.933,0,0,0-2.123.713,5,5,0,0,0,1.47.962,27.132,27.132,0,0,1,8.269,6.53,6.518,6.518,0,0,1,1.3,2.036,8.363,8.363,0,0,0,1.874,2.614,20.262,20.262,0,0,1,3.273,5.255A51.475,51.475,0,0,1,465.034,122.316Zm-3.824,9.312a43.659,43.659,0,0,0-.718-10.549,26.153,26.153,0,0,0-1.14-3.829,34.871,34.871,0,0,0-2.247-5.212c-.923-1.766-2.225-3.279-3.192-5.018q-1.134-2.034-2.376-4a13.5,13.5,0,0,0-3-3.365,29.585,29.585,0,0,0-7.87-4.121,2.964,2.964,0,0,0-3.332.524,1.615,1.615,0,0,1-2.631-1.118c.006-.929-.4-1.027-1.08-1.162a21.971,21.971,0,0,1-4.229-1.166,2.326,2.326,0,0,1-1.378-2.728A12.709,12.709,0,0,1,429.2,87.3c1.134-1.566,2.247-3.149,3.4-4.7a39.483,39.483,0,0,0,3.208-5.445c.319-.626.562-1.3-.189-1.847a.652.652,0,0,1-.194-.594,4.062,4.062,0,0,0-1.356-2.971c-.691-.821-1.388-1.647-2.106-2.436a14.534,14.534,0,0,0-3.079-3.111c-.891-.518-1.8-1-2.674-1.566a31.549,31.549,0,0,1-5.606-4.289,7.49,7.49,0,0,0-2.506-1.8c-2.755-1.1-5.31-2.646-8.124-3.645-2.419-.859-4.6-2.285-7.037-3.16a28.288,28.288,0,0,0-5.693-1.6c-4.094-.572-8.2-1.053-12.3-1.545a27.3,27.3,0,0,0-4.246-.367c-1.177.043-2.284-.589-3.424-.551a2.147,2.147,0,0,1-2.106-1.334c-.454-.762-.114-1.431.07-2.1.864-3.154,1.744-6.3,2.781-9.414a4.126,4.126,0,0,0-1.1-4.824,24.738,24.738,0,0,0-7.216-4.461c-3.155-1.28-6.352-2.463-9.523-3.7a59.63,59.63,0,0,0-11.526-3.349,36.093,36.093,0,0,0-6.687-.7,23.96,23.96,0,0,1-2.841-.1,46.309,46.309,0,0,0-9.679-.162c-1.247.129-2.43.523-3.689.615a22.183,22.183,0,0,0-4.969.756,23.077,23.077,0,0,1-3.516.735,65.463,65.463,0,0,0-8.523,2.15c-1.064.308-2.08.81-3.16,1.01a5.35,5.35,0,0,0-2.285.8c-.858.637-1.885.459-2.824.675-.281.065-.848,0-.784-.422.114-.7-.389-.788-.761-1.015a19.056,19.056,0,0,1-3.635-2.652,18.344,18.344,0,0,0-5.418-3.932c-2.4-1.075-4.834-2.074-7.27-3.057a34.728,34.728,0,0,0-7.788-2.307c-2.593-.394-5.191-.772-7.783-1.193a65.049,65.049,0,0,0-8.361-.837c-3.355-.1-6.709-.351-10.068-.281-2.28.048-4.559-.119-6.833-.265a89.053,89.053,0,0,0-9.83.308,80.016,80.016,0,0,0-8.491.729c-2.074.313-4.148.654-6.233.848-1.674.151-3.311.529-4.942.837-2.063.4-4.029,1.248-6.06,1.8-1.788.492-3.468,1.28-5.245,1.815-2.057.616-4.11,1.242-6.146,1.939A35.358,35.358,0,0,1,190.8,18a12.466,12.466,0,0,0-3.284,1.156c-2.722,1.48-5.774,2.2-8.394,3.97-1.62,1.1-3.44,1.939-5.115,2.992-1.064.67-1.993,1.5-3.035,2.188-2.015,1.329-4.029,2.657-6,4.056-.989.708-2.112,1.178-3.09,1.874a24.232,24.232,0,0,0-3.856,3.236,1.425,1.425,0,0,1-1.513.491c-.545-.162-.551-.718-.718-1.145a1.192,1.192,0,0,1,.011-1.01c.734-1.059-.054-1.609-.7-2.128-.481-.389-.81-.886-1.248-1.3a31.775,31.775,0,0,1-4.963-6.26,10.275,10.275,0,0,0-3.916-3.851,15.25,15.25,0,0,1-2.485-1.8,15.987,15.987,0,0,0-5.947-3.284,34.027,34.027,0,0,0-7.691-.891c-1.334-.011-2.673.038-4.013-.049a9.647,9.647,0,0,0-2.576.162,26.487,26.487,0,0,1-3.452.5c-2.144.172-4.3.264-6.438.561-1.28.179-2.576.243-3.846.492-3.251.648-6.5,1.28-9.808,1.636a28.981,28.981,0,0,0-9.458,2.971,64.86,64.86,0,0,0-11.153,6.757c-1.54,1.177-3.225,2.225-4.31,3.867-1.259,1.9-3.014,3.43-3.954,5.547a1.736,1.736,0,0,1-.367.53,8.74,8.74,0,0,0-2.28,4.828c-.3,1.572-.934,2.1-2.538,1.6a27.876,27.876,0,0,0-6-.88,36.447,36.447,0,0,0-10.413.6,13.756,13.756,0,0,0-4.58,1.707A46.767,46.767,0,0,0,36.4,52.473a26.576,26.576,0,0,0-5.088,6.314,33.875,33.875,0,0,0-2.3,5.326,50.606,50.606,0,0,0-2.8,9.787,38.491,38.491,0,0,0-.8,7.189c.129,3.748.448,7.491.686,11.234a22.126,22.126,0,0,0,.356,3.209c.368,1.734.891,3.419,1.426,5.1.162.519.313,1.129-.108,1.47-.626.5-.913,1.334-1.707,1.642a1.035,1.035,0,0,1-.124.021c-.589.151-.929-.432-1.4-.481s-.734.751-1.345.6c-1.2-.3-2.5-.086-3.64-.762a3.45,3.45,0,0,0-3.576.081,7.232,7.232,0,0,1-1.669.676,6.408,6.408,0,0,0-2.4,1.22c-.891.675-1.723,1.432-2.555,2.177-.335.3-.632.605-1.129.443-.432-.135-.594.146-.8.448a9.451,9.451,0,0,0-1.355,3.462c-.546,2.377-.411,4.813-.686,7.206a54.667,54.667,0,0,0,.389,14.3,24.193,24.193,0,0,1,.394,3.992c-.033,1.469-.243,1.679-1.782,1.782a19.9,19.9,0,0,0,1.7,8.123,10.927,10.927,0,0,1,1.08,3.311c.13.864.448,1.642.648,2.469a42.626,42.626,0,0,1,1.334,5.633c.216,2.036.762,4.051,1.064,6.1.087.594.168,1.194.292,1.782.243,1.113.411,1.308,1.55,1.318a51.742,51.742,0,0,1,5.547.459,12.181,12.181,0,0,1,4.667,1.41,25.571,25.571,0,0,0,4.272,1.858c.978.34,1.966.659,2.917,1.075a31.867,31.867,0,0,0,7.113,2.3c4.284.772,8.513,1.858,12.915,1.739a11.66,11.66,0,0,1,1.674.135c1.583.189,3.165.5,4.748.567,2.592.1,5.169.275,7.74.594.767.092,1.561.043,2.317.173,2.852.491,5.747.551,8.615.848,1.928.205,3.883.178,5.822.205,5.569.081,11.138-.048,16.7.378,1.032.081,2.074-.032,3.106.027,4.818.292,9.636.616,14.454.918,2.592.168,5.174-.027,7.761-.108,6.557-.21,13.114-.3,19.672-.41a113.9,113.9,0,0,0,18.272-1.761c2.16-.383,4.326-.8,6.508-1.015,1.934-.189,3.835-.53,5.78-.659,2.787-.2,5.563-.621,8.355-.827,1.118-.081,2.236-.194,3.349-.313,2.36-.243,4.715-.653,7.081-.718,4.132-.108,8.248-.519,12.374-.708,4.1-.183,8.2-.292,12.288-.124,5.266.211,10.532.227,15.793.313,2.884.049,5.779-.038,8.669.06,2.117.07,4.218.264,6.336.329,3.057.092,6.125.27,9.166.6,5.055.54,10.105,1.161,15.172,1.582,1.037.087,2.079.087,3.1.243a73.218,73.218,0,0,0,8.761.708c3.926.129,7.837.545,11.763.551.865,0,1.729,0,2.588-.07a71.428,71.428,0,0,1,8.4-.438c1.76.065,3.516.227,5.282.146a24.066,24.066,0,0,1,3.748-.027c2.053.227,4.116.043,6.174.383,1.685.276,3.435.243,5.142.481a14.563,14.563,0,0,0,3.095.211c4.688-.362,9.177.815,13.676,1.82,4,.9,7.945,2.133,12.093,1.88a88.486,88.486,0,0,1,9.8.334c2.4.119,4.791.432,7.2.459,3.235.038,6.471.168,9.706.109,3.792-.071,7.583-.287,11.38-.3,4.878-.016,9.75-.367,14.627-.286a6.583,6.583,0,0,0,1.42-.092,22.111,22.111,0,0,1,3.868-.276,15.234,15.234,0,0,0,1.928-.178c1.793-.248,3.6-.4,5.39-.61a37.113,37.113,0,0,0,5.1-.843c2.247-.594,4.505-1.2,6.789-1.593a41.776,41.776,0,0,0,4.71-.778,26.289,26.289,0,0,1,3.765-.9c2.069-.3,2.506-1.3,1.588-3.187a.463.463,0,0,0-.065-.108,2.707,2.707,0,0,1-.3-2c.086-.589.367-.74.864-.422a4.963,4.963,0,0,1,1.663,2.1c.411.821.767.859,1.324.124a32.343,32.343,0,0,0,2.825-4.013,51.726,51.726,0,0,1,2.76-4.51,60.76,60.76,0,0,0,4.645-8.642,31.351,31.351,0,0,0,2.387-7.227c.47-2.365.864-4.747,1.485-7.086a20.163,20.163,0,0,0,.681-3.025C460.87,136.878,461.027,134.253,461.21,131.628ZM450.489,87.316a2.194,2.194,0,0,0,.924-2.381,2.406,2.406,0,0,0-2-1.956,6.54,6.54,0,0,0-2.052.006,16.915,16.915,0,0,0-4.883,1.566,4.77,4.77,0,0,0-1.561,1.269c-1.21,1.453-1.912,3.414-4.17,4.154a15.273,15.273,0,0,0,2.631.983,1.748,1.748,0,0,0,1.48-.038,48.353,48.353,0,0,1,5.984-2.015A10.87,10.87,0,0,0,450.489,87.316Zm-8.264-9.284a.919.919,0,0,0,.1-.373c-.016-.238-.167-.481-.4-.308-.859.665-2.015,1.021-2.323,2.274-.086.367-.324.7-.448,1.064a14.923,14.923,0,0,1-1.642,2.971,2.54,2.54,0,0,0,1.636-.789A13.7,13.7,0,0,0,442.225,78.032Zm-123.2-70.9c.011-.291.108-.653-.156-.848-.308-.226-.53.125-.789.244a7.66,7.66,0,0,0-2.344,2.144,16.125,16.125,0,0,0-2.533,3.386,39.866,39.866,0,0,1-2.749,5.007,4.687,4.687,0,0,0,2.711-.832,19.293,19.293,0,0,0,4.813-5.676A8.562,8.562,0,0,0,319.023,7.135ZM306.86,16.307c1.415-2.733,3.554-4.78,4.407-7.616C308.34,10.473,306.19,14.1,306.86,16.307Zm-3.657-.994a1.556,1.556,0,0,0-.016-1.253c-.3-.616-.583-1.248-.924-1.847a2.962,2.962,0,0,0-2.43-1.135.6.6,0,0,0-.486.373,10.759,10.759,0,0,0-1.264,5.606.938.938,0,0,0,.529.811c1.156.653,2.306,1.328,3.608,2.085A18.406,18.406,0,0,1,303.2,15.313ZM124.455,6.174a3.541,3.541,0,0,0-3.413-3.862c-1.788.038-2.874.837-3.662,2.7-.7,1.642-.54,2.106,1.01,3.019.113.065.221.135.34.189a12.881,12.881,0,0,1,3.473,2.2c.389.384.718.335,1-.2A11.1,11.1,0,0,0,124.455,6.174Zm-10.127,1.5a.9.9,0,0,0-.394-1.01,12.062,12.062,0,0,0-1.064-.73,2.268,2.268,0,0,0-3.068.2,18.107,18.107,0,0,0-2.128,2.231,5.054,5.054,0,0,0-1.183,2.538c-.243,1.237.238,1.756,1.642,1.718.383-.07.967.076,1.377-.265a17.854,17.854,0,0,1,2.922-1.615c1.075-.6,2.128-1.166,1.815-2.695C114.22,7.935,114.3,7.8,114.328,7.676ZM20.282,82.85c.1-1.918.211-3.841.33-6.066a13.168,13.168,0,0,0-1.966,2.685,4.287,4.287,0,0,0-.524,1.982,19.086,19.086,0,0,0,.81,4.045,1.429,1.429,0,0,0,.254.449c.151.216.351.426.632.378.345-.06.28-.378.3-.627C20.169,84.746,20.228,83.8,20.282,82.85ZM19,92.415a1.76,1.76,0,0,0,1.539-.524c-.929-1.075-1.49-2.371-2.614-3.235a2.189,2.189,0,0,1-.637-.805A6.733,6.733,0,0,0,14.73,85.3c-.767.622-.7,1.486-1.027,2.172a3.982,3.982,0,0,0-.07,3.03,1.7,1.7,0,0,0,1.172,1.258A14.99,14.99,0,0,0,19,92.415Z"/>
    <path d="M460.492,121.079a43.659,43.659,0,0,1,.718,10.549c-.183,2.625-.34,5.25-.626,7.864a20.163,20.163,0,0,1-.681,3.025c-.621,2.339-1.015,4.721-1.485,7.086a31.351,31.351,0,0,1-2.387,7.227,60.76,60.76,0,0,1-4.645,8.642,51.726,51.726,0,0,0-2.76,4.51A32.343,32.343,0,0,1,445.8,174c-.557.735-.913.7-1.324-.124a4.963,4.963,0,0,0-1.663-2.1c-.5-.318-.778-.167-.864.422a2.707,2.707,0,0,0,.3,2,.463.463,0,0,1,.065.108c.918,1.891.481,2.885-1.588,3.187a26.289,26.289,0,0,0-3.765.9,41.776,41.776,0,0,1-4.71.778c-2.284.394-4.542,1-6.789,1.593a37.113,37.113,0,0,1-5.1.843c-1.793.211-3.6.362-5.39.61a15.234,15.234,0,0,1-1.928.178,22.111,22.111,0,0,0-3.868.276,6.583,6.583,0,0,1-1.42.092c-4.877-.081-9.749.27-14.627.286-3.8.016-7.588.232-11.38.3-3.235.059-6.471-.071-9.706-.109-2.409-.027-4.8-.34-7.2-.459a88.486,88.486,0,0,0-9.8-.334c-4.148.253-8.1-.984-12.093-1.88-4.5-1.005-8.988-2.182-13.676-1.82a14.563,14.563,0,0,1-3.095-.211c-1.707-.238-3.457-.205-5.142-.481-2.058-.34-4.121-.156-6.174-.383a24.066,24.066,0,0,0-3.748.027c-1.766.081-3.522-.081-5.282-.146a71.428,71.428,0,0,0-8.4.438c-.859.07-1.723.07-2.588.07-3.926-.006-7.837-.422-11.763-.551a73.218,73.218,0,0,1-8.761-.708c-1.021-.156-2.063-.156-3.1-.243-5.067-.421-10.117-1.042-15.172-1.582-3.041-.33-6.109-.508-9.166-.6-2.118-.065-4.219-.259-6.336-.329-2.89-.1-5.785-.011-8.669-.06-5.261-.086-10.527-.1-15.793-.313-4.089-.168-8.188-.059-12.288.124-4.126.189-8.242.6-12.374.708-2.366.065-4.721.475-7.081.718-1.113.119-2.231.232-3.349.313-2.792.206-5.568.632-8.355.827-1.945.129-3.846.47-5.78.659-2.182.21-4.348.632-6.508,1.015a113.9,113.9,0,0,1-18.272,1.761c-6.558.108-13.115.2-19.672.41-2.587.081-5.169.276-7.761.108-4.818-.3-9.636-.626-14.454-.918-1.032-.059-2.074.054-3.106-.027-5.557-.426-11.126-.3-16.7-.378-1.939-.027-3.894,0-5.822-.205-2.868-.3-5.763-.357-8.615-.848-.756-.13-1.55-.081-2.317-.173-2.571-.319-5.148-.5-7.74-.594-1.583-.065-3.165-.378-4.748-.567a11.66,11.66,0,0,0-1.674-.135c-4.4.119-8.631-.967-12.915-1.739a31.867,31.867,0,0,1-7.113-2.3c-.951-.416-1.939-.735-2.917-1.075a25.571,25.571,0,0,1-4.272-1.858,12.181,12.181,0,0,0-4.667-1.41,51.742,51.742,0,0,0-5.547-.459c-1.139-.01-1.307-.205-1.55-1.318-.124-.588-.205-1.188-.292-1.782-.3-2.047-.848-4.062-1.064-6.1a42.626,42.626,0,0,0-1.334-5.633c-.2-.827-.518-1.605-.648-2.469a10.927,10.927,0,0,0-1.08-3.311,19.9,19.9,0,0,1-1.7-8.123c1.539-.1,1.749-.313,1.782-1.782a24.193,24.193,0,0,0-.394-3.992,54.667,54.667,0,0,1-.389-14.3c.275-2.393.14-4.829.686-7.206a9.451,9.451,0,0,1,1.355-3.462c.211-.3.373-.583.8-.448.5.162.794-.146,1.129-.443.832-.745,1.664-1.5,2.555-2.177a6.408,6.408,0,0,1,2.4-1.22,7.232,7.232,0,0,0,1.669-.676,3.45,3.45,0,0,1,3.576-.081c1.14.676,2.436.465,3.64.762.611.151.865-.648,1.345-.6s.81.632,1.4.481a1.035,1.035,0,0,0,.124-.021c.794-.308,1.081-1.145,1.707-1.642.421-.341.27-.951.108-1.47-.535-1.679-1.058-3.364-1.426-5.1a22.126,22.126,0,0,1-.356-3.209c-.238-3.743-.557-7.486-.686-11.234a38.491,38.491,0,0,1,.8-7.189,50.606,50.606,0,0,1,2.8-9.787,33.875,33.875,0,0,1,2.3-5.326A26.576,26.576,0,0,1,36.4,52.473a46.767,46.767,0,0,1,7.287-5.347,13.756,13.756,0,0,1,4.58-1.707,36.447,36.447,0,0,1,10.413-.6,27.876,27.876,0,0,1,6,.88c1.6.5,2.241-.027,2.538-1.6a8.74,8.74,0,0,1,2.28-4.828,1.736,1.736,0,0,0,.367-.53c.94-2.117,2.7-3.651,3.954-5.547,1.085-1.642,2.77-2.69,4.31-3.867a64.86,64.86,0,0,1,11.153-6.757A28.981,28.981,0,0,1,98.735,19.6c3.311-.356,6.557-.988,9.808-1.636,1.27-.249,2.566-.313,3.846-.492,2.134-.3,4.294-.389,6.438-.561a26.487,26.487,0,0,0,3.452-.5,9.647,9.647,0,0,1,2.576-.162c1.34.087,2.679.038,4.013.049a34.027,34.027,0,0,1,7.691.891,15.987,15.987,0,0,1,5.947,3.284,15.25,15.25,0,0,0,2.485,1.8,10.275,10.275,0,0,1,3.916,3.851,31.775,31.775,0,0,0,4.963,6.26c.438.41.767.907,1.248,1.3.643.519,1.431,1.069.7,2.128a1.192,1.192,0,0,0-.011,1.01c.167.427.173.983.718,1.145a1.425,1.425,0,0,0,1.513-.491,24.232,24.232,0,0,1,3.856-3.236c.978-.7,2.1-1.166,3.09-1.874,1.966-1.4,3.98-2.727,6-4.056,1.042-.692,1.971-1.518,3.035-2.188,1.675-1.053,3.5-1.9,5.115-2.992,2.62-1.766,5.672-2.49,8.394-3.97A12.466,12.466,0,0,1,190.8,18a35.358,35.358,0,0,0,4.024-1.415c2.036-.7,4.089-1.323,6.146-1.939,1.777-.535,3.457-1.323,5.245-1.815,2.031-.556,4-1.409,6.06-1.8,1.631-.308,3.268-.686,4.942-.837,2.085-.194,4.159-.535,6.233-.848a80.016,80.016,0,0,1,8.491-.729,89.053,89.053,0,0,1,9.83-.308c2.274.146,4.553.313,6.833.265,3.359-.07,6.713.178,10.068.281a65.049,65.049,0,0,1,8.361.837c2.592.421,5.19.8,7.783,1.193a34.728,34.728,0,0,1,7.788,2.307c2.436.983,4.872,1.982,7.27,3.057a18.344,18.344,0,0,1,5.418,3.932,19.056,19.056,0,0,0,3.635,2.652c.372.227.875.319.761,1.015-.064.422.5.487.784.422.939-.216,1.966-.038,2.824-.675a5.35,5.35,0,0,1,2.285-.8c1.08-.2,2.1-.7,3.16-1.01a65.463,65.463,0,0,1,8.523-2.15,23.077,23.077,0,0,0,3.516-.735,22.183,22.183,0,0,1,4.969-.756c1.259-.092,2.442-.486,3.689-.615a46.309,46.309,0,0,1,9.679.162,23.96,23.96,0,0,0,2.841.1,36.093,36.093,0,0,1,6.687.7,59.63,59.63,0,0,1,11.526,3.349c3.171,1.242,6.368,2.425,9.523,3.7a24.738,24.738,0,0,1,7.216,4.461,4.126,4.126,0,0,1,1.1,4.824c-1.037,3.111-1.917,6.26-2.781,9.414-.184.67-.524,1.339-.07,2.1a2.147,2.147,0,0,0,2.106,1.334c1.14-.038,2.247.594,3.424.551a27.3,27.3,0,0,1,4.246.367c4.105.492,8.21.973,12.3,1.545a28.288,28.288,0,0,1,5.693,1.6c2.436.875,4.618,2.3,7.037,3.16,2.814,1,5.369,2.544,8.124,3.645a7.49,7.49,0,0,1,2.506,1.8,31.549,31.549,0,0,0,5.606,4.289c.87.562,1.783,1.048,2.674,1.566a14.534,14.534,0,0,1,3.079,3.111c.718.789,1.415,1.615,2.106,2.436a4.062,4.062,0,0,1,1.356,2.971.652.652,0,0,0,.194.594c.751.551.508,1.221.189,1.847A39.483,39.483,0,0,1,432.6,82.6c-1.15,1.555-2.263,3.138-3.4,4.7a12.709,12.709,0,0,0-1.189,2.582,2.326,2.326,0,0,0,1.378,2.728,21.971,21.971,0,0,0,4.229,1.166c.68.135,1.086.233,1.08,1.162a1.615,1.615,0,0,0,2.631,1.118,2.964,2.964,0,0,1,3.332-.524,29.585,29.585,0,0,1,7.87,4.121,13.5,13.5,0,0,1,3,3.365q1.239,1.968,2.376,4c.967,1.739,2.269,3.252,3.192,5.018a34.871,34.871,0,0,1,2.247,5.212A26.153,26.153,0,0,1,460.492,121.079Zm-81.115.244a7.532,7.532,0,0,0-.524-6.45c-1.561-2.781-3.317-5.449-4.8-8.285a2.664,2.664,0,0,0-1.285-1.226,3,3,0,0,1-1.415-1.431c-.432-.757-.9-1.572-1.777-1.8a5.346,5.346,0,0,1-2.058-1.28c-.562-.47-1.118-.934-1.729-1.35a34.464,34.464,0,0,0-8.96-4.294c-3.473-1.124-6.849-2.544-10.581-2.793-1.761-.119-3.506-.453-5.283-.4-1.22.037-1.355-.114-1.506-1.394-.162-1.41-.319-2.825-.476-4.235a7.094,7.094,0,0,1-.14-1.539,9.764,9.764,0,0,0-.432-4.58,6.572,6.572,0,0,1-.216-.88,80.579,80.579,0,0,0-2.091-8.1,10.965,10.965,0,0,0-2.376-4.111,19.98,19.98,0,0,1-2.793-3.392,13.883,13.883,0,0,0-4.023-4.488,25.133,25.133,0,0,0-9.49-4.251c-.973-.2-1.956-.335-2.933-.524a19.105,19.105,0,0,0-7.049-.372,34.791,34.791,0,0,1-6.173.615,11.136,11.136,0,0,0-2.307.319,77.682,77.682,0,0,0-10.327,2.825c-3,1.1-5.941,2.317-8.9,3.516A28.981,28.981,0,0,0,272.411,66c-.7.573-1.388,1.172-2.134,1.675-2.214,1.49-4.234,3.235-6.346,4.861a32.172,32.172,0,0,0-4.245,4.45c-.74.832-1.389,1.756-2.2,2.507-.529.5-1.118.934-1.647,1.442-.686.648-.627,1.08.232,1.48a3.558,3.558,0,0,0,.729.259c.681.14,1.356.237,1.723.972.2.4.578.27.9.1.292-.151.384-.448.524-.718a27.137,27.137,0,0,1,1.648-2.771c1.588-2.322,3.959-3.819,5.93-5.736,1.48-1.437,3.435-2.3,4.813-3.873a17.311,17.311,0,0,1,3.564-2.754c1.037-.7,2.177-1.221,3.257-1.842a62.129,62.129,0,0,1,8.8-4.186c-1,1.718-1.82,3.187-2.7,4.607a10.633,10.633,0,0,0-1.7,4.959,2.525,2.525,0,0,0,.977,2.516,2.165,2.165,0,0,1,.8,1.421,26.825,26.825,0,0,0,.983,3.619.878.878,0,0,1,.07.745c-.259.594.108.989.464,1.372a6.742,6.742,0,0,0,3.068,1.858,71.286,71.286,0,0,1,7.017,2.62,13.118,13.118,0,0,0,6.973.734,5.851,5.851,0,0,0,4.013-2.344c1.345-1.9,1.22-3.592-.395-5.423a9.4,9.4,0,0,0-3.289-2.468,2.458,2.458,0,0,1-1.129-.767A23.354,23.354,0,0,0,306.9,70.6a11.125,11.125,0,0,0,1.388-3.047,2.433,2.433,0,0,0-.016-1.658c-1.054-2.311-2.955-4.569-6.325-4.494-.924.022-1.745.476-2.658.406a7.863,7.863,0,0,0-.994-2.49c-.037-.049,0-.157,0-.3a4.02,4.02,0,0,1,1.728-.243,30.827,30.827,0,0,1,10.517.157,38.2,38.2,0,0,1,11.931,4.828,23.875,23.875,0,0,1,10.343,20.7,17.209,17.209,0,0,1-.6,3.435c-.756,3.122-1.658,6.185-4.213,8.426a1.511,1.511,0,0,0-.405,2.269c.534,1.037,1.123,1.4,2.193,1.129a45.423,45.423,0,0,1,7.243-.994,7.338,7.338,0,0,1,1.382-.2c1.88.2,3.77.032,5.655.248,1.054.125,2.118.211,3.176.368,1.459.216,2.825.788,4.273.994a27.665,27.665,0,0,1,7.54,2.246,41.405,41.405,0,0,1,9.463,5.8,17.421,17.421,0,0,1,2.8,2.479,14.344,14.344,0,0,1,2.809,8.842,4.231,4.231,0,0,1-1.686,3.613,27.26,27.26,0,0,1-6.384,3.9c-2.722,1.086-5.45,2.161-8.194,3.192a42.982,42.982,0,0,1-12.087,2.674c-3.738.275-7.481.513-11.186,1.091-.692.108-.9.383-.713,1.042a1.881,1.881,0,0,0,2.014,1.286,1.249,1.249,0,0,1,1.4.842,1.5,1.5,0,0,0,1.523.989,14.012,14.012,0,0,0,4.1-.47,59.8,59.8,0,0,1,8.9-2.171c2.106-.384,4.115-1.275,6.319-1.162.729.038,1.458-.108,2.193-.113a16.13,16.13,0,0,0,7.2-1.729,14.4,14.4,0,0,1,2.037-.815,13.989,13.989,0,0,0,3.64-1.626,1.642,1.642,0,0,1,1.55-.373.921.921,0,0,0,1.188-.507,8.807,8.807,0,0,0,.611-.989,19.627,19.627,0,0,0,1.631-4.6,3.092,3.092,0,0,1,.67-1.382A3.369,3.369,0,0,0,379.377,121.323ZM220.824,44.847a20.289,20.289,0,0,0-.675-6.131,5.822,5.822,0,0,0-4.71-4.4,23.937,23.937,0,0,0-3.992-.34c-1.5-.038-1.717.184-2.128,1.61-.21.745-.3.81-1.08.615-.378-.091-.756-.3-1.075.076-.34.394-.151.8.049,1.2.113.232.227.465.335.7.4.859.837,1.7,1.188,2.576,1.237,3.063-.054,4.6-2.436,6.109a1.713,1.713,0,0,1-2.576-1.064,16.782,16.782,0,0,1-.611-1.961A8.847,8.847,0,0,1,203.086,40c.259-1.037.567-2.068.81-3.116.389-1.637.017-2.641-1.431-3.289-.594-.27-.6-.308-.308-.811a.683.683,0,0,0-.394-.961,3.683,3.683,0,0,0-2.463-.54,15.653,15.653,0,0,0-2.468.751,32.407,32.407,0,0,0-6.552,3.889,10.525,10.525,0,0,0-3.635,4.623,3.122,3.122,0,0,0-.043,2.387,5.786,5.786,0,0,0,5.487,3.543,10.446,10.446,0,0,0,5.186-1.777,22,22,0,0,0,2.7-2.036.5.5,0,0,1,.335.459A9.012,9.012,0,0,0,202,47a4.987,4.987,0,0,0,7.373.994c.859-.74,1.912-1.324,2.306-2.62a9.384,9.384,0,0,0,3.376,1.518,5.734,5.734,0,0,0,4.969-.557A1.618,1.618,0,0,0,220.824,44.847ZM180.077,81.678c.632-.276.783-.7.475-1.356a8.787,8.787,0,0,0-1.89-2.906c-1.021-.929-2.063-1.836-3.019-2.83-1.442-1.486-3.138-2.733-4.289-4.483a51.111,51.111,0,0,0-6.179-6.952,4.06,4.06,0,0,0-.837-.6,44.833,44.833,0,0,0-11.991-5.693c-1.96-.524-3.926-1.005-5.876-1.561-1.275-.368-2.62-.5-3.9-.919a25.083,25.083,0,0,0-4.667-1.026,13.521,13.521,0,0,1-4.067-.686,1.466,1.466,0,0,0-.637-.048,70.078,70.078,0,0,0-10.025.945,7.037,7.037,0,0,1-1.4.243c-3.3-.054-5.946,1.539-8.523,3.311a5.159,5.159,0,0,0-.778.686,19.75,19.75,0,0,0-4.072,6.822,12.4,12.4,0,0,1-.988,2.706.722.722,0,0,1-.508-.481,20.087,20.087,0,0,0-1.4-2.474,6.213,6.213,0,0,0-2.134-2.214,1.844,1.844,0,0,0-2.873.961c-.357.88-.816,1.723-1.107,2.625-.756,2.366-2.339,4.58-1.28,7.362a23.094,23.094,0,0,0-3.571-.583A3.461,3.461,0,0,0,91.5,74.159a22.394,22.394,0,0,0-1.939,3.506,3.372,3.372,0,0,0-.275,1.885,5.3,5.3,0,0,0,1.669,3.2c-.054.313-.265.411-.422.556-1.134,1.064-2.5,1.837-3.678,2.852A78.329,78.329,0,0,0,79.8,93a35.259,35.259,0,0,0-5.79,7.9,18.021,18.021,0,0,1-2.252,3.77,10,10,0,0,0-1.923,3.462A109.828,109.828,0,0,0,66.5,120.2a27.522,27.522,0,0,0-.151,6.957c.119,2.107.454,4.2.405,6.32a3.579,3.579,0,0,0,.049,1.156c.805,2.376,1.1,4.888,1.96,7.248a13.318,13.318,0,0,0,2.5,4.64,2.3,2.3,0,0,0,2.3.885,1.15,1.15,0,0,1,1.4.568,8.634,8.634,0,0,0,1.82,1.831,2.634,2.634,0,0,0,3.214.453,3.579,3.579,0,0,1,2.074-.507,2.654,2.654,0,0,0,2.155-1c.162-.21.34-.561.038-.648-.648-.189-.945-.923-1.62-.972a2.551,2.551,0,0,1-1.464-.751,26.657,26.657,0,0,1-2.485-2.22,29.016,29.016,0,0,1-2.182-2.133c-2.944-3.77-3.97-8.221-4.148-12.839a39.942,39.942,0,0,1,4.856-20.028c.432-.848.8-1.728,1.285-2.544A48.627,48.627,0,0,1,81.78,101.2a69.427,69.427,0,0,1,6.1-6.692A52.235,52.235,0,0,1,97.2,87.338a53.467,53.467,0,0,1,6.994-3.37,61.461,61.461,0,0,0,7.978-4.008,1.378,1.378,0,0,0,.772-1.48c-.037-.34-.091-.68-.151-1.021a30.523,30.523,0,0,1-.41-9.906,10.829,10.829,0,0,1,6.141-8.29,27.967,27.967,0,0,1,10.095-3.058,28.285,28.285,0,0,1,9.149.271c1.767.388,3.527.794,5.3,1.155,2.96.611,5.855,1.47,8.772,2.226a30.669,30.669,0,0,1,6.951,3.127A15.179,15.179,0,0,1,162.28,65.2a44.723,44.723,0,0,1,3.646,3.667,72.8,72.8,0,0,0,5.855,6.184c2.252,2.193,4.542,4.375,5.887,7.314a1.753,1.753,0,0,0,1.037.929c.551.2.929-.006.789-.541C179.332,82.121,179.591,81.888,180.077,81.678Zm-49.7,92.463c2.555-1.793,3.884-3.765,3.084-7.286a34,34,0,0,0-1.091-3.7,21.487,21.487,0,0,0-1.9-3.916,3.687,3.687,0,0,0-3.084-1.869,1.022,1.022,0,0,0-1.134.686c-.162.611.319.875.783.994a2.265,2.265,0,0,1,1.464,1.334,22.4,22.4,0,0,1,2.025,7.567,3.986,3.986,0,0,1-1.647,3.857,16.243,16.243,0,0,1-6.8,2.987.9.9,0,0,1-.978-.487,3.107,3.107,0,0,1-.437-2.949,54.541,54.541,0,0,1,3.7-7.659.8.8,0,0,0,.1-.712,1.412,1.412,0,0,0-1.4-1.1,2.09,2.09,0,0,0-1.426.178l-.5-.853a.948.948,0,0,0,.956-.541c.179-.442-.075-.74-.405-.988a4.228,4.228,0,0,0-3.24-1.015,10.168,10.168,0,0,0-2.852.81,19.431,19.431,0,0,0-6.255,4.909,1.451,1.451,0,0,0-.394,1.178,4.7,4.7,0,0,0,2.5,3.689,5.95,5.95,0,0,0,4.763.41,7.1,7.1,0,0,1,1.956-.459c.14.524-.2.8-.335,1.156a3.743,3.743,0,0,0-.346,2.755c1.151,2.981,3.419,4.612,6.8,3.775A18.07,18.07,0,0,0,130.375,174.141Z" fill="#fff"/>
    <path d="M451.413,84.935a2.194,2.194,0,0,1-.924,2.381,10.87,10.87,0,0,1-3.646,1.588,48.353,48.353,0,0,0-5.984,2.015,1.748,1.748,0,0,1-1.48.038,15.273,15.273,0,0,1-2.631-.983c2.258-.74,2.96-2.7,4.17-4.154a4.77,4.77,0,0,1,1.561-1.269,16.915,16.915,0,0,1,4.883-1.566,6.54,6.54,0,0,1,2.052-.006A2.406,2.406,0,0,1,451.413,84.935Z" fill="#fff"/>
    <path d="M442.322,77.659a.919.919,0,0,1-.1.373,13.7,13.7,0,0,1-3.079,4.839,2.54,2.54,0,0,1-1.636.789,14.923,14.923,0,0,0,1.642-2.971c.124-.367.362-.7.448-1.064.308-1.253,1.464-1.609,2.323-2.274C442.155,77.178,442.306,77.421,442.322,77.659Z" fill="#fff"/>
    <path d="M378.853,114.873a7.532,7.532,0,0,1,.524,6.45,3.369,3.369,0,0,1-.524.864,3.092,3.092,0,0,0-.67,1.382,19.627,19.627,0,0,1-1.631,4.6,8.807,8.807,0,0,1-.611.989.921.921,0,0,1-1.188.507,1.642,1.642,0,0,0-1.55.373,13.989,13.989,0,0,1-3.64,1.626,14.4,14.4,0,0,0-2.037.815,16.13,16.13,0,0,1-7.2,1.729c-.735,0-1.464.151-2.193.113-2.2-.113-4.213.778-6.319,1.162a59.8,59.8,0,0,0-8.9,2.171,14.012,14.012,0,0,1-4.1.47,1.5,1.5,0,0,1-1.523-.989,1.249,1.249,0,0,0-1.4-.842,1.881,1.881,0,0,1-2.014-1.286c-.184-.659.021-.934.713-1.042,3.705-.578,7.448-.816,11.186-1.091a42.982,42.982,0,0,0,12.087-2.674c2.744-1.031,5.472-2.106,8.194-3.192a27.26,27.26,0,0,0,6.384-3.9,4.231,4.231,0,0,0,1.686-3.613,14.344,14.344,0,0,0-2.809-8.842,17.421,17.421,0,0,0-2.8-2.479,41.405,41.405,0,0,0-9.463-5.8,27.665,27.665,0,0,0-7.54-2.246c-1.448-.206-2.814-.778-4.273-.994-1.058-.157-2.122-.243-3.176-.368-1.885-.216-3.775-.048-5.655-.248a7.338,7.338,0,0,0-1.382.2,45.423,45.423,0,0,0-7.243.994c-1.07.27-1.659-.092-2.193-1.129A1.511,1.511,0,0,1,328,96.32c2.555-2.241,3.457-5.3,4.213-8.426a17.209,17.209,0,0,0,.6-3.435,23.875,23.875,0,0,0-10.343-20.7,38.2,38.2,0,0,0-11.931-4.828,30.827,30.827,0,0,0-10.517-.157,4.02,4.02,0,0,0-1.728.243c0,.146-.032.254,0,.3a7.863,7.863,0,0,1,.994,2.49c.913.07,1.734-.384,2.658-.406,3.37-.075,5.271,2.183,6.325,4.494a2.433,2.433,0,0,1,.016,1.658A11.125,11.125,0,0,1,306.9,70.6a23.354,23.354,0,0,1-3.776,4.715,2.458,2.458,0,0,0,1.129.767,9.4,9.4,0,0,1,3.289,2.468c1.615,1.831,1.74,3.522.395,5.423a5.851,5.851,0,0,1-4.013,2.344,13.118,13.118,0,0,1-6.973-.734,71.286,71.286,0,0,0-7.017-2.62,6.742,6.742,0,0,1-3.068-1.858c-.356-.383-.723-.778-.464-1.372a.878.878,0,0,0-.07-.745,26.825,26.825,0,0,1-.983-3.619,2.165,2.165,0,0,0-.8-1.421,2.525,2.525,0,0,1-.977-2.516,10.633,10.633,0,0,1,1.7-4.959c.88-1.42,1.7-2.889,2.7-4.607a62.129,62.129,0,0,0-8.8,4.186c-1.08.621-2.22,1.14-3.257,1.842a17.311,17.311,0,0,0-3.564,2.754c-1.378,1.577-3.333,2.436-4.813,3.873-1.971,1.917-4.342,3.414-5.93,5.736a27.137,27.137,0,0,0-1.648,2.771c-.14.27-.232.567-.524.718-.324.173-.7.3-.9-.1-.367-.735-1.042-.832-1.723-.972a3.558,3.558,0,0,1-.729-.259c-.859-.4-.918-.832-.232-1.48.529-.508,1.118-.946,1.647-1.442.81-.751,1.459-1.675,2.2-2.507a32.172,32.172,0,0,1,4.245-4.45c2.112-1.626,4.132-3.371,6.346-4.861.746-.5,1.432-1.1,2.134-1.675a28.981,28.981,0,0,1,7.329-4.58c2.955-1.2,5.9-2.414,8.9-3.516a77.682,77.682,0,0,1,10.327-2.825,11.136,11.136,0,0,1,2.307-.319,34.791,34.791,0,0,0,6.173-.615,19.105,19.105,0,0,1,7.049.372c.977.189,1.96.324,2.933.524a25.133,25.133,0,0,1,9.49,4.251,13.883,13.883,0,0,1,4.023,4.488,19.98,19.98,0,0,0,2.793,3.392,10.965,10.965,0,0,1,2.376,4.111,80.579,80.579,0,0,1,2.091,8.1,6.572,6.572,0,0,0,.216.88,9.764,9.764,0,0,1,.432,4.58,7.094,7.094,0,0,0,.14,1.539c.157,1.41.314,2.825.476,4.235.151,1.28.286,1.431,1.506,1.394,1.777-.054,3.522.28,5.283.4,3.732.249,7.108,1.669,10.581,2.793a34.464,34.464,0,0,1,8.96,4.294c.611.416,1.167.88,1.729,1.35a5.346,5.346,0,0,0,2.058,1.28c.875.227,1.345,1.042,1.777,1.8a3,3,0,0,0,1.415,1.431,2.664,2.664,0,0,1,1.285,1.226C375.536,109.424,377.292,112.092,378.853,114.873ZM304.775,83.4a2.838,2.838,0,0,0,.913-3.857c-1.491-1.869-3.657-3.084-6.374-1.825a14.139,14.139,0,0,1-4.8,1.4,13.071,13.071,0,0,0-1.9.346c-1.474.351-2.97.589-4.348-.9a2.968,2.968,0,0,0,2.328,2.82c.67.162,1.318.4,1.972.621a11.7,11.7,0,0,1,2.166.81,11.723,11.723,0,0,0,3.7,1.458A8.052,8.052,0,0,0,304.775,83.4Zm.562-16.62a2.406,2.406,0,0,0-2.452-3.116,3.534,3.534,0,0,0-2.123.848,62.74,62.74,0,0,0-8.842,9.2c-.859,1.118-1.518,2.393-2.852,3.073-.356.184-.675.448-1.053.637a14.627,14.627,0,0,0,4.407-.864,24.676,24.676,0,0,1,5.639-1.382,2.89,2.89,0,0,0,1.313-.514A14.385,14.385,0,0,0,305.337,66.781Zm-9.344-3.927a4.192,4.192,0,0,0,.2-1.782c-.076-.864-.184-.934-1.075-.762a8.049,8.049,0,0,0-4.942,3.284,39.976,39.976,0,0,0-3.614,6.115,2.824,2.824,0,0,0,.022,3.273,4.245,4.245,0,0,1,.378.756,2.642,2.642,0,0,0,1.183-.94c1.712-1.815,3.36-3.7,5.137-5.455A11.212,11.212,0,0,0,295.993,62.854Z"/>
    <path d="M318.867,6.287c.264.2.167.557.156.848a8.562,8.562,0,0,1-1.047,3.425,19.293,19.293,0,0,1-4.813,5.676,4.687,4.687,0,0,1-2.711.832,39.866,39.866,0,0,0,2.749-5.007,16.125,16.125,0,0,1,2.533-3.386,7.66,7.66,0,0,1,2.344-2.144C318.337,6.412,318.559,6.061,318.867,6.287Z" fill="#fff"/>
    <path d="M311.267,8.691c-.853,2.836-2.992,4.883-4.407,7.616C306.19,14.1,308.34,10.473,311.267,8.691Z" fill="#fff"/>
    <path d="M305.688,79.544a2.838,2.838,0,0,1-.913,3.857,8.052,8.052,0,0,1-6.346.869,11.723,11.723,0,0,1-3.7-1.458,11.7,11.7,0,0,0-2.166-.81c-.654-.222-1.3-.459-1.972-.621a2.968,2.968,0,0,1-2.328-2.82c1.378,1.491,2.874,1.253,4.348.9a13.071,13.071,0,0,1,1.9-.346,14.139,14.139,0,0,0,4.8-1.4C302.031,76.46,304.2,77.675,305.688,79.544Z" fill="#fff"/>
    <path d="M302.885,63.665a2.406,2.406,0,0,1,2.452,3.116,14.385,14.385,0,0,1-5.963,7.88,2.89,2.89,0,0,1-1.313.514,24.676,24.676,0,0,0-5.639,1.382,14.627,14.627,0,0,1-4.407.864c.378-.189.7-.453,1.053-.637,1.334-.68,1.993-1.955,2.852-3.073a62.74,62.74,0,0,1,8.842-9.2A3.534,3.534,0,0,1,302.885,63.665Z" fill="#fff"/>
    <path d="M303.187,14.06a1.556,1.556,0,0,1,.016,1.253,18.406,18.406,0,0,0-.983,4.64c-1.3-.757-2.452-1.432-3.608-2.085a.938.938,0,0,1-.529-.811,10.759,10.759,0,0,1,1.264-5.606.6.6,0,0,1,.486-.373,2.962,2.962,0,0,1,2.43,1.135C302.6,12.812,302.885,13.444,303.187,14.06Z" fill="#fff"/>
    <path d="M296.2,61.072a4.192,4.192,0,0,1-.2,1.782,11.212,11.212,0,0,1-2.706,4.489c-1.777,1.75-3.425,3.64-5.137,5.455a2.642,2.642,0,0,1-1.183.94,4.245,4.245,0,0,0-.378-.756,2.824,2.824,0,0,1-.022-3.273,39.976,39.976,0,0,1,3.614-6.115,8.049,8.049,0,0,1,4.942-3.284C296.014,60.138,296.122,60.208,296.2,61.072Z" fill="#fff"/>
    <path d="M220.149,38.716a20.289,20.289,0,0,1,.675,6.131,1.618,1.618,0,0,1-.805,1.49,5.734,5.734,0,0,1-4.969.557,9.384,9.384,0,0,1-3.376-1.518c-.394,1.3-1.447,1.88-2.306,2.62A4.987,4.987,0,0,1,202,47a9.012,9.012,0,0,1-1.685-3.884.5.5,0,0,0-.335-.459,22,22,0,0,1-2.7,2.036,10.446,10.446,0,0,1-5.186,1.777,5.786,5.786,0,0,1-5.487-3.543,3.122,3.122,0,0,1,.043-2.387,10.525,10.525,0,0,1,3.635-4.623,32.407,32.407,0,0,1,6.552-3.889,15.653,15.653,0,0,1,2.468-.751,3.683,3.683,0,0,1,2.463.54.683.683,0,0,1,.394.961c-.3.5-.286.541.308.811,1.448.648,1.82,1.652,1.431,3.289-.243,1.048-.551,2.079-.81,3.116a8.847,8.847,0,0,0,.027,3.835,16.782,16.782,0,0,0,.611,1.961,1.713,1.713,0,0,0,2.576,1.064c2.382-1.512,3.673-3.046,2.436-6.109-.351-.875-.789-1.717-1.188-2.576-.108-.232-.222-.465-.335-.7-.2-.394-.389-.8-.049-1.2.319-.373.7-.167,1.075-.076.778.2.87.13,1.08-.615.411-1.426.627-1.648,2.128-1.61a23.937,23.937,0,0,1,3.992.34A5.822,5.822,0,0,1,220.149,38.716Zm-2.026,3.446a12.328,12.328,0,0,0-.589-4.061,2.356,2.356,0,0,0-1.226-1.389,8.856,8.856,0,0,0-2.7-.685,2.3,2.3,0,0,0-2.663,1.193,1.219,1.219,0,0,1-.508.557.329.329,0,0,0-.151.529c.951,1.4,1.264,3.1,2.058,4.569a3.65,3.65,0,0,0,3.549,2.134c1.55-.065,2.052-.513,2.182-2.074C218.1,42.675,218.107,42.422,218.123,42.162Zm-18.542-3.17a10.681,10.681,0,0,0,1.588-4.759c-1.086,1.237-1.88,1.221-2.587.076-.281-.459-.513-.324-.832-.178a22.627,22.627,0,0,0-6.784,4.623,7.258,7.258,0,0,0-1.842,3.214c-.3,1.145-.049,2.052,1.68,2.252a5.039,5.039,0,0,0,2.528-.405A13.346,13.346,0,0,0,199.581,38.992Z"/>
    <path d="M217.534,38.1a12.328,12.328,0,0,1,.589,4.061c-.016.26-.027.513-.048.773-.13,1.561-.632,2.009-2.182,2.074a3.65,3.65,0,0,1-3.549-2.134c-.794-1.469-1.107-3.165-2.058-4.569a.329.329,0,0,1,.151-.529,1.219,1.219,0,0,0,.508-.557,2.3,2.3,0,0,1,2.663-1.193,8.856,8.856,0,0,1,2.7.685A2.356,2.356,0,0,1,217.534,38.1Z" fill="#fff"/>
    <path d="M201.169,34.233a10.681,10.681,0,0,1-1.588,4.759,13.346,13.346,0,0,1-6.249,4.823,5.039,5.039,0,0,1-2.528.405c-1.729-.2-1.977-1.107-1.68-2.252a7.258,7.258,0,0,1,1.842-3.214,22.627,22.627,0,0,1,6.784-4.623c.319-.146.551-.281.832.178C199.289,35.454,200.083,35.47,201.169,34.233Z" fill="#fff"/>
    <path d="M180.552,80.322c.308.659.157,1.08-.475,1.356-.486.21-.745.443-.583,1.074.14.535-.238.74-.789.541a1.753,1.753,0,0,1-1.037-.929c-1.345-2.939-3.635-5.121-5.887-7.314a72.8,72.8,0,0,1-5.855-6.184A44.723,44.723,0,0,0,162.28,65.2a15.179,15.179,0,0,0-3.489-2.215,30.669,30.669,0,0,0-6.951-3.127c-2.917-.756-5.812-1.615-8.772-2.226-1.772-.361-3.532-.767-5.3-1.155a28.285,28.285,0,0,0-9.149-.271,27.967,27.967,0,0,0-10.095,3.058,10.829,10.829,0,0,0-6.141,8.29,30.523,30.523,0,0,0,.41,9.906c.06.341.114.681.151,1.021a1.378,1.378,0,0,1-.772,1.48,61.461,61.461,0,0,1-7.978,4.008,53.467,53.467,0,0,0-6.994,3.37,52.235,52.235,0,0,0-9.317,7.168,69.427,69.427,0,0,0-6.1,6.692,48.627,48.627,0,0,0-3.273,5.422c-.481.816-.853,1.7-1.285,2.544a39.942,39.942,0,0,0-4.856,20.028c.178,4.618,1.2,9.069,4.148,12.839a29.016,29.016,0,0,0,2.182,2.133,26.657,26.657,0,0,0,2.485,2.22,2.551,2.551,0,0,0,1.464.751c.675.049.972.783,1.62.972.3.087.124.438-.038.648a2.654,2.654,0,0,1-2.155,1,3.579,3.579,0,0,0-2.074.507,2.634,2.634,0,0,1-3.214-.453,8.634,8.634,0,0,1-1.82-1.831,1.15,1.15,0,0,0-1.4-.568,2.3,2.3,0,0,1-2.3-.885,13.318,13.318,0,0,1-2.5-4.64c-.858-2.36-1.155-4.872-1.96-7.248a3.579,3.579,0,0,1-.049-1.156c.049-2.123-.286-4.213-.405-6.32A27.522,27.522,0,0,1,66.5,120.2a109.828,109.828,0,0,1,3.333-12.077,10,10,0,0,1,1.923-3.462,18.021,18.021,0,0,0,2.252-3.77A35.259,35.259,0,0,1,79.8,93a78.329,78.329,0,0,1,7.054-6.844C88.035,85.14,89.4,84.367,90.53,83.3c.157-.145.368-.243.422-.556a5.3,5.3,0,0,1-1.669-3.2,3.372,3.372,0,0,1,.275-1.885A22.394,22.394,0,0,1,91.5,74.159a3.461,3.461,0,0,1,3.046-1.636,23.094,23.094,0,0,1,3.571.583c-1.059-2.782.524-5,1.28-7.362.291-.9.75-1.745,1.107-2.625a1.844,1.844,0,0,1,2.873-.961,6.213,6.213,0,0,1,2.134,2.214,20.087,20.087,0,0,1,1.4,2.474.722.722,0,0,0,.508.481,12.4,12.4,0,0,0,.988-2.706,19.75,19.75,0,0,1,4.072-6.822,5.159,5.159,0,0,1,.778-.686c2.577-1.772,5.223-3.365,8.523-3.311a7.037,7.037,0,0,0,1.4-.243,70.078,70.078,0,0,1,10.025-.945,1.466,1.466,0,0,1,.637.048,13.521,13.521,0,0,0,4.067.686,25.083,25.083,0,0,1,4.667,1.026c1.28.416,2.625.551,3.9.919,1.95.556,3.916,1.037,5.876,1.561a44.833,44.833,0,0,1,11.991,5.693,4.06,4.06,0,0,1,.837.6,51.111,51.111,0,0,1,6.179,6.952c1.151,1.75,2.847,3,4.289,4.483.956.994,2,1.9,3.019,2.83A8.787,8.787,0,0,1,180.552,80.322Zm-74.385-9.009a1.018,1.018,0,0,0,0-.254c-.048-2.42-1.323-4.332-2.6-6.228-.394-.589-.691-.529-1.021.114a25.379,25.379,0,0,0-2.279,6.027,2.792,2.792,0,0,0-.13,1.389,5.522,5.522,0,0,0,2.593,3.834,1.664,1.664,0,0,1,.988,1.383c.551-.157,1.237.011,1.313-.7A29.963,29.963,0,0,1,106.167,71.313Zm-4.71,6.832c.108-.383-.232-.524-.454-.707a10.886,10.886,0,0,0-4.218-2.188c-.853-.221-1.885-.5-2.625.146a7.544,7.544,0,0,0-2.328,4.278c-.016,1.512,1.042,2.236,2.323,1.626a26.06,26.06,0,0,0,3.1-1.605,4.727,4.727,0,0,1,3.473-1.145A.613.613,0,0,0,101.457,78.145Z"/>
    <path d="M133.459,166.855c.8,3.521-.529,5.493-3.084,7.286a18.07,18.07,0,0,1-6.082,2.749c-3.381.837-5.649-.794-6.8-3.775a3.743,3.743,0,0,1,.346-2.755c.135-.351.475-.632.335-1.156a7.1,7.1,0,0,0-1.956.459,5.95,5.95,0,0,1-4.763-.41,4.7,4.7,0,0,1-2.5-3.689,1.451,1.451,0,0,1,.394-1.178,19.431,19.431,0,0,1,6.255-4.909,10.168,10.168,0,0,1,2.852-.81,4.228,4.228,0,0,1,3.24,1.015c.33.248.584.546.405.988a.948.948,0,0,1-.956.541,1.3,1.3,0,0,1-.74-.163,2.269,2.269,0,0,0-2.317-.162A14.685,14.685,0,0,0,112,165.348a1.3,1.3,0,0,0-.178,1.442,1.166,1.166,0,0,0,1.253.708,9.95,9.95,0,0,0,7.383-3.5,6.414,6.414,0,0,0,.8-1.475,1.292,1.292,0,0,1,.383-.464,2.09,2.09,0,0,1,1.426-.178,1.412,1.412,0,0,1,1.4,1.1.8.8,0,0,1-.1.712,54.541,54.541,0,0,0-3.7,7.659,3.107,3.107,0,0,0,.437,2.949.9.9,0,0,0,.978.487,16.243,16.243,0,0,0,6.8-2.987,3.986,3.986,0,0,0,1.647-3.857,22.4,22.4,0,0,0-2.025-7.567,2.265,2.265,0,0,0-1.464-1.334c-.464-.119-.945-.383-.783-.994a1.022,1.022,0,0,1,1.134-.686,3.687,3.687,0,0,1,3.084,1.869,21.487,21.487,0,0,1,1.9,3.916A34,34,0,0,1,133.459,166.855Z"/>
    <path d="M121.042,2.312a3.541,3.541,0,0,1,3.413,3.862A11.1,11.1,0,0,1,123.2,10.22c-.281.534-.61.583-1,.2a12.881,12.881,0,0,0-3.473-2.2c-.119-.054-.227-.124-.34-.189-1.55-.913-1.707-1.377-1.01-3.019C118.168,3.149,119.254,2.35,121.042,2.312Z" fill="#fff"/>
    <path d="M121.144,161.211l.5.853a1.292,1.292,0,0,0-.383.464,6.414,6.414,0,0,1-.8,1.475,9.95,9.95,0,0,1-7.383,3.5,1.166,1.166,0,0,1-1.253-.708,1.3,1.3,0,0,1,.178-1.442,14.685,14.685,0,0,1,6.087-4.462,2.269,2.269,0,0,1,2.317.162A1.3,1.3,0,0,0,121.144,161.211Z" fill="#fff"/>
    <path d="M113.934,6.666a.9.9,0,0,1,.394,1.01c-.032.124-.108.259-.081.372.313,1.529-.74,2.091-1.815,2.7a17.854,17.854,0,0,0-2.922,1.615c-.41.341-.994.2-1.377.265-1.4.038-1.885-.481-1.642-1.718a5.054,5.054,0,0,1,1.183-2.538A18.107,18.107,0,0,1,109.8,6.136a2.268,2.268,0,0,1,3.068-.2A12.062,12.062,0,0,1,113.934,6.666Z" fill="#fff"/>
    <path d="M106.172,71.059a1.018,1.018,0,0,1,0,.254,29.963,29.963,0,0,0-1.129,5.568c-.076.708-.762.54-1.313.7a1.664,1.664,0,0,0-.988-1.383,5.522,5.522,0,0,1-2.593-3.834,2.792,2.792,0,0,1,.13-1.389,25.379,25.379,0,0,1,2.279-6.027c.33-.643.627-.7,1.021-.114C104.849,66.727,106.124,68.639,106.172,71.059Z" fill="#fff"/>
    <path d="M101,77.438c.222.183.562.324.454.707a.613.613,0,0,1-.729.405,4.727,4.727,0,0,0-3.473,1.145,26.06,26.06,0,0,1-3.1,1.605c-1.281.61-2.339-.114-2.323-1.626A7.544,7.544,0,0,1,94.16,75.4c.74-.643,1.772-.367,2.625-.146A10.886,10.886,0,0,1,101,77.438Z" fill="#fff"/>
    <path d="M20.612,76.784c-.119,2.225-.227,4.148-.33,6.066-.054.95-.113,1.9-.167,2.846-.017.249.048.567-.3.627-.281.048-.481-.162-.632-.378a1.429,1.429,0,0,1-.254-.449,19.086,19.086,0,0,1-.81-4.045,4.287,4.287,0,0,1,.524-1.982A13.168,13.168,0,0,1,20.612,76.784Z" fill="#fff"/>
    <path d="M20.541,91.891A1.76,1.76,0,0,1,19,92.415a14.99,14.99,0,0,1-4.2-.659A1.7,1.7,0,0,1,13.633,90.5a3.982,3.982,0,0,1,.07-3.03c.324-.686.26-1.55,1.027-2.172a6.733,6.733,0,0,1,2.56,2.555,2.189,2.189,0,0,0,.637.805C19.051,89.52,19.612,90.816,20.541,91.891Z" fill="#fff"/>
  </g>
</svg>
