<svg xmlns="http://www.w3.org/2000/svg" width="231.582" height="17.63" viewBox="0 0 231.582 17.63">
  <defs>
    <style>
      .a {
        fill: #fff;
      }
    </style>
  </defs>
  <g>
    <path class="a" d="M227.425,121.217a3.564,3.564,0,0,1-1.23-.2.93.93,0,0,1-.62-1.02,4.012,4.012,0,0,1,.46-1.72,1.6,1.6,0,0,1,.52-.55,15.725,15.725,0,0,1,1.63-.85c.16-.1.34-.16.5-.25a2.034,2.034,0,0,0,1.01-1.73c.02-.37-.29-.59-.5-.84a10.293,10.293,0,0,0-2.01-1.64,6.661,6.661,0,0,1-2.42-3.12,5.71,5.71,0,0,1-.46-1.86,2.319,2.319,0,0,1,.15-.98c.12-.3.22-.6.34-.9a.637.637,0,0,1,.64-.45,2.947,2.947,0,0,1,2.3,1.05,10.872,10.872,0,0,1,1.28,1.8c.18.34.3.71.48,1.05s.36.67.56,1c.15.12.3.25.46.36a1.289,1.289,0,0,0,1.04.22,8.1,8.1,0,0,1,.79-.18.243.243,0,0,1,.09-.14c.22-.18.36-.43.59-.59,0-.01,0-.02.01-.02a.892.892,0,0,1,.27-.41c.05-.21.24-.35.33-.54a13.011,13.011,0,0,1,1.11-1.91,4.66,4.66,0,0,1,1.35-1.34,2.989,2.989,0,0,1,1.52-.58,2.406,2.406,0,0,1,1.12.24,1.53,1.53,0,0,1,.89,1.3,2.26,2.26,0,0,1-.08,1.03c-.33.92-.61,1.86-1.01,2.75a8.625,8.625,0,0,1-.8,1.34c-.56.83-1.06,1.7-1.6,2.55a18.621,18.621,0,0,1-1.22,1.59c-.31.4-.64.79-.96,1.19a8.53,8.53,0,0,1-.8.79,15.113,15.113,0,0,1-1.56,1.43,4.228,4.228,0,0,0-.79.73,4.725,4.725,0,0,1-1.85,1.18A4.429,4.429,0,0,1,227.425,121.217Z" transform="translate(-9.042 -104.247)"/>
    <path d="M224.765,109.3a6.661,6.661,0,0,0,2.42,3.12,10.293,10.293,0,0,1,2.01,1.64c.21.25.52.47.5.84a2.034,2.034,0,0,1-1.01,1.73c-.16.09-.34.15-.5.25a15.725,15.725,0,0,0-1.63.85,1.6,1.6,0,0,0-.52.55,4.012,4.012,0,0,0-.46,1.72.93.93,0,0,0,.62,1.02,3.564,3.564,0,0,0,1.23.2,4.429,4.429,0,0,0,1.53-.22,4.725,4.725,0,0,0,1.85-1.18,4.228,4.228,0,0,1,.79-.73,15.113,15.113,0,0,0,1.56-1.43,8.53,8.53,0,0,0,.8-.79c.32-.4.65-.79.96-1.19a18.621,18.621,0,0,0,1.22-1.59c.54-.85,1.04-1.72,1.6-2.55a8.625,8.625,0,0,0,.8-1.34c.4-.89.68-1.83,1.01-2.75a2.26,2.26,0,0,0,.08-1.03,1.53,1.53,0,0,0-.89-1.3,2.406,2.406,0,0,0-1.12-.24,2.989,2.989,0,0,0-1.52.58,4.66,4.66,0,0,0-1.35,1.34,13.011,13.011,0,0,0-1.11,1.91c-.09.19-.28.33-.33.54a.892.892,0,0,0-.27.41c-.01,0-.01.01-.01.02-.23.16-.37.41-.59.59a.243.243,0,0,0-.09.14,8.1,8.1,0,0,0-.79.18,1.289,1.289,0,0,1-1.04-.22c-.16-.11-.31-.24-.46-.36-.2-.33-.38-.66-.56-1s-.3-.71-.48-1.05a10.872,10.872,0,0,0-1.28-1.8,2.947,2.947,0,0,0-2.3-1.05.637.637,0,0,0-.64.45c-.12.3-.22.6-.34.9a2.319,2.319,0,0,0-.15.98A5.71,5.71,0,0,0,224.765,109.3Zm.3,10.25a7.922,7.922,0,0,1,.26-.92,2.753,2.753,0,0,1,1.66-1.87c.52-.22,1.02-.48,1.52-.73a1.205,1.205,0,0,0,.5-.5.67.67,0,0,0,0-.72,3.676,3.676,0,0,0-1.38-1.36,5.752,5.752,0,0,1-1.24-.95.976.976,0,0,0-.29-.21,6.464,6.464,0,0,0-.74-.74c-.1-.2-.21-.4-.31-.6a8.287,8.287,0,0,1-1.13-2.75,3.836,3.836,0,0,1,.15-2.32,2.81,2.81,0,0,0,.3-.78c.02-.03.05-.07.07-.1l.09-.15c.03-.04.07-.08.1-.12.21-.03.41-.19.64-.22a4.157,4.157,0,0,1,1.27.05,4.048,4.048,0,0,0,.48.09.529.529,0,0,0,.21.11c.02.01.04,0,.06,0a1.354,1.354,0,0,0,.38.19c.07.03.13.06.2.09.14.14.28.27.41.39.58.54,1.03,1.2,1.66,1.68a3.871,3.871,0,0,1,.54.78c.42.54.78,1.12,1.24,1.62.31.35.33.35.64,0a2.105,2.105,0,0,0,.17-.22,18.931,18.931,0,0,0,1.2-1.9,8.39,8.39,0,0,1,1.41-1.89c.22-.2.48-.34.77-.62h-.03a3.218,3.218,0,0,1,1.12-.45c.24-.06.48-.11.73-.16a2.348,2.348,0,0,1,.89.15,3.383,3.383,0,0,0,.34.08h.01c-.01.03,0,.06.03.06s.06.01.09.02a6.983,6.983,0,0,1,.63.43c.09.1.18.17.26.25a2.016,2.016,0,0,1,.57,2.02,16.192,16.192,0,0,1-.43,1.73c-.11.3-.18.61-.27.92a10.747,10.747,0,0,1-1.03,2.42c-.22.39-.39.82-.62,1.2-.32.52-.63,1.03-.98,1.52a3.411,3.411,0,0,1-.55.52c-.37.33-.63.75-.98,1.1a22.376,22.376,0,0,1-1.62,1.61,8.586,8.586,0,0,0-.68.67l-.06.06a1.31,1.31,0,0,0-.36.3c-.05.06-.11.13-.16.2l-.04.04c-.07,0-.15.07-.28.21a3.736,3.736,0,0,1-.62.51c-.31.21-.58.48-.89.68a.922.922,0,0,0-.08.05.922.922,0,0,1-.08.05l-.18.09v.02l-.06.03c0,.01-.01.01-.02.02a5.311,5.311,0,0,1-2.01.53h-.09c-.45-.02-.9-.03-1.35-.05a4.214,4.214,0,0,1-1.21-.21c-.01-.01-.02-.01-.03-.02a4.309,4.309,0,0,0-.47-.26A2.253,2.253,0,0,1,225.065,119.547Z" transform="translate(-9.042 -104.247)"/>
    <path class="a" d="M205.265,117.827c-.13-.9-.19-1.81-.29-2.71-.08-.71-.12-1.43-.14-2.15a13.014,13.014,0,0,1,.46-3.83,5.328,5.328,0,0,1,1.63-2.68,6.446,6.446,0,0,1,3.56-1.62c.91-.09,1.81-.17,2.72-.17a.34.34,0,0,0,.1-.01.375.375,0,0,1,.1.01,5.291,5.291,0,0,1,.89-.01,1.905,1.905,0,0,1,.54.08.219.219,0,0,1,.05.03,1.355,1.355,0,0,0,.2.02,8.858,8.858,0,0,1,.9.07,10.473,10.473,0,0,1,2.35.64c.17.07.33.13.5.19a1.736,1.736,0,0,1,.76.47,3,3,0,0,0,.55.45,1.519,1.519,0,0,1,.65,1.54,2.723,2.723,0,0,1-.21.74,1.15,1.15,0,0,1-1.58.64c-.47-.2-.94-.39-1.41-.58a8.968,8.968,0,0,0-3.19-.59,2.808,2.808,0,0,0-2.56,1.32c-.24.4-.1.73.36.8a6.3,6.3,0,0,0,1.14.12,5.83,5.83,0,0,1,2.38.45,4.157,4.157,0,0,1,1.49,1.03,1.04,1.04,0,0,1-.38,1.68,3.484,3.484,0,0,1-1.87.33c-.73-.1-1.47-.03-2.2-.12-.41-.06-.82-.09-1.23-.17a2.262,2.262,0,0,0-.86-.01c-.31.05-.37.15-.29.45.06.24.11.47.15.7a1.233,1.233,0,0,0,.77,1.02c.42.17.74.51,1.2.58a.2.2,0,0,1,.11.06,1.909,1.909,0,0,1,.33.06c-.01-.06.08-.06.13-.05.32.05.63.1.95.13a6.12,6.12,0,0,0,3.15-.61,1.117,1.117,0,0,1,1.18.07c.18.13.38.24.55.38a1.208,1.208,0,0,1,.26,1.72,5.68,5.68,0,0,1-.78,1.08,4.515,4.515,0,0,1-1.92,1.13c-.46.18-.94.3-1.42.44a8.756,8.756,0,0,1-1.62.08c-.14.01-.28,0-.43,0a17.417,17.417,0,0,1-2.04-.1c-.5-.09-1.01-.1-1.51-.2a7.489,7.489,0,0,1-2.68-1.33,1.285,1.285,0,0,0-.36-.22A1.6,1.6,0,0,1,205.265,117.827Z" transform="translate(-9.042 -104.247)"/>
    <path d="M205.105,108.157a8.053,8.053,0,0,1,1.63-2.05,6.77,6.77,0,0,1,4-1.74,28.337,28.337,0,0,1,4.12-.06,15.416,15.416,0,0,1,3.37.63,6,6,0,0,1,2.6,1.56,1.568,1.568,0,0,1,.47,1.02,4.05,4.05,0,0,1-.33,2,1.034,1.034,0,0,1-.5.55,1.133,1.133,0,0,0-.2.13c-.39.02-.78.06-1.17.11a.127.127,0,0,1-.06.01c-.14-.11-.26-.27-.46-.26a2.993,2.993,0,0,1-.91-.24,6.95,6.95,0,0,0-1.98-.32,9.582,9.582,0,0,0-1.19.06c-.23.03-.45-.02-.67.17-.15.12-.43-.07-.65.1.4.05.7.36,1.13.38a5.005,5.005,0,0,1,2.06.57,4.374,4.374,0,0,1,1.84,1.8c.01.08.01.15.02.23v.01a.991.991,0,0,0-.16.65.178.178,0,0,0-.04.1c0,.02.01.04.05.05-.04.06-.16.04-.17.1a.673.673,0,0,1-.68.7c-.25.45-.74.45-1.15.57a2.6,2.6,0,0,1-1.27.08,2.984,2.984,0,0,0-.67.03c-.53,0-1.05.01-1.58.01a1.355,1.355,0,0,0-.56.1.25.25,0,0,0-.18.25c.01.12.09.16.18.2a11.133,11.133,0,0,0,1.28.39,5.294,5.294,0,0,0,3.77-.35,1.828,1.828,0,0,1,2.12.36c.1.09.16.22.29.27.01,0,.02.01.04.02,0,.01,0,.01.01.01a.517.517,0,0,0,.17.16v.01c.01.01.03.02.04.03.01.03.03.07.04.1a.1.1,0,0,0,.07.05,1.058,1.058,0,0,1,.15.55v.02c0,.29,0,.58-.01.87a2.761,2.761,0,0,1-.62,1.48,6.017,6.017,0,0,1-1.26,1.31c-.3.21-.69.28-.98.47-.63.41-1.32.23-1.99.32a10.3,10.3,0,0,1-1.57-.02c-.81.01-1.62-.07-2.43-.1a10.025,10.025,0,0,1-1.24-.11,9.42,9.42,0,0,1-4.12-1.56.893.893,0,0,1-.31-.3,5.68,5.68,0,0,1-.62-1.23,7.814,7.814,0,0,1-.38-2.26,4.509,4.509,0,0,0-.16-1.03,13.558,13.558,0,0,1,.07-1.43,17.653,17.653,0,0,1,.39-4.7A2.583,2.583,0,0,1,205.105,108.157Zm-.13,6.96c.1.9.16,1.81.29,2.71a1.6,1.6,0,0,0,1.14,1.35,1.285,1.285,0,0,1,.36.22,7.489,7.489,0,0,0,2.68,1.33c.5.1,1.01.11,1.51.2a17.417,17.417,0,0,0,2.04.1c.15,0,.29.01.43,0a8.756,8.756,0,0,0,1.62-.08c.48-.14.96-.26,1.42-.44a4.515,4.515,0,0,0,1.92-1.13,5.68,5.68,0,0,0,.78-1.08,1.208,1.208,0,0,0-.26-1.72c-.17-.14-.37-.25-.55-.38a1.117,1.117,0,0,0-1.18-.07,6.12,6.12,0,0,1-3.15.61c-.32-.03-.63-.08-.95-.13-.05-.01-.14-.01-.13.05a1.909,1.909,0,0,0-.33-.06.2.2,0,0,0-.11-.06c-.46-.07-.78-.41-1.2-.58a1.233,1.233,0,0,1-.77-1.02c-.04-.23-.09-.46-.15-.7-.08-.3-.02-.4.29-.45a2.262,2.262,0,0,1,.86.01c.41.08.82.11,1.23.17.73.09,1.47.02,2.2.12a3.484,3.484,0,0,0,1.87-.33,1.04,1.04,0,0,0,.38-1.68,4.157,4.157,0,0,0-1.49-1.03,5.83,5.83,0,0,0-2.38-.45,6.3,6.3,0,0,1-1.14-.12c-.46-.07-.6-.4-.36-.8a2.808,2.808,0,0,1,2.56-1.32,8.968,8.968,0,0,1,3.19.59c.47.19.94.38,1.41.58a1.15,1.15,0,0,0,1.58-.64,2.723,2.723,0,0,0,.21-.74,1.519,1.519,0,0,0-.65-1.54,3,3,0,0,1-.55-.45,1.736,1.736,0,0,0-.76-.47c-.17-.06-.33-.12-.5-.19a10.473,10.473,0,0,0-2.35-.64,8.858,8.858,0,0,0-.9-.07,1.355,1.355,0,0,1-.2-.02.219.219,0,0,0-.05-.03,1.905,1.905,0,0,0-.54-.08,5.291,5.291,0,0,0-.89.01.375.375,0,0,0-.1-.01.34.34,0,0,1-.1.01c-.91,0-1.81.08-2.72.17a6.446,6.446,0,0,0-3.56,1.62,5.328,5.328,0,0,0-1.63,2.68,13.014,13.014,0,0,0-.46,3.83C204.855,113.687,204.9,114.407,204.975,115.117Z" transform="translate(-9.042 -104.247)"/>
    <path class="a" d="M188.805,104.9a2.272,2.272,0,0,1,2.24,1.52,11.369,11.369,0,0,1,.95,3.78,19.6,19.6,0,0,1,.1,3.34c-.05.6-.06,1.21-.07,1.82a2.012,2.012,0,0,0,.66,1.5.767.767,0,0,0,.66.2c.44-.04.88-.1,1.32-.15.32-.03.57-.31.81-.51a11.37,11.37,0,0,1,1.45-.96,1.547,1.547,0,0,1,1.17-.13,3.427,3.427,0,0,1,2.31,1.46,2.04,2.04,0,0,1-.2,2.54,4.028,4.028,0,0,1-2.34,1.29,31.163,31.163,0,0,1-4.82.52q-1.335.045-2.67.03a14.579,14.579,0,0,1-2.09,0,1.238,1.238,0,0,1-1.08-.62,3.282,3.282,0,0,1-.57-1.8,4.325,4.325,0,0,1,.19-.95c.21-1,.46-1.99.6-3.01a11.233,11.233,0,0,0-.02-2.39c-.08-.99-.24-1.98-.33-2.97a7.594,7.594,0,0,1,.38-3.24,2.856,2.856,0,0,1,.63-.96A1.057,1.057,0,0,1,188.805,104.9Z" transform="translate(-9.042 -104.247)"/>
    <path d="M187.405,112.377a11.233,11.233,0,0,1,.02,2.39c-.14,1.02-.39,2.01-.6,3.01a4.325,4.325,0,0,0-.19.95,3.282,3.282,0,0,0,.57,1.8,1.238,1.238,0,0,0,1.08.62,14.579,14.579,0,0,0,2.09,0q1.335.015,2.67-.03a31.163,31.163,0,0,0,4.82-.52,4.028,4.028,0,0,0,2.34-1.29,2.04,2.04,0,0,0,.2-2.54,3.427,3.427,0,0,0-2.31-1.46,1.547,1.547,0,0,0-1.17.13,11.37,11.37,0,0,0-1.45.96c-.24.2-.49.48-.81.51-.44.05-.88.11-1.32.15a.767.767,0,0,1-.66-.2,2.012,2.012,0,0,1-.66-1.5c.01-.61.02-1.22.07-1.82a19.6,19.6,0,0,0-.1-3.34,11.369,11.369,0,0,0-.95-3.78,2.272,2.272,0,0,0-2.24-1.52,1.057,1.057,0,0,0-.72.31,2.856,2.856,0,0,0-.63.96,7.594,7.594,0,0,0-.38,3.24C187.165,110.4,187.325,111.387,187.405,112.377Zm-.4,2.35a4.823,4.823,0,0,0,.03-1.42,17.74,17.74,0,0,0-.23-2.3c-.09-.6-.07-1.22-.13-1.82a8.676,8.676,0,0,1,.01-1.69,5.8,5.8,0,0,1,1.03-2.62,1.017,1.017,0,0,1,.66-.41,2.856,2.856,0,0,1,1.71.1.433.433,0,0,1,.12.05,4.682,4.682,0,0,1,2.18,2.77c.16.61.37,1.22.49,1.84a10.642,10.642,0,0,1,.15,1.87,29.435,29.435,0,0,0,.34,3.86,2.586,2.586,0,0,0,.59,1.18.375.375,0,0,0,.44.14,2.522,2.522,0,0,0,.57-.23c.42-.27.86-.52,1.28-.81a2.714,2.714,0,0,1,1.7-.56,6.939,6.939,0,0,1,.79,0,3.884,3.884,0,0,1,2.09,1.27,2.907,2.907,0,0,1,.78,1.07,2.691,2.691,0,0,1,.16.68,3.467,3.467,0,0,1-.54,2.21,4.074,4.074,0,0,1-1.44.92.035.035,0,0,0,.01.02,1.417,1.417,0,0,0-.18.08.622.622,0,0,0-.12.08.592.592,0,0,0-.4.09,2.119,2.119,0,0,1-.97.17c-.62.02-1.25.07-1.86.14-.89.11-1.78.16-2.67.21-.97.05-1.95.06-2.93.08-.86.03-1.73.04-2.59.06l-.06-.06a.85.85,0,0,0-.34-.2.27.27,0,0,0-.08-.07,1.71,1.71,0,0,1-.14-.11,2.927,2.927,0,0,1-1.21-3.16C186.5,117.017,186.725,115.857,187.005,114.727Z" transform="translate(-9.042 -104.247)"/>
    <path class="a" d="M169.045,120.017a1.287,1.287,0,0,1-.22-.54,35.245,35.245,0,0,1-.46-7.2,14.2,14.2,0,0,1,.8-4.12,1.544,1.544,0,0,1,.23-.44,6.022,6.022,0,0,0,.6-1,4.412,4.412,0,0,1,.78-.89c.06-.07.16-.13.23-.21a.933.933,0,0,1,1.04-.28c.42.12.86.22,1.27.38a3.007,3.007,0,0,1,1.38,1.16,25.561,25.561,0,0,1,1.51,2.45,10.022,10.022,0,0,1,.87,2.5,12.509,12.509,0,0,0,.41,1.6.406.406,0,0,0,.39.32.453.453,0,0,0,.46-.3,1.436,1.436,0,0,0,.1-.54c.05-1.25.01-2.5-.06-3.75a7.977,7.977,0,0,1,.2-1.62,6.01,6.01,0,0,1,.4-1.31,2.521,2.521,0,0,1,.89-1.07c.2-.14.32-.22.44-.22.03,0,.05.01.07.01a2.109,2.109,0,0,1,1.05.08.967.967,0,0,1,.79.83,15.024,15.024,0,0,1,.39,4.18c-.08,1.39-.11,2.8-.18,4.2a10.4,10.4,0,0,1-.52,2.82c-.07.22-.12.44-.17.67a4.623,4.623,0,0,1-1,1.83,1.63,1.63,0,0,1-.29.23,3.8,3.8,0,0,1-1.95.25c-.08-.02-.17-.1-.25-.08-.69.12-1.11-.32-1.53-.74a4.56,4.56,0,0,1-.85-1.24,34.331,34.331,0,0,1-1.62-3.48,8.736,8.736,0,0,1-.44-1.4,4.584,4.584,0,0,1-.22-1.15c-.01-.01,0-.03.01-.06a2.488,2.488,0,0,1-.11-.29c-.04-.09-.04-.23-.19-.2-.13.02-.15.14-.17.24a2.9,2.9,0,0,0-.02.51c.02.68.04,1.37.07,2.05a7.911,7.911,0,0,1-.13,1.09,13.832,13.832,0,0,1-.38,2.39.95.95,0,0,1-.07.18,1.332,1.332,0,0,1-.1.28c.09.13-.01.32-.06.49a7.071,7.071,0,0,1-.6,1.52,1.982,1.982,0,0,1-1.54,1.01.685.685,0,0,1-.79-.41A3.73,3.73,0,0,0,169.045,120.017Z" transform="translate(-9.042 -104.247)"/>
    <path d="M168.355,109.337a12.859,12.859,0,0,1,.75-2.35,4.572,4.572,0,0,1,1.34-1.72,1.791,1.791,0,0,0,.18-.14,9.194,9.194,0,0,1,.86-.36,2.88,2.88,0,0,1,1.09-.15,3.823,3.823,0,0,1,1.06.15.169.169,0,0,1,.05.02c.17.08.35.16.52.22.01.12.13.19.23.25.17.1.35.18.53.27a1.523,1.523,0,0,1,.34.22,6.408,6.408,0,0,1,1.45,2.3c.3.72.51,1.47.75,2.21a1.912,1.912,0,0,1,.17.75,4.585,4.585,0,0,0,.27,1.06,8.269,8.269,0,0,0,.06-1.08,24.156,24.156,0,0,1,.09-3.61,5.613,5.613,0,0,1,.44-1.33,6.207,6.207,0,0,1,.66-1.01,2.582,2.582,0,0,0,.31-.22,1.429,1.429,0,0,0,.2-.14c.01-.01.03-.01.04-.02a3.371,3.371,0,0,1,.68-.22,3.644,3.644,0,0,1,.74-.02c.01,0,.01,0,.02-.01.31.1.65.1.95.23a3.284,3.284,0,0,1,.31.2,1.7,1.7,0,0,1,.26.34c.01.02.02.03.03.05a.172.172,0,0,0,.04.17,3.879,3.879,0,0,1,.5,1.54,29.117,29.117,0,0,1,.37,3.22,10.94,10.94,0,0,1-.05,1.51c-.06,1.17-.11,2.35-.28,3.51a9.9,9.9,0,0,1-1.05,3.47,3.489,3.489,0,0,0-.44,1.05c-.07.44-.49.58-.79.81-.06.04-.15.04-.21.08a2.535,2.535,0,0,1-2.15.31,3.668,3.668,0,0,1-2.76-1.81.463.463,0,0,0-.13-.18,7.971,7.971,0,0,1-.38-.84,1.9,1.9,0,0,0-.38-.42,1.913,1.913,0,0,1-.25-.33,4.441,4.441,0,0,0-.36-.8,5.964,5.964,0,0,1-.33-.67.413.413,0,0,0-.22.36,17.742,17.742,0,0,1-.72,2.59,8.241,8.241,0,0,1-.73,1.87,1.733,1.733,0,0,1-1.51.96.587.587,0,0,0-.23.04,1.346,1.346,0,0,1-1.06-.05,3.164,3.164,0,0,0-.37-.12c-.02-.02-.03-.05-.05-.07a3.6,3.6,0,0,1-.69-1.16c-.09-.84-.3-1.67-.37-2.51-.08-1.04-.18-2.07-.17-3.11,0-.35-.08-.7-.08-1.05A21.8,21.8,0,0,1,168.355,109.337Zm.47,10.14a1.287,1.287,0,0,0,.22.54,3.73,3.73,0,0,1,.46.73.685.685,0,0,0,.79.41,1.982,1.982,0,0,0,1.54-1.01,7.071,7.071,0,0,0,.6-1.52c.05-.17.15-.36.06-.49a1.332,1.332,0,0,0,.1-.28.95.95,0,0,0,.07-.18,13.832,13.832,0,0,0,.38-2.39,7.911,7.911,0,0,0,.13-1.09c-.03-.68-.05-1.37-.07-2.05a2.9,2.9,0,0,1,.02-.51c.02-.1.04-.22.17-.24.15-.03.15.11.19.2a2.488,2.488,0,0,0,.11.29c-.01.03-.02.05-.01.06a4.584,4.584,0,0,0,.22,1.15,8.736,8.736,0,0,0,.44,1.4,34.331,34.331,0,0,0,1.62,3.48,4.56,4.56,0,0,0,.85,1.24c.42.42.84.86,1.53.74.08-.02.17.06.25.08a3.8,3.8,0,0,0,1.95-.25,1.63,1.63,0,0,0,.29-.23,4.623,4.623,0,0,0,1-1.83c.05-.23.1-.45.17-.67a10.4,10.4,0,0,0,.52-2.82c.07-1.4.1-2.81.18-4.2a15.024,15.024,0,0,0-.39-4.18.967.967,0,0,0-.79-.83,2.109,2.109,0,0,0-1.05-.08c-.02,0-.04-.01-.07-.01-.12,0-.24.08-.44.22a2.521,2.521,0,0,0-.89,1.07,6.01,6.01,0,0,0-.4,1.31,7.977,7.977,0,0,0-.2,1.62c.07,1.25.11,2.5.06,3.75a1.436,1.436,0,0,1-.1.54.453.453,0,0,1-.46.3.406.406,0,0,1-.39-.32,12.509,12.509,0,0,1-.41-1.6,10.022,10.022,0,0,0-.87-2.5,25.561,25.561,0,0,0-1.51-2.45,3.007,3.007,0,0,0-1.38-1.16c-.41-.16-.85-.26-1.27-.38a.933.933,0,0,0-1.04.28c-.07.08-.17.14-.23.21a4.412,4.412,0,0,0-.78.89,6.022,6.022,0,0,1-.6,1,1.544,1.544,0,0,0-.23.44,14.2,14.2,0,0,0-.8,4.12,35.245,35.245,0,0,0,.46,7.2Z" transform="translate(-9.042 -104.247)"/>
    <path d="M154.625,114.227a6.317,6.317,0,0,1,1.12-2.15.942.942,0,0,1,1.17-.4,1.542,1.542,0,0,1,.87.72,7.2,7.2,0,0,1,.54,2.28c.02.28.07.54-.15.71a1.384,1.384,0,0,1-.97.35,2.439,2.439,0,0,0-1.28.12,1.324,1.324,0,0,1-1.36-.7C154.445,114.847,154.335,114.517,154.625,114.227Zm.99-.18a.78.78,0,0,0-.07.42c.02.21.05.41.07.62s.14.3.37.24a3.11,3.11,0,0,1,1.29-.06.467.467,0,0,0,.58-.48,5.491,5.491,0,0,0-.44-2.04.49.49,0,0,0-.71-.27,1.269,1.269,0,0,0-.66.61C155.905,113.407,155.765,113.727,155.615,114.047Z" transform="translate(-9.042 -104.247)"/>
    <path class="a" d="M154.565,115.157a1.324,1.324,0,0,0,1.36.7,2.439,2.439,0,0,1,1.28-.12,1.384,1.384,0,0,0,.97-.35c.22-.17.17-.43.15-.71a7.2,7.2,0,0,0-.54-2.28,1.542,1.542,0,0,0-.87-.72.942.942,0,0,0-1.17.4,6.317,6.317,0,0,0-1.12,2.15C154.335,114.517,154.445,114.847,154.565,115.157Zm-2.68,5.77a2.849,2.849,0,0,1-1.74.33,1.508,1.508,0,0,1-1.28-.81,3.29,3.29,0,0,1-.56-2.04,9.922,9.922,0,0,1,.1-1.33c.17-.66.32-1.32.51-1.97.08-.28.14-.55.21-.83a15.586,15.586,0,0,1,1.56-3.49,28.03,28.03,0,0,1,1.67-2.51,4.909,4.909,0,0,1,.8-.9c.38-.35.72-.74,1.11-1.07a6.981,6.981,0,0,1,2.73-1.5,2.174,2.174,0,0,1,2.04.51c.32.28.64.54.98.79a7.742,7.742,0,0,1,1.19,1.17c.17.19.16.46.33.67a5.4,5.4,0,0,1,.64,1.35c.26.63.57,1.25.82,1.89a18.008,18.008,0,0,1,1.42,5.63,8.151,8.151,0,0,1-.22,2.61,1.877,1.877,0,0,1-.77,1.23,1.906,1.906,0,0,1-1.63.17,1.67,1.67,0,0,0-.38-.06,1.324,1.324,0,0,1-1.3-.96,8.4,8.4,0,0,1-.53-1.53,4.21,4.21,0,0,1,.01-.71,11.785,11.785,0,0,0,.01-1.33c0-.07-.06-.14-.22-.17-.06.34-.27.63-.24.98a.292.292,0,0,1-.24.31,3.026,3.026,0,0,1-.89.2c-.79.03-1.58.19-2.37.19a5.215,5.215,0,0,1-1.25-.15.5.5,0,0,1-.45-.43c-.03-.2-.09-.4-.14-.61a1.155,1.155,0,0,0-.11-.36c-.04-.06-.07-.11-.15-.11a.164.164,0,0,0-.17.13,1.091,1.091,0,0,0-.01.62,3.7,3.7,0,0,1-.18,2.52A3.762,3.762,0,0,1,151.885,120.927Z" transform="translate(-9.042 -104.247)"/>
    <path d="M151.655,121.667a1.3,1.3,0,0,1-1.12.13.912.912,0,0,0-.33-.05,2.1,2.1,0,0,1-1.82-1.23,3.62,3.62,0,0,1-.44-2.1c-.02-.53.1-1.08.12-1.64a.887.887,0,0,1,.08-.32,10.768,10.768,0,0,0,.68-2.29,12.631,12.631,0,0,1,1.32-3.01c.54-.97,1.19-1.86,1.8-2.77a10.785,10.785,0,0,1,1.59-1.79c.4-.37.79-.74,1.21-1.08a7.152,7.152,0,0,1,1.82-.99,3.109,3.109,0,0,1,2.65.32,8.348,8.348,0,0,1,1.37,1.06,8.2,8.2,0,0,1,1.65,1.73,11.608,11.608,0,0,1,1.53,3.02c.33,1.09.69,2.16,1.05,3.24a12.945,12.945,0,0,1,.57,4.1,5.452,5.452,0,0,1-.22,1.66,3.022,3.022,0,0,1-1.21,1.57.93.93,0,0,1-.55.15,10.2,10.2,0,0,1-2.07-.15,2.091,2.091,0,0,1-1.47-1.01,4.579,4.579,0,0,1-.64-2.23c.01-.28-.06-.33-.35-.23a8.472,8.472,0,0,1-1.33.27c-.9.17-1.83.19-2.73.39a.675.675,0,0,0-.46.3c-.29.44-.49.93-.78,1.37a5.693,5.693,0,0,1-.78.98,1.358,1.358,0,0,1-.52.33A4.3,4.3,0,0,0,151.655,121.667Zm-1.51-.41a2.849,2.849,0,0,0,1.74-.33,3.762,3.762,0,0,0,1.3-1.57,3.7,3.7,0,0,0,.18-2.52,1.091,1.091,0,0,1,.01-.62.164.164,0,0,1,.17-.13c.08,0,.11.05.15.11a1.155,1.155,0,0,1,.11.36c.05.21.11.41.14.61a.5.5,0,0,0,.45.43,5.215,5.215,0,0,0,1.25.15c.79,0,1.58-.16,2.37-.19a3.026,3.026,0,0,0,.89-.2.292.292,0,0,0,.24-.31c-.03-.35.18-.64.24-.98.16.03.22.1.22.17a11.785,11.785,0,0,1-.01,1.33,4.21,4.21,0,0,0-.01.71,8.4,8.4,0,0,0,.53,1.53,1.324,1.324,0,0,0,1.3.96,1.67,1.67,0,0,1,.38.06,1.906,1.906,0,0,0,1.63-.17,1.877,1.877,0,0,0,.77-1.23,8.151,8.151,0,0,0,.22-2.61,18.008,18.008,0,0,0-1.42-5.63c-.25-.64-.56-1.26-.82-1.89a5.4,5.4,0,0,0-.64-1.35c-.17-.21-.16-.48-.33-.67a7.742,7.742,0,0,0-1.19-1.17c-.34-.25-.66-.51-.98-.79a2.174,2.174,0,0,0-2.04-.51,6.981,6.981,0,0,0-2.73,1.5c-.39.33-.73.72-1.11,1.07a4.909,4.909,0,0,0-.8.9,28.03,28.03,0,0,0-1.67,2.51,15.586,15.586,0,0,0-1.56,3.49c-.07.28-.13.55-.21.83-.19.65-.34,1.31-.51,1.97a9.922,9.922,0,0,0-.1,1.33,3.29,3.29,0,0,0,.56,2.04A1.508,1.508,0,0,0,150.145,121.257Z" transform="translate(-9.042 -104.247)"/>
    <path class="a" d="M131.535,110.1a2.9,2.9,0,0,1-2.38-.68.957.957,0,0,1-.33-.55,4.2,4.2,0,0,1-.05-2.17,1.761,1.761,0,0,1,1.18-1.19c.32-.11.68-.17,1.02-.25a7.573,7.573,0,0,1,1.26,0c.64-.03,1.29-.1,1.93-.11.56-.02,1.12.01,1.67-.05.97-.09,1.95-.05,2.92-.09.83-.04,1.67-.07,2.51-.05.36.01.7-.08,1.05-.07a3.175,3.175,0,0,1,1.1.27.626.626,0,0,1,.38.35,5.114,5.114,0,0,1,.47,1.92,2.244,2.244,0,0,1-.32,1.19c-.15.24-.25.53-.41.77a1.977,1.977,0,0,1-.28.39,2.106,2.106,0,0,1-.27.25c-.02.01-.11.08-.16.06,0-.01-.01-.01-.02-.02a1.854,1.854,0,0,1-1.34.28c-.33-.05-.66-.11-1-.17a1.467,1.467,0,0,0-1.75,1.28,5.811,5.811,0,0,0-.01,1.18,5.239,5.239,0,0,1-.01.97c-.04.81-.01,1.62-.11,2.43-.04.33-.18.62-.24.94-.12.57-.25,1.14-.39,1.7a3.085,3.085,0,0,1-.44,1,.988.988,0,0,0-.15.33.817.817,0,0,1-.5.67,1.992,1.992,0,0,1-.2.22c.04-.01.09-.01.13-.02a.994.994,0,0,1-.96.22.875.875,0,0,1-.67-.3l-.05-.05a.36.36,0,0,1-.21-.13,2.111,2.111,0,0,1-.52-.95,7.428,7.428,0,0,1,.08-2.82,20.922,20.922,0,0,0,.37-2.5,4.639,4.639,0,0,1,.22-1.27.9.9,0,0,0,0-.4,4,4,0,0,0-.38-2.04,1.284,1.284,0,0,0-.96-.65A6.382,6.382,0,0,0,131.535,110.1Z" transform="translate(-9.042 -104.247)"/>
    <path d="M129.155,109.417a2.9,2.9,0,0,0,2.38.68,6.382,6.382,0,0,1,2.18-.11,1.284,1.284,0,0,1,.96.65,4,4,0,0,1,.38,2.04.9.9,0,0,1,0,.4,4.639,4.639,0,0,0-.22,1.27,20.922,20.922,0,0,1-.37,2.5,7.428,7.428,0,0,0-.08,2.82,2.111,2.111,0,0,0,.52.95.36.36,0,0,0,.21.13l.05.05a.875.875,0,0,0,.67.3.994.994,0,0,0,.96-.22c-.04.01-.09.01-.13.02a1.992,1.992,0,0,0,.2-.22.817.817,0,0,0,.5-.67.988.988,0,0,1,.15-.33,3.085,3.085,0,0,0,.44-1c.14-.56.27-1.13.39-1.7.06-.32.2-.61.24-.94.1-.81.07-1.62.11-2.43a5.239,5.239,0,0,0,.01-.97,5.811,5.811,0,0,1,.01-1.18,1.467,1.467,0,0,1,1.75-1.28c.34.06.67.12,1,.17a1.854,1.854,0,0,0,1.34-.28c.01.01.02.01.02.02.05.02.14-.05.16-.06a2.106,2.106,0,0,0,.27-.25,1.977,1.977,0,0,0,.28-.39c.16-.24.26-.53.41-.77a2.244,2.244,0,0,0,.32-1.19,5.114,5.114,0,0,0-.47-1.92.626.626,0,0,0-.38-.35,3.175,3.175,0,0,0-1.1-.27c-.35-.01-.69.08-1.05.07-.84-.02-1.68.01-2.51.05-.97.04-1.95,0-2.92.09-.55.06-1.11.03-1.67.05-.64.01-1.29.08-1.93.11a7.573,7.573,0,0,0-1.26,0c-.34.08-.7.14-1.02.25a1.761,1.761,0,0,0-1.18,1.19,4.2,4.2,0,0,0,.05,2.17A.957.957,0,0,0,129.155,109.417Zm3.19,1.12c-.53.08-1.07.19-1.61.24a2.706,2.706,0,0,1-2.42-1.45c-.01-.02-.02-.05-.03-.07a4.824,4.824,0,0,1-.18-2.13,2.073,2.073,0,0,1,.75-1.61.284.284,0,0,0,.1-.09,1.3,1.3,0,0,1,.2-.15,3.485,3.485,0,0,1,.52-.24c.3-.13.61-.24.92-.34.68,0,1.36-.11,2.04-.11.76,0,1.52.01,2.27-.03a13.67,13.67,0,0,0,2.02-.1,2.839,2.839,0,0,1,.77-.02,13.086,13.086,0,0,0,1.98-.13c.56-.02,1.11-.03,1.66-.01.53.02,1.06-.05,1.58,0,.25.03.49.04.74.05a2.6,2.6,0,0,1,.25.1,4.316,4.316,0,0,1,.57.47c0,.01-.01.02-.02.03.02.15.15.22.25.3a2.486,2.486,0,0,1,.72,2.19,4.239,4.239,0,0,1-.41,1.68,4.375,4.375,0,0,1-.81,1.2c-.39.35-.86.58-1.27.91a2.569,2.569,0,0,0-.68-.03c-.24-.04-.49-.02-.73-.05a.951.951,0,0,0-.69.18,5.019,5.019,0,0,0-.74.63,1.224,1.224,0,0,0-.44,1.01,10.232,10.232,0,0,1,.03,1.75,17.419,17.419,0,0,1-.14,2.39,3.783,3.783,0,0,1-.13.83,3.92,3.92,0,0,0-.36.91,6.7,6.7,0,0,1-1.11,2.38c.03,0,.07-.01.1-.01-.01.02-.03.03-.04.05a.035.035,0,0,0-.01.02,1.668,1.668,0,0,0-.28.25,2.035,2.035,0,0,0-.63.17c-.02,0-.05.01-.07.01a4.78,4.78,0,0,1-1.07-.01,1.616,1.616,0,0,0-.61-.09c-.11-.03-.22-.05-.33-.07a.085.085,0,0,0-.07,0c-.12-.07-.22-.14-.32-.21-.01,0-.02-.01-.03-.02a.138.138,0,0,1,.04-.03c0-.1-.07-.15-.12-.21a1.917,1.917,0,0,1-.55-.74.164.164,0,0,0-.07-.11,1.227,1.227,0,0,0-.12-.26.406.406,0,0,0,0-.19,8.505,8.505,0,0,1,.01-3.06,11.129,11.129,0,0,0,.2-1.41,2.149,2.149,0,0,1,.07-.56,12.891,12.891,0,0,1,.3-1.34,2.771,2.771,0,0,0-.16-1.79A1.512,1.512,0,0,0,132.345,110.537Z" transform="translate(-9.042 -104.247)"/>
    <path class="a" d="M114.965,116.127a.921.921,0,0,1,.52-.01,5.037,5.037,0,0,1,1.53.7,14.337,14.337,0,0,0,1.96.98.368.368,0,0,0,.16.05,4.271,4.271,0,0,0,2.68-.49,4.06,4.06,0,0,0,.86-.58.911.911,0,0,0,.28-1.11,1.29,1.29,0,0,0-.45-.55c-.39-.28-.79-.51-1.19-.76h-.01a.487.487,0,0,0-.11-.04,2.38,2.38,0,0,1-1.23-.21.929.929,0,0,0-.13-.04c-.68-.05-1.32-.33-2-.37a.742.742,0,0,1-.31-.12,4.358,4.358,0,0,0-1.49-.56.684.684,0,0,1-.45-.35,7.741,7.741,0,0,1-.44-.8,1.826,1.826,0,0,1-.14-.93,8.11,8.11,0,0,1,.35-1.71,8.965,8.965,0,0,1,.55-1.32,1.307,1.307,0,0,1,.17-.28c.45-.53.83-1.14,1.32-1.62a2.754,2.754,0,0,1,1.47-.74,2.636,2.636,0,0,1,.55-.15.5.5,0,0,1,.13-.03c0-.02-.01-.04-.01-.07.18-.01.35-.02.52-.04a.078.078,0,0,1-.04.04,2.212,2.212,0,0,1,1.2.3,2.9,2.9,0,0,1,.57.25,5.355,5.355,0,0,1,1.13.79,5.782,5.782,0,0,1,1.26,1.62,2.7,2.7,0,0,1,.25,1.31,1.462,1.462,0,0,1-.42,1.16.481.481,0,0,1-.46.14,2.609,2.609,0,0,1-.91-.46.693.693,0,0,1-.26-.34.887.887,0,0,0-.37-.49c-.29-.21-.58-.43-.86-.64a1.643,1.643,0,0,0-.71-.3.882.882,0,0,0-.8.25c-.16.15-.32.29-.47.43a1.865,1.865,0,0,0-.26,1.86.581.581,0,0,1,.1.24,1.7,1.7,0,0,1,.28.21.349.349,0,0,1,.27.07,2.049,2.049,0,0,0,.77.31,19.123,19.123,0,0,1,2.75.88,2.589,2.589,0,0,1,1.69,2.22,6.313,6.313,0,0,1-.01,1.79,3.761,3.761,0,0,1-.32.83c-.12.37-.32.69-.43,1.07a3.9,3.9,0,0,1-2.67,2.29,10.518,10.518,0,0,0-1.37.2.3.3,0,0,1-.28-.02c-.23-.15-.43-.04-.66-.01a7.2,7.2,0,0,1-1.23.08,6.567,6.567,0,0,1-1.53-.1,4.172,4.172,0,0,1-1.95-.99,2.488,2.488,0,0,1-.72-1.21,2.032,2.032,0,0,1,.02-.95A2.063,2.063,0,0,1,114.965,116.127Z" transform="translate(-9.042 -104.247)"/>
    <path d="M115.905,107.907a8.965,8.965,0,0,0-.55,1.32,8.11,8.11,0,0,0-.35,1.71,1.826,1.826,0,0,0,.14.93,7.741,7.741,0,0,0,.44.8.684.684,0,0,0,.45.35,4.358,4.358,0,0,1,1.49.56.742.742,0,0,0,.31.12c.68.04,1.32.32,2,.37a.929.929,0,0,1,.13.04,2.38,2.38,0,0,0,1.23.21.487.487,0,0,1,.11.04h.01c.4.25.8.48,1.19.76a1.29,1.29,0,0,1,.45.55.911.911,0,0,1-.28,1.11,4.06,4.06,0,0,1-.86.58,4.271,4.271,0,0,1-2.68.49.368.368,0,0,1-.16-.05,14.337,14.337,0,0,1-1.96-.98,5.037,5.037,0,0,0-1.53-.7.921.921,0,0,0-.52.01,2.063,2.063,0,0,0-1.35,1.68,2.032,2.032,0,0,0-.02.95,2.488,2.488,0,0,0,.72,1.21,4.172,4.172,0,0,0,1.95.99,6.567,6.567,0,0,0,1.53.1,7.2,7.2,0,0,0,1.23-.08c.23-.03.43-.14.66.01a.3.3,0,0,0,.28.02,10.518,10.518,0,0,1,1.37-.2,3.9,3.9,0,0,0,2.67-2.29c.11-.38.31-.7.43-1.07a3.761,3.761,0,0,0,.32-.83,6.313,6.313,0,0,0,.01-1.79,2.589,2.589,0,0,0-1.69-2.22,19.123,19.123,0,0,0-2.75-.88,2.049,2.049,0,0,1-.77-.31.349.349,0,0,0-.27-.07,1.7,1.7,0,0,0-.28-.21.581.581,0,0,0-.1-.24,1.865,1.865,0,0,1,.26-1.86c.15-.14.31-.28.47-.43a.882.882,0,0,1,.8-.25,1.643,1.643,0,0,1,.71.3c.28.21.57.43.86.64a.887.887,0,0,1,.37.49.693.693,0,0,0,.26.34,2.609,2.609,0,0,0,.91.46.481.481,0,0,0,.46-.14,1.462,1.462,0,0,0,.42-1.16,2.7,2.7,0,0,0-.25-1.31,5.782,5.782,0,0,0-1.26-1.62,5.355,5.355,0,0,0-1.13-.79,2.9,2.9,0,0,0-.57-.25,2.212,2.212,0,0,0-1.2-.3.078.078,0,0,0,.04-.04c-.17.02-.34.03-.52.04,0,.03.01.05.01.07a.5.5,0,0,0-.13.03,2.636,2.636,0,0,0-.55.15,2.754,2.754,0,0,0-1.47.74c-.49.48-.87,1.09-1.32,1.62A1.307,1.307,0,0,0,115.905,107.907Zm-2.75,10.7a4.164,4.164,0,0,1,.29-2.01,1.7,1.7,0,0,1,.4-.66c.17-.13.41-.12.53-.36a7.069,7.069,0,0,1,1.1-.2c.04-.01.09.02.13.03a14.007,14.007,0,0,1,2.03.98c.21.1.43.31.67.33a.019.019,0,0,0,0,.03,6.479,6.479,0,0,0,.98.17,2.718,2.718,0,0,0,.94.1h.02a.645.645,0,0,0,.41-.02,7.556,7.556,0,0,0,1.24-.62,1.372,1.372,0,0,0,.27-.22c.21-.22.19-.45-.08-.57a2.065,2.065,0,0,1-.4-.25,2.994,2.994,0,0,0-.66-.35c-.38-.13-.77-.2-1.15-.29-.5-.12-.99-.26-1.47-.4-.67-.19-1.36-.24-2.02-.48a2.7,2.7,0,0,1-1.58-1.5,2.968,2.968,0,0,1-.26-1.22c-.01-.62.23-1.2.17-1.82a.145.145,0,0,1,.02-.07c.3-.34.27-.94.62-1.24a.3.3,0,0,0,.05-.15.89.89,0,0,1,.2-.4,11.579,11.579,0,0,1,1.82-1.99c.2-.16.41-.3.66-.47.02,0,.03-.02.06-.04a.435.435,0,0,1,.07-.04,1.2,1.2,0,0,1,.46-.21l.62-.18v-.01h.17a6.179,6.179,0,0,0,.93-.2,3.35,3.35,0,0,1,1.3.07.948.948,0,0,0,.23.05c-.02.05-.02.1.02.1a3,3,0,0,1,.86.35.174.174,0,0,0,.11.1.564.564,0,0,1,.12.04l.27.18a2.484,2.484,0,0,1,.25.3,4.325,4.325,0,0,0,.6.73,4.771,4.771,0,0,1,.58.76,3.007,3.007,0,0,1,.44,1.45c.03.43.03.87.03,1.31a.894.894,0,0,1-.28.72c-.16.14-.3.32-.45.47-.21.21-.41.5-.73.28-.01,0-.03.01-.04.01a2.431,2.431,0,0,1-1.51-.77c-.21-.19-.38-.43-.58-.65-.44-.5-.6-.54-1.12-.19a1.155,1.155,0,0,0-.54,1.03c0,.09-.01.21.06.26.17.11.3.31.5.37.26.06.51.15.77.22a10.473,10.473,0,0,1,1.92.62,2.958,2.958,0,0,1,.59.35c.21.17.42.34.62.52a2.868,2.868,0,0,1,.89,1.49,8.712,8.712,0,0,1,.24,1.37,2.157,2.157,0,0,1,0,.44,7.7,7.7,0,0,1-.71,2.39,4.658,4.658,0,0,1-.54,1.04c-.31.36-.61.73-.94,1.12a1.949,1.949,0,0,0-.39.37l-.02.02h-.22a2.453,2.453,0,0,0-.39.04c-.95.16-1.9.35-2.85.45a6.99,6.99,0,0,1-1.77,0,3.381,3.381,0,0,0-.45-.01,3.154,3.154,0,0,1-1.13-.22,1.072,1.072,0,0,0-.39-.07c-.25-.09-.49-.18-.73-.29l.02-.06c-.11-.07-.21-.14-.31-.2a3.324,3.324,0,0,1-1.06-.99A2.527,2.527,0,0,1,113.155,118.607Z" transform="translate(-9.042 -104.247)"/>
    <path class="a" d="M92.645,121.027a17.417,17.417,0,0,1-2.04-.1c-.5-.09-1.01-.1-1.51-.2a7.364,7.364,0,0,1-2.67-1.33,1.509,1.509,0,0,0-.37-.22,1.6,1.6,0,0,1-1.14-1.35c-.13-.9-.19-1.81-.29-2.71-.08-.71-.12-1.43-.13-2.15a13.007,13.007,0,0,1,.45-3.83,5.277,5.277,0,0,1,1.64-2.68,6.383,6.383,0,0,1,3.56-1.62c.9-.09,1.8-.17,2.71-.17a.308.308,0,0,0,.1-.01.34.34,0,0,1,.1.01,5.4,5.4,0,0,1,.9-.01,1.89,1.89,0,0,1,.53.08.219.219,0,0,1,.05.03,1.355,1.355,0,0,0,.2.02,8.858,8.858,0,0,1,.9.07,10.7,10.7,0,0,1,2.36.64c.16.07.32.13.49.19a1.682,1.682,0,0,1,.76.47,3,3,0,0,0,.55.45,1.519,1.519,0,0,1,.65,1.54,2.723,2.723,0,0,1-.21.74,1.142,1.142,0,0,1-1.57.64c-.48-.2-.95-.39-1.42-.58a8.968,8.968,0,0,0-3.19-.59,2.808,2.808,0,0,0-2.56,1.32c-.24.4-.09.73.36.8a6.3,6.3,0,0,0,1.14.12,5.909,5.909,0,0,1,2.39.45,4.208,4.208,0,0,1,1.48,1.03,1.04,1.04,0,0,1-.38,1.68,3.468,3.468,0,0,1-1.87.33c-.73-.1-1.47-.03-2.2-.12-.41-.06-.82-.09-1.23-.17a2.262,2.262,0,0,0-.86-.01c-.31.05-.37.15-.29.45.06.24.11.47.15.7a1.251,1.251,0,0,0,.77,1.02,5.763,5.763,0,0,0,1.2.58.2.2,0,0,1,.11.06,1.909,1.909,0,0,1,.33.06c-.01-.06.08-.06.13-.05.32.05.63.1.95.13a6.12,6.12,0,0,0,3.15-.61,1.117,1.117,0,0,1,1.18.07c.18.13.38.24.55.38a1.208,1.208,0,0,1,.26,1.72,5.68,5.68,0,0,1-.78,1.08,4.515,4.515,0,0,1-1.92,1.13c-.46.18-.94.3-1.41.44a8.842,8.842,0,0,1-1.62.08C92.935,121.037,92.8,121.027,92.645,121.027Z" transform="translate(-9.042 -104.247)"/>
    <path d="M90.325,113.787a2.262,2.262,0,0,1,.86.01c.41.08.82.11,1.23.17.73.09,1.47.02,2.2.12a3.468,3.468,0,0,0,1.87-.33,1.04,1.04,0,0,0,.38-1.68,4.208,4.208,0,0,0-1.48-1.03A5.909,5.909,0,0,0,93,110.6a6.3,6.3,0,0,1-1.14-.12c-.45-.07-.6-.4-.36-.8a2.808,2.808,0,0,1,2.56-1.32,8.968,8.968,0,0,1,3.19.59c.47.19.94.38,1.42.58a1.142,1.142,0,0,0,1.57-.64,2.723,2.723,0,0,0,.21-.74,1.519,1.519,0,0,0-.65-1.54,3,3,0,0,1-.55-.45,1.682,1.682,0,0,0-.76-.47c-.17-.06-.33-.12-.49-.19a10.7,10.7,0,0,0-2.36-.64,8.858,8.858,0,0,0-.9-.07,1.355,1.355,0,0,1-.2-.02.219.219,0,0,0-.05-.03,1.89,1.89,0,0,0-.53-.08,5.4,5.4,0,0,0-.9.01.34.34,0,0,0-.1-.01.308.308,0,0,1-.1.01c-.91,0-1.81.08-2.71.17a6.383,6.383,0,0,0-3.56,1.62,5.277,5.277,0,0,0-1.64,2.68,13.007,13.007,0,0,0-.45,3.83c.01.72.05,1.44.13,2.15.1.9.16,1.81.29,2.71a1.6,1.6,0,0,0,1.14,1.35,1.509,1.509,0,0,1,.37.22,7.364,7.364,0,0,0,2.67,1.33c.5.1,1.01.11,1.51.2a17.417,17.417,0,0,0,2.04.1c.15,0,.29.01.44,0a8.842,8.842,0,0,0,1.62-.08c.47-.14.95-.26,1.41-.44a4.515,4.515,0,0,0,1.92-1.13,5.68,5.68,0,0,0,.78-1.08,1.208,1.208,0,0,0-.26-1.72c-.17-.14-.37-.25-.55-.38a1.117,1.117,0,0,0-1.18-.07,6.12,6.12,0,0,1-3.15.61c-.32-.03-.63-.08-.95-.13-.05-.01-.14-.01-.13.05a1.909,1.909,0,0,0-.33-.06.2.2,0,0,0-.11-.06,5.763,5.763,0,0,1-1.2-.58,1.251,1.251,0,0,1-.77-1.02c-.04-.23-.09-.46-.15-.7C89.955,113.937,90.015,113.837,90.325,113.787Zm-6.32-.1a17.653,17.653,0,0,1,.39-4.7,2.583,2.583,0,0,1,.36-.83,8.277,8.277,0,0,1,1.63-2.05,6.771,6.771,0,0,1,4.01-1.74,28.179,28.179,0,0,1,4.11-.06,15.416,15.416,0,0,1,3.37.63,6,6,0,0,1,2.6,1.56,1.522,1.522,0,0,1,.47,1.02,4.05,4.05,0,0,1-.33,2,1.016,1.016,0,0,1-.49.55.917.917,0,0,0-.21.13c-.39.02-.78.06-1.17.11a.127.127,0,0,1-.06.01c-.14-.11-.26-.27-.45-.26a3.053,3.053,0,0,1-.92-.24,6.939,6.939,0,0,0-1.97-.32,9.645,9.645,0,0,0-1.2.06c-.23.03-.45-.02-.67.17-.15.12-.43-.07-.65.1.4.05.7.36,1.13.38a5.005,5.005,0,0,1,2.06.57,4.318,4.318,0,0,1,1.84,1.8,1.785,1.785,0,0,1,.02.23v.01a.991.991,0,0,0-.16.65.178.178,0,0,0-.04.1c0,.02.02.04.05.05-.04.06-.16.04-.17.1a.673.673,0,0,1-.68.7c-.25.45-.74.45-1.14.57a2.64,2.64,0,0,1-1.28.08,2.984,2.984,0,0,0-.67.03c-.52,0-1.05.01-1.58.01a1.355,1.355,0,0,0-.56.1.25.25,0,0,0-.18.25c.01.12.09.16.18.2a11.133,11.133,0,0,0,1.28.39,5.289,5.289,0,0,0,3.77-.35,1.828,1.828,0,0,1,2.12.36c.1.09.16.22.29.27.01,0,.02.01.04.02a.01.01,0,0,0,.01.01.637.637,0,0,0,.17.16v.01a.138.138,0,0,1,.04.03.418.418,0,0,1,.04.1.128.128,0,0,0,.07.05.972.972,0,0,1,.15.55v.02c0,.29,0,.58-.01.87a2.761,2.761,0,0,1-.62,1.48,6.211,6.211,0,0,1-1.25,1.31c-.3.21-.7.28-.98.47-.64.41-1.33.23-2,.32a10.3,10.3,0,0,1-1.57-.02c-.81.01-1.62-.07-2.43-.1a10.2,10.2,0,0,1-1.24-.11,9.42,9.42,0,0,1-4.12-1.56.988.988,0,0,1-.31-.3,5.222,5.222,0,0,1-.61-1.23,7.5,7.5,0,0,1-.39-2.26,4.509,4.509,0,0,0-.16-1.03C83.855,114.627,84.045,114.167,84.005,113.687Z" transform="translate(-9.042 -104.247)"/>
    <path class="a" d="M70.815,116.127a.921.921,0,0,1,.52-.01,5.037,5.037,0,0,1,1.53.7,13.9,13.9,0,0,0,1.97.98.3.3,0,0,0,.15.05,4.271,4.271,0,0,0,2.68-.49,3.822,3.822,0,0,0,.86-.58.928.928,0,0,0,.29-1.11,1.388,1.388,0,0,0-.46-.55c-.39-.28-.79-.51-1.19-.76h-.01a.487.487,0,0,0-.11-.04,2.38,2.38,0,0,1-1.23-.21.929.929,0,0,0-.13-.04c-.67-.05-1.32-.33-2-.37a.742.742,0,0,1-.31-.12,4.358,4.358,0,0,0-1.49-.56.684.684,0,0,1-.45-.35,7.741,7.741,0,0,1-.44-.8,1.826,1.826,0,0,1-.14-.93,8.11,8.11,0,0,1,.35-1.71,8.965,8.965,0,0,1,.55-1.32,1.307,1.307,0,0,1,.17-.28c.45-.53.84-1.14,1.32-1.62a2.754,2.754,0,0,1,1.47-.74,2.636,2.636,0,0,1,.55-.15.611.611,0,0,1,.13-.03c0-.02-.01-.04-.01-.07.18-.01.35-.02.53-.04a.176.176,0,0,1-.05.04,2.212,2.212,0,0,1,1.2.3,2.9,2.9,0,0,1,.57.25,5.355,5.355,0,0,1,1.13.79,5.782,5.782,0,0,1,1.26,1.62,2.7,2.7,0,0,1,.25,1.31,1.462,1.462,0,0,1-.42,1.16.481.481,0,0,1-.46.14,2.609,2.609,0,0,1-.91-.46.693.693,0,0,1-.26-.34.844.844,0,0,0-.37-.49c-.29-.21-.58-.43-.86-.64a1.643,1.643,0,0,0-.71-.3.882.882,0,0,0-.8.25c-.16.15-.32.29-.47.43a1.865,1.865,0,0,0-.26,1.86.581.581,0,0,1,.1.24,1.366,1.366,0,0,1,.28.21.349.349,0,0,1,.27.07,2.049,2.049,0,0,0,.77.31,19.123,19.123,0,0,1,2.75.88,2.574,2.574,0,0,1,1.69,2.22,6.313,6.313,0,0,1-.01,1.79,3.761,3.761,0,0,1-.32.83c-.12.37-.31.69-.42,1.07a3.98,3.98,0,0,1-2.68,2.29,10.518,10.518,0,0,0-1.37.2.307.307,0,0,1-.28-.02c-.23-.15-.43-.04-.66-.01a7.2,7.2,0,0,1-1.23.08,6.567,6.567,0,0,1-1.53-.1,4.172,4.172,0,0,1-1.95-.99,2.488,2.488,0,0,1-.72-1.21,2.032,2.032,0,0,1,.02-.95A2.063,2.063,0,0,1,70.815,116.127Z" transform="translate(-9.042 -104.247)"/>
    <path d="M71.335,116.117a.921.921,0,0,0-.52.01,2.063,2.063,0,0,0-1.35,1.68,2.032,2.032,0,0,0-.02.95,2.488,2.488,0,0,0,.72,1.21,4.172,4.172,0,0,0,1.95.99,6.567,6.567,0,0,0,1.53.1,7.2,7.2,0,0,0,1.23-.08c.23-.03.43-.14.66.01a.307.307,0,0,0,.28.02,10.518,10.518,0,0,1,1.37-.2,3.98,3.98,0,0,0,2.68-2.29c.11-.38.3-.7.42-1.07a3.761,3.761,0,0,0,.32-.83,6.313,6.313,0,0,0,.01-1.79,2.574,2.574,0,0,0-1.69-2.22,19.123,19.123,0,0,0-2.75-.88,2.049,2.049,0,0,1-.77-.31.349.349,0,0,0-.27-.07,1.366,1.366,0,0,0-.28-.21.581.581,0,0,0-.1-.24,1.865,1.865,0,0,1,.26-1.86c.15-.14.31-.28.47-.43a.882.882,0,0,1,.8-.25,1.643,1.643,0,0,1,.71.3c.28.21.57.43.86.64a.844.844,0,0,1,.37.49.693.693,0,0,0,.26.34,2.609,2.609,0,0,0,.91.46.481.481,0,0,0,.46-.14,1.462,1.462,0,0,0,.42-1.16,2.7,2.7,0,0,0-.25-1.31,5.782,5.782,0,0,0-1.26-1.62,5.355,5.355,0,0,0-1.13-.79,2.9,2.9,0,0,0-.57-.25,2.212,2.212,0,0,0-1.2-.3.176.176,0,0,0,.05-.04c-.18.02-.35.03-.53.04,0,.03.01.05.01.07a.611.611,0,0,0-.13.03,2.636,2.636,0,0,0-.55.15,2.754,2.754,0,0,0-1.47.74c-.48.48-.87,1.09-1.32,1.62a1.307,1.307,0,0,0-.17.28,8.965,8.965,0,0,0-.55,1.32,8.11,8.11,0,0,0-.35,1.71,1.826,1.826,0,0,0,.14.93,7.741,7.741,0,0,0,.44.8.684.684,0,0,0,.45.35,4.358,4.358,0,0,1,1.49.56.742.742,0,0,0,.31.12c.68.04,1.33.32,2,.37a.929.929,0,0,1,.13.04,2.38,2.38,0,0,0,1.23.21.487.487,0,0,1,.11.04h.01c.4.25.8.48,1.19.76a1.388,1.388,0,0,1,.46.55.928.928,0,0,1-.29,1.11,3.822,3.822,0,0,1-.86.58,4.271,4.271,0,0,1-2.68.49.3.3,0,0,1-.15-.05,13.9,13.9,0,0,1-1.97-.98A5.037,5.037,0,0,0,71.335,116.117Zm-.45,4.92c-.11-.07-.21-.14-.31-.2a3.324,3.324,0,0,1-1.06-.99,2.624,2.624,0,0,1-.51-1.24,4.287,4.287,0,0,1,.29-2.01,1.7,1.7,0,0,1,.4-.66c.17-.13.41-.12.53-.36a7.069,7.069,0,0,1,1.1-.2c.04-.01.09.02.13.03a14.007,14.007,0,0,1,2.03.98c.21.1.43.31.67.33-.01.01,0,.02,0,.03a6.479,6.479,0,0,0,.98.17,2.718,2.718,0,0,0,.94.1h.02a.645.645,0,0,0,.41-.02,7.556,7.556,0,0,0,1.24-.62,1.372,1.372,0,0,0,.27-.22c.21-.22.19-.45-.08-.57a2.065,2.065,0,0,1-.4-.25,2.994,2.994,0,0,0-.66-.35c-.38-.13-.77-.2-1.15-.29-.5-.12-.99-.26-1.47-.4-.67-.19-1.35-.24-2.02-.48a2.73,2.73,0,0,1-1.58-1.5,2.968,2.968,0,0,1-.26-1.22c-.01-.62.23-1.2.17-1.82a.145.145,0,0,1,.02-.07c.3-.34.27-.94.62-1.24a.3.3,0,0,0,.05-.15.89.89,0,0,1,.2-.4,11.579,11.579,0,0,1,1.82-1.99c.2-.16.41-.3.66-.47.02,0,.04-.02.06-.04a.435.435,0,0,1,.07-.04,1.2,1.2,0,0,1,.46-.21l.62-.18v-.01h.17a5.926,5.926,0,0,0,.93-.2,3.35,3.35,0,0,1,1.3.07.948.948,0,0,0,.23.05c-.02.05-.02.1.02.1a3,3,0,0,1,.86.35.174.174,0,0,0,.11.1.564.564,0,0,1,.12.04l.27.18a2.484,2.484,0,0,1,.25.3,4.325,4.325,0,0,0,.6.73,4.771,4.771,0,0,1,.58.76,3.007,3.007,0,0,1,.44,1.45c.03.43.03.87.03,1.31a.894.894,0,0,1-.28.72c-.16.14-.3.32-.45.47-.21.21-.41.5-.73.28-.01,0-.03.01-.04.01a2.431,2.431,0,0,1-1.51-.77c-.21-.19-.38-.43-.58-.65-.44-.5-.6-.54-1.12-.19a1.176,1.176,0,0,0-.54,1.03c0,.09,0,.21.06.26.17.11.3.31.5.37.26.06.51.15.77.22a10.233,10.233,0,0,1,1.92.62,2.7,2.7,0,0,1,.59.35c.21.17.42.34.62.52a2.868,2.868,0,0,1,.89,1.49,8.712,8.712,0,0,1,.24,1.37,2.157,2.157,0,0,1,0,.44,7.7,7.7,0,0,1-.71,2.39,4.658,4.658,0,0,1-.54,1.04c-.31.36-.61.73-.94,1.12a2.259,2.259,0,0,0-.39.37l-.02.02h-.22a2.453,2.453,0,0,0-.39.04c-.95.16-1.9.35-2.85.45a6.912,6.912,0,0,1-1.76,0,3.571,3.571,0,0,0-.46-.01,3.2,3.2,0,0,1-1.13-.22,1.072,1.072,0,0,0-.39-.07c-.25-.09-.49-.18-.73-.29Z" transform="translate(-9.042 -104.247)"/>
    <path d="M55.725,114.227a6.317,6.317,0,0,1,1.12-2.15.942.942,0,0,1,1.17-.4,1.542,1.542,0,0,1,.87.72,7.2,7.2,0,0,1,.54,2.28c.03.28.07.54-.15.71a1.384,1.384,0,0,1-.97.35,2.439,2.439,0,0,0-1.28.12,1.332,1.332,0,0,1-1.36-.7C55.545,114.847,55.435,114.517,55.725,114.227Zm.99.86c.03.22.14.3.37.24a3.11,3.11,0,0,1,1.29-.06.467.467,0,0,0,.58-.48,5.123,5.123,0,0,0-.44-2.04.49.49,0,0,0-.71-.27,1.214,1.214,0,0,0-.65.61c-.15.32-.29.64-.44.96a.888.888,0,0,0-.07.42C56.665,114.677,56.7,114.877,56.715,115.087Z" transform="translate(-9.042 -104.247)"/>
    <path class="a" d="M55.665,115.157a1.332,1.332,0,0,0,1.36.7,2.439,2.439,0,0,1,1.28-.12,1.384,1.384,0,0,0,.97-.35c.22-.17.18-.43.15-.71a7.2,7.2,0,0,0-.54-2.28,1.542,1.542,0,0,0-.87-.72.942.942,0,0,0-1.17.4,6.317,6.317,0,0,0-1.12,2.15C55.435,114.517,55.545,114.847,55.665,115.157Zm-2.68,5.77a2.849,2.849,0,0,1-1.74.33,1.508,1.508,0,0,1-1.28-.81,3.29,3.29,0,0,1-.56-2.04,9.922,9.922,0,0,1,.1-1.33c.17-.66.32-1.32.51-1.97.08-.28.15-.55.21-.83a15.586,15.586,0,0,1,1.56-3.49,26.129,26.129,0,0,1,1.68-2.51,4.517,4.517,0,0,1,.79-.9c.38-.35.72-.74,1.11-1.07a6.981,6.981,0,0,1,2.73-1.5,2.168,2.168,0,0,1,2.04.51c.32.28.64.54.98.79a7.806,7.806,0,0,1,1.2,1.17c.16.19.15.46.32.67a5.073,5.073,0,0,1,.64,1.35c.26.63.57,1.25.82,1.89a18.008,18.008,0,0,1,1.42,5.63,7.877,7.877,0,0,1-.22,2.61,1.877,1.877,0,0,1-.77,1.23,1.906,1.906,0,0,1-1.63.17,1.587,1.587,0,0,0-.37-.06,1.327,1.327,0,0,1-1.31-.96,8.4,8.4,0,0,1-.53-1.53,4.21,4.21,0,0,1,.01-.71,11.785,11.785,0,0,0,.01-1.33c0-.07-.06-.14-.22-.17-.06.34-.27.63-.24.98a.292.292,0,0,1-.23.31,3.09,3.09,0,0,1-.9.2c-.79.03-1.57.19-2.37.19a5.277,5.277,0,0,1-1.25-.15.481.481,0,0,1-.44-.43c-.04-.2-.1-.4-.14-.61a1.175,1.175,0,0,0-.12-.36c-.04-.06-.07-.11-.14-.11a.168.168,0,0,0-.18.13,1.091,1.091,0,0,0-.01.62,3.7,3.7,0,0,1-.18,2.52A3.762,3.762,0,0,1,52.985,120.927Z" transform="translate(-9.042 -104.247)"/>
    <path d="M53.055,108.387a10.292,10.292,0,0,1,1.58-1.79c.4-.37.79-.74,1.22-1.08a6.929,6.929,0,0,1,1.81-.99,3.109,3.109,0,0,1,2.65.32,7.945,7.945,0,0,1,1.37,1.06,8.2,8.2,0,0,1,1.65,1.73,11.307,11.307,0,0,1,1.53,3.02c.33,1.09.69,2.16,1.05,3.24a12.945,12.945,0,0,1,.57,4.1,5.452,5.452,0,0,1-.22,1.66,3,3,0,0,1-1.2,1.57.983.983,0,0,1-.56.15,10.2,10.2,0,0,1-2.07-.15,2.091,2.091,0,0,1-1.47-1.01,4.579,4.579,0,0,1-.64-2.23c.01-.28-.06-.33-.35-.23a8.472,8.472,0,0,1-1.33.27c-.9.17-1.83.19-2.73.39a.675.675,0,0,0-.46.3c-.29.44-.49.93-.78,1.37a5.25,5.25,0,0,1-.78.98,1.358,1.358,0,0,1-.52.33,4.3,4.3,0,0,0-.62.27,1.3,1.3,0,0,1-1.12.13.88.88,0,0,0-.33-.05,2.1,2.1,0,0,1-1.82-1.23,3.783,3.783,0,0,1-.44-2.1c-.02-.53.1-1.08.12-1.64a.887.887,0,0,1,.08-.32,10.768,10.768,0,0,0,.68-2.29,12.661,12.661,0,0,1,1.33-3.01C51.785,110.187,52.435,109.3,53.055,108.387Zm-.07,12.54a3.762,3.762,0,0,0,1.3-1.57,3.7,3.7,0,0,0,.18-2.52,1.091,1.091,0,0,1,.01-.62.168.168,0,0,1,.18-.13c.07,0,.1.05.14.11a1.175,1.175,0,0,1,.12.36c.04.21.1.41.14.61a.481.481,0,0,0,.44.43,5.277,5.277,0,0,0,1.25.15c.8,0,1.58-.16,2.37-.19a3.09,3.09,0,0,0,.9-.2.292.292,0,0,0,.23-.31c-.03-.35.18-.64.24-.98.16.03.22.1.22.17a11.785,11.785,0,0,1-.01,1.33,4.21,4.21,0,0,0-.01.71,8.4,8.4,0,0,0,.53,1.53,1.327,1.327,0,0,0,1.31.96,1.587,1.587,0,0,1,.37.06,1.906,1.906,0,0,0,1.63-.17,1.877,1.877,0,0,0,.77-1.23,7.877,7.877,0,0,0,.22-2.61,18.008,18.008,0,0,0-1.42-5.63c-.25-.64-.56-1.26-.82-1.89a5.073,5.073,0,0,0-.64-1.35c-.17-.21-.16-.48-.32-.67a7.806,7.806,0,0,0-1.2-1.17c-.34-.25-.66-.51-.98-.79a2.168,2.168,0,0,0-2.04-.51,6.981,6.981,0,0,0-2.73,1.5c-.39.33-.73.72-1.11,1.07a4.517,4.517,0,0,0-.79.9,26.129,26.129,0,0,0-1.68,2.51,15.586,15.586,0,0,0-1.56,3.49c-.06.28-.13.55-.21.83-.19.65-.34,1.31-.51,1.97a9.922,9.922,0,0,0-.1,1.33,3.29,3.29,0,0,0,.56,2.04,1.508,1.508,0,0,0,1.28.81A2.849,2.849,0,0,0,52.985,120.927Z" transform="translate(-9.042 -104.247)"/>
    <path class="a" d="M32.525,105.087a2.46,2.46,0,0,1,1.76,2,25.733,25.733,0,0,1,.55,3.71,1.942,1.942,0,0,0,.02.24c.01.09.05.16.15.16s.19-.03.2-.11c.08-.68.67-.51,1.09-.62a.449.449,0,0,1,.2,0,9.711,9.711,0,0,1,2.88.48,2.353,2.353,0,0,0,.52.14c.29.06.56.11.57.48a.175.175,0,0,0,.18.15c.09-.01.12-.09.15-.17a7.228,7.228,0,0,0,.3-1.38,13.044,13.044,0,0,1,.7-2.08,1.551,1.551,0,0,0,.13-.36,6.28,6.28,0,0,1,.92-1.98,2.823,2.823,0,0,1,.74-.64.454.454,0,0,1,.38-.05c.29.07.58.15.86.24a.592.592,0,0,1,.37.37,6.265,6.265,0,0,1,.48,2.04,23.036,23.036,0,0,1,.08,3.11,1.46,1.46,0,0,1-.03.22,1,1,0,0,1-.03.72v.01c-.01.03-.01.07-.02.11-.01.08-.01.17-.02.25,0,.12-.01.24-.02.35a.969.969,0,0,1-.03.23,1.089,1.089,0,0,1-.1.25c-.01.17-.04.35-.06.52a18.621,18.621,0,0,1-.69,3.54,18.233,18.233,0,0,1-1.1,2.97,1.613,1.613,0,0,1-1.61.95,1.465,1.465,0,0,1-1.14-.57,3.2,3.2,0,0,1-.76-2.35,5.087,5.087,0,0,0,0-1.17.205.205,0,0,0-.13-.19.161.161,0,0,0-.2.11c-.08.24-.26.26-.48.25-.71,0-1.42.01-2.14,0a2.821,2.821,0,0,1-.64-.09,7.087,7.087,0,0,0-1.65-.32c-.33-.01-.4-.13-.32-.43.03-.13.06-.22-.08-.28-.18-.07-.26.07-.29.19a7.207,7.207,0,0,0-.29,1.38,6.936,6.936,0,0,1-.22,1.69,2.745,2.745,0,0,1-1.34,1.68,1.182,1.182,0,0,1-1.75-.61,6.584,6.584,0,0,1-.35-1.17,12.6,12.6,0,0,0-.41-1.69,4.4,4.4,0,0,1-.16-1.45v-.49c.01-1.55-.22-3.08-.26-4.62-.02-1.19.05-2.38.1-3.56a3.638,3.638,0,0,1,.85-2.05,1.216,1.216,0,0,1,.89-.37,1.8,1.8,0,0,1,1.02.16A2.288,2.288,0,0,0,32.525,105.087Z" transform="translate(-9.042 -104.247)"/>
    <path d="M30.135,120.337a34,34,0,0,1-.95-4.32,11.8,11.8,0,0,1-.09-2.72,5.1,5.1,0,0,0-.02-1.17c-.06-.94-.01-1.88-.03-2.82-.02-.75.09-1.49.11-2.23a3.589,3.589,0,0,1,1.19-2.45,1.432,1.432,0,0,1,1.26-.34,3.444,3.444,0,0,1,3.1,1.72,10.628,10.628,0,0,1,1.41,3.62c.03.3.18.38.46.38.56.02,1.11.17,1.68.18a4.348,4.348,0,0,1,1.48.4c.11.04.22.09.33.12.38.13.43.1.53-.29.25-.98.64-1.91.98-2.86a15.06,15.06,0,0,1,.74-1.7,3.62,3.62,0,0,1,1.28-1.27,1.8,1.8,0,0,1,2.02.45,4.023,4.023,0,0,1,.6,1.48,10,10,0,0,1,.32,2.02,41.056,41.056,0,0,1-.24,5.2c-.15,1.12-.42,2.21-.67,3.3a18.237,18.237,0,0,1-.68,2.48.785.785,0,0,1-.13.31,2.882,2.882,0,0,0-.55,1.09,1.276,1.276,0,0,1-.43.55.292.292,0,0,0-.09.02l-.25.06a1.19,1.19,0,0,0-.27.07l.01-.01a.037.037,0,0,0-.03.01.784.784,0,0,0-.14.02c-.09.01-.18.01-.27.02h-.07c-.04,0-.07-.01-.11-.01a2.477,2.477,0,0,1-.27-.03c-.21-.02-.42-.06-.63-.1-.14-.03-.28-.05-.41-.08-.15-.22-.41-.32-.6-.49a2.918,2.918,0,0,1-.83-1.4,4.729,4.729,0,0,1-.2-1.59c.01-.34-.02-.37-.36-.37a17.023,17.023,0,0,0-1.89,0,3.536,3.536,0,0,1-1.37-.2c-.15-.04-.29-.1-.43-.13-.43-.09-.47-.08-.54.36a11.438,11.438,0,0,1-.66,2.23,2.551,2.551,0,0,1-1.59,1.52,3.635,3.635,0,0,1-1.22.39.635.635,0,0,1-.66-.3,8.713,8.713,0,0,1-.7-.86A1.227,1.227,0,0,1,30.135,120.337Zm-.7-9.53c.04,1.54.27,3.07.26,4.62v.49a4.4,4.4,0,0,0,.16,1.45,12.6,12.6,0,0,1,.41,1.69,6.584,6.584,0,0,0,.35,1.17,1.182,1.182,0,0,0,1.75.61,2.745,2.745,0,0,0,1.34-1.68,6.936,6.936,0,0,0,.22-1.69,7.207,7.207,0,0,1,.29-1.38c.03-.12.11-.26.29-.19.14.06.11.15.08.28-.08.3-.01.42.32.43a7.087,7.087,0,0,1,1.65.32,2.821,2.821,0,0,0,.64.09c.72.01,1.43,0,2.14,0,.22.01.4-.01.48-.25a.161.161,0,0,1,.2-.11.205.205,0,0,1,.13.19,5.087,5.087,0,0,1,0,1.17,3.2,3.2,0,0,0,.76,2.35,1.465,1.465,0,0,0,1.14.57,1.613,1.613,0,0,0,1.61-.95,18.233,18.233,0,0,0,1.1-2.97,18.621,18.621,0,0,0,.69-3.54c.02-.17.05-.35.06-.52a1.089,1.089,0,0,0,.1-.25.969.969,0,0,0,.03-.23c.01-.11.02-.23.02-.35.01-.08.01-.17.02-.25.01-.04.01-.08.02-.11v-.01a1,1,0,0,0,.03-.72,1.46,1.46,0,0,0,.03-.22,23.036,23.036,0,0,0-.08-3.11,6.265,6.265,0,0,0-.48-2.04.592.592,0,0,0-.37-.37c-.28-.09-.57-.17-.86-.24a.454.454,0,0,0-.38.05,2.823,2.823,0,0,0-.74.64,6.28,6.28,0,0,0-.92,1.98,1.551,1.551,0,0,1-.13.36,13.044,13.044,0,0,0-.7,2.08,7.228,7.228,0,0,1-.3,1.38c-.03.08-.06.16-.15.17a.175.175,0,0,1-.18-.15c-.01-.37-.28-.42-.57-.48a2.353,2.353,0,0,1-.52-.14,9.711,9.711,0,0,0-2.88-.48.449.449,0,0,0-.2,0c-.42.11-1.01-.06-1.09.62-.01.08-.11.12-.2.11s-.14-.07-.15-.16a1.942,1.942,0,0,1-.02-.24,25.733,25.733,0,0,0-.55-3.71,2.46,2.46,0,0,0-1.76-2,2.288,2.288,0,0,1-.23-.1,1.8,1.8,0,0,0-1.02-.16,1.216,1.216,0,0,0-.89.37,3.638,3.638,0,0,0-.85,2.05C29.485,108.427,29.415,109.617,29.435,110.807Z" transform="translate(-9.042 -104.247)"/>
    <path class="a" d="M13.975,105.787a8.538,8.538,0,0,1,3.23-.98.974.974,0,0,1,.24.02h.03a13.778,13.778,0,0,0,1.7-.02,9.77,9.77,0,0,1,4.22,1.1,2.76,2.76,0,0,1,.91.92,2.409,2.409,0,0,0,.33.44,2.836,2.836,0,0,1,.73,1.77,1.659,1.659,0,0,1-.25,1.01,2.618,2.618,0,0,1-3.34,1.33c-.65-.26-1.31-.51-1.95-.8a5.811,5.811,0,0,0-.99-.27.823.823,0,0,0-.49.03,2.568,2.568,0,0,0-1.19,4.08,2.615,2.615,0,0,0,3.12.56,5.056,5.056,0,0,0,1.05-.7,4.2,4.2,0,0,1,1.17-.76,1.7,1.7,0,0,1,1.98.06,4.072,4.072,0,0,1,.94,1.25,1.65,1.65,0,0,1,.04,1.27,3.116,3.116,0,0,0-.11.53,2.447,2.447,0,0,1-.28.72,3.454,3.454,0,0,1-1.54,1.39,14.188,14.188,0,0,1-2.84,1.21,1.122,1.122,0,0,1-.13.05,2.741,2.741,0,0,1-.28.05.663.663,0,0,1-.36.11,1.942,1.942,0,0,1-.24-.02,3.414,3.414,0,0,1-.64.1,22.654,22.654,0,0,1-2.98.35,4.682,4.682,0,0,1-2.66-.65c-.37-.22-.78-.38-1.14-.63a10.133,10.133,0,0,1-1.52-1.33,3.931,3.931,0,0,1-.98-2.41,15.4,15.4,0,0,1,.07-3.11,3.258,3.258,0,0,1,.17-.75,9.681,9.681,0,0,0,.31-1.29,6.806,6.806,0,0,1,.65-1.8,2.745,2.745,0,0,1,.56-.71,5.95,5.95,0,0,1,.75-.91.433.433,0,0,0,.01-.05c0-.07.09-.15.16-.21A4.56,4.56,0,0,1,13.975,105.787Z" transform="translate(-9.042 -104.247)"/>
    <path d="M10.955,108.617a6.806,6.806,0,0,0-.65,1.8,9.681,9.681,0,0,1-.31,1.29,3.258,3.258,0,0,0-.17.75,15.4,15.4,0,0,0-.07,3.11,3.931,3.931,0,0,0,.98,2.41,10.133,10.133,0,0,0,1.52,1.33c.36.25.77.41,1.14.63a4.682,4.682,0,0,0,2.66.65,22.654,22.654,0,0,0,2.98-.35,3.414,3.414,0,0,0,.64-.1,1.942,1.942,0,0,0,.24.02.663.663,0,0,0,.36-.11,2.741,2.741,0,0,0,.28-.05,1.122,1.122,0,0,0,.13-.05,14.188,14.188,0,0,0,2.84-1.21,3.454,3.454,0,0,0,1.54-1.39,2.447,2.447,0,0,0,.28-.72,3.116,3.116,0,0,1,.11-.53,1.65,1.65,0,0,0-.04-1.27,4.072,4.072,0,0,0-.94-1.25,1.7,1.7,0,0,0-1.98-.06,4.2,4.2,0,0,0-1.17.76,5.056,5.056,0,0,1-1.05.7,2.615,2.615,0,0,1-3.12-.56,2.568,2.568,0,0,1,1.19-4.08.823.823,0,0,1,.49-.03,5.811,5.811,0,0,1,.99.27c.64.29,1.3.54,1.95.8a2.618,2.618,0,0,0,3.34-1.33,1.659,1.659,0,0,0,.25-1.01,2.836,2.836,0,0,0-.73-1.77,2.409,2.409,0,0,1-.33-.44,2.76,2.76,0,0,0-.91-.92,9.77,9.77,0,0,0-4.22-1.1,13.778,13.778,0,0,1-1.7.02h-.03a.974.974,0,0,0-.24-.02,8.538,8.538,0,0,0-3.23.98,4.56,4.56,0,0,0-1.54.95c-.07.06-.16.14-.16.21a.433.433,0,0,1-.01.05,5.95,5.95,0,0,0-.75.91A2.745,2.745,0,0,0,10.955,108.617Zm.38-1.4c.27-.3.57-.59.86-.87a4.153,4.153,0,0,1,1.03-.62c.46-.24.94-.45,1.41-.66.29-.13.62-.1.91-.24a4.359,4.359,0,0,1,1.47-.37c.85-.07,1.7-.04,2.55-.15a2.841,2.841,0,0,1,.57.1,11.017,11.017,0,0,1,2.73.67,2.965,2.965,0,0,1,1.26.67,1.623,1.623,0,0,0,.39.3,4.931,4.931,0,0,1,1.86,2.61,1.8,1.8,0,0,1,.16.56,2.917,2.917,0,0,1-.59,1.59,2.062,2.062,0,0,1-.41.68c-.1.07-.18.17-.31.13a.583.583,0,0,0-.53.19.876.876,0,0,1-.62.22,15.892,15.892,0,0,1-1.69.04,4.175,4.175,0,0,1-1.16-.33,6.11,6.11,0,0,0-1.84-.39.692.692,0,0,0-.32,0,.757.757,0,0,0-.15-.01.772.772,0,0,0-.38.12.55.55,0,0,0-.18.13,3.215,3.215,0,0,0-.68,1.21,1.109,1.109,0,0,0,.32,1.26,1.726,1.726,0,0,0,1.16.61,1.8,1.8,0,0,0,1.47-.51,2.949,2.949,0,0,0,.62-.65.571.571,0,0,1,.63-.34.576.576,0,0,0,.38-.1,2.773,2.773,0,0,1,1.79-.22,1.221,1.221,0,0,0,.27.01.875.875,0,0,1,.64.26,5.441,5.441,0,0,1,1.45,2.58,2.8,2.8,0,0,1-.26,1.69c-.11.23-.27.44-.38.67a2.432,2.432,0,0,1-.99.97,17.05,17.05,0,0,1-2.51,1.39,4,4,0,0,1-1.37.21c-1.38,0-2.73.27-4.1.39-.3.03-.6.04-.89.05a6,6,0,0,1-3.12-.85,9.571,9.571,0,0,1-2.36-1.73,2.953,2.953,0,0,1-.55-.76,6.608,6.608,0,0,1-.67-2.92c-.01-.4-.16-.77-.16-1.17a7.077,7.077,0,0,1,.34-2.46c.03-.09.03-.17.17-.14.12.03.09-.1.07-.16a1.531,1.531,0,0,1,.23-1.04c.12-.26.22-.53.32-.79A5.235,5.235,0,0,1,11.335,107.217Z" transform="translate(-9.042 -104.247)"/>
  </g>
</svg>
