<svg xmlns="http://www.w3.org/2000/svg" width="155.613" height="265.464" viewBox="0 0 155.613 265.464">
  <g>
    <path d="M155.131,55.731a5.975,5.975,0,0,1-1.175,6.492,31.456,31.456,0,0,1-6.147,5.194,23.813,23.813,0,0,1-3.37,2.046,16.375,16.375,0,0,1-4.544,1.66.323.323,0,0,0-.3.255c.7.4,1.438.764,2.1,1.233a10.674,10.674,0,0,1,4.651,6.788,10.338,10.338,0,0,1,.025,2.934l-.025.222-1.947-.214a7.324,7.324,0,0,0-1.266-4.783c-.781-1.175-1.709-2.227-2.564-3.353a6.193,6.193,0,0,0-1.8-1.528,23.293,23.293,0,0,0-2.9-1.381,3.322,3.322,0,0,1-1.1-.649.5.5,0,0,1,.14-.888,4.279,4.279,0,0,1,1.38-.5,16.353,16.353,0,0,0,5.605-1.627,5.706,5.706,0,0,1,1.126-.395,11.087,11.087,0,0,0,4.947-2.851,1.781,1.781,0,0,1,.493-.411,11.218,11.218,0,0,0,2.819-2.457c1.159-1.192,2.055-3.74.715-5.671a8.644,8.644,0,0,1-.814-1.438,13.254,13.254,0,0,0-2.07-3.131A4.455,4.455,0,0,0,147.579,50c-.814-.362-1.595-.789-2.425-1.11a12.761,12.761,0,0,0-4.322-1.134,2.423,2.423,0,0,1-1.652-.682,13,13,0,0,0-2.03-1.413c-1.364-.83-2.778-1.562-4.15-2.367a13.5,13.5,0,0,0-1.742-.838l.616-1.94A29.093,29.093,0,0,1,138.95,44a13.169,13.169,0,0,0,4.207,1.882,24.577,24.577,0,0,1,3.978,1.4,14.33,14.33,0,0,1,2.58,1.561,13.771,13.771,0,0,1,3.937,3.929A18,18,0,0,1,155.131,55.731Z"/>
    <path d="M152,55.846c1.34,1.931.444,4.479-.715,5.671a11.218,11.218,0,0,1-2.819,2.457,1.781,1.781,0,0,0-.493.411,11.087,11.087,0,0,1-4.947,2.851,5.706,5.706,0,0,0-1.126.395,16.353,16.353,0,0,1-5.605,1.627,4.279,4.279,0,0,0-1.38.5.5.5,0,0,0-.14.888,3.322,3.322,0,0,0,1.1.649,23.293,23.293,0,0,1,2.9,1.381,6.193,6.193,0,0,1,1.8,1.528c.855,1.126,1.783,2.178,2.564,3.353a7.324,7.324,0,0,1,1.266,4.783,8.83,8.83,0,0,1-.42,1.981c-.238.723-.526,1.43-.821,2.136a7.657,7.657,0,0,1-2.811,3.189,24.546,24.546,0,0,1-4.832,2.622,9.337,9.337,0,0,1-1.857.46c-1.981.427-3.953.822-5.934,1.241a1.634,1.634,0,0,1-1.06-.1c-.657-.312-.748-.246-1.019.4-.23.567-.493,1.117-.707,1.693a10.559,10.559,0,0,1-4.816,5.218c-.526.321-1.052.625-1.577.945a10.56,10.56,0,0,1-2.762,1.233c-.945.246-1.857.608-2.794.879-1.2.345-2.449.518-3.682.765-1.438.279-2.827.764-4.248,1.142-1.381.37-2.786.674-4.2.928-1.175.214-2.367.321-3.55.444-1.34.132-2.679.288-4.019.321-1.38.033-2.728.32-4.092.4a13.044,13.044,0,0,0-2.1.14,2.156,2.156,0,0,1-1.085-.115c-2.112-.69-4.24-1.364-6.352-2.063a2.018,2.018,0,0,0-1.422.017,25.463,25.463,0,0,1-6.838,1.652c-.895.065-1.775-.033-2.662.016a.478.478,0,0,1-.419-.148.739.739,0,0,0-.987-.181.572.572,0,0,1-.452-.008c-1.158-.444-2.424-.271-3.6-.641-.148-.041-.329-.074-.436.041-.337.378-.739.23-1.117.165a34.5,34.5,0,0,1-5.375-1.159c-.485-.165-.97-.362-1.446-.567a1.675,1.675,0,0,0-1.652-.148.7.7,0,0,1-.452.025c-1.446-.255-2.926-.3-4.364-.609a38.419,38.419,0,0,1-5.021-1.734c-.551-.2-1.085-.411-1.636-.6a7.186,7.186,0,0,1-2.259-1.208,38.928,38.928,0,0,1-3.271-2.794,6.993,6.993,0,0,1-1.784-3.254,5.357,5.357,0,0,1-.172-.707.806.806,0,0,0-.781-.772c-1.364-.132-2.7-.526-4.068-.691a17.265,17.265,0,0,1-5.309-1.684,20.842,20.842,0,0,1-4.5-3.288c-.444-.378-.9-.723-1.372-1.06A9.627,9.627,0,0,1,16.155,85a19.709,19.709,0,0,1-3.04-4.9c-.115-.313-.222-.633-.337-.954-.1-.287-.181-.591-.51-.715-.238-.09-.279-.32-.353-.509-.567-1.356-1.151-2.7-1.677-4.076a5.5,5.5,0,0,1-.205-3,10.051,10.051,0,0,1,1.89-4.413,11.342,11.342,0,0,1,5.933-3.772c1.085-.337,1.143-.444.584-1.447a6.018,6.018,0,0,1-.715-2.071,2.955,2.955,0,0,0-.115-.534,8.186,8.186,0,0,1,.485-7.232,21.945,21.945,0,0,1,2.991-4.281,11.01,11.01,0,0,1,5.572-3.378,11.191,11.191,0,0,1,3.008-.427,7.653,7.653,0,0,1,2.613.337,3.332,3.332,0,0,0,1.364.123c.7-.041.9-.14.937-.855.1-2.58,1.833-4.092,3.575-5.613.189-.164.395-.3.575-.46a12,12,0,0,1,4.307-2.358,4.039,4.039,0,0,1,1.717-.189,11.715,11.715,0,0,1,5.235,1.84,3.1,3.1,0,0,1,.97,1.085,1.19,1.19,0,0,0,2,0,1.046,1.046,0,0,1,.271-.353c.313-.238.255-.51.05-.8a4.744,4.744,0,0,0-1.521-1.554c-.485-.262-.945-.567-1.413-.862a8.918,8.918,0,0,0-3.246-1.184,26.615,26.615,0,0,0-4.282-.493A7.382,7.382,0,0,0,37.7,33.863a25.247,25.247,0,0,1-2.745,2.276,12.29,12.29,0,0,0-3.189,3.509,1.365,1.365,0,0,1-1.306.74,9.423,9.423,0,0,0-5.334,1.438,12.88,12.88,0,0,1-1.676.74,7.771,7.771,0,0,0-2,1.109,8.734,8.734,0,0,1-1.159.534,11.387,11.387,0,0,0-3.041,2.77,18.756,18.756,0,0,0-2.432,3.665c-.148.312-.345.427-.641.345a4.915,4.915,0,0,0-2.1-.049,4.612,4.612,0,0,1-1.471-.017,8.47,8.47,0,0,1-2.227-.756c-1.225-.575-2.392-1.241-3.649-1.742a1.119,1.119,0,0,1-.748-1.142,2.988,2.988,0,0,1,.28-1.34,6.981,6.981,0,0,1,2.161-2.81,3.567,3.567,0,0,0,1.644-2.794,32.746,32.746,0,0,1,.928-3.912,14.2,14.2,0,0,1,1.726-4.233,7.169,7.169,0,0,0,.846-2.12,13.771,13.771,0,0,1,2.121-4.15A24.175,24.175,0,0,1,18.21,20.64a19.7,19.7,0,0,1,6.739-3.83c.115-.041.238-.066.345-.107a6.36,6.36,0,0,1,1.052-.369,7.812,7.812,0,0,1,3.271-.091,1.762,1.762,0,0,0,2.013-.674,4.267,4.267,0,0,1,.888-.78,5.379,5.379,0,0,0,1.15-1.282,7.789,7.789,0,0,1,1.874-1.882c1.339-1.061,2.6-2.211,4.01-3.189A8.385,8.385,0,0,1,41.582,7.2a3.964,3.964,0,0,0,.8-.444,33.815,33.815,0,0,1,6.665-3.065c.658-.23,1.405-.2,2.055-.444a14.8,14.8,0,0,1,4.963-.723,1.431,1.431,0,0,0,.461-.041,9.278,9.278,0,0,1,4.528.033c1.265.189,2.555.214,3.837.3,1.685.1,3.329.419,4.989.682a12.726,12.726,0,0,1,5.687,2.621,3.324,3.324,0,0,0,2.819.715,13.448,13.448,0,0,1,3.936-.156c1.044.091,2.1-.024,3.131.156a4.273,4.273,0,0,1,.436.1,13.175,13.175,0,0,1,6.245,3.106c.715.715,1.471,1.381,2.228,2.063a8.974,8.974,0,0,1,2.4,3.641c.181.485.345.986.51,1.471a3.732,3.732,0,0,1,.164,2.26,4.178,4.178,0,0,0-.115.912,4.7,4.7,0,0,1-.929,2.556,17.254,17.254,0,0,1-8.144,6.3c-.567.222-1.142.436-1.717.649-.313.115-.691.173-.658.625.033.435.395.509.723.592.469.123.946.238,1.43.337a13.657,13.657,0,0,1,5.761,2.7,5.214,5.214,0,0,1,1.858,3.09,3.274,3.274,0,0,1-.2,2.071,12.765,12.765,0,0,1-2.736,3.764,19.031,19.031,0,0,1-2.482,2.03,1.12,1.12,0,0,1-.608.246,1.019,1.019,0,0,1-.156-.016c-1.644-.353-3.222.172-4.816.411-.633.1-1.249.287-1.874.435-.468.107-.961.132-1.159.732-.057.172-.386.271-.608.378a52.89,52.89,0,0,0-7.856,4.733C71.6,53.175,69.9,54.1,68.439,55.378a31.776,31.776,0,0,0-3.567,3.566c-.871,1.028-1.75,2.047-2.572,3.107-.707.895-.567,1.2.534,1.323a1.543,1.543,0,0,1,.888.394,1.074,1.074,0,0,0,1.849-.328A12.039,12.039,0,0,1,67.14,61.3a44.991,44.991,0,0,1,6.221-5.843,54.261,54.261,0,0,1,11.448-6.92,5.859,5.859,0,0,1,1.751-.485c.542-.049,1.084-.263,1.61-.32a9.783,9.783,0,0,1,1.389-.074,3.464,3.464,0,0,1,2.326.871,13.712,13.712,0,0,0,2.317,1.8,4.975,4.975,0,0,1,1.241,1.216q1.2,1.455,2.375,2.926a2.246,2.246,0,0,0,1.274.83c.485.1.715-.058.814-.51a14.378,14.378,0,0,1,5.128-7.939,42.712,42.712,0,0,1,3.525-2.777,19.518,19.518,0,0,1,8.194-3.32,26.914,26.914,0,0,1,9.286-.009,12.163,12.163,0,0,1,2.219.592c.994.395,2,.715,3,1.11a13.5,13.5,0,0,1,1.742.838c1.372.8,2.786,1.537,4.15,2.367a13,13,0,0,1,2.03,1.413,2.423,2.423,0,0,0,1.652.682,12.761,12.761,0,0,1,4.322,1.134c.83.321,1.611.748,2.425,1.11a4.455,4.455,0,0,1,1.537,1.282,13.254,13.254,0,0,1,2.07,3.131A8.644,8.644,0,0,0,152,55.846Z" fill="#fff"/>
    <path d="M144.407,82.341l1.947.214c-.1,1.019-.287,2.03-.46,3.04a3.3,3.3,0,0,1-.756,1.455c-.649.822-1.077,1.775-1.718,2.6a13.373,13.373,0,0,1-5.226,3.739,31.351,31.351,0,0,1-6.92,2.137c-.362.074-.723.131-1.076.23a2.388,2.388,0,0,0-1.759,1.4,11.867,11.867,0,0,1-3.5,4.06,16.526,16.526,0,0,1-3.789,2.383c-2.029.912-4.01,1.956-6.089,2.753A34.087,34.087,0,0,1,109,108.138c-1.224.222-2.432.583-3.665.789-2.416.4-4.816.862-7.232,1.24-1.356.214-2.737.3-4.1.469-1.643.2-3.3.214-4.947.312a.877.877,0,0,0-.444.082,2.059,2.059,0,0,1-1.931.025,3.242,3.242,0,0,0-1.085-.205,8.349,8.349,0,0,1-4.766-1.406,2.356,2.356,0,0,0-2.671-.156,20.608,20.608,0,0,1-3.181,1.175,9.394,9.394,0,0,1-3.451.313c-.888-.05-1.775-.115-2.663-.14-.748-.025-.8.041-.772.855.065,1.619.1,3.246.246,4.856.2,2.1.2,4.225.518,6.312.213,1.4.394,2.794.526,4.191a58.8,58.8,0,0,1,.246,9.541c-.115,1.644-.065,3.3-.09,4.956-.017,1.676-.14,3.353-.279,5.029l-1.932-.131c.156-2,.2-3.994.23-5.991.041-2.235.074-4.471.14-6.706a40.341,40.341,0,0,0-.411-4.109.565.565,0,0,0-.419-.543,1.479,1.479,0,0,1-.994-1.109c-.091-.263-.14-.526-.51-.559-.978-.082-1.356-.707-1.4-1.627-.288.107-.025.764-.608.567-.214-.074-.362.189-.5.345-.263.3-.535.592-.806.88-.435.452-.92.739-1.545.361-.37-.222-.493.041-.6.3-.312.765-.624,1.529-.994,2.268-.411.83-.534.888-1.381.444a3.076,3.076,0,0,0-.353-.156,8.192,8.192,0,0,0-.83,2.038c-.09.263-.148.534-.247.789-.361.9-.394.9-1.4.83-.205.764-.041,1.562-.18,2.342-.379,2.038-.674,4.093-1,6.139-.025.123-.008.288-.082.354-.855.756-.567,1.84-.682,2.753-.107.83-.239,1.684-.329,2.523a19.053,19.053,0,0,1-.625,2.49.729.729,0,0,1-.3.534c-.312.181-.3.5-.37.8a8.9,8.9,0,0,0-.18,1.4l-1.792-.115c.041-.715.074-1.438.091-2.153a33.607,33.607,0,0,1,1.027-7.06,45.533,45.533,0,0,0,1.331-7.585c.074-1.06.337-2.112.452-3.18.2-1.915.386-3.83.51-5.753.057-.805.411-1.52.493-2.326.238-2.555.55-5.1.871-7.651A42.345,42.345,0,0,0,54.271,110c-.033-.55-.107-1.1-.14-1.643-.025-.362-.214-.452-.534-.469-2.022-.1-4.027-.3-6.032-.567a10.191,10.191,0,0,1-2.909-.789c-2.441-1.126-4.923-2.178-7.339-3.369a5.51,5.51,0,0,1-1.742-1.315,6.583,6.583,0,0,0-1.521-1.315,2.352,2.352,0,0,1-.937-1.208c-.106-.28-.189-.575-.32-.855a1.646,1.646,0,0,0-1.611-1.134,25.894,25.894,0,0,1-6.2-1.175c-.789-.238-1.6-.395-2.4-.575a11.276,11.276,0,0,1-4.627-2.3q-2.108-1.7-4.084-3.551A2.775,2.775,0,0,1,13,88.209a4.827,4.827,0,0,0-1.291-2.088,12.474,12.474,0,0,1-2.358-3.673c-.608-1.463-1.512-2.794-2.244-4.2a10.158,10.158,0,0,1-1.356-5.81,18.821,18.821,0,0,1,.132-1.923,4.325,4.325,0,0,1,.509-1.463A6.093,6.093,0,0,0,7.148,67.1a2.911,2.911,0,0,1,.756-1.43,25.115,25.115,0,0,1,4.159-3.707,11.249,11.249,0,0,1,1.643-.813c.313-.14.411-.313.272-.641a7.722,7.722,0,0,1-.378-4.422c.139-.715-.165-1.446,0-2.186.082-.353-.28-.353-.5-.369a18.806,18.806,0,0,1-2.958-.469l.46-2.137a4.612,4.612,0,0,0,1.471.017,4.915,4.915,0,0,1,2.1.049c.3.082.493-.033.641-.345a18.756,18.756,0,0,1,2.432-3.665,11.387,11.387,0,0,1,3.041-2.77,8.734,8.734,0,0,0,1.159-.534,7.771,7.771,0,0,1,2-1.109,12.88,12.88,0,0,0,1.676-.74,9.423,9.423,0,0,1,5.334-1.438,1.365,1.365,0,0,0,1.306-.74,12.29,12.29,0,0,1,3.189-3.509A25.247,25.247,0,0,0,37.7,33.863a7.382,7.382,0,0,1,5.128-1.907,26.615,26.615,0,0,1,4.282.493,8.918,8.918,0,0,1,3.246,1.184c.468.295.928.6,1.413.862a4.744,4.744,0,0,1,1.521,1.554c.205.287.263.559-.05.8a1.046,1.046,0,0,0-.271.353,1.19,1.19,0,0,1-2,0,3.1,3.1,0,0,0-.97-1.085,11.715,11.715,0,0,0-5.235-1.84,4.039,4.039,0,0,0-1.717.189,12,12,0,0,0-4.307,2.358c-.18.156-.386.3-.575.46-1.742,1.521-3.476,3.033-3.575,5.613-.033.715-.238.814-.937.855a3.332,3.332,0,0,1-1.364-.123,7.653,7.653,0,0,0-2.613-.337,11.191,11.191,0,0,0-3.008.427,11.01,11.01,0,0,0-5.572,3.378A21.945,21.945,0,0,0,18.1,51.375a8.186,8.186,0,0,0-.485,7.232,2.955,2.955,0,0,1,.115.534,6.018,6.018,0,0,0,.715,2.071c.559,1,.5,1.11-.584,1.447a11.342,11.342,0,0,0-5.933,3.772,10.051,10.051,0,0,0-1.89,4.413,5.5,5.5,0,0,0,.205,3c.526,1.372,1.11,2.72,1.677,4.076.074.189.115.419.353.509.329.124.411.428.51.715.115.321.222.641.337.954a19.709,19.709,0,0,0,3.04,4.9,9.627,9.627,0,0,0,2.121,1.873c.468.337.928.682,1.372,1.06a20.842,20.842,0,0,0,4.5,3.288A17.265,17.265,0,0,0,29.452,92.9c1.373.165,2.7.559,4.068.691a.806.806,0,0,1,.781.772,5.357,5.357,0,0,0,.172.707,6.993,6.993,0,0,0,1.784,3.254,38.928,38.928,0,0,0,3.271,2.794,7.186,7.186,0,0,0,2.259,1.208c.551.189,1.085.4,1.636.6a38.419,38.419,0,0,0,5.021,1.734c1.438.313,2.918.354,4.364.609a.7.7,0,0,0,.452-.025,1.675,1.675,0,0,1,1.652.148c.476.2.961.4,1.446.567a34.5,34.5,0,0,0,5.375,1.159c.378.065.78.213,1.117-.165.107-.115.288-.082.436-.041,1.175.37,2.441.2,3.6.641a.572.572,0,0,0,.452.008.739.739,0,0,1,.987.181.478.478,0,0,0,.419.148c.887-.049,1.767.049,2.662-.016a25.463,25.463,0,0,0,6.838-1.652,2.018,2.018,0,0,1,1.422-.017c2.112.7,4.24,1.373,6.352,2.063a2.156,2.156,0,0,0,1.085.115,13.044,13.044,0,0,1,2.1-.14c1.364-.082,2.712-.369,4.092-.4,1.34-.033,2.679-.189,4.019-.321,1.183-.123,2.375-.23,3.55-.444,1.414-.254,2.819-.558,4.2-.928,1.421-.378,2.81-.863,4.248-1.142,1.233-.247,2.482-.42,3.682-.765.937-.271,1.849-.633,2.794-.879a10.56,10.56,0,0,0,2.762-1.233c.525-.32,1.051-.624,1.577-.945a10.559,10.559,0,0,0,4.816-5.218c.214-.576.477-1.126.707-1.693.271-.649.362-.715,1.019-.4a1.634,1.634,0,0,0,1.06.1c1.981-.419,3.953-.814,5.934-1.241a9.337,9.337,0,0,0,1.857-.46,24.546,24.546,0,0,0,4.832-2.622,7.657,7.657,0,0,0,2.811-3.189c.3-.706.583-1.413.821-2.136A8.83,8.83,0,0,0,144.407,82.341Z"/>
    <path d="M132.351,26.869a5.7,5.7,0,0,1,1.167,4.421,15.906,15.906,0,0,1-2.178,6.649c-.4.657-1.027,1.126-1.5,1.8a4.152,4.152,0,0,0,1.356.558c.23.066.46.14.682.214l-.616,1.94c-1-.4-2.006-.715-3-1.11a12.163,12.163,0,0,0-2.219-.592,26.914,26.914,0,0,0-9.286.009,19.518,19.518,0,0,0-8.194,3.32,42.712,42.712,0,0,0-3.525,2.777,14.378,14.378,0,0,0-5.128,7.939c-.1.452-.329.608-.814.51a2.246,2.246,0,0,1-1.274-.83q-1.183-1.467-2.375-2.926A4.975,4.975,0,0,0,94.2,50.332a13.712,13.712,0,0,1-2.317-1.8,3.464,3.464,0,0,0-2.326-.871l.058-2.318a1.12,1.12,0,0,0,.608-.246,19.031,19.031,0,0,0,2.482-2.03A12.765,12.765,0,0,0,95.443,39.3a3.274,3.274,0,0,0,.2-2.071,5.214,5.214,0,0,0-1.858-3.09,13.657,13.657,0,0,0-5.761-2.7c-.484-.1-.961-.214-1.43-.337-.328-.083-.69-.157-.723-.592-.033-.452.345-.51.658-.625.575-.213,1.15-.427,1.717-.649a17.254,17.254,0,0,0,8.144-6.3,4.7,4.7,0,0,0,.929-2.556,4.178,4.178,0,0,1,.115-.912,3.732,3.732,0,0,0-.164-2.26c-.165-.485-.329-.986-.51-1.471a8.974,8.974,0,0,0-2.4-3.641c-.757-.682-1.513-1.348-2.228-2.063a13.175,13.175,0,0,0-6.245-3.106,4.273,4.273,0,0,0-.436-.1l.271-1.66a18.716,18.716,0,0,1,6.608,2.31,15.316,15.316,0,0,1,5.818,5.835,10.879,10.879,0,0,1,1.109,6.944c-.041.3-.1.6-.147.871.18.189.312.049.435,0a34.544,34.544,0,0,1,9.9-2.638,18.012,18.012,0,0,1,8.563,1.052,5.387,5.387,0,0,1,2.523,1.915,1.251,1.251,0,0,0,1.142.567,16.605,16.605,0,0,1,5.219.928A12.508,12.508,0,0,1,132.351,26.869Zm-2.08,3.756a7.7,7.7,0,0,0,.05-.978c-.091-.929-.255-1.825-1.274-2.252a1.251,1.251,0,0,1-.723-.789,2.451,2.451,0,0,0-2.005-1.635,17.736,17.736,0,0,0-2.877-.419,11.88,11.88,0,0,1-3.534-.921,2.226,2.226,0,0,1-.8-.444,6.838,6.838,0,0,0-3.9-2.046c-1.011-.2-2.055-.255-3.09-.353a13.685,13.685,0,0,0-4.832.246c-1.472.387-2.9.937-4.405,1.233a2.735,2.735,0,0,0-2.458,1.857,1.271,1.271,0,0,1-.2.3,12.664,12.664,0,0,1-4.093,3.748c-.254.156-.583.255-.641.608-.057.394-.369.534-.665.69-.271.14-.534.3-.8.46-.255.148-.239.354-.025.5a3.982,3.982,0,0,0,1.134.6,1.178,1.178,0,0,1,.953.879.862.862,0,0,0,.3.452A8.892,8.892,0,0,1,98.6,36.92c.148.608-.016,1.274.255,1.791a1.822,1.822,0,0,1-.082,1.734,6.492,6.492,0,0,0-.387,1.307,10.62,10.62,0,0,1-.879,3.254.487.487,0,0,0-.058.436c.173.46.313.929.526,1.372.214.461.526.518.822.14a8.251,8.251,0,0,1,2.474-1.841,51.87,51.87,0,0,0,4.791-2.835,6.964,6.964,0,0,1,.8-.46,11.9,11.9,0,0,1,2.416-.748c1.159-.345,2.334-.707,3.477-1.134a39.542,39.542,0,0,1,3.944-1.208,2.763,2.763,0,0,1,1.545-.074,5.622,5.622,0,0,0,2.088.14c.55-.033,1.1-.033,1.651-.058a35.266,35.266,0,0,1,4.841.4c.83.074.937.016,1.282-.7.485-.994.945-1.989,1.512-2.942a4.524,4.524,0,0,0,.5-1.463A10.72,10.72,0,0,0,130.271,30.625Z"/>
    <path d="M130.321,29.647a7.7,7.7,0,0,1-.05.978,10.72,10.72,0,0,1-.156,3.41,4.524,4.524,0,0,1-.5,1.463c-.567.953-1.027,1.948-1.512,2.942-.345.715-.452.773-1.282.7a35.266,35.266,0,0,0-4.841-.4c-.55.025-1.1.025-1.651.058a5.622,5.622,0,0,1-2.088-.14,2.763,2.763,0,0,0-1.545.074,39.542,39.542,0,0,0-3.944,1.208c-1.143.427-2.318.789-3.477,1.134a11.9,11.9,0,0,0-2.416.748,6.964,6.964,0,0,0-.8.46,51.87,51.87,0,0,1-4.791,2.835A8.251,8.251,0,0,0,98.8,46.954c-.3.378-.608.321-.822-.14-.213-.443-.353-.912-.526-1.372a.487.487,0,0,1,.058-.436,10.62,10.62,0,0,0,.879-3.254,6.492,6.492,0,0,1,.387-1.307,1.822,1.822,0,0,0,.082-1.734c-.271-.517-.107-1.183-.255-1.791a8.892,8.892,0,0,0-2.219-4.553.862.862,0,0,1-.3-.452,1.178,1.178,0,0,0-.953-.879,3.982,3.982,0,0,1-1.134-.6c-.214-.148-.23-.354.025-.5.263-.164.526-.32.8-.46.3-.156.608-.3.665-.69.058-.353.387-.452.641-.608a12.664,12.664,0,0,0,4.093-3.748,1.271,1.271,0,0,0,.2-.3,2.735,2.735,0,0,1,2.458-1.857c1.5-.3,2.933-.846,4.405-1.233a13.685,13.685,0,0,1,4.832-.246c1.035.1,2.079.156,3.09.353a6.838,6.838,0,0,1,3.9,2.046,2.226,2.226,0,0,0,.8.444,11.88,11.88,0,0,0,3.534.921,17.736,17.736,0,0,1,2.877.419,2.451,2.451,0,0,1,2.005,1.635,1.251,1.251,0,0,0,.723.789C130.066,27.822,130.23,28.718,130.321,29.647Z" fill="#fff"/>
    <path d="M97.555,262.555l-1.528,2.909a83.1,83.1,0,0,0-10.791-4.733q-3.142-1.122-6.385-1.981l.181-.657a.755.755,0,0,0,.649-.23,1.456,1.456,0,0,0,.477-1.94c-.033-.082-.074-.172-.115-.255,2.128.576,4.224,1.225,6.295,1.965A87.019,87.019,0,0,1,97.555,262.555Z"/>
    <path d="M89.617,45.343l-.058,2.318a9.783,9.783,0,0,0-1.389.074c-.526.057-1.068.271-1.61.32a5.859,5.859,0,0,0-1.751.485,54.261,54.261,0,0,0-11.448,6.92A44.991,44.991,0,0,0,67.14,61.3a12.039,12.039,0,0,0-1.569,2.137,1.074,1.074,0,0,1-1.849.328,1.543,1.543,0,0,0-.888-.394c-1.1-.123-1.241-.428-.534-1.323.822-1.06,1.7-2.079,2.572-3.107a31.776,31.776,0,0,1,3.567-3.566c1.463-1.274,3.164-2.2,4.709-3.362A52.89,52.89,0,0,1,81,47.283c.222-.107.551-.206.608-.378.2-.6.691-.625,1.159-.732.625-.148,1.241-.337,1.874-.435,1.594-.239,3.172-.764,4.816-.411A1.019,1.019,0,0,0,89.617,45.343Z"/>
    <path d="M85.721,5.173l-.271,1.66c-1.027-.18-2.087-.065-3.131-.156a13.448,13.448,0,0,0-3.936.156,3.324,3.324,0,0,1-2.819-.715A12.726,12.726,0,0,0,69.877,3.5c-1.66-.263-3.3-.584-4.989-.682-1.282-.082-2.572-.107-3.837-.3a9.278,9.278,0,0,0-4.528-.033,1.431,1.431,0,0,1-.461.041A14.8,14.8,0,0,0,51.1,3.25c-.65.247-1.4.214-2.055.444a33.815,33.815,0,0,0-6.665,3.065,3.964,3.964,0,0,1-.8.444,8.385,8.385,0,0,0-2.03,1.233c-1.405.978-2.671,2.128-4.01,3.189a7.789,7.789,0,0,0-1.874,1.882,5.379,5.379,0,0,1-1.15,1.282,4.267,4.267,0,0,0-.888.78,1.762,1.762,0,0,1-2.013.674,7.812,7.812,0,0,0-3.271.091l-.436-2.022A14.131,14.131,0,0,1,29.5,13.9c.354.008.666.008.814-.411a11.856,11.856,0,0,1,3.526-4.512,32.962,32.962,0,0,1,6.525-4.437A37.358,37.358,0,0,1,53.63.473,34.744,34.744,0,0,1,62.144.144a75.877,75.877,0,0,1,8.144,1.372,23.88,23.88,0,0,1,4.561,1.4A9.3,9.3,0,0,1,77.717,4.7a1.133,1.133,0,0,0,1.019.238,23.13,23.13,0,0,1,5.227-.016C84.554,4.984,85.138,5.067,85.721,5.173Z"/>
    <path d="M80.158,255.923a1.456,1.456,0,0,1-.477,1.94.755.755,0,0,1-.649.23,1.011,1.011,0,0,1-.4-.239,3.535,3.535,0,0,1-.55-.616c-.584-.822-1.167-1.644-1.735-2.482q1.862.406,3.7.912C80.084,255.751,80.125,255.841,80.158,255.923Z"/>
    <path d="M79.032,258.093l-.181.657c-16.576-4.413-34.984-3.788-53.672,1.9l-.14-.469a6.929,6.929,0,0,0,.263-1.241,4.314,4.314,0,0,1,.649-1.947c17.439-5.03,34.639-5.778,50.393-2.236.568.838,1.151,1.66,1.735,2.482a3.535,3.535,0,0,0,.55.616A1.011,1.011,0,0,0,79.032,258.093Z"/>
    <path d="M77.528,249.784c.707,2.014,1.66,3.929,2.515,5.884q-1.838-.5-3.7-.912c-.575-.83-1.117-1.676-1.618-2.556a5.625,5.625,0,0,1-.551-1.635c-.46-2-.962-3.978-1.529-5.95-.328-1.159-.953-2.186-1.315-3.32a22.245,22.245,0,0,0-1.454-3.854.907.907,0,0,1-.123-.345c-.157-1.94-1.176-3.592-1.743-5.391a9.787,9.787,0,0,1-.526-2.228,10.051,10.051,0,0,0-.517-2.6,13.033,13.033,0,0,1-.493-2.514,26.432,26.432,0,0,1-.148-5.038,26.491,26.491,0,0,0-.189-6.394,21.977,21.977,0,0,1-.247-3.755,9.639,9.639,0,0,0-.2-2.006,15.085,15.085,0,0,1-.2-3.657,10.969,10.969,0,0,0-.058-1.561c-.23-1.89-.049-3.789-.115-5.687-.107-3.189.337-6.353.345-9.541.008-3.057-.041-6.123-.016-9.188.033-4.709-.222-9.434.033-14.143a120.883,120.883,0,0,1,1.2-13.346c.214-1.266.354-2.532.444-3.8l1.932.131c-.181,2.252-.3,4.512-.436,6.764-.247,3.731-.419,7.462-.452,11.193-.058,5.21-.1,10.42.016,15.622.074,3.559.091,7.109.148,10.659.107,6.345.173,12.681.526,19.017.263,4.8.732,9.582,1.471,14.332a113.5,113.5,0,0,0,3.419,14.653c.37,1.257.707,2.531.994,3.8a39.273,39.273,0,0,0,1.233,3.747C76.6,247.385,77.1,248.568,77.528,249.784Z"/>
    <path d="M74.726,252.2c.5.88,1.043,1.726,1.618,2.556-15.754-3.542-32.954-2.794-50.393,2.236a3.156,3.156,0,0,1,.51-.592,2.83,2.83,0,0,0,.616-1.011c.526-1.167.986-2.375,1.6-3.5,1.052-1.9,1.808-3.953,3.016-5.761.517-.772.6-1.75,1.158-2.49a13.327,13.327,0,0,0,2.1-5.333c.345-1.554.526-3.131.97-4.66a7.832,7.832,0,0,0,.255-1.068,45.023,45.023,0,0,1,1.438-5.671c.509-1.734.9-3.484,1.249-5.251a19.711,19.711,0,0,1,.9-4.471,1.394,1.394,0,0,0,.041-.271c.386-1.446.444-2.967.929-4.388.32-.954.624-1.907.9-2.877a7.047,7.047,0,0,1,.436-1.586,10.575,10.575,0,0,0,1.044-3.682,25.829,25.829,0,0,1,1.462-5.851,15.744,15.744,0,0,0,1.077-3.977,5.7,5.7,0,0,1,.411-1.775,33.224,33.224,0,0,0,1.29-3.625c.386-1.158.5-2.4.871-3.558a23.941,23.941,0,0,0,.732-5.432,22.225,22.225,0,0,1,.361-3.46,1.057,1.057,0,0,0,.041-.452c-.411-1.553-.016-3.106.107-4.635.288-3.583,1-7.133,1.29-10.725a38.177,38.177,0,0,0,.231-5.218,17.247,17.247,0,0,1-.033-2.071,8.9,8.9,0,0,1,.18-1.4c.066-.3.058-.616.37-.8a.729.729,0,0,0,.3-.534,19.053,19.053,0,0,0,.625-2.49c.09-.839.222-1.693.329-2.523.115-.913-.173-2,.682-2.753.074-.066.057-.231.082-.354.329-2.046.624-4.1,1-6.139.139-.78-.025-1.578.18-2.342,1,.074,1.036.066,1.4-.83.1-.255.157-.526.247-.789a8.192,8.192,0,0,1,.83-2.038,3.076,3.076,0,0,1,.353.156c.847.444.97.386,1.381-.444.37-.739.682-1.5.994-2.268.107-.263.23-.526.6-.3.625.378,1.11.091,1.545-.361.271-.288.543-.576.806-.88.139-.156.287-.419.5-.345.583.2.32-.46.608-.567.041.92.419,1.545,1.4,1.627.37.033.419.3.51.559a1.479,1.479,0,0,0,.994,1.109.565.565,0,0,1,.419.543,40.341,40.341,0,0,1,.411,4.109c-.066,2.235-.1,4.471-.14,6.706-.033,2-.074,3.994-.23,5.991-.09,1.265-.23,2.531-.444,3.8a120.883,120.883,0,0,0-1.2,13.346c-.255,4.709,0,9.434-.033,14.143-.025,3.065.024,6.131.016,9.188-.008,3.188-.452,6.352-.345,9.541.066,1.9-.115,3.8.115,5.687a10.969,10.969,0,0,1,.058,1.561,15.085,15.085,0,0,0,.2,3.657,9.639,9.639,0,0,1,.2,2.006,21.977,21.977,0,0,0,.247,3.755,26.491,26.491,0,0,1,.189,6.394,26.432,26.432,0,0,0,.148,5.038,13.033,13.033,0,0,0,.493,2.514,10.051,10.051,0,0,1,.517,2.6,9.787,9.787,0,0,0,.526,2.228c.567,1.8,1.586,3.451,1.743,5.391a.907.907,0,0,0,.123.345,22.245,22.245,0,0,1,1.454,3.854c.362,1.134.987,2.161,1.315,3.32.567,1.972,1.069,3.953,1.529,5.95A5.625,5.625,0,0,0,74.726,252.2Z" fill="#fff"/>
    <path d="M50.984,155.671a38.177,38.177,0,0,1-.231,5.218c-.287,3.592-1,7.142-1.29,10.725-.123,1.529-.518,3.082-.107,4.635a1.057,1.057,0,0,1-.041.452,22.225,22.225,0,0,0-.361,3.46,23.941,23.941,0,0,1-.732,5.432c-.37,1.159-.485,2.4-.871,3.558a33.224,33.224,0,0,1-1.29,3.625,5.7,5.7,0,0,0-.411,1.775,15.744,15.744,0,0,1-1.077,3.977,25.829,25.829,0,0,0-1.462,5.851,10.575,10.575,0,0,1-1.044,3.682,7.047,7.047,0,0,0-.436,1.586c-.271.97-.575,1.923-.9,2.877-.485,1.421-.543,2.942-.929,4.388a1.394,1.394,0,0,1-.041.271,19.711,19.711,0,0,0-.9,4.471c-.345,1.767-.74,3.517-1.249,5.251a45.023,45.023,0,0,0-1.438,5.671,7.832,7.832,0,0,1-.255,1.068c-.444,1.529-.625,3.106-.97,4.66a13.327,13.327,0,0,1-2.1,5.333c-.558.74-.641,1.718-1.158,2.49-1.208,1.808-1.964,3.863-3.016,5.761-.617,1.126-1.077,2.334-1.6,3.5a2.83,2.83,0,0,1-.616,1.011,3.156,3.156,0,0,0-.51.592c-.575.164-1.158.337-1.734.509l.822,2.679a13.911,13.911,0,0,1-.526,1.373H22.3a9.788,9.788,0,0,0,.814-2.8,14.4,14.4,0,0,1,1.183-3.46q2.787-6.594,5.843-13.066a61.346,61.346,0,0,0,3.625-9.517c.534-1.882.789-3.829,1.134-5.752.337-1.874.822-3.707,1.224-5.556.51-2.334.962-4.676,1.447-7.01.747-3.591,1.257-7.232,2.095-10.807.608-2.588,1.167-5.194,1.792-7.782.435-1.816.97-3.608,1.4-5.424.518-2.17.978-4.356,1.446-6.533.534-2.482,1.175-4.948,1.562-7.454.353-2.285.764-4.57,1.06-6.879q.591-4.585,1.372-9.163a46.078,46.078,0,0,0,.723-4.709c.041-.715.091-1.43.14-2.153l1.792.115A17.247,17.247,0,0,0,50.984,155.671Z"/>
    <path d="M25.91,14.312l.436,2.022a6.36,6.36,0,0,0-1.052.369c-.107.041-.23.066-.345.107a19.7,19.7,0,0,0-6.739,3.83,24.175,24.175,0,0,0-4.528,5.284,13.771,13.771,0,0,0-2.121,4.15,7.169,7.169,0,0,1-.846,2.12,14.2,14.2,0,0,0-1.726,4.233,32.746,32.746,0,0,0-.928,3.912,3.567,3.567,0,0,1-1.644,2.794,6.981,6.981,0,0,0-2.161,2.81,2.988,2.988,0,0,0-.28,1.34,1.119,1.119,0,0,0,.748,1.142c1.257.5,2.424,1.167,3.649,1.742a8.47,8.47,0,0,0,2.227.756l-.46,2.137c-.337-.074-.682-.156-1.019-.23a21.728,21.728,0,0,1-7.61-3.09A2.979,2.979,0,0,1,.327,45.73a7.711,7.711,0,0,1,2.449-3.156,10.941,10.941,0,0,1,2.531-1.652.86.86,0,0,0,.568-.929,14.6,14.6,0,0,1,.641-4.339A32.828,32.828,0,0,1,8.907,29.3a28.76,28.76,0,0,1,7.84-10.043,31.077,31.077,0,0,1,5.588-3.665A18.07,18.07,0,0,1,25.91,14.312Z"/>
    <path d="M24.217,257.5c.576-.172,1.159-.345,1.734-.509a4.314,4.314,0,0,0-.649,1.947,6.929,6.929,0,0,1-.263,1.241Z"/>
  </g>
</svg>
