<svg xmlns="http://www.w3.org/2000/svg" width="152.048" height="193.367" viewBox="0 0 152.048 193.367">
  <g>
    <path d="M117.258,81.778c-.49.18-.57.29-.51.78a3.374,3.374,0,0,0,.17.85,1.277,1.277,0,0,1-.38,1.51,8.688,8.688,0,0,1-3.57,2.23,17.738,17.738,0,0,1-5.11.78,5.111,5.111,0,0,1-1.74-.26c.24-.34.44-.66.68-.95a3.253,3.253,0,0,0,.76-2.01,12.484,12.484,0,0,1,.67-3.31,1.39,1.39,0,0,0,.12-.84c-.14-.42.07-.52.39-.67a11.793,11.793,0,0,1,2.08-.85,7.752,7.752,0,0,0,2.8-1.63,20.055,20.055,0,0,0,2.23-2.09c1.01-1.07,2.14-2.01,3.06-3.16a.8.8,0,0,1,.19-.18,5.623,5.623,0,0,0,1.48-1.67c.28-.34.32-.81.58-1.18.2-.29.31-.64.52-.92a4.957,4.957,0,0,0,.72-1.63,5.054,5.054,0,0,1,.32-.95c.08-.16.12-.32.34-.37.29-.06.36-.29.37-.55a8.6,8.6,0,0,0,.04-1.13,6.225,6.225,0,0,1,.39-2.34,6.434,6.434,0,0,0,.23-1.37,15.306,15.306,0,0,0,.16-2.04,10.721,10.721,0,0,0-.7-2.49,3.711,3.711,0,0,1-.22-.55,6.261,6.261,0,0,0-1.75-3c-.11-.12-.15-.19-.05-.33.19-.28.03-.47-.2-.59a3.14,3.14,0,0,1-.83-.66.737.737,0,0,0-.33-.23,20.567,20.567,0,0,1-4.31-2.19,26.409,26.409,0,0,0-4.5-1.8c-.43-.13-.85-.25-1.28-.38-.5-.15-.5-.16-.45-.71a4.633,4.633,0,0,1,.07-.52,6.747,6.747,0,0,0-.15-3.62,6.428,6.428,0,0,1-.28-1.9,2.831,2.831,0,0,0-.14-.76,6.805,6.805,0,0,0-2.47-3.55c-.38-.3-.67-.71-1.18-.83-.18-.04-.23-.17-.16-.36a2.305,2.305,0,0,1,.41-.83c.97-.99.8-2.14.46-3.3-.16-.56-.41-1.08-.6-1.63-.29-.83-.59-1.67-.92-2.5a5.491,5.491,0,0,0-1.98-2.54,13.179,13.179,0,0,1-1.22-1.02,2.788,2.788,0,0,0-1.88-.89,2.387,2.387,0,0,1-.52-.1c-.88-.22-.88-.22-.91-1.11a1.774,1.774,0,0,0-.02-.33,1.644,1.644,0,0,1,.95-1.93,15.381,15.381,0,0,1,2.42-1.25,6.176,6.176,0,0,1,2.37-.31,14.452,14.452,0,0,0,2.46-.07c.71-.1,1.42.12,2.13.09.19-.01.32.14.45.26a6.274,6.274,0,0,0,1.49,1,1.9,1.9,0,0,1,.71.58,1.7,1.7,0,0,0,1.27.61,5.149,5.149,0,0,0,2.6-.37,5.8,5.8,0,0,1,1.61-.36,9.459,9.459,0,0,0,1.49-.34,9.851,9.851,0,0,1,2.7-.34c1.78.02,3.56.02,5.33-.02a26.207,26.207,0,0,1,4.85.25c.46.07.93.08,1.39.15a4.015,4.015,0,0,1,2.48,1.57,1.11,1.11,0,0,1,.17.95,6.351,6.351,0,0,1-.26,1.24,8.235,8.235,0,0,0-.35,2.08.625.625,0,0,0,.22.6,2.656,2.656,0,0,1,.4.34.925.925,0,0,0,1.15.23,5.981,5.981,0,0,1,2.1-.31c1.33-.01,2.65.24,3.97.34a8.036,8.036,0,0,1,4.23,1.81,19.908,19.908,0,0,1,1.62,1.29,8.087,8.087,0,0,1,2.19,3.14,3.871,3.871,0,0,1-.16,3.35c-.34.62-.59,1.29-.94,1.91a10.414,10.414,0,0,1-5.19,4.78,20.992,20.992,0,0,0-1.91.92,17.779,17.779,0,0,1-1.86.91,3.509,3.509,0,0,0-1.57,1.48.635.635,0,0,0,.07.85,2.165,2.165,0,0,0,1.14.75,10.139,10.139,0,0,1,2.85,1.42,1.676,1.676,0,0,1,.42.42,3.816,3.816,0,0,0,.72.78,3.741,3.741,0,0,1,1.33,3.2,8.525,8.525,0,0,1-2.39,5.77,26.78,26.78,0,0,1-3.12,3.09,11.685,11.685,0,0,1-3.82,2.25,13.733,13.733,0,0,1-2.9.97,5.11,5.11,0,0,0-3,1.8c-.05.04-.07.14-.12.15-.63.23-.41.67-.28,1.08a3.372,3.372,0,0,0,.48.87,7.368,7.368,0,0,1,1.42,2.46,2.36,2.36,0,0,1-.01,1.44,10.818,10.818,0,0,0-.43,1.4,5.446,5.446,0,0,1-.92,1.75,7.634,7.634,0,0,1-1.77,1.68.3.3,0,0,0-.11.07c-.69,1.03-1.92,1.32-2.84,2.04-.57.45-1.18.86-1.78,1.27a8.278,8.278,0,0,1-2.03.98c-1.06.34-2.07.79-3.1,1.22C118.068,81.568,117.648,81.628,117.258,81.778Z" fill="#fff"/>
    <path d="M84.708,30.978c.03-.02.06-.07.09-.06s.06.04.09.07c-.03.02-.06.07-.09.07S84.738,31.008,84.708,30.978Z"/>
    <path d="M83.288,31.708c-.21.22-.47.23-.66.35a.174.174,0,0,1-.16-.06.185.185,0,0,1,.05-.17A.852.852,0,0,1,83.288,31.708Z"/>
    <path d="M19.928,48.148a.49.49,0,0,0,.52-.43,10.988,10.988,0,0,1,1.64-3.03,25.192,25.192,0,0,1,4.37-4.74,30.981,30.981,0,0,1,3.12-2.7,45.116,45.116,0,0,1,7.72-4.58,39.362,39.362,0,0,1,4.32-1.74,18.154,18.154,0,0,1,5.37-.9,3.8,3.8,0,0,1,2.08.61,14.073,14.073,0,0,1,3.78,3.13,3.4,3.4,0,0,0,.32.34.832.832,0,0,0,1.09.17c.19-.11.39-.2.59-.31a10.89,10.89,0,0,1,6.29-1.38,7.6,7.6,0,0,1,4.71,1.95,34.445,34.445,0,0,1,3.54,3.71c.35.46.68.93,1.02,1.39a2.153,2.153,0,0,0,1.13.79c.29.08.51.12.71-.26a1.7,1.7,0,0,1,.8-.72,4.421,4.421,0,0,0,1.22-.91,11.839,11.839,0,0,1,2.8-1.75c.44-.22.89-.41,1.32-.62.93-.44,1.93-.68,2.88-1.04.23-.09.47-.2.64.1a.257.257,0,0,0,.3.11c.27-.11.41.03.51.25a.515.515,0,0,0,.73.26c.08-.03.16-.06.25-.09.12-.05.25-.09.37-.15.79-.38,1.8-.36,2.27-1.3a16.959,16.959,0,0,1,2.73-1.52,15.52,15.52,0,0,1,4.09-.85.823.823,0,0,1,.81.34,1.181,1.181,0,0,1,.16.29,1,1,0,0,0,1.37.74,18.709,18.709,0,0,1,2.24-.14,5.584,5.584,0,0,1,3.41.9c.18.1.2.2.08.37a.237.237,0,0,0,.03.36c.32.18.47.65.95.59.16-.02.23.11.3.22a1.58,1.58,0,0,0,.59.43c.26.15.48.13.58-.18.08-.23.23-.25.42-.19a2.191,2.191,0,0,1,.91.4,8.947,8.947,0,0,1,2.22,2.78,3.886,3.886,0,0,1,.45,1.93,27.172,27.172,0,0,1-.23,2.98c-.16.97-.49,1.17-1.43.86a4.618,4.618,0,0,1-.62-.23,1.1,1.1,0,0,0-1.31-.01.539.539,0,0,1-.45.03,21.538,21.538,0,0,0-6.56-.21c-1.06.1-2.14.1-3.19.24-1.78.25-3.57.46-5.33.84a21.8,21.8,0,0,0-4.05,1.08.6.6,0,0,1-.26.05,2.922,2.922,0,0,0-1.58.44c-.23.13-.41.16-.54-.11-.47-.93-1.44-1.21-2.24-1.71a.27.27,0,0,0-.19-.06,12.934,12.934,0,0,1-3.38-.57c-.26-.05-.56-.24-.74.01-.15.2.06.46.13.69a1,1,0,0,0,.65.62,8.655,8.655,0,0,1,1.27.6,4.315,4.315,0,0,1,2.24,3.2c.08.5.23.99.3,1.5a1.248,1.248,0,0,0,.39.75c.42.4.73.42,1.14-.01a10.438,10.438,0,0,1,4-2.44,35.64,35.64,0,0,1,5.65-1.5,57.481,57.481,0,0,1,7.38-1.04c1.75-.11,3.51-.07,5.26-.01.49.02.98.03,1.47.04a1.413,1.413,0,0,1,.64.13c.34.17.68.36,1.04.02.12-.11.3-.02.45.01,1.28.28,2.56.53,3.83.84a10.582,10.582,0,0,1,1.61.64,34.838,34.838,0,0,1,5.2,2.65,6.636,6.636,0,0,1,2.11,2.17,6.932,6.932,0,0,1,.84,2.89,6.788,6.788,0,0,1,.04,2.58,5.633,5.633,0,0,1-.42,3.06.92.92,0,0,1-.14.37,6.288,6.288,0,0,0-.92,2.61,3.13,3.13,0,0,1-.38.99,13.661,13.661,0,0,1-1.64,2.27.517.517,0,0,0-.19.26,3.415,3.415,0,0,1-1.09,1.78c-.27.32-.55.64-.82.96a22.262,22.262,0,0,1-3.98,3.33,53.694,53.694,0,0,1-7.75,4.79c-.37.19-.42.33-.26.74a1.2,1.2,0,0,1,.02,1.09c-.06.1-.11.22-.03.31.3.34.13.72.09,1.08a6.412,6.412,0,0,0,0,.98,3.081,3.081,0,0,1-1.32,2.95,38.4,38.4,0,0,0-3.3,2.48c-.6.46-1.18.95-1.78,1.41a3.446,3.446,0,0,1-1.17.61,9.963,9.963,0,0,1-3.2.55c-1.02-.04-2.04.03-3.06.01a10.3,10.3,0,0,1-2.86-.57c-.32-.1-.64-.21-.95-.32s-.66-.11-.62-.61c.02-.23-.32-.31-.45-.52a.428.428,0,0,0-.6-.11.594.594,0,0,1-.45-.03,16.567,16.567,0,0,1-3.74-1.57c-.9-.52-1.8-1.04-2.71-1.54a7.011,7.011,0,0,1-1.29-1.01c-.61-.55-1.04-1.26-1.68-1.77a8.466,8.466,0,0,1-1.37-1.62c-.36-.5-.71-1.01-1.12-1.48a1.429,1.429,0,0,0-.35-.3c-.33-.17-.52-.11-.72.21a13.883,13.883,0,0,1-1.93,2.53,3.505,3.505,0,0,0-.4.53.554.554,0,0,1-.54.31c-.28-.04-.4.13-.47.36a5.033,5.033,0,0,1-1.87,2.3c-1.58,1.25-3.16,2.5-4.83,3.62-.67.45-1.13,1.06-1.78,1.5a26.527,26.527,0,0,1-6.56,3.34c-1.3.43-2.55,1.02-3.84,1.5a41.287,41.287,0,0,1-6.33,2.03c-.91.18-1.79.54-2.72.63a27.179,27.179,0,0,1-3.91.35,13.727,13.727,0,0,0-2.39-.12,34.362,34.362,0,0,1-6.57-.37c-.66-.05-1.33-.03-1.99-.14a8.815,8.815,0,0,1-2.24-.6,11.339,11.339,0,0,0-1.67-.49,11.878,11.878,0,0,1-2.61-1.14A23.807,23.807,0,0,0,16.1,95.2c-1.29-.56-2.47-1.32-3.7-1.98a7.2,7.2,0,0,1-.94-.74c.4-.45.42-.57-.02-.77a2.2,2.2,0,0,1-.94-.97A20.5,20.5,0,0,0,9.168,89a5.747,5.747,0,0,1-.91-1.39,27.649,27.649,0,0,0-1.33-2.6,7.144,7.144,0,0,1-.7-2.81,7.744,7.744,0,0,1,.03-1.8,4.164,4.164,0,0,1,1.05-2.25c.54-.65.48-.99-.3-1.36-1.11-.52-2.18-1.1-3.26-1.67a3.51,3.51,0,0,1-1.57-1.83,5.929,5.929,0,0,1-.31-3.01,23.245,23.245,0,0,1,.81-3.7q.765-2.76,1.67-5.47a27.25,27.25,0,0,1,1.21-3.31,9.066,9.066,0,0,1,2.03-3.1,30,30,0,0,1,2.74-2.42,7.866,7.866,0,0,0,.75-.66,11.528,11.528,0,0,1,2.54-1.59,20.371,20.371,0,0,1,4.31-1.74c.15-.04.34-.15.45-.09C18.908,48.488,19.408,48.108,19.928,48.148Z" fill="#fff"/>
    <path d="M40.688,187.818a30.751,30.751,0,0,0,2.14-3.28c.68-1.2,1.43-2.36,2.21-3.49a29.587,29.587,0,0,0,2.09-3.93c.18-.38.34-.77.55-1.14a6.876,6.876,0,0,0,.49-1.29,6.673,6.673,0,0,1,.85-1.63c1.43-2.22,2.85-4.45,4.11-6.77a11.978,11.978,0,0,0,1.38-3.67,7.217,7.217,0,0,1,.48-1.3c.36-.94.68-1.88,1-2.83a.742.742,0,0,1,.42-.53,1.172,1.172,0,0,0,.62-.88c.26-1.14.61-2.26.87-3.4a29.6,29.6,0,0,1,1.59-4.01c.33-.87.48-1.8.78-2.68.54-1.6,1.05-3.2,1.51-4.82.25-.86.53-1.7.78-2.55a24.2,24.2,0,0,0,.52-2.8,28.908,28.908,0,0,0,.05-5.58,2.88,2.88,0,0,1,.06-.59,4.067,4.067,0,0,0-.11-1.51,13.512,13.512,0,0,1-.27-1.91,7.942,7.942,0,0,1-.09-2.12,1.85,1.85,0,0,0-.01-.47,14.054,14.054,0,0,1,.22-4.88q.615-3.21,1.13-6.43a19.464,19.464,0,0,0,.33-3.58c-.03-1.11.13-2.21.16-3.32a23.665,23.665,0,0,1,.11-2.66c.02-.17-.02-.41.08-.51.38-.36.28-.81.29-1.25a2.322,2.322,0,0,1,.07-.52,13.645,13.645,0,0,0,.43-2.62c.02-.28.06-.49.43-.39a.649.649,0,0,0,.5-.13.525.525,0,0,1,.51-.08c.63.25,1.02-.1,1.32-.58.26-.41.48-.85.7-1.28.14-.28.26-.51.65-.33.25.11.46-.08.66-.23a4.273,4.273,0,0,0,.9-1.13c.97.64,1.15.62,1.99-.22.13.11.13.31.27.4.4.23.79.45,1.23.13a.768.768,0,0,1,.97-.01.732.732,0,0,0,.7.12c.21-.08.33.01.43.18a.847.847,0,0,0,.49.44,1.457,1.457,0,0,1,.9.8,3.52,3.52,0,0,0,.3.45,1.62,1.62,0,0,0,1.65.76.479.479,0,0,1,.6.26c.63,1.09,1.32,2.14,1.88,3.28a25.2,25.2,0,0,1,1.6,4.01c.27.94.53,1.87.88,2.78a.518.518,0,0,1,.06.26,7.472,7.472,0,0,0,.25,2.16,16.394,16.394,0,0,1,.12,3.05c-.04.5.04,1.02.05,1.53.01,1.04.03,2.09.06,3.13a6.777,6.777,0,0,1-.33,1.82,13.931,13.931,0,0,0-.6,3.06,17.029,17.029,0,0,1-.98,4.74c-.21.63-.38,1.28-.54,1.92a13.421,13.421,0,0,0-.27,1.78c-.18,1.52-.16,3.06-.36,4.57a.89.89,0,0,1-.08.33,5.27,5.27,0,0,0-.71,2.53c-.25,1.62-.45,3.25-.58,4.89a13.052,13.052,0,0,0-.08,3.12,9.365,9.365,0,0,1,.07,2.18,7.347,7.347,0,0,0,.18,1.98,1.1,1.1,0,0,1-.13.9,1.3,1.3,0,0,0-.16.83,14.719,14.719,0,0,0,.47,3.02c.65,2.42,1.3,4.85,1.95,7.27a6,6,0,0,1,.21,1.64,9.1,9.1,0,0,0,.64,2.99c.64,1.84,1.18,3.73,1.93,5.53a1.475,1.475,0,0,0,.51.76.928.928,0,0,1,.29.45,20.156,20.156,0,0,0,2.4,3.98,28.638,28.638,0,0,1,2.9,4.77,16.963,16.963,0,0,0,1.35,2.23c.3.49.63.96.91,1.47a6.628,6.628,0,0,0,1.31,1.67c.13.11.29.21.31.41-.03.14-.15.14-.26.15-1.82.08-3.64.12-5.46.25a58.627,58.627,0,0,1-7.84-.22c-1.47-.09-2.93-.16-4.4-.19-1.04-.03-2.08-.16-3.13-.11-1.41.06-2.84.06-4.25.14-.98.05-1.95.19-2.91.32a8.032,8.032,0,0,1-1.2.05c-3.26-.13-6.53.01-9.79.1-1.67.05-3.33.06-5,.06-.95.01-1.9.18-2.85.18-1.31,0-2.62-.06-3.93-.09a32.916,32.916,0,0,0-4.33.11,3.894,3.894,0,0,1-1.59-.03C39.778,189.108,40.208,188.448,40.688,187.818Z" fill="#fff"/>
    <path d="M84.8,30.918c-.03-.01-.06.04-.09.06.03.03.06.07.09.08s.06-.05.09-.07C84.858,30.958,84.828,30.918,84.8,30.918Zm-2.17,1.14c.19-.12.45-.13.66-.35a.852.852,0,0,0-.77.12.185.185,0,0,0-.05.17A.174.174,0,0,0,82.628,32.058Zm-68.26,14.62c-.33,0-.73-.01-1.13,0a1.147,1.147,0,0,1-.88-.39.771.771,0,0,1-.23-.7,6.221,6.221,0,0,1,1.17-2.65c.16-.26.33-.46.16-.78a.681.681,0,0,1,0-.4.492.492,0,0,0-.22-.52,3.126,3.126,0,0,1-.75-.83c-.3-.42-.71-.76-.99-1.16a10.889,10.889,0,0,1-1.58-2.61,2.481,2.481,0,0,1,.12-1.89,21.04,21.04,0,0,1,2.06-3.64,3.369,3.369,0,0,1,.7-.71c.76-.51,1.43-1.14,2.23-1.58a1.3,1.3,0,0,0,.61-1.38,7.11,7.11,0,0,1,.24-2.83,2.659,2.659,0,0,1,.26-.68c.86-1.46,1.66-2.95,2.61-4.35a13.376,13.376,0,0,1,2.87-2.85,21.568,21.568,0,0,1,1.95-1.05,15.806,15.806,0,0,0,1.41-.88,1.644,1.644,0,0,1,.74-.29c.26-.04.53-.09.78-.15a.764.764,0,0,0,.6-.56,6.9,6.9,0,0,1,1.44-2.52c.43-.53.72-1.18,1.19-1.68.95-1,1.8-2.09,2.83-3.01a20.2,20.2,0,0,1,6.61-4.04,12.516,12.516,0,0,1,4.57-.81,16.932,16.932,0,0,0,2.26.14,1.336,1.336,0,0,0,.52-.07,9.235,9.235,0,0,1,4.14-.38,7.757,7.757,0,0,1,2.29.7c.09.03.22.12.24.2.13.47.52.66.89.85a6.059,6.059,0,0,1,2.27,2.28,1.659,1.659,0,0,0,2.02.78,1.958,1.958,0,0,0,.49-.21,8.374,8.374,0,0,1,2.66-.99,2.315,2.315,0,0,0,.37-.13,5.121,5.121,0,0,1,1.91-.55c1.33-.11,2.61-.51,3.96-.53.64-.01,1.28.04,1.92.09,1.11.08,2.22.07,3.32.26a1.186,1.186,0,0,1,.83.46,2.191,2.191,0,0,0,.99.76,1.557,1.557,0,0,1,.88,1.03,1.113,1.113,0,0,0,1.12.78.586.586,0,0,1,.47.2.453.453,0,0,0,.71.04,1.223,1.223,0,0,1,.79-.29,26.53,26.53,0,0,1,9.52.61,5.266,5.266,0,0,0,.79.16,3.691,3.691,0,0,1,1.37.49c.55.33,1.11.65,1.65,1.01a6.57,6.57,0,0,1,1.87,2.22,1.246,1.246,0,0,1,.13.45c.24,1.53.48,3.07.72,4.6.1.71-.09,1.42.01,2.13.02.13-.09.29-.15.43a3.992,3.992,0,0,1-.69.9c-.48.5-.37.94.33,1.09.62.13,1.27.16,1.91.23a11.642,11.642,0,0,1,3.43.79,5.007,5.007,0,0,1,2.63,2.61,12.918,12.918,0,0,1,1.14,5.3,4.521,4.521,0,0,1-.45,1.94c-.13.26-.3.31-.52.11a6.9,6.9,0,0,0-1.32-.88,8.948,8.948,0,0,0-2.82-.72,12.269,12.269,0,0,0-1.92-.22,1.479,1.479,0,0,1-1.04-.46,1.965,1.965,0,0,0-1.62-.41c-1.51.07-3.01.25-4.52.23-.11,0-.24-.04-.33.01-.98.5-2.15.53-3.09,1.17-.71.48-1.52.81-2.21,1.35-.12.09-.24.23-.41.19a1.31,1.31,0,0,0-1.36.27c-.11.11-.3.08-.45.08a7.635,7.635,0,0,0-4.41,1.29c-1.41.92-2.81,1.86-4.16,2.88-.27.21-.46.68-.8.6-.25-.06-.41-.48-.64-.73a9.826,9.826,0,0,1-1.32-1.82,5.4,5.4,0,0,0-1.76-1.7,4.291,4.291,0,0,1-.48-.36,6.864,6.864,0,0,0-3.27-1.8,25.3,25.3,0,0,0-4.57-.81,2.391,2.391,0,0,0-.99.12,5.771,5.771,0,0,1-1.24.23,3.79,3.79,0,0,0-2.2.86c-.05.04-.11.07-.16.11-.82.55-1.12.48-1.67-.37a6.005,6.005,0,0,0-2.5-2.02A12.013,12.013,0,0,0,48,28.278a5.219,5.219,0,0,1-1.34-.56,1.725,1.725,0,0,0-1.42-.11c-.9.33-1.8.64-2.68,1-.58.23-1.19.37-1.77.58-1.93.71-3.77,1.61-5.63,2.45a18.719,18.719,0,0,0-1.82,1.1c-1.61.99-3.12,2.12-4.68,3.18-.61.41-1.25.76-1.84,1.2a7.635,7.635,0,0,0-1.01.86c-.93.98-2,1.84-2.9,2.84a22.97,22.97,0,0,0-2.83,3.61,15.442,15.442,0,0,1-1.28,1.62.7.7,0,0,1-.51.27A20.936,20.936,0,0,1,14.368,46.678Z" fill="#fff"/>
    <path d="M101.468,21.538a13.179,13.179,0,0,0,1.22,1.02,5.491,5.491,0,0,1,1.98,2.54c.33.83.63,1.67.92,2.5.19.55.44,1.07.6,1.63.34,1.16.51,2.31-.46,3.3a2.305,2.305,0,0,0-.41.83c-.07.19-.02.32.16.36.51.12.8.53,1.18.83a6.805,6.805,0,0,1,2.47,3.55,2.831,2.831,0,0,1,.14.76,6.428,6.428,0,0,0,.28,1.9,6.747,6.747,0,0,1,.15,3.62,4.633,4.633,0,0,0-.07.52c-.05.55-.05.56.45.71.43.13.85.25,1.28.38a26.409,26.409,0,0,1,4.5,1.8,20.567,20.567,0,0,0,4.31,2.19.737.737,0,0,1,.33.23,3.14,3.14,0,0,0,.83.66c.23.12.39.31.2.59-.1.14-.06.21.05.33a6.261,6.261,0,0,1,1.75,3,3.711,3.711,0,0,0,.22.55,10.721,10.721,0,0,1,.7,2.49,15.306,15.306,0,0,1-.16,2.04,6.434,6.434,0,0,1-.23,1.37,6.225,6.225,0,0,0-.39,2.34,8.6,8.6,0,0,1-.04,1.13c-.01.26-.08.49-.37.55-.22.05-.26.21-.34.37a5.054,5.054,0,0,0-.32.95,4.957,4.957,0,0,1-.72,1.63c-.21.28-.32.63-.52.92-.26.37-.3.84-.58,1.18a5.623,5.623,0,0,1-1.48,1.67.8.8,0,0,0-.19.18c-.92,1.15-2.05,2.09-3.06,3.16a20.055,20.055,0,0,1-2.23,2.09,7.752,7.752,0,0,1-2.8,1.63,11.793,11.793,0,0,0-2.08.85c-.32.15-.53.25-.39.67a1.39,1.39,0,0,1-.12.84,12.484,12.484,0,0,0-.67,3.31,3.253,3.253,0,0,1-.76,2.01c-.24.29-.44.61-.68.95a5.111,5.111,0,0,0,1.74.26,17.738,17.738,0,0,0,5.11-.78,8.688,8.688,0,0,0,3.57-2.23,1.277,1.277,0,0,0,.38-1.51,3.374,3.374,0,0,1-.17-.85c-.06-.49.02-.6.51-.78.39-.15.81-.21,1.2-.38,1.03-.43,2.04-.88,3.1-1.22a8.278,8.278,0,0,0,2.03-.98c.6-.41,1.21-.82,1.78-1.27.92-.72,2.15-1.01,2.84-2.04a.3.3,0,0,1,.11-.07,7.634,7.634,0,0,0,1.77-1.68,5.446,5.446,0,0,0,.92-1.75,10.818,10.818,0,0,1,.43-1.4,2.36,2.36,0,0,0,.01-1.44,7.368,7.368,0,0,0-1.42-2.46,3.372,3.372,0,0,1-.48-.87c-.13-.41-.35-.85.28-1.08.05-.01.07-.11.12-.15a5.11,5.11,0,0,1,3-1.8,13.733,13.733,0,0,0,2.9-.97,11.685,11.685,0,0,0,3.82-2.25,26.78,26.78,0,0,0,3.12-3.09,8.525,8.525,0,0,0,2.39-5.77,3.741,3.741,0,0,0-1.33-3.2,3.816,3.816,0,0,1-.72-.78,1.676,1.676,0,0,0-.42-.42,10.139,10.139,0,0,0-2.85-1.42,2.165,2.165,0,0,1-1.14-.75.635.635,0,0,1-.07-.85,3.509,3.509,0,0,1,1.57-1.48,17.779,17.779,0,0,0,1.86-.91,20.992,20.992,0,0,1,1.91-.92,10.414,10.414,0,0,0,5.19-4.78c.35-.62.6-1.29.94-1.91a3.871,3.871,0,0,0,.16-3.35,8.087,8.087,0,0,0-2.19-3.14,19.908,19.908,0,0,0-1.62-1.29,8.036,8.036,0,0,0-4.23-1.81c-1.32-.1-2.64-.35-3.97-.34a5.981,5.981,0,0,0-2.1.31.925.925,0,0,1-1.15-.23,2.656,2.656,0,0,0-.4-.34.625.625,0,0,1-.22-.6,8.235,8.235,0,0,1,.35-2.08,6.351,6.351,0,0,0,.26-1.24,1.11,1.11,0,0,0-.17-.95,4.015,4.015,0,0,0-2.48-1.57c-.46-.07-.93-.08-1.39-.15a26.207,26.207,0,0,0-4.85-.25c-1.77.04-3.55.04-5.33.02a9.851,9.851,0,0,0-2.7.34,9.459,9.459,0,0,1-1.49.34,5.8,5.8,0,0,0-1.61.36,5.149,5.149,0,0,1-2.6.37,1.7,1.7,0,0,1-1.27-.61,1.9,1.9,0,0,0-.71-.58,6.274,6.274,0,0,1-1.49-1c-.13-.12-.26-.27-.45-.26-.71.03-1.42-.19-2.13-.09a14.452,14.452,0,0,1-2.46.07,6.176,6.176,0,0,0-2.37.31,15.381,15.381,0,0,0-2.42,1.25,1.644,1.644,0,0,0-.95,1.93,1.774,1.774,0,0,1,.02.33c.03.89.03.89.91,1.11a2.387,2.387,0,0,0,.52.1A2.788,2.788,0,0,1,101.468,21.538ZM39.3,189.788a3.894,3.894,0,0,0,1.59.03,32.916,32.916,0,0,1,4.33-.11c1.31.03,2.62.09,3.93.09.95,0,1.9-.17,2.85-.18,1.67,0,3.33-.01,5-.06,3.26-.09,6.53-.23,9.79-.1a8.032,8.032,0,0,0,1.2-.05c.96-.13,1.93-.27,2.91-.32,1.41-.08,2.84-.08,4.25-.14,1.05-.05,2.09.08,3.13.11,1.47.03,2.93.1,4.4.19a58.627,58.627,0,0,0,7.84.22c1.82-.13,3.64-.17,5.46-.25.11-.01.23-.01.26-.15-.02-.2-.18-.3-.31-.41a6.628,6.628,0,0,1-1.31-1.67c-.28-.51-.61-.98-.91-1.47a16.963,16.963,0,0,1-1.35-2.23,28.638,28.638,0,0,0-2.9-4.77,20.156,20.156,0,0,1-2.4-3.98.928.928,0,0,0-.29-.45,1.475,1.475,0,0,1-.51-.76c-.75-1.8-1.29-3.69-1.93-5.53a9.1,9.1,0,0,1-.64-2.99,6,6,0,0,0-.21-1.64c-.65-2.42-1.3-4.85-1.95-7.27a14.719,14.719,0,0,1-.47-3.02,1.3,1.3,0,0,1,.16-.83,1.1,1.1,0,0,0,.13-.9,7.347,7.347,0,0,1-.18-1.98,9.365,9.365,0,0,0-.07-2.18,13.052,13.052,0,0,1,.08-3.12c.13-1.64.33-3.27.58-4.89a5.27,5.27,0,0,1,.71-2.53.89.89,0,0,0,.08-.33c.2-1.51.18-3.05.36-4.57a13.421,13.421,0,0,1,.27-1.78c.16-.64.33-1.29.54-1.92a17.029,17.029,0,0,0,.98-4.74,13.931,13.931,0,0,1,.6-3.06,6.777,6.777,0,0,0,.33-1.82c-.03-1.04-.05-2.09-.06-3.13-.01-.51-.09-1.03-.05-1.53a16.394,16.394,0,0,0-.12-3.05,7.472,7.472,0,0,1-.25-2.16.518.518,0,0,0-.06-.26c-.35-.91-.61-1.84-.88-2.78a25.2,25.2,0,0,0-1.6-4.01c-.56-1.14-1.25-2.19-1.88-3.28a.479.479,0,0,0-.6-.26,1.62,1.62,0,0,1-1.65-.76,3.52,3.52,0,0,1-.3-.45,1.457,1.457,0,0,0-.9-.8.847.847,0,0,1-.49-.44c-.1-.17-.22-.26-.43-.18a.732.732,0,0,1-.7-.12.768.768,0,0,0-.97.01c-.44.32-.83.1-1.23-.13-.14-.09-.14-.29-.27-.4-.84.84-1.02.86-1.99.22a4.273,4.273,0,0,1-.9,1.13c-.2.15-.41.34-.66.23-.39-.18-.51.05-.65.33-.22.43-.44.87-.7,1.28-.3.48-.69.83-1.32.58a.525.525,0,0,0-.51.08.649.649,0,0,1-.5.13c-.37-.1-.41.11-.43.39a13.645,13.645,0,0,1-.43,2.62,2.322,2.322,0,0,0-.07.52c-.01.44.09.89-.29,1.25-.1.1-.06.34-.08.51a23.665,23.665,0,0,0-.11,2.66c-.03,1.11-.19,2.21-.16,3.32a19.464,19.464,0,0,1-.33,3.58q-.51,3.225-1.13,6.43a14.054,14.054,0,0,0-.22,4.88,1.85,1.85,0,0,1,.01.47,7.942,7.942,0,0,0,.09,2.12,13.512,13.512,0,0,0,.27,1.91,4.067,4.067,0,0,1,.11,1.51,2.88,2.88,0,0,0-.06.59,28.908,28.908,0,0,1-.05,5.58,24.2,24.2,0,0,1-.52,2.8c-.25.85-.53,1.69-.78,2.55-.46,1.62-.97,3.22-1.51,4.82-.3.88-.45,1.81-.78,2.68a29.6,29.6,0,0,0-1.59,4.01c-.26,1.14-.61,2.26-.87,3.4a1.172,1.172,0,0,1-.62.88.742.742,0,0,0-.42.53c-.32.95-.64,1.89-1,2.83a7.217,7.217,0,0,0-.48,1.3,11.978,11.978,0,0,1-1.38,3.67c-1.26,2.32-2.68,4.55-4.11,6.77a6.673,6.673,0,0,0-.85,1.63,6.876,6.876,0,0,1-.49,1.29c-.21.37-.37.76-.55,1.14a29.587,29.587,0,0,1-2.09,3.93c-.78,1.13-1.53,2.29-2.21,3.49a30.751,30.751,0,0,1-2.14,3.28C40.208,188.448,39.778,189.108,39.3,189.788ZM13.238,41.238a.492.492,0,0,1,.22.52.681.681,0,0,0,0,.4c.17.32,0,.52-.16.78a6.221,6.221,0,0,0-1.17,2.65.771.771,0,0,0,.23.7,1.147,1.147,0,0,0,.88.39c.4-.01.8,0,1.13,0a20.936,20.936,0,0,0,3.92-.36.7.7,0,0,0,.51-.27,15.442,15.442,0,0,0,1.28-1.62,22.97,22.97,0,0,1,2.83-3.61c.9-1,1.97-1.86,2.9-2.84a7.635,7.635,0,0,1,1.01-.86c.59-.44,1.23-.79,1.84-1.2,1.56-1.06,3.07-2.19,4.68-3.18a18.719,18.719,0,0,1,1.82-1.1c1.86-.84,3.7-1.74,5.63-2.45.58-.21,1.19-.35,1.77-.58.88-.36,1.78-.67,2.68-1a1.725,1.725,0,0,1,1.42.11,5.219,5.219,0,0,0,1.34.56,12.013,12.013,0,0,1,3.22,1.04,6.005,6.005,0,0,1,2.5,2.02c.55.85.85.92,1.67.37.05-.04.11-.07.16-.11a3.79,3.79,0,0,1,2.2-.86,5.771,5.771,0,0,0,1.24-.23,2.391,2.391,0,0,1,.99-.12,25.3,25.3,0,0,1,4.57.81,6.864,6.864,0,0,1,3.27,1.8,4.291,4.291,0,0,0,.48.36,5.4,5.4,0,0,1,1.76,1.7,9.826,9.826,0,0,0,1.32,1.82c.23.25.39.67.64.73.34.08.53-.39.8-.6,1.35-1.02,2.75-1.96,4.16-2.88a7.635,7.635,0,0,1,4.41-1.29c.15,0,.34.03.45-.08a1.31,1.31,0,0,1,1.36-.27c.17.04.29-.1.41-.19.69-.54,1.5-.87,2.21-1.35.94-.64,2.11-.67,3.09-1.17.09-.05.22-.01.33-.01,1.51.02,3.01-.16,4.52-.23a1.965,1.965,0,0,1,1.62.41,1.479,1.479,0,0,0,1.04.46,12.269,12.269,0,0,1,1.92.22,8.948,8.948,0,0,1,2.82.72,6.9,6.9,0,0,1,1.32.88c.22.2.39.15.52-.11a4.521,4.521,0,0,0,.45-1.94,12.918,12.918,0,0,0-1.14-5.3,5.007,5.007,0,0,0-2.63-2.61,11.642,11.642,0,0,0-3.43-.79c-.64-.07-1.29-.1-1.91-.23-.7-.15-.81-.59-.33-1.09a3.992,3.992,0,0,0,.69-.9c.06-.14.17-.3.15-.43-.1-.71.09-1.42-.01-2.13-.24-1.53-.48-3.07-.72-4.6a1.246,1.246,0,0,0-.13-.45,6.57,6.57,0,0,0-1.87-2.22c-.54-.36-1.1-.68-1.65-1.01a3.691,3.691,0,0,0-1.37-.49,5.266,5.266,0,0,1-.79-.16,26.53,26.53,0,0,0-9.52-.61,1.223,1.223,0,0,0-.79.29.453.453,0,0,1-.71-.04.586.586,0,0,0-.47-.2,1.113,1.113,0,0,1-1.12-.78,1.557,1.557,0,0,0-.88-1.03,2.191,2.191,0,0,1-.99-.76,1.186,1.186,0,0,0-.83-.46c-1.1-.19-2.21-.18-3.32-.26-.64-.05-1.28-.1-1.92-.09-1.35.02-2.63.42-3.96.53a5.121,5.121,0,0,0-1.91.55,2.315,2.315,0,0,1-.37.13,8.374,8.374,0,0,0-2.66.99,1.958,1.958,0,0,1-.49.21,1.659,1.659,0,0,1-2.02-.78,6.059,6.059,0,0,0-2.27-2.28c-.37-.19-.76-.38-.89-.85-.02-.08-.15-.17-.24-.2a7.757,7.757,0,0,0-2.29-.7,9.235,9.235,0,0,0-4.14.38,1.336,1.336,0,0,1-.52.07,16.932,16.932,0,0,1-2.26-.14,12.516,12.516,0,0,0-4.57.81,20.2,20.2,0,0,0-6.61,4.04c-1.03.92-1.88,2.01-2.83,3.01-.47.5-.76,1.15-1.19,1.68A6.9,6.9,0,0,0,27.1,13.8a.764.764,0,0,1-.6.56c-.25.06-.52.11-.78.15a1.644,1.644,0,0,0-.74.29,15.806,15.806,0,0,1-1.41.88,21.568,21.568,0,0,0-1.95,1.05,13.376,13.376,0,0,0-2.87,2.85c-.95,1.4-1.75,2.89-2.61,4.35a2.659,2.659,0,0,0-.26.68,7.11,7.11,0,0,0-.24,2.83,1.3,1.3,0,0,1-.61,1.38c-.8.44-1.47,1.07-2.23,1.58a3.369,3.369,0,0,0-.7.71,21.04,21.04,0,0,0-2.06,3.64,2.481,2.481,0,0,0-.12,1.89,10.889,10.889,0,0,0,1.58,2.61c.28.4.69.74.99,1.16A3.126,3.126,0,0,0,13.238,41.238Zm-8.89,19.87q-.9,2.715-1.67,5.47a23.245,23.245,0,0,0-.81,3.7,5.929,5.929,0,0,0,.31,3.01,3.51,3.51,0,0,0,1.57,1.83c1.08.57,2.15,1.15,3.26,1.67.78.37.84.71.3,1.36a4.164,4.164,0,0,0-1.05,2.25,7.744,7.744,0,0,0-.03,1.8,7.144,7.144,0,0,0,.7,2.81,27.649,27.649,0,0,1,1.33,2.6A5.747,5.747,0,0,0,9.168,89a20.5,20.5,0,0,1,1.33,1.74,2.2,2.2,0,0,0,.94.97c.44.2.42.32.02.77a7.2,7.2,0,0,0,.94.74c1.23.66,2.41,1.42,3.7,1.98a23.807,23.807,0,0,1,2.22,1.07,11.878,11.878,0,0,0,2.61,1.14,11.339,11.339,0,0,1,1.67.49,8.815,8.815,0,0,0,2.24.6c.66.11,1.33.09,1.99.14a34.362,34.362,0,0,0,6.57.37,13.727,13.727,0,0,1,2.39.12,27.179,27.179,0,0,0,3.91-.35c.93-.09,1.81-.45,2.72-.63a41.287,41.287,0,0,0,6.33-2.03c1.29-.48,2.54-1.07,3.84-1.5a26.527,26.527,0,0,0,6.56-3.34c.65-.44,1.11-1.05,1.78-1.5,1.67-1.12,3.25-2.37,4.83-3.62a5.033,5.033,0,0,0,1.87-2.3c.07-.23.19-.4.47-.36a.554.554,0,0,0,.54-.31,3.505,3.505,0,0,1,.4-.53,13.883,13.883,0,0,0,1.93-2.53c.2-.32.39-.38.72-.21a1.429,1.429,0,0,1,.35.3c.41.47.76.98,1.12,1.48a8.466,8.466,0,0,0,1.37,1.62c.64.51,1.07,1.22,1.68,1.77A7.011,7.011,0,0,0,77.5,86.1c.91.5,1.81,1.02,2.71,1.54a16.567,16.567,0,0,0,3.74,1.57.594.594,0,0,0,.45.03.428.428,0,0,1,.6.11c.13.21.47.29.45.52-.04.5.32.51.62.61s.63.22.95.32a10.3,10.3,0,0,0,2.86.57c1.02.02,2.04-.05,3.06-.01a9.963,9.963,0,0,0,3.2-.55,3.446,3.446,0,0,0,1.17-.61c.6-.46,1.18-.95,1.78-1.41a38.4,38.4,0,0,1,3.3-2.48,3.081,3.081,0,0,0,1.32-2.95,6.412,6.412,0,0,1,0-.98c.04-.36.21-.74-.09-1.08-.08-.09-.03-.21.03-.31a1.2,1.2,0,0,0-.02-1.09c-.16-.41-.11-.55.26-.74a53.694,53.694,0,0,0,7.75-4.79,22.262,22.262,0,0,0,3.98-3.33c.27-.32.55-.64.82-.96a3.415,3.415,0,0,0,1.09-1.78.517.517,0,0,1,.19-.26,13.661,13.661,0,0,0,1.64-2.27,3.13,3.13,0,0,0,.38-.99,6.288,6.288,0,0,1,.92-2.61.92.92,0,0,0,.14-.37,5.633,5.633,0,0,0,.42-3.06,6.788,6.788,0,0,0-.04-2.58,6.932,6.932,0,0,0-.84-2.89,6.636,6.636,0,0,0-2.11-2.17,34.838,34.838,0,0,0-5.2-2.65,10.582,10.582,0,0,0-1.61-.64c-1.27-.31-2.55-.56-3.83-.84-.15-.03-.33-.12-.45-.01-.36.34-.7.15-1.04-.02a1.413,1.413,0,0,0-.64-.13c-.49-.01-.98-.02-1.47-.04-1.75-.06-3.51-.1-5.26.01a57.481,57.481,0,0,0-7.38,1.04,35.64,35.64,0,0,0-5.65,1.5,10.438,10.438,0,0,0-4,2.44c-.41.43-.72.41-1.14.01a1.248,1.248,0,0,1-.39-.75c-.07-.51-.22-1-.3-1.5a4.315,4.315,0,0,0-2.24-3.2,8.655,8.655,0,0,0-1.27-.6,1,1,0,0,1-.65-.62c-.07-.23-.28-.49-.13-.69.18-.25.48-.06.74-.01a12.934,12.934,0,0,0,3.38.57.27.27,0,0,1,.19.06c.8.5,1.77.78,2.24,1.71.13.27.31.24.54.11a2.922,2.922,0,0,1,1.58-.44.6.6,0,0,0,.26-.05,21.8,21.8,0,0,1,4.05-1.08c1.76-.38,3.55-.59,5.33-.84,1.05-.14,2.13-.14,3.19-.24a21.538,21.538,0,0,1,6.56.21.539.539,0,0,0,.45-.03,1.1,1.1,0,0,1,1.31.01,4.618,4.618,0,0,0,.62.23c.94.31,1.27.11,1.43-.86a27.172,27.172,0,0,0,.23-2.98,3.886,3.886,0,0,0-.45-1.93,8.947,8.947,0,0,0-2.22-2.78,2.191,2.191,0,0,0-.91-.4c-.19-.06-.34-.04-.42.19-.1.31-.32.33-.58.18a1.58,1.58,0,0,1-.59-.43c-.07-.11-.14-.24-.3-.22-.48.06-.63-.41-.95-.59a.237.237,0,0,1-.03-.36c.12-.17.1-.27-.08-.37a5.584,5.584,0,0,0-3.41-.9,18.709,18.709,0,0,0-2.24.14,1,1,0,0,1-1.37-.74,1.181,1.181,0,0,0-.16-.29.823.823,0,0,0-.81-.34,15.52,15.52,0,0,0-4.09.85,16.959,16.959,0,0,0-2.73,1.52c-.47.94-1.48.92-2.27,1.3-.12.06-.25.1-.37.15-.09.03-.17.06-.25.09a.515.515,0,0,1-.73-.26c-.1-.22-.24-.36-.51-.25a.257.257,0,0,1-.3-.11c-.17-.3-.41-.19-.64-.1-.95.36-1.95.6-2.88,1.04-.43.21-.88.4-1.32.62a11.839,11.839,0,0,0-2.8,1.75,4.421,4.421,0,0,1-1.22.91,1.7,1.7,0,0,0-.8.72c-.2.38-.42.34-.71.26a2.153,2.153,0,0,1-1.13-.79c-.34-.46-.67-.93-1.02-1.39a34.445,34.445,0,0,0-3.54-3.71,7.6,7.6,0,0,0-4.71-1.95,10.89,10.89,0,0,0-6.29,1.38c-.2.11-.4.2-.59.31a.832.832,0,0,1-1.09-.17,3.4,3.4,0,0,1-.32-.34,14.073,14.073,0,0,0-3.78-3.13,3.8,3.8,0,0,0-2.08-.61,18.154,18.154,0,0,0-5.37.9,39.362,39.362,0,0,0-4.32,1.74,45.116,45.116,0,0,0-7.72,4.58,30.981,30.981,0,0,0-3.12,2.7,25.192,25.192,0,0,0-4.37,4.74,10.988,10.988,0,0,0-1.64,3.03.49.49,0,0,1-.52.43c-.52-.04-1.02.34-1.55.05-.11-.06-.3.05-.45.09a20.371,20.371,0,0,0-4.31,1.74,11.528,11.528,0,0,0-2.54,1.59,7.866,7.866,0,0,1-.75.66,30,30,0,0,0-2.74,2.42,9.066,9.066,0,0,0-2.03,3.1A27.25,27.25,0,0,0,4.348,61.108ZM3.078,59.9c.29-.72.54-1.45.87-2.16.52-1.13,1.26-2.14,1.84-3.24a1.119,1.119,0,0,1,.3-.35c.63-.49,1.16-1.1,1.77-1.62.38-.33.67-.76,1.09-1.06a4.6,4.6,0,0,0,1.26-1.07.474.474,0,0,1,.21-.15,3.813,3.813,0,0,0,1.26-.84,9.2,9.2,0,0,1,1.26-.73,2.156,2.156,0,0,0,.22-.16c-.55-.15-1.02-.28-1.48-.42a2.126,2.126,0,0,1-1.58-2.72,7.836,7.836,0,0,1,1.24-3.07c.19-.24.08-.4-.09-.57a21.956,21.956,0,0,0-1.6-1.6,6.751,6.751,0,0,1-1.91-3.59,3.227,3.227,0,0,1,.19-2.22c.21-.47.37-.96.6-1.41a13.863,13.863,0,0,1,4.5-5,1.243,1.243,0,0,0,.61-1.07,12.481,12.481,0,0,1,2.11-6.23,19.225,19.225,0,0,1,4.83-5.1,9.4,9.4,0,0,1,4.5-2.04.6.6,0,0,0,.59-.51,9.166,9.166,0,0,1,1.57-3,24.64,24.64,0,0,1,6.08-5.53c.71-.5,1.43-.98,2.15-1.46a13.542,13.542,0,0,1,3.68-1.54,15.885,15.885,0,0,1,5.39-.72,9.705,9.705,0,0,0,2.94-.34,10.8,10.8,0,0,1,8.31,1.09,5.927,5.927,0,0,1,2.5,2.6c.04.08.08.15.12.24A.375.375,0,0,0,59,4.5a29.526,29.526,0,0,1,3.74-1.4,19.917,19.917,0,0,1,8.29-.95,6.879,6.879,0,0,1,1.99.52c.83.33,1.63.71,2.46,1.03a3.628,3.628,0,0,1,2,1.77.617.617,0,0,0,.81.34,28.263,28.263,0,0,1,5.02-.64,19.188,19.188,0,0,1,3.39.22,23.474,23.474,0,0,1,4.88,1.32,8.366,8.366,0,0,1,4.64,4.09,9.893,9.893,0,0,1,.92,3.73c.04.57.05,1.14.07,1.69a.328.328,0,0,0,.36-.01,20.867,20.867,0,0,1,5.99-1.97,13.262,13.262,0,0,1,7.71.92,4.775,4.775,0,0,1,2.03,1.47c.15.21.32.19.52.13,1.58-.48,3.2-.75,4.81-1.07a39.495,39.495,0,0,1,9-.95,17.212,17.212,0,0,1,6.06,1.12,7.054,7.054,0,0,1,2.72,1.74,2.788,2.788,0,0,1,.66,2.48,4.959,4.959,0,0,1-.44,1.4c-.08.15-.12.32-.2.52a1.32,1.32,0,0,0,.67.07c1.18-.02,2.36-.05,3.54-.05a11.231,11.231,0,0,1,6.85,2.42,15.3,15.3,0,0,1,2.54,2.35,7.745,7.745,0,0,1,1.53,7.96,9.7,9.7,0,0,1-1.35,2.13,17.454,17.454,0,0,1-2.75,3.07,4.578,4.578,0,0,1-1.02.74,13.373,13.373,0,0,0-1.55.91c-1.1.74-2.3,1.35-3.37,2.14-.22.15-.42.32-.63.48a1.338,1.338,0,0,0,.82.6,3.91,3.91,0,0,1,1.46.91c.51.51,1.09.97,1.64,1.45a5.067,5.067,0,0,1,1.6,2.78,6.889,6.889,0,0,1,.23,2.17,9.451,9.451,0,0,1-.4,1.75c-.18.62-.4,1.22-.59,1.84a4.387,4.387,0,0,1-1.2,1.56,32.718,32.718,0,0,1-4.61,4.11,17.288,17.288,0,0,1-4.63,2.6c-.95.35-1.92.67-2.86,1.07-.84.36-.84.36-.33,1.07.55.75,1.17,1.45,1.67,2.24a3.724,3.724,0,0,1,.61,2.92,4.942,4.942,0,0,1-1.29,2.65c-.43.41-.75.93-1.17,1.36a24.432,24.432,0,0,1-6.64,4.96,35.324,35.324,0,0,1-5.95,2.5c-.47.14-.49.16-.36.65a2.932,2.932,0,0,1-1.43,3.27c-.75.41-1.54.68-2.3,1.05a17.732,17.732,0,0,1-2.23.98,3.077,3.077,0,0,1-1.11.21,7.57,7.57,0,0,0-1.65.16,5.918,5.918,0,0,1-2.18,0,1.97,1.97,0,0,0-.8-.03,4.277,4.277,0,0,1-1.71-.07,8.468,8.468,0,0,0-1.59-.02,3.367,3.367,0,0,1-1.3-.19c-.22-.09-.38.03-.54.16-.44.37-.87.76-1.33,1.1-.48.35-1.01.62-1.51.96A11.431,11.431,0,0,1,94,92.838a18.722,18.722,0,0,1-3.59,0c-1.39-.1-2.78-.24-4.18-.34a12.711,12.711,0,0,1-1.73-.32,6.924,6.924,0,0,0,.21,2.2.883.883,0,0,1,.09.59,3.57,3.57,0,0,0,.13,1.89,32.655,32.655,0,0,0,.81,3.35c.39,1.46.57,2.96.88,4.44.41,1.96.61,3.95.86,5.93a26.1,26.1,0,0,1,.1,3.65c-.04,2.94-.3,5.86-.56,8.77-.08.8-.15,1.59-.3,2.38-.02.11-.03.22-.04.33a54.913,54.913,0,0,1-1.93,9.29,18.367,18.367,0,0,0-.63,3.32c-.22,1.9-.22,3.81-.32,5.71a31.256,31.256,0,0,0,.15,6.19c.15,1.11.41,2.22.53,3.34a7.649,7.649,0,0,1,.07,1.06,3.559,3.559,0,0,0,.1,1.13c.41,1.36.49,2.79.83,4.17a17.659,17.659,0,0,1,.49,2.61,5.623,5.623,0,0,0,.23.77q.63,2.445,1.24,4.89a13.667,13.667,0,0,0,.74,2.06c.74,1.69,1.71,3.26,2.54,4.9a21.483,21.483,0,0,0,1.27,2.03c.97,1.48,1.95,2.97,2.82,4.51.64,1.12,1.32,2.21,2.02,3.28a18.984,18.984,0,0,1,1.86,3.75c.13.36.3.49.65.48.43-.01.85-.01,1.27,0,2.62.09,5.24.15,7.86.3,1.26.08,2.52.18,3.78.31,1.35.13,2.68.37,4.03.48a1.034,1.034,0,0,1,1.01.64,1.909,1.909,0,0,1,.11,1.6.652.652,0,0,1-.68.33c-.26-.01-.53-.01-.8-.01-.15,0-.33-.03-.44.08a1.887,1.887,0,0,1-1.37.4c-1.69.12-3.37-.07-5.06-.08-1.44,0-2.89-.04-4.33-.07-1.53-.04-3.07-.12-4.6-.12-1,.01-1.99-.15-2.98-.16-1.54-.02-3.07-.15-4.6-.1-1,.03-1.98-.19-2.99-.12-1.77.12-3.55.17-5.32.22a19.147,19.147,0,0,1-2-.11c-1.12-.08-2.24-.3-3.37-.35-1.65-.07-3.29.01-4.93.03-.78,0-1.53.21-2.31.27-1.04.09-2.08.1-3.12.19-1.64.16-3.28.15-4.93.17-1.61.02-3.22.09-4.83.16a45.568,45.568,0,0,1-7.01-.26,15.439,15.439,0,0,0-3.19-.08,12.154,12.154,0,0,1-2.25-.1,12.084,12.084,0,0,0-2.33-.04,43.709,43.709,0,0,1-4.58.05,14.744,14.744,0,0,0-2.58.25,2.393,2.393,0,0,1-1.04-.15,11.807,11.807,0,0,0-2.59-.01,4.061,4.061,0,0,1-1.39-.13,4.305,4.305,0,0,0-1.18-.12,1.314,1.314,0,0,1-1.2-.91.724.724,0,0,1,.76-1.08,3.676,3.676,0,0,0,1.65-.08.732.732,0,0,1,.33-.01,15.834,15.834,0,0,0,2.18-.07,1.073,1.073,0,0,0,1.07-.65,3.411,3.411,0,0,1,.83-1.19c.22-.19.22-.55.41-.81.94-1.29,1.99-2.5,2.81-3.88,1.16-1.95,2.37-3.86,3.53-5.81,1.06-1.77,2.09-3.56,3.12-5.36,1.74-3.04,3.57-6.04,5.06-9.22.93-1.97,1.69-4.01,2.42-6.06.35-.96.69-1.93,1.05-2.88.31-.83.47-1.71.81-2.54a68.243,68.243,0,0,0,2.17-6.57c.57-1.84.99-3.73,1.45-5.6a62.947,62.947,0,0,0,1.34-6.94,27.661,27.661,0,0,0,.16-7.1,29.032,29.032,0,0,1-.41-3.71,1.209,1.209,0,0,0-.13-.65,1.244,1.244,0,0,1-.05-1.21,4.865,4.865,0,0,0,.24-1.51,30.673,30.673,0,0,1,.65-3.93,41.24,41.24,0,0,0,.83-4.93c.1-.94.27-1.89.42-2.83a17.369,17.369,0,0,0,.19-2.39,9.276,9.276,0,0,1,.08-1.06,20.2,20.2,0,0,0-.01-3.39,4.11,4.11,0,0,0-.08-.86,6.674,6.674,0,0,1-.16-1.78c.02-.47-.01-.95-.53-1.2-.21-.09-.19-.29-.15-.46.28-1.31-.43-2.41-.68-3.63a7.938,7.938,0,0,0-1.41.83c-1.03.48-1.95,1.15-2.99,1.6a10.148,10.148,0,0,0-1.2.57,30.3,30.3,0,0,1-3.01,1.25,36.7,36.7,0,0,0-3.64,1.44,7.441,7.441,0,0,1-1.07.35c-1.27.45-2.55.9-3.85,1.26-1.06.29-2.14.58-3.22.79-.85.16-1.76.14-2.63.3a10.594,10.594,0,0,1-3.18.02,5.89,5.89,0,0,0-2.25.1,1.831,1.831,0,0,1-.66-.01q-3.345-.3-6.7-.62a22.274,22.274,0,0,1-3.32-.7,22.157,22.157,0,0,1-5.77-2.19,28.913,28.913,0,0,1-3.5-2.3c-.96-.75-1.95-1.46-2.89-2.25a17.629,17.629,0,0,1-2.57-2.68,20.767,20.767,0,0,1-2.33-3.56,7.988,7.988,0,0,1-.88-4.51,11.315,11.315,0,0,1,1.25-4.18c.2-.37.18-.41-.21-.59s-.78-.34-1.17-.49a3.749,3.749,0,0,1-2.27-1.93,12.516,12.516,0,0,1-1.04-1.99,6.9,6.9,0,0,1-.15-2.96c.04-.22.05-.44.09-.66a6.5,6.5,0,0,1,.41-1.54,5.393,5.393,0,0,0,.37-1.2,11.1,11.1,0,0,1,.46-1.59,17.876,17.876,0,0,0,1.03-3.36A8.167,8.167,0,0,1,3.078,59.9Z"/>
  </g>
</svg>
